0, 0, Header, 1, 3, 1024
1, 0, Start_track
1, 0, SMPTE_offset, 0, 0, 0, 0, 0
1, 0, Time_signature, 4, 2, 24, 8
1, 0, Key_signature, 0, "major"
1, 0, Tempo, 499999
1, 0, Tempo, 428756
1, 8192, Tempo, 300129
1, 73728, Tempo, 500215
1, 266240, Tempo, 428756
1, 299008, Tempo, 428756
1, 503808, Tempo, 750323
1, 507904, Tempo, 428756
1, 671744, Tempo, 500215
1, 770048, Tempo, 428756
1, 958464, Tempo, 370530
1, 1179648, Tempo, 600258
1, 1396736, Tempo, 400172
1, 1421312, Tempo, 545689
1, 1770326, End_track
2, 0, Start_track
2, 0, Device_name_t, "SmartMusic SoftSynth 1"
2, 0, Title_t, "Acoustic Grand Piano"
2, 0, Program_c, 0, 0
2, 0, Control_c, 0, 7, 101
2, 0, Control_c, 0, 10, 64
2, 0, Control_c, 0, 10, 64
2, 0, Control_c, 0, 7, 127
2, 0, Note_on_c, 0, 76, 110
2, 501, Note_off_c, 0, 76, 0
2, 512, Note_on_c, 0, 76, 110
2, 1013, Note_off_c, 0, 76, 0
2, 1536, Note_on_c, 0, 76, 110
2, 2037, Note_off_c, 0, 76, 0
2, 2560, Note_on_c, 0, 72, 110
2, 3061, Note_off_c, 0, 72, 0
2, 3072, Note_on_c, 0, 76, 110
2, 3925, Note_off_c, 0, 76, 0
2, 4096, Note_on_c, 0, 79, 110
2, 4949, Note_off_c, 0, 79, 0
2, 6144, Note_on_c, 0, 67, 110
2, 6997, Note_off_c, 0, 67, 0
2, 8192, Note_on_c, 0, 67, 110
2, 8693, Note_off_c, 0, 67, 0
2, 8704, Note_on_c, 0, 74, 110
2, 9205, Note_off_c, 0, 74, 0
2, 9216, Note_on_c, 0, 74, 110
2, 9717, Note_off_c, 0, 74, 0
2, 9728, Note_on_c, 0, 69, 110
2, 10229, Note_off_c, 0, 69, 0
2, 10752, Note_on_c, 0, 74, 110
2, 11253, Note_off_c, 0, 74, 0
2, 11264, Note_on_c, 0, 71, 110
2, 13141, Note_off_c, 0, 71, 0
2, 13824, Note_on_c, 0, 74, 110
2, 14325, Note_off_c, 0, 74, 0
2, 14336, Note_on_c, 0, 71, 110
2, 14837, Note_off_c, 0, 71, 0
2, 14848, Note_on_c, 0, 72, 110
2, 15349, Note_off_c, 0, 72, 0
2, 15360, Note_on_c, 0, 74, 110
2, 16213, Note_off_c, 0, 74, 0
2, 16384, Note_on_c, 0, 67, 110
2, 16885, Note_off_c, 0, 67, 0
2, 16896, Note_on_c, 0, 74, 110
2, 17397, Note_off_c, 0, 74, 0
2, 17408, Note_on_c, 0, 74, 110
2, 17909, Note_off_c, 0, 74, 0
2, 17920, Note_on_c, 0, 69, 110
2, 18421, Note_off_c, 0, 69, 0
2, 18944, Note_on_c, 0, 74, 110
2, 19445, Note_off_c, 0, 74, 0
2, 19456, Note_on_c, 0, 71, 110
2, 21333, Note_off_c, 0, 71, 0
2, 24576, Note_on_c, 0, 67, 110
2, 25077, Note_off_c, 0, 67, 0
2, 25088, Note_on_c, 0, 74, 110
2, 25589, Note_off_c, 0, 74, 0
2, 25600, Note_on_c, 0, 74, 110
2, 26101, Note_off_c, 0, 74, 0
2, 26112, Note_on_c, 0, 69, 110
2, 26613, Note_off_c, 0, 69, 0
2, 27136, Note_on_c, 0, 74, 110
2, 27637, Note_off_c, 0, 74, 0
2, 27648, Note_on_c, 0, 71, 110
2, 29525, Note_off_c, 0, 71, 0
2, 30208, Note_on_c, 0, 74, 110
2, 30709, Note_off_c, 0, 74, 0
2, 30720, Note_on_c, 0, 71, 110
2, 31221, Note_off_c, 0, 71, 0
2, 31232, Note_on_c, 0, 72, 110
2, 31733, Note_off_c, 0, 72, 0
2, 31744, Note_on_c, 0, 74, 110
2, 32597, Note_off_c, 0, 74, 0
2, 32768, Note_on_c, 0, 67, 110
2, 33269, Note_off_c, 0, 67, 0
2, 33280, Note_on_c, 0, 74, 110
2, 33781, Note_off_c, 0, 74, 0
2, 33792, Note_on_c, 0, 74, 110
2, 34293, Note_off_c, 0, 74, 0
2, 34304, Note_on_c, 0, 69, 110
2, 34805, Note_off_c, 0, 69, 0
2, 35328, Note_on_c, 0, 74, 110
2, 35829, Note_off_c, 0, 74, 0
2, 35840, Note_on_c, 0, 71, 110
2, 37717, Note_off_c, 0, 71, 0
2, 40960, Note_on_c, 0, 74, 110
2, 41461, Note_off_c, 0, 74, 0
2, 41472, Note_on_c, 0, 72, 110
2, 41973, Note_off_c, 0, 72, 0
2, 41984, Note_on_c, 0, 74, 110
2, 42485, Note_off_c, 0, 74, 0
2, 42496, Note_on_c, 0, 71, 110
2, 42997, Note_off_c, 0, 71, 0
2, 43520, Note_on_c, 0, 74, 110
2, 44021, Note_off_c, 0, 74, 0
2, 44032, Note_on_c, 0, 79, 110
2, 46848, Note_off_c, 0, 79, 0
2, 49152, Note_on_c, 0, 74, 110
2, 49653, Note_off_c, 0, 74, 0
2, 49664, Note_on_c, 0, 72, 110
2, 50165, Note_off_c, 0, 72, 0
2, 50176, Note_on_c, 0, 74, 110
2, 50677, Note_off_c, 0, 74, 0
2, 50688, Note_on_c, 0, 71, 110
2, 51189, Note_off_c, 0, 71, 0
2, 51712, Note_on_c, 0, 74, 110
2, 52213, Note_off_c, 0, 74, 0
2, 52224, Note_on_c, 0, 72, 110
2, 55040, Note_off_c, 0, 72, 0
2, 57344, Note_on_c, 0, 74, 110
2, 57845, Note_off_c, 0, 74, 0
2, 57856, Note_on_c, 0, 72, 110
2, 58357, Note_off_c, 0, 72, 0
2, 58368, Note_on_c, 0, 74, 110
2, 58869, Note_off_c, 0, 74, 0
2, 58880, Note_on_c, 0, 71, 110
2, 59381, Note_off_c, 0, 71, 0
2, 59904, Note_on_c, 0, 74, 110
2, 60405, Note_off_c, 0, 74, 0
2, 60416, Note_on_c, 0, 79, 110
2, 63232, Note_off_c, 0, 79, 0
2, 65536, Note_on_c, 0, 81, 110
2, 66037, Note_off_c, 0, 81, 0
2, 66048, Note_on_c, 0, 79, 110
2, 66549, Note_off_c, 0, 79, 0
2, 66560, Note_on_c, 0, 81, 110
2, 67061, Note_off_c, 0, 81, 0
2, 67072, Note_on_c, 0, 79, 110
2, 67573, Note_off_c, 0, 79, 0
2, 68096, Note_on_c, 0, 83, 110
2, 68597, Note_off_c, 0, 83, 0
2, 68608, Note_on_c, 0, 79, 110
2, 71424, Note_off_c, 0, 79, 0
2, 77824, Note_on_c, 0, 64, 110
2, 78325, Note_off_c, 0, 64, 0
2, 78336, Note_on_c, 0, 64, 110
2, 78837, Note_off_c, 0, 64, 0
2, 80384, Note_on_c, 0, 64, 110
2, 80885, Note_off_c, 0, 64, 0
2, 80896, Note_on_c, 0, 64, 110
2, 81397, Note_off_c, 0, 64, 0
2, 81408, Note_on_c, 0, 64, 110
2, 81653, Note_off_c, 0, 64, 0
2, 81664, Note_on_c, 0, 64, 110
2, 81909, Note_off_c, 0, 64, 0
2, 81920, Note_on_c, 0, 65, 110
2, 82421, Note_off_c, 0, 65, 0
2, 82432, Note_on_c, 0, 65, 110
2, 82933, Note_off_c, 0, 65, 0
2, 84480, Note_on_c, 0, 65, 110
2, 84981, Note_off_c, 0, 65, 0
2, 84992, Note_on_c, 0, 65, 110
2, 85493, Note_off_c, 0, 65, 0
2, 85504, Note_on_c, 0, 65, 110
2, 85749, Note_off_c, 0, 65, 0
2, 85760, Note_on_c, 0, 65, 110
2, 86005, Note_off_c, 0, 65, 0
2, 86016, Note_on_c, 0, 67, 110
2, 86517, Note_off_c, 0, 67, 0
2, 86528, Note_on_c, 0, 67, 110
2, 87029, Note_off_c, 0, 67, 0
2, 88576, Note_on_c, 0, 67, 110
2, 89077, Note_off_c, 0, 67, 0
2, 89088, Note_on_c, 0, 67, 110
2, 89589, Note_off_c, 0, 67, 0
2, 89600, Note_on_c, 0, 67, 110
2, 89845, Note_off_c, 0, 67, 0
2, 89856, Note_on_c, 0, 67, 110
2, 90101, Note_off_c, 0, 67, 0
2, 90112, Note_on_c, 0, 65, 110
2, 90613, Note_off_c, 0, 65, 0
2, 90624, Note_on_c, 0, 65, 110
2, 91125, Note_off_c, 0, 65, 0
2, 92672, Note_on_c, 0, 65, 110
2, 93173, Note_off_c, 0, 65, 0
2, 93184, Note_on_c, 0, 65, 110
2, 93685, Note_off_c, 0, 65, 0
2, 93696, Note_on_c, 0, 65, 110
2, 93941, Note_off_c, 0, 65, 0
2, 93952, Note_on_c, 0, 65, 110
2, 94197, Note_off_c, 0, 65, 0
2, 94208, Note_on_c, 0, 64, 110
2, 95573, Note_off_c, 0, 64, 0
2, 95744, Note_on_c, 0, 64, 110
2, 96757, Note_off_c, 0, 64, 0
2, 96768, Note_on_c, 0, 67, 110
2, 97269, Note_off_c, 0, 67, 0
2, 97280, Note_on_c, 0, 69, 110
2, 97781, Note_off_c, 0, 69, 0
2, 97792, Note_on_c, 0, 67, 110
2, 98293, Note_off_c, 0, 67, 0
2, 98304, Note_on_c, 0, 60, 110
2, 102144, Note_off_c, 0, 60, 0
2, 102400, Note_on_c, 0, 65, 110
2, 103765, Note_off_c, 0, 65, 0
2, 103936, Note_on_c, 0, 65, 110
2, 104949, Note_off_c, 0, 65, 0
2, 104960, Note_on_c, 0, 69, 110
2, 105461, Note_off_c, 0, 69, 0
2, 105472, Note_on_c, 0, 71, 110
2, 105973, Note_off_c, 0, 71, 0
2, 105984, Note_on_c, 0, 69, 110
2, 106485, Note_off_c, 0, 69, 0
2, 106496, Note_on_c, 0, 63, 110
2, 110336, Note_off_c, 0, 63, 0
2, 110592, Note_on_c, 0, 67, 110
2, 111957, Note_off_c, 0, 67, 0
2, 112128, Note_on_c, 0, 67, 110
2, 113141, Note_off_c, 0, 67, 0
2, 113152, Note_on_c, 0, 72, 110
2, 113653, Note_off_c, 0, 72, 0
2, 113664, Note_on_c, 0, 74, 110
2, 114165, Note_off_c, 0, 74, 0
2, 114176, Note_on_c, 0, 72, 110
2, 114677, Note_off_c, 0, 72, 0
2, 114688, Note_on_c, 0, 79, 110
2, 116053, Note_off_c, 0, 79, 0
2, 116224, Note_on_c, 0, 77, 110
2, 117237, Note_off_c, 0, 77, 0
2, 117248, Note_on_c, 0, 72, 110
2, 117749, Note_off_c, 0, 72, 0
2, 117760, Note_on_c, 0, 67, 110
2, 118261, Note_off_c, 0, 67, 0
2, 118272, Note_on_c, 0, 65, 110
2, 118773, Note_off_c, 0, 65, 0
2, 118784, Note_on_c, 0, 76, 110
2, 120149, Note_off_c, 0, 76, 0
2, 120320, Note_on_c, 0, 72, 110
2, 121333, Note_off_c, 0, 72, 0
2, 121344, Note_on_c, 0, 69, 110
2, 121845, Note_off_c, 0, 69, 0
2, 121856, Note_on_c, 0, 65, 110
2, 122357, Note_off_c, 0, 65, 0
2, 122368, Note_on_c, 0, 64, 110
2, 122869, Note_off_c, 0, 64, 0
2, 122880, Note_on_c, 0, 63, 110
2, 125696, Note_off_c, 0, 63, 0
2, 125952, Note_on_c, 0, 61, 110
2, 130816, Note_off_c, 0, 61, 0
2, 138752, Note_on_c, 0, 62, 110
2, 139125, Note_off_c, 0, 62, 0
2, 139264, Note_on_c, 0, 64, 110
2, 139509, Note_off_c, 0, 64, 0
2, 139520, Note_on_c, 0, 63, 110
2, 139765, Note_off_c, 0, 63, 0
2, 139776, Note_on_c, 0, 64, 110
2, 140021, Note_off_c, 0, 64, 0
2, 140032, Note_on_c, 0, 67, 110
2, 140533, Note_off_c, 0, 67, 0
2, 140544, Note_on_c, 0, 69, 110
2, 140789, Note_off_c, 0, 69, 0
2, 140800, Note_on_c, 0, 67, 110
2, 141301, Note_off_c, 0, 67, 0
2, 141312, Note_on_c, 0, 60, 110
2, 142165, Note_off_c, 0, 60, 0
2, 142848, Note_on_c, 0, 55, 110
2, 143093, Note_off_c, 0, 55, 0
2, 143104, Note_on_c, 0, 56, 110
2, 143349, Note_off_c, 0, 56, 0
2, 143360, Note_on_c, 0, 57, 110
2, 143605, Note_off_c, 0, 57, 0
2, 143616, Note_on_c, 0, 56, 110
2, 143861, Note_off_c, 0, 56, 0
2, 143872, Note_on_c, 0, 57, 110
2, 144117, Note_off_c, 0, 57, 0
2, 144128, Note_on_c, 0, 60, 110
2, 144629, Note_off_c, 0, 60, 0
2, 144640, Note_on_c, 0, 62, 110
2, 144885, Note_off_c, 0, 62, 0
2, 144896, Note_on_c, 0, 60, 110
2, 145397, Note_off_c, 0, 60, 0
2, 145408, Note_on_c, 0, 57, 110
2, 146261, Note_off_c, 0, 57, 0
2, 146944, Note_on_c, 0, 57, 110
2, 147445, Note_off_c, 0, 57, 0
2, 147456, Note_on_c, 0, 55, 110
2, 147701, Note_off_c, 0, 55, 0
2, 147712, Note_on_c, 0, 52, 110
2, 147957, Note_off_c, 0, 52, 0
2, 147968, Note_on_c, 0, 53, 110
2, 148213, Note_off_c, 0, 53, 0
2, 148224, Note_on_c, 0, 67, 110
2, 148981, Note_off_c, 0, 67, 0
2, 148992, Note_on_c, 0, 55, 110
2, 149237, Note_off_c, 0, 55, 0
2, 149248, Note_on_c, 0, 52, 110
2, 149493, Note_off_c, 0, 52, 0
2, 149504, Note_on_c, 0, 53, 110
2, 149749, Note_off_c, 0, 53, 0
2, 149760, Note_on_c, 0, 67, 110
2, 150517, Note_off_c, 0, 67, 0
2, 150528, Note_on_c, 0, 55, 110
2, 151158, Note_off_c, 0, 55, 0
2, 151169, Note_on_c, 0, 67, 110
2, 151541, Note_off_c, 0, 67, 0
2, 151552, Note_on_c, 0, 65, 110
2, 152053, Note_off_c, 0, 65, 0
2, 152064, Note_on_c, 0, 67, 110
2, 152565, Note_off_c, 0, 67, 0
2, 152576, Note_on_c, 0, 69, 110
2, 152821, Note_off_c, 0, 69, 0
2, 152832, Note_on_c, 0, 67, 110
2, 153333, Note_off_c, 0, 67, 0
2, 153344, Note_on_c, 0, 62, 110
2, 154453, Note_off_c, 0, 62, 0
2, 155136, Note_on_c, 0, 62, 110
2, 155509, Note_off_c, 0, 62, 0
2, 155648, Note_on_c, 0, 64, 110
2, 155893, Note_off_c, 0, 64, 0
2, 155904, Note_on_c, 0, 63, 110
2, 156149, Note_off_c, 0, 63, 0
2, 156160, Note_on_c, 0, 64, 110
2, 156405, Note_off_c, 0, 64, 0
2, 156416, Note_on_c, 0, 67, 110
2, 156917, Note_off_c, 0, 67, 0
2, 156928, Note_on_c, 0, 69, 110
2, 157173, Note_off_c, 0, 69, 0
2, 157184, Note_on_c, 0, 67, 110
2, 157685, Note_off_c, 0, 67, 0
2, 157696, Note_on_c, 0, 70, 110
2, 158549, Note_off_c, 0, 70, 0
2, 159232, Note_on_c, 0, 68, 110
2, 159733, Note_off_c, 0, 68, 0
2, 159744, Note_on_c, 0, 69, 110
2, 159989, Note_off_c, 0, 69, 0
2, 160000, Note_on_c, 0, 68, 110
2, 160245, Note_off_c, 0, 68, 0
2, 160256, Note_on_c, 0, 69, 110
2, 160501, Note_off_c, 0, 69, 0
2, 160512, Note_on_c, 0, 72, 110
2, 161013, Note_off_c, 0, 72, 0
2, 161024, Note_on_c, 0, 74, 110
2, 161269, Note_off_c, 0, 74, 0
2, 161280, Note_on_c, 0, 72, 110
2, 161781, Note_off_c, 0, 72, 0
2, 161792, Note_on_c, 0, 69, 110
2, 162645, Note_off_c, 0, 69, 0
2, 163328, Note_on_c, 0, 69, 110
2, 163829, Note_off_c, 0, 69, 0
2, 163840, Note_on_c, 0, 67, 110
2, 164085, Note_off_c, 0, 67, 0
2, 164096, Note_on_c, 0, 66, 110
2, 164341, Note_off_c, 0, 66, 0
2, 164352, Note_on_c, 0, 67, 110
2, 164597, Note_off_c, 0, 67, 0
2, 164608, Note_on_c, 0, 55, 110
2, 165365, Note_off_c, 0, 55, 0
2, 165376, Note_on_c, 0, 67, 110
2, 165621, Note_off_c, 0, 67, 0
2, 165632, Note_on_c, 0, 66, 110
2, 165877, Note_off_c, 0, 66, 0
2, 165888, Note_on_c, 0, 67, 110
2, 166133, Note_off_c, 0, 67, 0
2, 166144, Note_on_c, 0, 55, 110
2, 166645, Note_off_c, 0, 55, 0
2, 166656, Note_on_c, 0, 55, 110
2, 166901, Note_off_c, 0, 55, 0
2, 166912, Note_on_c, 0, 62, 110
2, 166912, Note_on_c, 0, 65, 110
2, 167413, Note_off_c, 0, 62, 0
2, 167413, Note_off_c, 0, 65, 0
2, 167424, Note_on_c, 0, 64, 110
2, 167925, Note_off_c, 0, 64, 0
2, 167936, Note_on_c, 0, 52, 110
2, 167936, Note_on_c, 0, 60, 110
2, 170752, Note_off_c, 0, 52, 0
2, 170752, Note_off_c, 0, 60, 0
2, 171520, Note_on_c, 0, 62, 110
2, 171765, Note_off_c, 0, 62, 0
2, 171776, Note_on_c, 0, 63, 110
2, 172021, Note_off_c, 0, 63, 0
2, 172032, Note_on_c, 0, 64, 110
2, 172277, Note_off_c, 0, 64, 0
2, 172288, Note_on_c, 0, 63, 110
2, 172533, Note_off_c, 0, 63, 0
2, 172544, Note_on_c, 0, 64, 110
2, 172789, Note_off_c, 0, 64, 0
2, 172800, Note_on_c, 0, 67, 110
2, 173301, Note_off_c, 0, 67, 0
2, 173312, Note_on_c, 0, 69, 110
2, 173557, Note_off_c, 0, 69, 0
2, 173568, Note_on_c, 0, 67, 110
2, 174069, Note_off_c, 0, 67, 0
2, 174080, Note_on_c, 0, 60, 110
2, 174933, Note_off_c, 0, 60, 0
2, 175616, Note_on_c, 0, 55, 110
2, 175861, Note_off_c, 0, 55, 0
2, 175872, Note_on_c, 0, 56, 110
2, 176117, Note_off_c, 0, 56, 0
2, 176128, Note_on_c, 0, 57, 110
2, 176373, Note_off_c, 0, 57, 0
2, 176384, Note_on_c, 0, 56, 110
2, 176629, Note_off_c, 0, 56, 0
2, 176640, Note_on_c, 0, 57, 110
2, 176885, Note_off_c, 0, 57, 0
2, 176896, Note_on_c, 0, 60, 110
2, 177397, Note_off_c, 0, 60, 0
2, 177408, Note_on_c, 0, 62, 110
2, 177653, Note_off_c, 0, 62, 0
2, 177664, Note_on_c, 0, 60, 110
2, 178165, Note_off_c, 0, 60, 0
2, 178176, Note_on_c, 0, 57, 110
2, 179029, Note_off_c, 0, 57, 0
2, 179712, Note_on_c, 0, 57, 110
2, 180213, Note_off_c, 0, 57, 0
2, 180224, Note_on_c, 0, 55, 110
2, 180469, Note_off_c, 0, 55, 0
2, 180480, Note_on_c, 0, 52, 110
2, 180725, Note_off_c, 0, 52, 0
2, 180736, Note_on_c, 0, 53, 110
2, 180981, Note_off_c, 0, 53, 0
2, 180992, Note_on_c, 0, 67, 110
2, 181877, Note_off_c, 0, 67, 0
2, 181888, Note_on_c, 0, 55, 110
2, 182005, Note_off_c, 0, 55, 0
2, 182016, Note_on_c, 0, 53, 110
2, 182261, Note_off_c, 0, 53, 0
2, 182272, Note_on_c, 0, 52, 110
2, 182517, Note_off_c, 0, 52, 0
2, 182528, Note_on_c, 0, 55, 110
2, 183285, Note_off_c, 0, 55, 0
2, 183296, Note_on_c, 0, 55, 110
2, 183926, Note_off_c, 0, 55, 0
2, 183937, Note_on_c, 0, 67, 110
2, 184309, Note_off_c, 0, 67, 0
2, 184320, Note_on_c, 0, 65, 110
2, 184821, Note_off_c, 0, 65, 0
2, 184832, Note_on_c, 0, 67, 110
2, 185333, Note_off_c, 0, 67, 0
2, 185344, Note_on_c, 0, 69, 110
2, 185589, Note_off_c, 0, 69, 0
2, 185600, Note_on_c, 0, 67, 110
2, 186101, Note_off_c, 0, 67, 0
2, 186112, Note_on_c, 0, 62, 110
2, 187221, Note_off_c, 0, 62, 0
2, 187904, Note_on_c, 0, 62, 110
2, 188277, Note_off_c, 0, 62, 0
2, 188416, Note_on_c, 0, 64, 110
2, 188661, Note_off_c, 0, 64, 0
2, 188672, Note_on_c, 0, 63, 110
2, 188917, Note_off_c, 0, 63, 0
2, 188928, Note_on_c, 0, 64, 110
2, 189173, Note_off_c, 0, 64, 0
2, 189184, Note_on_c, 0, 67, 110
2, 189685, Note_off_c, 0, 67, 0
2, 189696, Note_on_c, 0, 69, 110
2, 189941, Note_off_c, 0, 69, 0
2, 189952, Note_on_c, 0, 67, 110
2, 190453, Note_off_c, 0, 67, 0
2, 190464, Note_on_c, 0, 70, 110
2, 191317, Note_off_c, 0, 70, 0
2, 192000, Note_on_c, 0, 68, 110
2, 192501, Note_off_c, 0, 68, 0
2, 192512, Note_on_c, 0, 69, 110
2, 192757, Note_off_c, 0, 69, 0
2, 192768, Note_on_c, 0, 68, 110
2, 193013, Note_off_c, 0, 68, 0
2, 193024, Note_on_c, 0, 69, 110
2, 193269, Note_off_c, 0, 69, 0
2, 193280, Note_on_c, 0, 72, 110
2, 193525, Note_off_c, 0, 72, 0
2, 193792, Note_on_c, 0, 74, 110
2, 194037, Note_off_c, 0, 74, 0
2, 194048, Note_on_c, 0, 72, 110
2, 194549, Note_off_c, 0, 72, 0
2, 194560, Note_on_c, 0, 69, 110
2, 195413, Note_off_c, 0, 69, 0
2, 196096, Note_on_c, 0, 69, 110
2, 196597, Note_off_c, 0, 69, 0
2, 196608, Note_on_c, 0, 67, 110
2, 196853, Note_off_c, 0, 67, 0
2, 196864, Note_on_c, 0, 66, 110
2, 197109, Note_off_c, 0, 66, 0
2, 197120, Note_on_c, 0, 67, 110
2, 197365, Note_off_c, 0, 67, 0
2, 197376, Note_on_c, 0, 55, 110
2, 198133, Note_off_c, 0, 55, 0
2, 198144, Note_on_c, 0, 67, 110
2, 198389, Note_off_c, 0, 67, 0
2, 198400, Note_on_c, 0, 66, 110
2, 198645, Note_off_c, 0, 66, 0
2, 198656, Note_on_c, 0, 67, 110
2, 198901, Note_off_c, 0, 67, 0
2, 198912, Note_on_c, 0, 55, 110
2, 199413, Note_off_c, 0, 55, 0
2, 199424, Note_on_c, 0, 55, 110
2, 199669, Note_off_c, 0, 55, 0
2, 199680, Note_on_c, 0, 65, 110
2, 200181, Note_off_c, 0, 65, 0
2, 200192, Note_on_c, 0, 64, 110
2, 200693, Note_off_c, 0, 64, 0
2, 200704, Note_on_c, 0, 60, 110
2, 204544, Note_off_c, 0, 60, 0
2, 204800, Note_on_c, 0, 77, 110
2, 204800, Note_on_c, 0, 81, 110
2, 206165, Note_off_c, 0, 77, 0
2, 206165, Note_off_c, 0, 81, 0
2, 206336, Note_on_c, 0, 72, 110
2, 206336, Note_on_c, 0, 77, 110
2, 206837, Note_off_c, 0, 72, 0
2, 206837, Note_off_c, 0, 77, 0
2, 206848, Note_on_c, 0, 76, 110
2, 206848, Note_on_c, 0, 79, 110
2, 208213, Note_off_c, 0, 76, 0
2, 208213, Note_off_c, 0, 79, 0
2, 208384, Note_on_c, 0, 72, 110
2, 208384, Note_on_c, 0, 76, 110
2, 208885, Note_off_c, 0, 72, 0
2, 208885, Note_off_c, 0, 76, 0
2, 208896, Note_on_c, 0, 77, 110
2, 209653, Note_off_c, 0, 77, 0
2, 209664, Note_on_c, 0, 79, 110
2, 209909, Note_off_c, 0, 79, 0
2, 210561, Note_on_c, 0, 76, 110
2, 210773, Note_off_c, 0, 76, 0
2, 210944, Note_on_c, 0, 76, 110
2, 211317, Note_off_c, 0, 76, 0
2, 211328, Note_on_c, 0, 77, 110
2, 211445, Note_off_c, 0, 77, 0
2, 211456, Note_on_c, 0, 79, 110
2, 211701, Note_off_c, 0, 79, 0
2, 211712, Note_on_c, 0, 80, 110
2, 211957, Note_off_c, 0, 80, 0
2, 212992, Note_on_c, 0, 77, 110
2, 212992, Note_on_c, 0, 81, 110
2, 214357, Note_off_c, 0, 77, 0
2, 214357, Note_off_c, 0, 81, 0
2, 214528, Note_on_c, 0, 77, 110
2, 214528, Note_on_c, 0, 80, 110
2, 215029, Note_off_c, 0, 77, 0
2, 215029, Note_off_c, 0, 80, 0
2, 215040, Note_on_c, 0, 76, 110
2, 215040, Note_on_c, 0, 79, 110
2, 216405, Note_off_c, 0, 76, 0
2, 216405, Note_off_c, 0, 79, 0
2, 216576, Note_on_c, 0, 78, 110
2, 217077, Note_off_c, 0, 78, 0
2, 217088, Note_on_c, 0, 77, 110
2, 217845, Note_off_c, 0, 77, 0
2, 217856, Note_on_c, 0, 76, 110
2, 218613, Note_off_c, 0, 76, 0
2, 218624, Note_on_c, 0, 72, 110
2, 219989, Note_off_c, 0, 72, 0
2, 221184, Note_on_c, 0, 77, 110
2, 221184, Note_on_c, 0, 81, 110
2, 221685, Note_off_c, 0, 77, 0
2, 221685, Note_off_c, 0, 81, 0
2, 221696, Note_on_c, 0, 77, 110
2, 221696, Note_on_c, 0, 81, 110
2, 222197, Note_off_c, 0, 77, 0
2, 222197, Note_off_c, 0, 81, 0
2, 222208, Note_on_c, 0, 77, 110
2, 222208, Note_on_c, 0, 80, 110
2, 222709, Note_off_c, 0, 77, 0
2, 222709, Note_off_c, 0, 80, 0
2, 222720, Note_on_c, 0, 77, 110
2, 222720, Note_on_c, 0, 80, 110
2, 223221, Note_off_c, 0, 77, 0
2, 223221, Note_off_c, 0, 80, 0
2, 223232, Note_on_c, 0, 76, 110
2, 223232, Note_on_c, 0, 79, 110
2, 223733, Note_off_c, 0, 76, 0
2, 223733, Note_off_c, 0, 79, 0
2, 223744, Note_on_c, 0, 76, 110
2, 223744, Note_on_c, 0, 79, 110
2, 224245, Note_off_c, 0, 76, 0
2, 224245, Note_off_c, 0, 79, 0
2, 224256, Note_on_c, 0, 75, 110
2, 224256, Note_on_c, 0, 78, 110
2, 224757, Note_off_c, 0, 75, 0
2, 224757, Note_off_c, 0, 78, 0
2, 224768, Note_on_c, 0, 75, 110
2, 224768, Note_on_c, 0, 78, 110
2, 225269, Note_off_c, 0, 75, 0
2, 225269, Note_off_c, 0, 78, 0
2, 225280, Note_on_c, 0, 74, 110
2, 225280, Note_on_c, 0, 77, 110
2, 226037, Note_off_c, 0, 74, 0
2, 226037, Note_off_c, 0, 77, 0
2, 226048, Note_on_c, 0, 76, 110
2, 226048, Note_on_c, 0, 79, 110
2, 226293, Note_off_c, 0, 76, 0
2, 226293, Note_off_c, 0, 79, 0
2, 226816, Note_on_c, 0, 72, 110
2, 226816, Note_on_c, 0, 76, 110
2, 229120, Note_off_c, 0, 72, 0
2, 229120, Note_off_c, 0, 76, 0
2, 229376, Note_on_c, 0, 77, 110
2, 229376, Note_on_c, 0, 81, 110
2, 229877, Note_off_c, 0, 77, 0
2, 229877, Note_off_c, 0, 81, 0
2, 229888, Note_on_c, 0, 77, 110
2, 229888, Note_on_c, 0, 81, 110
2, 230389, Note_off_c, 0, 77, 0
2, 230389, Note_off_c, 0, 81, 0
2, 230400, Note_on_c, 0, 77, 110
2, 230400, Note_on_c, 0, 80, 110
2, 230901, Note_off_c, 0, 77, 0
2, 230901, Note_off_c, 0, 80, 0
2, 230912, Note_on_c, 0, 77, 110
2, 230912, Note_on_c, 0, 80, 110
2, 231413, Note_off_c, 0, 77, 0
2, 231413, Note_off_c, 0, 80, 0
2, 231424, Note_on_c, 0, 76, 110
2, 231424, Note_on_c, 0, 79, 110
2, 231925, Note_off_c, 0, 76, 0
2, 231925, Note_off_c, 0, 79, 0
2, 231936, Note_on_c, 0, 76, 110
2, 231936, Note_on_c, 0, 79, 110
2, 232437, Note_off_c, 0, 76, 0
2, 232437, Note_off_c, 0, 79, 0
2, 232448, Note_on_c, 0, 75, 110
2, 232448, Note_on_c, 0, 78, 110
2, 232949, Note_off_c, 0, 75, 0
2, 232949, Note_off_c, 0, 78, 0
2, 232960, Note_on_c, 0, 75, 110
2, 232960, Note_on_c, 0, 78, 110
2, 233461, Note_off_c, 0, 75, 0
2, 233461, Note_off_c, 0, 78, 0
2, 233472, Note_on_c, 0, 74, 110
2, 233472, Note_on_c, 0, 77, 110
2, 234229, Note_off_c, 0, 74, 0
2, 234229, Note_off_c, 0, 77, 0
2, 234240, Note_on_c, 0, 72, 110
2, 234240, Note_on_c, 0, 76, 110
2, 234485, Note_off_c, 0, 72, 0
2, 234485, Note_off_c, 0, 76, 0
2, 235008, Note_on_c, 0, 67, 110
2, 235008, Note_on_c, 0, 72, 110
2, 237312, Note_off_c, 0, 67, 0
2, 237312, Note_off_c, 0, 72, 0
2, 237568, Note_on_c, 0, 72, 110
2, 237813, Note_off_c, 0, 72, 0
2, 237824, Note_on_c, 0, 64, 110
2, 238325, Note_off_c, 0, 64, 0
2, 238336, Note_on_c, 0, 70, 110
2, 238581, Note_off_c, 0, 70, 0
2, 239616, Note_on_c, 0, 72, 110
2, 239861, Note_off_c, 0, 72, 0
2, 239872, Note_on_c, 0, 64, 110
2, 240373, Note_off_c, 0, 64, 0
2, 240384, Note_on_c, 0, 70, 110
2, 240629, Note_off_c, 0, 70, 0
2, 241664, Note_on_c, 0, 69, 110
2, 241909, Note_off_c, 0, 69, 0
2, 241920, Note_on_c, 0, 60, 110
2, 242421, Note_off_c, 0, 60, 0
2, 242432, Note_on_c, 0, 63, 110
2, 242677, Note_off_c, 0, 63, 0
2, 243712, Note_on_c, 0, 69, 110
2, 243957, Note_off_c, 0, 69, 0
2, 243968, Note_on_c, 0, 60, 110
2, 244469, Note_off_c, 0, 60, 0
2, 244480, Note_on_c, 0, 63, 110
2, 244725, Note_off_c, 0, 63, 0
2, 245760, Note_on_c, 0, 72, 110
2, 246005, Note_off_c, 0, 72, 0
2, 246016, Note_on_c, 0, 64, 110
2, 246517, Note_off_c, 0, 64, 0
2, 246528, Note_on_c, 0, 70, 110
2, 246773, Note_off_c, 0, 70, 0
2, 247808, Note_on_c, 0, 72, 110
2, 248053, Note_off_c, 0, 72, 0
2, 248064, Note_on_c, 0, 64, 110
2, 248565, Note_off_c, 0, 64, 0
2, 248576, Note_on_c, 0, 70, 110
2, 248821, Note_off_c, 0, 70, 0
2, 249856, Note_on_c, 0, 65, 110
2, 249856, Note_on_c, 0, 69, 110
2, 250357, Note_off_c, 0, 65, 0
2, 250357, Note_off_c, 0, 69, 0
2, 250368, Note_on_c, 0, 65, 110
2, 250368, Note_on_c, 0, 69, 110
2, 250869, Note_off_c, 0, 65, 0
2, 250869, Note_off_c, 0, 69, 0
2, 250880, Note_on_c, 0, 65, 110
2, 250880, Note_on_c, 0, 69, 110
2, 251381, Note_off_c, 0, 65, 0
2, 251381, Note_off_c, 0, 69, 0
2, 251392, Note_on_c, 0, 65, 110
2, 251392, Note_on_c, 0, 69, 110
2, 251893, Note_off_c, 0, 65, 0
2, 251893, Note_off_c, 0, 69, 0
2, 251904, Note_on_c, 0, 65, 110
2, 251904, Note_on_c, 0, 68, 110
2, 252757, Note_off_c, 0, 65, 0
2, 252757, Note_off_c, 0, 68, 0
2, 252928, Note_on_c, 0, 67, 110
2, 253045, Note_off_c, 0, 67, 0
2, 253056, Note_on_c, 0, 65, 110
2, 253173, Note_off_c, 0, 65, 0
2, 253184, Note_on_c, 0, 64, 110
2, 253301, Note_off_c, 0, 64, 0
2, 253312, Note_on_c, 0, 62, 110
2, 253429, Note_off_c, 0, 62, 0
2, 253440, Note_on_c, 0, 60, 110
2, 253557, Note_off_c, 0, 60, 0
2, 253568, Note_on_c, 0, 58, 110
2, 253685, Note_off_c, 0, 58, 0
2, 253696, Note_on_c, 0, 55, 110
2, 253941, Note_off_c, 0, 55, 0
2, 253952, Note_on_c, 0, 72, 110
2, 254197, Note_off_c, 0, 72, 0
2, 254208, Note_on_c, 0, 64, 110
2, 254709, Note_off_c, 0, 64, 0
2, 254720, Note_on_c, 0, 70, 110
2, 254965, Note_off_c, 0, 70, 0
2, 256000, Note_on_c, 0, 72, 110
2, 256245, Note_off_c, 0, 72, 0
2, 256256, Note_on_c, 0, 64, 110
2, 256757, Note_off_c, 0, 64, 0
2, 256768, Note_on_c, 0, 70, 110
2, 257013, Note_off_c, 0, 70, 0
2, 258048, Note_on_c, 0, 69, 110
2, 258293, Note_off_c, 0, 69, 0
2, 258304, Note_on_c, 0, 60, 110
2, 258805, Note_off_c, 0, 60, 0
2, 258816, Note_on_c, 0, 63, 110
2, 259061, Note_off_c, 0, 63, 0
2, 260096, Note_on_c, 0, 69, 110
2, 260341, Note_off_c, 0, 69, 0
2, 260352, Note_on_c, 0, 60, 110
2, 260853, Note_off_c, 0, 60, 0
2, 260864, Note_on_c, 0, 63, 110
2, 261109, Note_off_c, 0, 63, 0
2, 262144, Note_on_c, 0, 72, 110
2, 262389, Note_off_c, 0, 72, 0
2, 262400, Note_on_c, 0, 64, 110
2, 262901, Note_off_c, 0, 64, 0
2, 262912, Note_on_c, 0, 70, 110
2, 263157, Note_off_c, 0, 70, 0
2, 264192, Note_on_c, 0, 72, 110
2, 264437, Note_off_c, 0, 72, 0
2, 264448, Note_on_c, 0, 64, 110
2, 264949, Note_off_c, 0, 64, 0
2, 264960, Note_on_c, 0, 70, 110
2, 265205, Note_off_c, 0, 70, 0
2, 266240, Note_on_c, 0, 72, 110
2, 266240, Note_on_c, 0, 76, 110
2, 266240, Note_on_c, 0, 79, 110
2, 267093, Note_off_c, 0, 72, 0
2, 267093, Note_off_c, 0, 76, 0
2, 267093, Note_off_c, 0, 79, 0
2, 267776, Note_on_c, 0, 72, 110
2, 267776, Note_on_c, 0, 77, 110
2, 267776, Note_on_c, 0, 81, 110
2, 268277, Note_off_c, 0, 72, 0
2, 268277, Note_off_c, 0, 77, 0
2, 268277, Note_off_c, 0, 81, 0
2, 268800, Note_on_c, 0, 72, 110
2, 268800, Note_on_c, 0, 76, 110
2, 268800, Note_on_c, 0, 79, 110
2, 269301, Note_off_c, 0, 72, 0
2, 269301, Note_off_c, 0, 76, 0
2, 269301, Note_off_c, 0, 79, 0
2, 269824, Note_on_c, 0, 72, 110
2, 269824, Note_on_c, 0, 75, 110
2, 269824, Note_on_c, 0, 78, 110
2, 270325, Note_off_c, 0, 72, 0
2, 270325, Note_off_c, 0, 75, 0
2, 270325, Note_off_c, 0, 78, 0
2, 270336, Note_on_c, 0, 72, 110
2, 270336, Note_on_c, 0, 76, 110
2, 270336, Note_on_c, 0, 79, 110
2, 270837, Note_off_c, 0, 72, 0
2, 270837, Note_off_c, 0, 76, 0
2, 270837, Note_off_c, 0, 79, 0
2, 270848, Note_on_c, 0, 76, 110
2, 270848, Note_on_c, 0, 79, 110
2, 270848, Note_on_c, 0, 84, 110
2, 271349, Note_off_c, 0, 76, 0
2, 271349, Note_off_c, 0, 79, 0
2, 271349, Note_off_c, 0, 84, 0
2, 271360, Note_on_c, 0, 79, 110
2, 271360, Note_on_c, 0, 84, 110
2, 271360, Note_on_c, 0, 88, 110
2, 272213, Note_off_c, 0, 79, 0
2, 272213, Note_off_c, 0, 84, 0
2, 272213, Note_off_c, 0, 88, 0
2, 273408, Note_on_c, 0, 67, 110
2, 273909, Note_off_c, 0, 67, 0
2, 273920, Note_on_c, 0, 72, 110
2, 274421, Note_off_c, 0, 72, 0
2, 274432, Note_on_c, 0, 71, 110
2, 274432, Note_on_c, 0, 74, 110
2, 274432, Note_on_c, 0, 77, 110
2, 275285, Note_off_c, 0, 71, 0
2, 275285, Note_off_c, 0, 74, 0
2, 275285, Note_off_c, 0, 77, 0
2, 275968, Note_on_c, 0, 71, 110
2, 275968, Note_on_c, 0, 76, 110
2, 275968, Note_on_c, 0, 79, 110
2, 276469, Note_off_c, 0, 71, 0
2, 276469, Note_off_c, 0, 76, 0
2, 276469, Note_off_c, 0, 79, 0
2, 276992, Note_on_c, 0, 71, 110
2, 276992, Note_on_c, 0, 74, 110
2, 276992, Note_on_c, 0, 77, 110
2, 277493, Note_off_c, 0, 71, 0
2, 277493, Note_off_c, 0, 74, 0
2, 277493, Note_off_c, 0, 77, 0
2, 278016, Note_on_c, 0, 70, 110
2, 278016, Note_on_c, 0, 73, 110
2, 278016, Note_on_c, 0, 76, 110
2, 278517, Note_off_c, 0, 70, 0
2, 278517, Note_off_c, 0, 73, 0
2, 278517, Note_off_c, 0, 76, 0
2, 278528, Note_on_c, 0, 71, 110
2, 278528, Note_on_c, 0, 74, 110
2, 278528, Note_on_c, 0, 77, 110
2, 279029, Note_off_c, 0, 71, 0
2, 279029, Note_off_c, 0, 74, 0
2, 279029, Note_off_c, 0, 77, 0
2, 279040, Note_on_c, 0, 74, 110
2, 279040, Note_on_c, 0, 79, 110
2, 279040, Note_on_c, 0, 83, 110
2, 279541, Note_off_c, 0, 74, 0
2, 279541, Note_off_c, 0, 79, 0
2, 279541, Note_off_c, 0, 83, 0
2, 279552, Note_on_c, 0, 79, 110
2, 279552, Note_on_c, 0, 83, 110
2, 279552, Note_on_c, 0, 86, 110
2, 280405, Note_off_c, 0, 79, 0
2, 280405, Note_off_c, 0, 83, 0
2, 280405, Note_off_c, 0, 86, 0
2, 281600, Note_on_c, 0, 67, 110
2, 282101, Note_off_c, 0, 67, 0
2, 282112, Note_on_c, 0, 71, 110
2, 282613, Note_off_c, 0, 71, 0
2, 282624, Note_on_c, 0, 69, 110
2, 282624, Note_on_c, 0, 72, 110
2, 282624, Note_on_c, 0, 76, 110
2, 283477, Note_off_c, 0, 69, 0
2, 283477, Note_off_c, 0, 72, 0
2, 283477, Note_off_c, 0, 76, 0
2, 284160, Note_on_c, 0, 69, 110
2, 284160, Note_on_c, 0, 74, 110
2, 284160, Note_on_c, 0, 77, 110
2, 284661, Note_off_c, 0, 69, 0
2, 284661, Note_off_c, 0, 74, 0
2, 284661, Note_off_c, 0, 77, 0
2, 285184, Note_on_c, 0, 69, 110
2, 285184, Note_on_c, 0, 72, 110
2, 285184, Note_on_c, 0, 76, 110
2, 285685, Note_off_c, 0, 69, 0
2, 285685, Note_off_c, 0, 72, 0
2, 285685, Note_off_c, 0, 76, 0
2, 286208, Note_on_c, 0, 68, 110
2, 286208, Note_on_c, 0, 71, 110
2, 286208, Note_on_c, 0, 75, 110
2, 286709, Note_off_c, 0, 68, 0
2, 286709, Note_off_c, 0, 71, 0
2, 286709, Note_off_c, 0, 75, 0
2, 286720, Note_on_c, 0, 69, 110
2, 286720, Note_on_c, 0, 72, 110
2, 286720, Note_on_c, 0, 76, 110
2, 287221, Note_off_c, 0, 69, 0
2, 287221, Note_off_c, 0, 72, 0
2, 287221, Note_off_c, 0, 76, 0
2, 287232, Note_on_c, 0, 72, 110
2, 287232, Note_on_c, 0, 76, 110
2, 287232, Note_on_c, 0, 81, 110
2, 287733, Note_off_c, 0, 72, 0
2, 287733, Note_off_c, 0, 76, 0
2, 287733, Note_off_c, 0, 81, 0
2, 287744, Note_on_c, 0, 76, 110
2, 287744, Note_on_c, 0, 81, 110
2, 287744, Note_on_c, 0, 84, 110
2, 288597, Note_off_c, 0, 76, 0
2, 288597, Note_off_c, 0, 81, 0
2, 288597, Note_off_c, 0, 84, 0
2, 289280, Note_on_c, 0, 72, 110
2, 289280, Note_on_c, 0, 76, 110
2, 289280, Note_on_c, 0, 81, 110
2, 289781, Note_off_c, 0, 72, 0
2, 289781, Note_off_c, 0, 76, 0
2, 289781, Note_off_c, 0, 81, 0
2, 289792, Note_on_c, 0, 74, 110
2, 289792, Note_on_c, 0, 78, 110
2, 289792, Note_on_c, 0, 83, 110
2, 290293, Note_off_c, 0, 74, 0
2, 290293, Note_off_c, 0, 78, 0
2, 290293, Note_off_c, 0, 83, 0
2, 290304, Note_on_c, 0, 69, 110
2, 290304, Note_on_c, 0, 76, 110
2, 290304, Note_on_c, 0, 81, 110
2, 290304, Note_on_c, 0, 84, 110
2, 290805, Note_off_c, 0, 69, 0
2, 290805, Note_off_c, 0, 76, 0
2, 290805, Note_off_c, 0, 81, 0
2, 290805, Note_off_c, 0, 84, 0
2, 290816, Note_on_c, 0, 78, 110
2, 290816, Note_on_c, 0, 83, 110
2, 290816, Note_on_c, 0, 86, 110
2, 291317, Note_off_c, 0, 78, 0
2, 291317, Note_off_c, 0, 83, 0
2, 291317, Note_off_c, 0, 86, 0
2, 291328, Note_on_c, 0, 78, 110
2, 291328, Note_on_c, 0, 81, 110
2, 291328, Note_on_c, 0, 84, 110
2, 291829, Note_off_c, 0, 78, 0
2, 291829, Note_off_c, 0, 81, 0
2, 291829, Note_off_c, 0, 84, 0
2, 291840, Note_on_c, 0, 78, 110
2, 291840, Note_on_c, 0, 83, 110
2, 291840, Note_on_c, 0, 86, 110
2, 292341, Note_off_c, 0, 78, 0
2, 292341, Note_off_c, 0, 83, 0
2, 292341, Note_off_c, 0, 86, 0
2, 292352, Note_on_c, 0, 78, 110
2, 292352, Note_on_c, 0, 81, 110
2, 292352, Note_on_c, 0, 84, 110
2, 293365, Note_off_c, 0, 78, 0
2, 293365, Note_off_c, 0, 81, 0
2, 293365, Note_off_c, 0, 84, 0
2, 293376, Note_on_c, 0, 74, 110
2, 293376, Note_on_c, 0, 78, 110
2, 293376, Note_on_c, 0, 81, 110
2, 293877, Note_off_c, 0, 74, 0
2, 293877, Note_off_c, 0, 78, 0
2, 293877, Note_off_c, 0, 81, 0
2, 293888, Note_on_c, 0, 72, 110
2, 293888, Note_on_c, 0, 74, 110
2, 293888, Note_on_c, 0, 78, 110
2, 294389, Note_off_c, 0, 72, 0
2, 294389, Note_off_c, 0, 74, 0
2, 294389, Note_off_c, 0, 78, 0
2, 294400, Note_on_c, 0, 69, 110
2, 294400, Note_on_c, 0, 72, 110
2, 294400, Note_on_c, 0, 74, 110
2, 294901, Note_off_c, 0, 69, 0
2, 294901, Note_off_c, 0, 72, 0
2, 294901, Note_off_c, 0, 74, 0
2, 294912, Note_on_c, 0, 69, 110
2, 294912, Note_on_c, 0, 72, 110
2, 295413, Note_off_c, 0, 69, 0
2, 295413, Note_off_c, 0, 72, 0
2, 295424, Note_on_c, 0, 69, 110
2, 295925, Note_off_c, 0, 69, 0
2, 300544, Note_on_c, 0, 57, 110
2, 301045, Note_off_c, 0, 57, 0
2, 301568, Note_on_c, 0, 59, 110
2, 302069, Note_off_c, 0, 59, 0
2, 302592, Note_on_c, 0, 62, 110
2, 303093, Note_off_c, 0, 62, 0
2, 303104, Note_on_c, 0, 67, 110
2, 303957, Note_off_c, 0, 67, 0
2, 304640, Note_on_c, 0, 74, 110
2, 304640, Note_on_c, 0, 79, 110
2, 305141, Note_off_c, 0, 74, 0
2, 305141, Note_off_c, 0, 79, 0
2, 308736, Note_on_c, 0, 57, 110
2, 309237, Note_off_c, 0, 57, 0
2, 309760, Note_on_c, 0, 59, 110
2, 310261, Note_off_c, 0, 59, 0
2, 310784, Note_on_c, 0, 62, 110
2, 311285, Note_off_c, 0, 62, 0
2, 311296, Note_on_c, 0, 67, 110
2, 312149, Note_off_c, 0, 67, 0
2, 312832, Note_on_c, 0, 74, 110
2, 312832, Note_on_c, 0, 79, 110
2, 313333, Note_off_c, 0, 74, 0
2, 313333, Note_off_c, 0, 79, 0
2, 316928, Note_on_c, 0, 57, 110
2, 317429, Note_off_c, 0, 57, 0
2, 317952, Note_on_c, 0, 59, 110
2, 318453, Note_off_c, 0, 59, 0
2, 318976, Note_on_c, 0, 62, 110
2, 319477, Note_off_c, 0, 62, 0
2, 319488, Note_on_c, 0, 67, 110
2, 320341, Note_off_c, 0, 67, 0
2, 321024, Note_on_c, 0, 74, 110
2, 321024, Note_on_c, 0, 79, 110
2, 321525, Note_off_c, 0, 74, 0
2, 321525, Note_off_c, 0, 79, 0
2, 325120, Note_on_c, 0, 57, 110
2, 325621, Note_off_c, 0, 57, 0
2, 326144, Note_on_c, 0, 59, 110
2, 326645, Note_off_c, 0, 59, 0
2, 327168, Note_on_c, 0, 62, 110
2, 327669, Note_off_c, 0, 62, 0
2, 327680, Note_on_c, 0, 67, 110
2, 328533, Note_off_c, 0, 67, 0
2, 329216, Note_on_c, 0, 74, 110
2, 329216, Note_on_c, 0, 79, 110
2, 329717, Note_off_c, 0, 74, 0
2, 329717, Note_off_c, 0, 79, 0
2, 333312, Note_on_c, 0, 57, 110
2, 333813, Note_off_c, 0, 57, 0
2, 334336, Note_on_c, 0, 58, 110
2, 334837, Note_off_c, 0, 58, 0
2, 335360, Note_on_c, 0, 62, 110
2, 335861, Note_off_c, 0, 62, 0
2, 335872, Note_on_c, 0, 67, 110
2, 336725, Note_off_c, 0, 67, 0
2, 337408, Note_on_c, 0, 74, 110
2, 337408, Note_on_c, 0, 79, 110
2, 337909, Note_off_c, 0, 74, 0
2, 337909, Note_off_c, 0, 79, 0
2, 341504, Note_on_c, 0, 57, 110
2, 342005, Note_off_c, 0, 57, 0
2, 342528, Note_on_c, 0, 58, 110
2, 343029, Note_off_c, 0, 58, 0
2, 343552, Note_on_c, 0, 62, 110
2, 344053, Note_off_c, 0, 62, 0
2, 344064, Note_on_c, 0, 67, 110
2, 344917, Note_off_c, 0, 67, 0
2, 345600, Note_on_c, 0, 74, 110
2, 345600, Note_on_c, 0, 79, 110
2, 346101, Note_off_c, 0, 74, 0
2, 346101, Note_off_c, 0, 79, 0
2, 348672, Note_on_c, 0, 62, 110
2, 349173, Note_off_c, 0, 62, 0
2, 349184, Note_on_c, 0, 67, 110
2, 349685, Note_off_c, 0, 67, 0
2, 349696, Note_on_c, 0, 69, 110
2, 350197, Note_off_c, 0, 69, 0
2, 350208, Note_on_c, 0, 71, 110
2, 350709, Note_off_c, 0, 71, 0
2, 350720, Note_on_c, 0, 72, 110
2, 351221, Note_off_c, 0, 72, 0
2, 351232, Note_on_c, 0, 71, 110
2, 351733, Note_off_c, 0, 71, 0
2, 351744, Note_on_c, 0, 69, 110
2, 352245, Note_off_c, 0, 69, 0
2, 352256, Note_on_c, 0, 67, 110
2, 353109, Note_off_c, 0, 67, 0
2, 353280, Note_on_c, 0, 62, 110
2, 354133, Note_off_c, 0, 62, 0
2, 354304, Note_on_c, 0, 60, 110
2, 355157, Note_off_c, 0, 60, 0
2, 355328, Note_on_c, 0, 67, 110
2, 356181, Note_off_c, 0, 67, 0
2, 356352, Note_on_c, 0, 62, 110
2, 357205, Note_off_c, 0, 62, 0
2, 357888, Note_on_c, 0, 55, 110
2, 358389, Note_off_c, 0, 55, 0
2, 359936, Note_on_c, 0, 55, 110
2, 360437, Note_off_c, 0, 55, 0
2, 363008, Note_on_c, 0, 60, 110
2, 363509, Note_off_c, 0, 60, 0
2, 364032, Note_on_c, 0, 60, 110
2, 364533, Note_off_c, 0, 60, 0
2, 364544, Note_on_c, 0, 59, 110
2, 365045, Note_off_c, 0, 59, 0
2, 365056, Note_on_c, 0, 62, 110
2, 365557, Note_off_c, 0, 62, 0
2, 365568, Note_on_c, 0, 67, 110
2, 366421, Note_off_c, 0, 67, 0
2, 367104, Note_on_c, 0, 57, 110
2, 367605, Note_off_c, 0, 57, 0
2, 368128, Note_on_c, 0, 59, 110
2, 368629, Note_off_c, 0, 59, 0
2, 370176, Note_on_c, 0, 62, 110
2, 370677, Note_off_c, 0, 62, 0
2, 371200, Note_on_c, 0, 67, 110
2, 371701, Note_off_c, 0, 67, 0
2, 373248, Note_on_c, 0, 62, 110
2, 373749, Note_off_c, 0, 62, 0
2, 373760, Note_on_c, 0, 67, 110
2, 374261, Note_off_c, 0, 67, 0
2, 374272, Note_on_c, 0, 69, 110
2, 374773, Note_off_c, 0, 69, 0
2, 374784, Note_on_c, 0, 71, 110
2, 375285, Note_off_c, 0, 71, 0
2, 375296, Note_on_c, 0, 72, 110
2, 375797, Note_off_c, 0, 72, 0
2, 375808, Note_on_c, 0, 71, 110
2, 376309, Note_off_c, 0, 71, 0
2, 376320, Note_on_c, 0, 69, 110
2, 376821, Note_off_c, 0, 69, 0
2, 376832, Note_on_c, 0, 67, 110
2, 377685, Note_off_c, 0, 67, 0
2, 377856, Note_on_c, 0, 62, 110
2, 378709, Note_off_c, 0, 62, 0
2, 378880, Note_on_c, 0, 60, 110
2, 379733, Note_off_c, 0, 60, 0
2, 379904, Note_on_c, 0, 67, 110
2, 380757, Note_off_c, 0, 67, 0
2, 380928, Note_on_c, 0, 62, 110
2, 381781, Note_off_c, 0, 62, 0
2, 382464, Note_on_c, 0, 55, 110
2, 382965, Note_off_c, 0, 55, 0
2, 383488, Note_on_c, 0, 55, 110
2, 383989, Note_off_c, 0, 55, 0
2, 384512, Note_on_c, 0, 55, 110
2, 385013, Note_off_c, 0, 55, 0
2, 386560, Note_on_c, 0, 60, 110
2, 387061, Note_off_c, 0, 60, 0
2, 387584, Note_on_c, 0, 60, 110
2, 388085, Note_off_c, 0, 60, 0
2, 388608, Note_on_c, 0, 60, 110
2, 389109, Note_off_c, 0, 60, 0
2, 389120, Note_on_c, 0, 59, 110
2, 389621, Note_off_c, 0, 59, 0
2, 389632, Note_on_c, 0, 62, 110
2, 390133, Note_off_c, 0, 62, 0
2, 390144, Note_on_c, 0, 67, 110
2, 390997, Note_off_c, 0, 67, 0
2, 391680, Note_on_c, 0, 57, 110
2, 392181, Note_off_c, 0, 57, 0
2, 392704, Note_on_c, 0, 59, 110
2, 393205, Note_off_c, 0, 59, 0
2, 394752, Note_on_c, 0, 59, 110
2, 395253, Note_off_c, 0, 59, 0
2, 398848, Note_on_c, 0, 67, 110
2, 399349, Note_off_c, 0, 67, 0
2, 399360, Note_on_c, 0, 76, 110
2, 399861, Note_off_c, 0, 76, 0
2, 399872, Note_on_c, 0, 74, 110
2, 400373, Note_off_c, 0, 74, 0
2, 400384, Note_on_c, 0, 72, 110
2, 400885, Note_off_c, 0, 72, 0
2, 400896, Note_on_c, 0, 76, 110
2, 401397, Note_off_c, 0, 76, 0
2, 401408, Note_on_c, 0, 74, 110
2, 402261, Note_off_c, 0, 74, 0
2, 402944, Note_on_c, 0, 67, 110
2, 403445, Note_off_c, 0, 67, 0
2, 407040, Note_on_c, 0, 64, 110
2, 407541, Note_off_c, 0, 64, 0
2, 407552, Note_on_c, 0, 74, 110
2, 408053, Note_off_c, 0, 74, 0
2, 408064, Note_on_c, 0, 72, 110
2, 408565, Note_off_c, 0, 72, 0
2, 408576, Note_on_c, 0, 71, 110
2, 409077, Note_off_c, 0, 71, 0
2, 409088, Note_on_c, 0, 72, 110
2, 409589, Note_off_c, 0, 72, 0
2, 409600, Note_on_c, 0, 71, 110
2, 410453, Note_off_c, 0, 71, 0
2, 411136, Note_on_c, 0, 67, 110
2, 411637, Note_off_c, 0, 67, 0
2, 415232, Note_on_c, 0, 67, 110
2, 415733, Note_off_c, 0, 67, 0
2, 415744, Note_on_c, 0, 76, 110
2, 416245, Note_off_c, 0, 76, 0
2, 416256, Note_on_c, 0, 74, 110
2, 416757, Note_off_c, 0, 74, 0
2, 416768, Note_on_c, 0, 72, 110
2, 417269, Note_off_c, 0, 72, 0
2, 417280, Note_on_c, 0, 76, 110
2, 417781, Note_off_c, 0, 76, 0
2, 417792, Note_on_c, 0, 74, 110
2, 418645, Note_off_c, 0, 74, 0
2, 419328, Note_on_c, 0, 67, 110
2, 419829, Note_off_c, 0, 67, 0
2, 423936, Note_on_c, 0, 72, 110
2, 424437, Note_off_c, 0, 72, 0
2, 424448, Note_on_c, 0, 74, 110
2, 424949, Note_off_c, 0, 74, 0
2, 424960, Note_on_c, 0, 72, 110
2, 425461, Note_off_c, 0, 72, 0
2, 425472, Note_on_c, 0, 71, 110
2, 425973, Note_off_c, 0, 71, 0
2, 427008, Note_on_c, 0, 67, 110
2, 427861, Note_off_c, 0, 67, 0
2, 428032, Note_on_c, 0, 64, 110
2, 428885, Note_off_c, 0, 64, 0
2, 430592, Note_on_c, 0, 62, 110
2, 431093, Note_off_c, 0, 62, 0
2, 431104, Note_on_c, 0, 67, 110
2, 431605, Note_off_c, 0, 67, 0
2, 431616, Note_on_c, 0, 69, 110
2, 432117, Note_off_c, 0, 69, 0
2, 432128, Note_on_c, 0, 71, 110
2, 432629, Note_off_c, 0, 71, 0
2, 432640, Note_on_c, 0, 72, 110
2, 433141, Note_off_c, 0, 72, 0
2, 433152, Note_on_c, 0, 71, 110
2, 433653, Note_off_c, 0, 71, 0
2, 433664, Note_on_c, 0, 69, 110
2, 434165, Note_off_c, 0, 69, 0
2, 434176, Note_on_c, 0, 67, 110
2, 435029, Note_off_c, 0, 67, 0
2, 435200, Note_on_c, 0, 62, 110
2, 436053, Note_off_c, 0, 62, 0
2, 436224, Note_on_c, 0, 60, 110
2, 437077, Note_off_c, 0, 60, 0
2, 437248, Note_on_c, 0, 67, 110
2, 438101, Note_off_c, 0, 67, 0
2, 438272, Note_on_c, 0, 62, 110
2, 439125, Note_off_c, 0, 62, 0
2, 439808, Note_on_c, 0, 55, 110
2, 440309, Note_off_c, 0, 55, 0
2, 441856, Note_on_c, 0, 55, 110
2, 442357, Note_off_c, 0, 55, 0
2, 445952, Note_on_c, 0, 60, 110
2, 446453, Note_off_c, 0, 60, 0
2, 446464, Note_on_c, 0, 59, 110
2, 446965, Note_off_c, 0, 59, 0
2, 446976, Note_on_c, 0, 62, 110
2, 447477, Note_off_c, 0, 62, 0
2, 447488, Note_on_c, 0, 67, 110
2, 448341, Note_off_c, 0, 67, 0
2, 449024, Note_on_c, 0, 57, 110
2, 449525, Note_off_c, 0, 57, 0
2, 450048, Note_on_c, 0, 59, 110
2, 450549, Note_off_c, 0, 59, 0
2, 452096, Note_on_c, 0, 62, 110
2, 452597, Note_off_c, 0, 62, 0
2, 455168, Note_on_c, 0, 62, 110
2, 455669, Note_off_c, 0, 62, 0
2, 455680, Note_on_c, 0, 67, 110
2, 456181, Note_off_c, 0, 67, 0
2, 456192, Note_on_c, 0, 69, 110
2, 456693, Note_off_c, 0, 69, 0
2, 456704, Note_on_c, 0, 71, 110
2, 457205, Note_off_c, 0, 71, 0
2, 457216, Note_on_c, 0, 72, 110
2, 457717, Note_off_c, 0, 72, 0
2, 457728, Note_on_c, 0, 71, 110
2, 458229, Note_off_c, 0, 71, 0
2, 458240, Note_on_c, 0, 69, 110
2, 458741, Note_off_c, 0, 69, 0
2, 458752, Note_on_c, 0, 67, 110
2, 459605, Note_off_c, 0, 67, 0
2, 459776, Note_on_c, 0, 62, 110
2, 460629, Note_off_c, 0, 62, 0
2, 460800, Note_on_c, 0, 60, 110
2, 461653, Note_off_c, 0, 60, 0
2, 461824, Note_on_c, 0, 67, 110
2, 462677, Note_off_c, 0, 67, 0
2, 462848, Note_on_c, 0, 62, 110
2, 463701, Note_off_c, 0, 62, 0
2, 464384, Note_on_c, 0, 55, 110
2, 464885, Note_off_c, 0, 55, 0
2, 465408, Note_on_c, 0, 60, 110
2, 465909, Note_off_c, 0, 60, 0
2, 466432, Note_on_c, 0, 55, 110
2, 466933, Note_off_c, 0, 55, 0
2, 469504, Note_on_c, 0, 60, 110
2, 470005, Note_off_c, 0, 60, 0
2, 470528, Note_on_c, 0, 60, 110
2, 471029, Note_off_c, 0, 60, 0
2, 471040, Note_on_c, 0, 59, 110
2, 471541, Note_off_c, 0, 59, 0
2, 471552, Note_on_c, 0, 62, 110
2, 472053, Note_off_c, 0, 62, 0
2, 472064, Note_on_c, 0, 67, 110
2, 472917, Note_off_c, 0, 67, 0
2, 473600, Note_on_c, 0, 57, 110
2, 474101, Note_off_c, 0, 57, 0
2, 474624, Note_on_c, 0, 59, 110
2, 475125, Note_off_c, 0, 59, 0
2, 477696, Note_on_c, 0, 59, 110
2, 477696, Note_on_c, 0, 67, 110
2, 478197, Note_off_c, 0, 59, 0
2, 478197, Note_off_c, 0, 67, 0
2, 480768, Note_on_c, 0, 57, 110
2, 480768, Note_on_c, 0, 65, 110
2, 481269, Note_off_c, 0, 57, 0
2, 481269, Note_off_c, 0, 65, 0
2, 481792, Note_on_c, 0, 57, 110
2, 481792, Note_on_c, 0, 65, 110
2, 482293, Note_off_c, 0, 57, 0
2, 482293, Note_off_c, 0, 65, 0
2, 482304, Note_on_c, 0, 57, 110
2, 482304, Note_on_c, 0, 65, 110
2, 482805, Note_off_c, 0, 57, 0
2, 482805, Note_off_c, 0, 65, 0
2, 482816, Note_on_c, 0, 57, 110
2, 482816, Note_on_c, 0, 65, 110
2, 483317, Note_off_c, 0, 57, 0
2, 483317, Note_off_c, 0, 65, 0
2, 483840, Note_on_c, 0, 57, 110
2, 483840, Note_on_c, 0, 65, 110
2, 484341, Note_off_c, 0, 57, 0
2, 484341, Note_off_c, 0, 65, 0
2, 484352, Note_on_c, 0, 57, 110
2, 484352, Note_on_c, 0, 65, 110
2, 484853, Note_off_c, 0, 57, 0
2, 484853, Note_off_c, 0, 65, 0
2, 484864, Note_on_c, 0, 57, 110
2, 484864, Note_on_c, 0, 65, 110
2, 485365, Note_off_c, 0, 57, 0
2, 485365, Note_off_c, 0, 65, 0
2, 485888, Note_on_c, 0, 57, 110
2, 485888, Note_on_c, 0, 65, 110
2, 486389, Note_off_c, 0, 57, 0
2, 486389, Note_off_c, 0, 65, 0
2, 486400, Note_on_c, 0, 57, 110
2, 486400, Note_on_c, 0, 65, 110
2, 486901, Note_off_c, 0, 57, 0
2, 486901, Note_off_c, 0, 65, 0
2, 486912, Note_on_c, 0, 57, 110
2, 486912, Note_on_c, 0, 65, 110
2, 487413, Note_off_c, 0, 57, 0
2, 487413, Note_off_c, 0, 65, 0
2, 488960, Note_on_c, 0, 58, 110
2, 488960, Note_on_c, 0, 67, 110
2, 489461, Note_off_c, 0, 58, 0
2, 489461, Note_off_c, 0, 67, 0
2, 489984, Note_on_c, 0, 58, 110
2, 489984, Note_on_c, 0, 67, 110
2, 490485, Note_off_c, 0, 58, 0
2, 490485, Note_off_c, 0, 67, 0
2, 491008, Note_on_c, 0, 58, 110
2, 491008, Note_on_c, 0, 67, 110
2, 491509, Note_off_c, 0, 58, 0
2, 491509, Note_off_c, 0, 67, 0
2, 492032, Note_on_c, 0, 58, 110
2, 492032, Note_on_c, 0, 67, 110
2, 492533, Note_off_c, 0, 58, 0
2, 492533, Note_off_c, 0, 67, 0
2, 492544, Note_on_c, 0, 58, 110
2, 493045, Note_off_c, 0, 58, 0
2, 493056, Note_on_c, 0, 58, 110
2, 493056, Note_on_c, 0, 67, 110
2, 493557, Note_off_c, 0, 58, 0
2, 493557, Note_off_c, 0, 67, 0
2, 493568, Note_on_c, 0, 58, 110
2, 493568, Note_on_c, 0, 67, 110
2, 494069, Note_off_c, 0, 58, 0
2, 494069, Note_off_c, 0, 67, 0
2, 494080, Note_on_c, 0, 58, 110
2, 494080, Note_on_c, 0, 67, 110
2, 494581, Note_off_c, 0, 58, 0
2, 494581, Note_off_c, 0, 67, 0
2, 494592, Note_on_c, 0, 58, 110
2, 494592, Note_on_c, 0, 67, 110
2, 495093, Note_off_c, 0, 58, 0
2, 495093, Note_off_c, 0, 67, 0
2, 495104, Note_on_c, 0, 58, 110
2, 495104, Note_on_c, 0, 67, 110
2, 495605, Note_off_c, 0, 58, 0
2, 495605, Note_off_c, 0, 67, 0
2, 497152, Note_on_c, 0, 60, 110
2, 497152, Note_on_c, 0, 67, 110
2, 497653, Note_off_c, 0, 60, 0
2, 497653, Note_off_c, 0, 67, 0
2, 498176, Note_on_c, 0, 60, 110
2, 498176, Note_on_c, 0, 67, 110
2, 498677, Note_off_c, 0, 60, 0
2, 498677, Note_off_c, 0, 67, 0
2, 499200, Note_on_c, 0, 60, 110
2, 499200, Note_on_c, 0, 67, 110
2, 499701, Note_off_c, 0, 60, 0
2, 499701, Note_off_c, 0, 67, 0
2, 500224, Note_on_c, 0, 60, 110
2, 500224, Note_on_c, 0, 69, 110
2, 500725, Note_off_c, 0, 60, 0
2, 500725, Note_off_c, 0, 69, 0
2, 501248, Note_on_c, 0, 60, 110
2, 501248, Note_on_c, 0, 69, 110
2, 501749, Note_off_c, 0, 60, 0
2, 501749, Note_off_c, 0, 69, 0
2, 502272, Note_on_c, 0, 60, 110
2, 502272, Note_on_c, 0, 69, 110
2, 502773, Note_off_c, 0, 60, 0
2, 502773, Note_off_c, 0, 69, 0
2, 506880, Note_on_c, 0, 57, 110
2, 506880, Note_on_c, 0, 62, 110
2, 507733, Note_off_c, 0, 57, 0
2, 507733, Note_off_c, 0, 62, 0
2, 507904, Note_on_c, 0, 74, 110
2, 508277, Note_off_c, 0, 74, 0
2, 508288, Note_on_c, 0, 72, 110
2, 508661, Note_off_c, 0, 72, 0
2, 508672, Note_on_c, 0, 67, 110
2, 508917, Note_off_c, 0, 67, 0
2, 508928, Note_on_c, 0, 62, 110
2, 509301, Note_off_c, 0, 62, 0
2, 509312, Note_on_c, 0, 60, 110
2, 509685, Note_off_c, 0, 60, 0
2, 509696, Note_on_c, 0, 55, 110
2, 509941, Note_off_c, 0, 55, 0
2, 509952, Note_on_c, 0, 50, 110
2, 510805, Note_off_c, 0, 50, 0
2, 516096, Note_on_c, 0, 57, 110
2, 516096, Note_on_c, 0, 62, 110
2, 519936, Note_off_c, 0, 57, 0
2, 519936, Note_off_c, 0, 62, 0
2, 520192, Note_on_c, 0, 59, 110
2, 520192, Note_on_c, 0, 64, 110
2, 524032, Note_off_c, 0, 59, 0
2, 524032, Note_off_c, 0, 64, 0
2, 524288, Note_on_c, 0, 60, 110
2, 524288, Note_on_c, 0, 65, 110
2, 528128, Note_off_c, 0, 60, 0
2, 528128, Note_off_c, 0, 65, 0
2, 528384, Note_on_c, 0, 62, 110
2, 528384, Note_on_c, 0, 67, 110
2, 532224, Note_off_c, 0, 62, 0
2, 532224, Note_off_c, 0, 67, 0
2, 532480, Note_on_c, 0, 57, 110
2, 532480, Note_on_c, 0, 62, 110
2, 536320, Note_off_c, 0, 57, 0
2, 536320, Note_off_c, 0, 62, 0
2, 536576, Note_on_c, 0, 59, 110
2, 536576, Note_on_c, 0, 64, 110
2, 540416, Note_off_c, 0, 59, 0
2, 540416, Note_off_c, 0, 64, 0
2, 540672, Note_on_c, 0, 60, 110
2, 540672, Note_on_c, 0, 65, 110
2, 544512, Note_off_c, 0, 60, 0
2, 544512, Note_off_c, 0, 65, 0
2, 544768, Note_on_c, 0, 62, 110
2, 544768, Note_on_c, 0, 67, 110
2, 546560, Note_off_c, 0, 62, 0
2, 546560, Note_off_c, 0, 67, 0
2, 548864, Note_on_c, 0, 62, 110
2, 551413, Note_off_c, 0, 62, 0
2, 551424, Note_on_c, 0, 57, 110
2, 551925, Note_off_c, 0, 57, 0
2, 551936, Note_on_c, 0, 62, 110
2, 552437, Note_off_c, 0, 62, 0
2, 552448, Note_on_c, 0, 72, 110
2, 552949, Note_off_c, 0, 72, 0
2, 552960, Note_on_c, 0, 71, 110
2, 553461, Note_off_c, 0, 71, 0
2, 553472, Note_on_c, 0, 67, 110
2, 553973, Note_off_c, 0, 67, 0
2, 553984, Note_on_c, 0, 62, 110
2, 556800, Note_off_c, 0, 62, 0
2, 557056, Note_on_c, 0, 62, 110
2, 558421, Note_off_c, 0, 62, 0
2, 558592, Note_on_c, 0, 60, 110
2, 559605, Note_off_c, 0, 60, 0
2, 559616, Note_on_c, 0, 62, 110
2, 560117, Note_off_c, 0, 62, 0
2, 560128, Note_on_c, 0, 67, 110
2, 560629, Note_off_c, 0, 67, 0
2, 560640, Note_on_c, 0, 65, 110
2, 561141, Note_off_c, 0, 65, 0
2, 561152, Note_on_c, 0, 67, 110
2, 564992, Note_off_c, 0, 67, 0
2, 565248, Note_on_c, 0, 62, 110
2, 567797, Note_off_c, 0, 62, 0
2, 567808, Note_on_c, 0, 57, 110
2, 568309, Note_off_c, 0, 57, 0
2, 568320, Note_on_c, 0, 62, 110
2, 568821, Note_off_c, 0, 62, 0
2, 568832, Note_on_c, 0, 72, 110
2, 569333, Note_off_c, 0, 72, 0
2, 569344, Note_on_c, 0, 71, 110
2, 569845, Note_off_c, 0, 71, 0
2, 569856, Note_on_c, 0, 67, 110
2, 570357, Note_off_c, 0, 67, 0
2, 570368, Note_on_c, 0, 62, 110
2, 571733, Note_off_c, 0, 62, 0
2, 571904, Note_on_c, 0, 57, 110
2, 572405, Note_off_c, 0, 57, 0
2, 572416, Note_on_c, 0, 62, 110
2, 572917, Note_off_c, 0, 62, 0
2, 572928, Note_on_c, 0, 74, 110
2, 573429, Note_off_c, 0, 74, 0
2, 573440, Note_on_c, 0, 72, 110
2, 574293, Note_off_c, 0, 72, 0
2, 574464, Note_on_c, 0, 71, 110
2, 577013, Note_off_c, 0, 71, 0
2, 577024, Note_on_c, 0, 69, 110
2, 577525, Note_off_c, 0, 69, 0
2, 577536, Note_on_c, 0, 67, 110
2, 577536, Note_on_c, 0, 71, 110
2, 581376, Note_off_c, 0, 67, 0
2, 581376, Note_off_c, 0, 71, 0
2, 581632, Note_on_c, 0, 63, 110
2, 581632, Note_on_c, 0, 65, 110
2, 584181, Note_off_c, 0, 63, 0
2, 584181, Note_off_c, 0, 65, 0
2, 584192, Note_on_c, 0, 60, 110
2, 584693, Note_off_c, 0, 60, 0
2, 584704, Note_on_c, 0, 65, 110
2, 585205, Note_off_c, 0, 65, 0
2, 585216, Note_on_c, 0, 75, 110
2, 585717, Note_off_c, 0, 75, 0
2, 585728, Note_on_c, 0, 74, 110
2, 586229, Note_off_c, 0, 74, 0
2, 586240, Note_on_c, 0, 70, 110
2, 586741, Note_off_c, 0, 70, 0
2, 586752, Note_on_c, 0, 65, 110
2, 589557, Note_off_c, 0, 65, 0
2, 589568, Note_on_c, 0, 63, 110
2, 590325, Note_off_c, 0, 63, 0
2, 590336, Note_on_c, 0, 65, 110
2, 593397, Note_off_c, 0, 65, 0
2, 593408, Note_on_c, 0, 68, 110
2, 593909, Note_off_c, 0, 68, 0
2, 593920, Note_on_c, 0, 65, 110
2, 597760, Note_off_c, 0, 65, 0
2, 598016, Note_on_c, 0, 62, 110
2, 600565, Note_off_c, 0, 62, 0
2, 600576, Note_on_c, 0, 57, 110
2, 601077, Note_off_c, 0, 57, 0
2, 601088, Note_on_c, 0, 62, 110
2, 601589, Note_off_c, 0, 62, 0
2, 601600, Note_on_c, 0, 72, 110
2, 602101, Note_off_c, 0, 72, 0
2, 602112, Note_on_c, 0, 71, 110
2, 602613, Note_off_c, 0, 71, 0
2, 602624, Note_on_c, 0, 67, 110
2, 603125, Note_off_c, 0, 67, 0
2, 603136, Note_on_c, 0, 62, 110
2, 605952, Note_off_c, 0, 62, 0
2, 606208, Note_on_c, 0, 63, 110
2, 606208, Note_on_c, 0, 67, 110
2, 610048, Note_off_c, 0, 63, 0
2, 610048, Note_off_c, 0, 67, 0
2, 610304, Note_on_c, 0, 65, 110
2, 610304, Note_on_c, 0, 67, 110
2, 614144, Note_off_c, 0, 65, 0
2, 614144, Note_off_c, 0, 67, 0
2, 614400, Note_on_c, 0, 68, 110
2, 614400, Note_on_c, 0, 72, 110
2, 616192, Note_off_c, 0, 68, 0
2, 616192, Note_off_c, 0, 72, 0
2, 616448, Note_on_c, 0, 79, 110
2, 618240, Note_off_c, 0, 79, 0
2, 618496, Note_on_c, 0, 77, 110
2, 619349, Note_off_c, 0, 77, 0
2, 619520, Note_on_c, 0, 71, 110
2, 619520, Note_on_c, 0, 74, 110
2, 622336, Note_off_c, 0, 71, 0
2, 622336, Note_off_c, 0, 74, 0
2, 622592, Note_on_c, 0, 68, 110
2, 622592, Note_on_c, 0, 72, 110
2, 624384, Note_off_c, 0, 68, 0
2, 624384, Note_off_c, 0, 72, 0
2, 624640, Note_on_c, 0, 79, 110
2, 626432, Note_off_c, 0, 79, 0
2, 626688, Note_on_c, 0, 77, 110
2, 627541, Note_off_c, 0, 77, 0
2, 627712, Note_on_c, 0, 74, 110
2, 629504, Note_off_c, 0, 74, 0
2, 629760, Note_on_c, 0, 83, 110
2, 630613, Note_off_c, 0, 83, 0
2, 630784, Note_on_c, 0, 72, 110
2, 632576, Note_off_c, 0, 72, 0
2, 632832, Note_on_c, 0, 67, 110
2, 632832, Note_on_c, 0, 79, 110
2, 634624, Note_off_c, 0, 67, 0
2, 634624, Note_off_c, 0, 79, 0
2, 634880, Note_on_c, 0, 67, 110
2, 634880, Note_on_c, 0, 77, 110
2, 636672, Note_off_c, 0, 67, 0
2, 636672, Note_off_c, 0, 77, 0
2, 636928, Note_on_c, 0, 67, 110
2, 636928, Note_on_c, 0, 74, 110
2, 638720, Note_off_c, 0, 67, 0
2, 638720, Note_off_c, 0, 74, 0
2, 638976, Note_on_c, 0, 68, 110
2, 638976, Note_on_c, 0, 75, 110
2, 644864, Note_off_c, 0, 68, 0
2, 644864, Note_off_c, 0, 75, 0
2, 645120, Note_on_c, 0, 72, 110
2, 646912, Note_off_c, 0, 72, 0
2, 647168, Note_on_c, 0, 74, 110
2, 655104, Note_off_c, 0, 74, 0
2, 655360, Note_on_c, 0, 68, 110
2, 655360, Note_on_c, 0, 75, 110
2, 659200, Note_off_c, 0, 68, 0
2, 659200, Note_off_c, 0, 75, 0
2, 659456, Note_on_c, 0, 80, 110
2, 661248, Note_off_c, 0, 80, 0
2, 661504, Note_on_c, 0, 75, 110
2, 663296, Note_off_c, 0, 75, 0
2, 663552, Note_on_c, 0, 67, 110
2, 663552, Note_on_c, 0, 74, 110
2, 667392, Note_off_c, 0, 67, 0
2, 667392, Note_off_c, 0, 74, 0
2, 667648, Note_on_c, 0, 79, 110
2, 670197, Note_off_c, 0, 79, 0
2, 670208, Note_on_c, 0, 67, 110
2, 670325, Note_off_c, 0, 67, 0
2, 670336, Note_on_c, 0, 65, 110
2, 670453, Note_off_c, 0, 65, 0
2, 670464, Note_on_c, 0, 64, 110
2, 670581, Note_off_c, 0, 64, 0
2, 670592, Note_on_c, 0, 62, 110
2, 670709, Note_off_c, 0, 62, 0
2, 670720, Note_on_c, 0, 67, 110
2, 670837, Note_off_c, 0, 67, 0
2, 670848, Note_on_c, 0, 65, 110
2, 670965, Note_off_c, 0, 65, 0
2, 670976, Note_on_c, 0, 64, 110
2, 671093, Note_off_c, 0, 64, 0
2, 671104, Note_on_c, 0, 62, 110
2, 671221, Note_off_c, 0, 62, 0
2, 671232, Note_on_c, 0, 67, 110
2, 671349, Note_off_c, 0, 67, 0
2, 671360, Note_on_c, 0, 65, 110
2, 671477, Note_off_c, 0, 65, 0
2, 671488, Note_on_c, 0, 64, 110
2, 671605, Note_off_c, 0, 64, 0
2, 688128, Note_on_c, 0, 74, 110
2, 688128, Note_on_c, 0, 81, 110
2, 689493, Note_off_c, 0, 74, 0
2, 689493, Note_off_c, 0, 81, 0
2, 689664, Note_on_c, 0, 73, 110
2, 689664, Note_on_c, 0, 80, 110
2, 691968, Note_off_c, 0, 73, 0
2, 691968, Note_off_c, 0, 80, 0
2, 692224, Note_on_c, 0, 72, 110
2, 692224, Note_on_c, 0, 79, 110
2, 693589, Note_off_c, 0, 72, 0
2, 693589, Note_off_c, 0, 79, 0
2, 693760, Note_on_c, 0, 69, 110
2, 693760, Note_on_c, 0, 77, 110
2, 696064, Note_off_c, 0, 69, 0
2, 696064, Note_off_c, 0, 77, 0
2, 696320, Note_on_c, 0, 74, 110
2, 696320, Note_on_c, 0, 81, 110
2, 697685, Note_off_c, 0, 74, 0
2, 697685, Note_off_c, 0, 81, 0
2, 697856, Note_on_c, 0, 73, 110
2, 697856, Note_on_c, 0, 80, 110
2, 698869, Note_off_c, 0, 73, 0
2, 698869, Note_off_c, 0, 80, 0
2, 698880, Note_on_c, 0, 72, 110
2, 698880, Note_on_c, 0, 79, 110
2, 699893, Note_off_c, 0, 72, 0
2, 699893, Note_off_c, 0, 79, 0
2, 699904, Note_on_c, 0, 69, 110
2, 699904, Note_on_c, 0, 77, 110
2, 700917, Note_off_c, 0, 69, 0
2, 700917, Note_off_c, 0, 77, 0
2, 700928, Note_on_c, 0, 69, 110
2, 700928, Note_on_c, 0, 74, 110
2, 704256, Note_off_c, 0, 69, 0
2, 704256, Note_off_c, 0, 74, 0
2, 704512, Note_on_c, 0, 74, 110
2, 704512, Note_on_c, 0, 81, 110
2, 705877, Note_off_c, 0, 74, 0
2, 705877, Note_off_c, 0, 81, 0
2, 706048, Note_on_c, 0, 73, 110
2, 706048, Note_on_c, 0, 80, 110
2, 708352, Note_off_c, 0, 73, 0
2, 708352, Note_off_c, 0, 80, 0
2, 708608, Note_on_c, 0, 72, 110
2, 708608, Note_on_c, 0, 79, 110
2, 709973, Note_off_c, 0, 72, 0
2, 709973, Note_off_c, 0, 79, 0
2, 710144, Note_on_c, 0, 69, 110
2, 710144, Note_on_c, 0, 77, 110
2, 712448, Note_off_c, 0, 69, 0
2, 712448, Note_off_c, 0, 77, 0
2, 712704, Note_on_c, 0, 74, 110
2, 712704, Note_on_c, 0, 81, 110
2, 714069, Note_off_c, 0, 74, 0
2, 714069, Note_off_c, 0, 81, 0
2, 714240, Note_on_c, 0, 73, 110
2, 714240, Note_on_c, 0, 80, 110
2, 715253, Note_off_c, 0, 73, 0
2, 715253, Note_off_c, 0, 80, 0
2, 715264, Note_on_c, 0, 72, 110
2, 715264, Note_on_c, 0, 79, 110
2, 716277, Note_off_c, 0, 72, 0
2, 716277, Note_off_c, 0, 79, 0
2, 716288, Note_on_c, 0, 69, 110
2, 716288, Note_on_c, 0, 77, 110
2, 717301, Note_off_c, 0, 69, 0
2, 717301, Note_off_c, 0, 77, 0
2, 717312, Note_on_c, 0, 69, 110
2, 717312, Note_on_c, 0, 74, 110
2, 720640, Note_off_c, 0, 69, 0
2, 720640, Note_off_c, 0, 74, 0
2, 720896, Note_on_c, 0, 69, 110
2, 720896, Note_on_c, 0, 74, 110
2, 722261, Note_off_c, 0, 69, 0
2, 722261, Note_off_c, 0, 74, 0
2, 722432, Note_on_c, 0, 69, 110
2, 722432, Note_on_c, 0, 73, 110
2, 724736, Note_off_c, 0, 69, 0
2, 724736, Note_off_c, 0, 73, 0
2, 724992, Note_on_c, 0, 69, 110
2, 724992, Note_on_c, 0, 72, 110
2, 726357, Note_off_c, 0, 69, 0
2, 726357, Note_off_c, 0, 72, 0
2, 726528, Note_on_c, 0, 68, 110
2, 726528, Note_on_c, 0, 71, 110
2, 728832, Note_off_c, 0, 68, 0
2, 728832, Note_off_c, 0, 71, 0
2, 729088, Note_on_c, 0, 69, 110
2, 729088, Note_on_c, 0, 74, 110
2, 730453, Note_off_c, 0, 69, 0
2, 730453, Note_off_c, 0, 74, 0
2, 730624, Note_on_c, 0, 69, 110
2, 730624, Note_on_c, 0, 73, 110
2, 732928, Note_off_c, 0, 69, 0
2, 732928, Note_off_c, 0, 73, 0
2, 733184, Note_on_c, 0, 69, 110
2, 733184, Note_on_c, 0, 72, 110
2, 734549, Note_off_c, 0, 69, 0
2, 734549, Note_off_c, 0, 72, 0
2, 734720, Note_on_c, 0, 68, 110
2, 734720, Note_on_c, 0, 71, 110
2, 737024, Note_off_c, 0, 68, 0
2, 737024, Note_off_c, 0, 71, 0
2, 737280, Note_on_c, 0, 69, 110
2, 737280, Note_on_c, 0, 74, 110
2, 738645, Note_off_c, 0, 69, 0
2, 738645, Note_off_c, 0, 74, 0
2, 738816, Note_on_c, 0, 69, 110
2, 738816, Note_on_c, 0, 73, 110
2, 741120, Note_off_c, 0, 69, 0
2, 741120, Note_off_c, 0, 73, 0
2, 741376, Note_on_c, 0, 69, 110
2, 741376, Note_on_c, 0, 74, 110
2, 742741, Note_off_c, 0, 69, 0
2, 742741, Note_off_c, 0, 74, 0
2, 742912, Note_on_c, 0, 68, 110
2, 742912, Note_on_c, 0, 73, 110
2, 745216, Note_off_c, 0, 68, 0
2, 745216, Note_off_c, 0, 73, 0
2, 745472, Note_on_c, 0, 69, 110
2, 745472, Note_on_c, 0, 74, 110
2, 746837, Note_off_c, 0, 69, 0
2, 746837, Note_off_c, 0, 74, 0
2, 747008, Note_on_c, 0, 69, 110
2, 747008, Note_on_c, 0, 73, 110
2, 749312, Note_off_c, 0, 69, 0
2, 749312, Note_off_c, 0, 73, 0
2, 749568, Note_on_c, 0, 69, 110
2, 749568, Note_on_c, 0, 72, 110
2, 750933, Note_off_c, 0, 69, 0
2, 750933, Note_off_c, 0, 72, 0
2, 751104, Note_on_c, 0, 68, 110
2, 751104, Note_on_c, 0, 71, 110
2, 753408, Note_off_c, 0, 68, 0
2, 753408, Note_off_c, 0, 71, 0
2, 785920, Note_on_c, 0, 72, 110
2, 786933, Note_off_c, 0, 72, 0
2, 786944, Note_on_c, 0, 72, 110
2, 787445, Note_off_c, 0, 72, 0
2, 787456, Note_on_c, 0, 69, 110
2, 787957, Note_off_c, 0, 69, 0
2, 787968, Note_on_c, 0, 69, 110
2, 788469, Note_off_c, 0, 69, 0
2, 788480, Note_on_c, 0, 70, 110
2, 788981, Note_off_c, 0, 70, 0
2, 788992, Note_on_c, 0, 70, 110
2, 789493, Note_off_c, 0, 70, 0
2, 798208, Note_on_c, 0, 72, 110
2, 799221, Note_off_c, 0, 72, 0
2, 799232, Note_on_c, 0, 72, 110
2, 799733, Note_off_c, 0, 72, 0
2, 799744, Note_on_c, 0, 69, 110
2, 800245, Note_off_c, 0, 69, 0
2, 800256, Note_on_c, 0, 69, 110
2, 800757, Note_off_c, 0, 69, 0
2, 800768, Note_on_c, 0, 70, 110
2, 801269, Note_off_c, 0, 70, 0
2, 801280, Note_on_c, 0, 70, 110
2, 801781, Note_off_c, 0, 70, 0
2, 806400, Note_on_c, 0, 65, 110
2, 807413, Note_off_c, 0, 65, 0
2, 807424, Note_on_c, 0, 65, 110
2, 807925, Note_off_c, 0, 65, 0
2, 807936, Note_on_c, 0, 62, 110
2, 808437, Note_off_c, 0, 62, 0
2, 808448, Note_on_c, 0, 62, 110
2, 808949, Note_off_c, 0, 62, 0
2, 808960, Note_on_c, 0, 63, 110
2, 809461, Note_off_c, 0, 63, 0
2, 809472, Note_on_c, 0, 63, 110
2, 809973, Note_off_c, 0, 63, 0
2, 814592, Note_on_c, 0, 65, 110
2, 815605, Note_off_c, 0, 65, 0
2, 815616, Note_on_c, 0, 65, 110
2, 816117, Note_off_c, 0, 65, 0
2, 816128, Note_on_c, 0, 62, 110
2, 816629, Note_off_c, 0, 62, 0
2, 816640, Note_on_c, 0, 62, 110
2, 817141, Note_off_c, 0, 62, 0
2, 817152, Note_on_c, 0, 63, 110
2, 817653, Note_off_c, 0, 63, 0
2, 817664, Note_on_c, 0, 63, 110
2, 818165, Note_off_c, 0, 63, 0
2, 827392, Note_on_c, 0, 60, 110
2, 827893, Note_off_c, 0, 60, 0
2, 827904, Note_on_c, 0, 72, 110
2, 828405, Note_off_c, 0, 72, 0
2, 828416, Note_on_c, 0, 57, 110
2, 828917, Note_off_c, 0, 57, 0
2, 828928, Note_on_c, 0, 69, 110
2, 829429, Note_off_c, 0, 69, 0
2, 829440, Note_on_c, 0, 58, 110
2, 829941, Note_off_c, 0, 58, 0
2, 829952, Note_on_c, 0, 70, 110
2, 830453, Note_off_c, 0, 70, 0
2, 835584, Note_on_c, 0, 60, 110
2, 836085, Note_off_c, 0, 60, 0
2, 836096, Note_on_c, 0, 72, 110
2, 836597, Note_off_c, 0, 72, 0
2, 836608, Note_on_c, 0, 57, 110
2, 837109, Note_off_c, 0, 57, 0
2, 837120, Note_on_c, 0, 69, 110
2, 837621, Note_off_c, 0, 69, 0
2, 837632, Note_on_c, 0, 58, 110
2, 838133, Note_off_c, 0, 58, 0
2, 838144, Note_on_c, 0, 70, 110
2, 838645, Note_off_c, 0, 70, 0
2, 843776, Note_on_c, 0, 53, 110
2, 844277, Note_off_c, 0, 53, 0
2, 844288, Note_on_c, 0, 65, 110
2, 844789, Note_off_c, 0, 65, 0
2, 844800, Note_on_c, 0, 50, 110
2, 845301, Note_off_c, 0, 50, 0
2, 845312, Note_on_c, 0, 62, 110
2, 845813, Note_off_c, 0, 62, 0
2, 845824, Note_on_c, 0, 51, 110
2, 846325, Note_off_c, 0, 51, 0
2, 846336, Note_on_c, 0, 63, 110
2, 846837, Note_off_c, 0, 63, 0
2, 851968, Note_on_c, 0, 53, 110
2, 852469, Note_off_c, 0, 53, 0
2, 852480, Note_on_c, 0, 65, 110
2, 852981, Note_off_c, 0, 65, 0
2, 852992, Note_on_c, 0, 50, 110
2, 853493, Note_off_c, 0, 50, 0
2, 853504, Note_on_c, 0, 62, 110
2, 854005, Note_off_c, 0, 62, 0
2, 854016, Note_on_c, 0, 51, 110
2, 854517, Note_off_c, 0, 51, 0
2, 854528, Note_on_c, 0, 63, 110
2, 855029, Note_off_c, 0, 63, 0
2, 859392, Note_on_c, 0, 63, 110
2, 859637, Note_off_c, 0, 63, 0
2, 859648, Note_on_c, 0, 62, 110
2, 859893, Note_off_c, 0, 62, 0
2, 859904, Note_on_c, 0, 61, 110
2, 860149, Note_off_c, 0, 61, 0
2, 860160, Note_on_c, 0, 60, 110
2, 861013, Note_off_c, 0, 60, 0
2, 861184, Note_on_c, 0, 63, 110
2, 862037, Note_off_c, 0, 63, 0
2, 862208, Note_on_c, 0, 62, 110
2, 863061, Note_off_c, 0, 62, 0
2, 863232, Note_on_c, 0, 56, 110
2, 864085, Note_off_c, 0, 56, 0
2, 864256, Note_on_c, 0, 55, 110
2, 865109, Note_off_c, 0, 55, 0
2, 865280, Note_on_c, 0, 61, 110
2, 866133, Note_off_c, 0, 61, 0
2, 866304, Note_on_c, 0, 60, 110
2, 866677, Note_off_c, 0, 60, 0
2, 866688, Note_on_c, 0, 66, 110
2, 867061, Note_off_c, 0, 66, 0
2, 867072, Note_on_c, 0, 65, 110
2, 867317, Note_off_c, 0, 65, 0
2, 867328, Note_on_c, 0, 64, 110
2, 867701, Note_off_c, 0, 64, 0
2, 867712, Note_on_c, 0, 71, 110
2, 868085, Note_off_c, 0, 71, 0
2, 868096, Note_on_c, 0, 70, 110
2, 868341, Note_off_c, 0, 70, 0
2, 868352, Note_on_c, 0, 69, 110
2, 869109, Note_off_c, 0, 69, 0
2, 869120, Note_on_c, 0, 63, 110
2, 869365, Note_off_c, 0, 63, 0
2, 869632, Note_on_c, 0, 59, 110
2, 870389, Note_off_c, 0, 59, 0
2, 870400, Note_on_c, 0, 58, 110
2, 871157, Note_off_c, 0, 58, 0
2, 871168, Note_on_c, 0, 57, 110
2, 871413, Note_off_c, 0, 57, 0
2, 871936, Note_on_c, 0, 56, 110
2, 872437, Note_off_c, 0, 56, 0
2, 876544, Note_on_c, 0, 60, 110
2, 877045, Note_off_c, 0, 60, 0
2, 877056, Note_on_c, 0, 72, 110
2, 877557, Note_off_c, 0, 72, 0
2, 877568, Note_on_c, 0, 57, 110
2, 878069, Note_off_c, 0, 57, 0
2, 878080, Note_on_c, 0, 69, 110
2, 878581, Note_off_c, 0, 69, 0
2, 878592, Note_on_c, 0, 58, 110
2, 879093, Note_off_c, 0, 58, 0
2, 879104, Note_on_c, 0, 70, 110
2, 879605, Note_off_c, 0, 70, 0
2, 884736, Note_on_c, 0, 60, 110
2, 885237, Note_off_c, 0, 60, 0
2, 885248, Note_on_c, 0, 72, 110
2, 885749, Note_off_c, 0, 72, 0
2, 885760, Note_on_c, 0, 57, 110
2, 886261, Note_off_c, 0, 57, 0
2, 886272, Note_on_c, 0, 69, 110
2, 886773, Note_off_c, 0, 69, 0
2, 886784, Note_on_c, 0, 58, 110
2, 887285, Note_off_c, 0, 58, 0
2, 887296, Note_on_c, 0, 70, 110
2, 887797, Note_off_c, 0, 70, 0
2, 892928, Note_on_c, 0, 53, 110
2, 893429, Note_off_c, 0, 53, 0
2, 893440, Note_on_c, 0, 65, 110
2, 893941, Note_off_c, 0, 65, 0
2, 893952, Note_on_c, 0, 50, 110
2, 894453, Note_off_c, 0, 50, 0
2, 894464, Note_on_c, 0, 62, 110
2, 894965, Note_off_c, 0, 62, 0
2, 894976, Note_on_c, 0, 51, 110
2, 895477, Note_off_c, 0, 51, 0
2, 895488, Note_on_c, 0, 63, 110
2, 895989, Note_off_c, 0, 63, 0
2, 901120, Note_on_c, 0, 53, 110
2, 901621, Note_off_c, 0, 53, 0
2, 901632, Note_on_c, 0, 65, 110
2, 902133, Note_off_c, 0, 65, 0
2, 902144, Note_on_c, 0, 50, 110
2, 902645, Note_off_c, 0, 50, 0
2, 902656, Note_on_c, 0, 62, 110
2, 903157, Note_off_c, 0, 62, 0
2, 903168, Note_on_c, 0, 51, 110
2, 903669, Note_off_c, 0, 51, 0
2, 903680, Note_on_c, 0, 63, 110
2, 904181, Note_off_c, 0, 63, 0
2, 908544, Note_on_c, 0, 63, 110
2, 908789, Note_off_c, 0, 63, 0
2, 908800, Note_on_c, 0, 62, 110
2, 909045, Note_off_c, 0, 62, 0
2, 909056, Note_on_c, 0, 61, 110
2, 909301, Note_off_c, 0, 61, 0
2, 909312, Note_on_c, 0, 60, 110
2, 910165, Note_off_c, 0, 60, 0
2, 910336, Note_on_c, 0, 63, 110
2, 911189, Note_off_c, 0, 63, 0
2, 911360, Note_on_c, 0, 62, 110
2, 912213, Note_off_c, 0, 62, 0
2, 912384, Note_on_c, 0, 56, 110
2, 913237, Note_off_c, 0, 56, 0
2, 913408, Note_on_c, 0, 55, 110
2, 914261, Note_off_c, 0, 55, 0
2, 914432, Note_on_c, 0, 61, 110
2, 915285, Note_off_c, 0, 61, 0
2, 915456, Note_on_c, 0, 60, 110
2, 915829, Note_off_c, 0, 60, 0
2, 915840, Note_on_c, 0, 66, 110
2, 916213, Note_off_c, 0, 66, 0
2, 916224, Note_on_c, 0, 65, 110
2, 916469, Note_off_c, 0, 65, 0
2, 916480, Note_on_c, 0, 64, 110
2, 916853, Note_off_c, 0, 64, 0
2, 916864, Note_on_c, 0, 71, 110
2, 917237, Note_off_c, 0, 71, 0
2, 917248, Note_on_c, 0, 70, 110
2, 917493, Note_off_c, 0, 70, 0
2, 917504, Note_on_c, 0, 69, 110
2, 918261, Note_off_c, 0, 69, 0
2, 918272, Note_on_c, 0, 63, 110
2, 918517, Note_off_c, 0, 63, 0
2, 918784, Note_on_c, 0, 59, 110
2, 919541, Note_off_c, 0, 59, 0
2, 919552, Note_on_c, 0, 58, 110
2, 920309, Note_off_c, 0, 58, 0
2, 920320, Note_on_c, 0, 57, 110
2, 920565, Note_off_c, 0, 57, 0
2, 921088, Note_on_c, 0, 56, 110
2, 921589, Note_off_c, 0, 56, 0
2, 925696, Note_on_c, 0, 72, 110
2, 925696, Note_on_c, 0, 76, 110
2, 925696, Note_on_c, 0, 79, 110
2, 926549, Note_off_c, 0, 72, 0
2, 926549, Note_off_c, 0, 76, 0
2, 926549, Note_off_c, 0, 79, 0
2, 927232, Note_on_c, 0, 72, 110
2, 927232, Note_on_c, 0, 77, 110
2, 927232, Note_on_c, 0, 81, 110
2, 927733, Note_off_c, 0, 72, 0
2, 927733, Note_off_c, 0, 77, 0
2, 927733, Note_off_c, 0, 81, 0
2, 928256, Note_on_c, 0, 72, 110
2, 928256, Note_on_c, 0, 76, 110
2, 928256, Note_on_c, 0, 79, 110
2, 928757, Note_off_c, 0, 72, 0
2, 928757, Note_off_c, 0, 76, 0
2, 928757, Note_off_c, 0, 79, 0
2, 929280, Note_on_c, 0, 72, 110
2, 929280, Note_on_c, 0, 75, 110
2, 929280, Note_on_c, 0, 78, 110
2, 929781, Note_off_c, 0, 72, 0
2, 929781, Note_off_c, 0, 75, 0
2, 929781, Note_off_c, 0, 78, 0
2, 929792, Note_on_c, 0, 72, 110
2, 929792, Note_on_c, 0, 76, 110
2, 929792, Note_on_c, 0, 79, 110
2, 930293, Note_off_c, 0, 72, 0
2, 930293, Note_off_c, 0, 76, 0
2, 930293, Note_off_c, 0, 79, 0
2, 930304, Note_on_c, 0, 76, 110
2, 930304, Note_on_c, 0, 79, 110
2, 930304, Note_on_c, 0, 84, 110
2, 930805, Note_off_c, 0, 76, 0
2, 930805, Note_off_c, 0, 79, 0
2, 930805, Note_off_c, 0, 84, 0
2, 930816, Note_on_c, 0, 79, 110
2, 930816, Note_on_c, 0, 84, 110
2, 930816, Note_on_c, 0, 88, 110
2, 931669, Note_off_c, 0, 79, 0
2, 931669, Note_off_c, 0, 84, 0
2, 931669, Note_off_c, 0, 88, 0
2, 932864, Note_on_c, 0, 67, 110
2, 933365, Note_off_c, 0, 67, 0
2, 933376, Note_on_c, 0, 72, 110
2, 933877, Note_off_c, 0, 72, 0
2, 933888, Note_on_c, 0, 71, 110
2, 933888, Note_on_c, 0, 74, 110
2, 933888, Note_on_c, 0, 77, 110
2, 934741, Note_off_c, 0, 71, 0
2, 934741, Note_off_c, 0, 74, 0
2, 934741, Note_off_c, 0, 77, 0
2, 935424, Note_on_c, 0, 71, 110
2, 935424, Note_on_c, 0, 76, 110
2, 935424, Note_on_c, 0, 79, 110
2, 935925, Note_off_c, 0, 71, 0
2, 935925, Note_off_c, 0, 76, 0
2, 935925, Note_off_c, 0, 79, 0
2, 936448, Note_on_c, 0, 71, 110
2, 936448, Note_on_c, 0, 74, 110
2, 936448, Note_on_c, 0, 77, 110
2, 936949, Note_off_c, 0, 71, 0
2, 936949, Note_off_c, 0, 74, 0
2, 936949, Note_off_c, 0, 77, 0
2, 937472, Note_on_c, 0, 70, 110
2, 937472, Note_on_c, 0, 73, 110
2, 937472, Note_on_c, 0, 76, 110
2, 937973, Note_off_c, 0, 70, 0
2, 937973, Note_off_c, 0, 73, 0
2, 937973, Note_off_c, 0, 76, 0
2, 937984, Note_on_c, 0, 71, 110
2, 937984, Note_on_c, 0, 74, 110
2, 937984, Note_on_c, 0, 77, 110
2, 938485, Note_off_c, 0, 71, 0
2, 938485, Note_off_c, 0, 74, 0
2, 938485, Note_off_c, 0, 77, 0
2, 938496, Note_on_c, 0, 74, 110
2, 938496, Note_on_c, 0, 79, 110
2, 938496, Note_on_c, 0, 83, 110
2, 938997, Note_off_c, 0, 74, 0
2, 938997, Note_off_c, 0, 79, 0
2, 938997, Note_off_c, 0, 83, 0
2, 939008, Note_on_c, 0, 79, 110
2, 939008, Note_on_c, 0, 83, 110
2, 939008, Note_on_c, 0, 86, 110
2, 939861, Note_off_c, 0, 79, 0
2, 939861, Note_off_c, 0, 83, 0
2, 939861, Note_off_c, 0, 86, 0
2, 941056, Note_on_c, 0, 67, 110
2, 941557, Note_off_c, 0, 67, 0
2, 941568, Note_on_c, 0, 71, 110
2, 942069, Note_off_c, 0, 71, 0
2, 942080, Note_on_c, 0, 69, 110
2, 942080, Note_on_c, 0, 72, 110
2, 942080, Note_on_c, 0, 76, 110
2, 942933, Note_off_c, 0, 69, 0
2, 942933, Note_off_c, 0, 72, 0
2, 942933, Note_off_c, 0, 76, 0
2, 943616, Note_on_c, 0, 69, 110
2, 943616, Note_on_c, 0, 74, 110
2, 943616, Note_on_c, 0, 77, 110
2, 944117, Note_off_c, 0, 69, 0
2, 944117, Note_off_c, 0, 74, 0
2, 944117, Note_off_c, 0, 77, 0
2, 944640, Note_on_c, 0, 69, 110
2, 944640, Note_on_c, 0, 72, 110
2, 944640, Note_on_c, 0, 76, 110
2, 945141, Note_off_c, 0, 69, 0
2, 945141, Note_off_c, 0, 72, 0
2, 945141, Note_off_c, 0, 76, 0
2, 945664, Note_on_c, 0, 68, 110
2, 945664, Note_on_c, 0, 71, 110
2, 945664, Note_on_c, 0, 75, 110
2, 946165, Note_off_c, 0, 68, 0
2, 946165, Note_off_c, 0, 71, 0
2, 946165, Note_off_c, 0, 75, 0
2, 946176, Note_on_c, 0, 69, 110
2, 946176, Note_on_c, 0, 72, 110
2, 946176, Note_on_c, 0, 76, 110
2, 946677, Note_off_c, 0, 69, 0
2, 946677, Note_off_c, 0, 72, 0
2, 946677, Note_off_c, 0, 76, 0
2, 946688, Note_on_c, 0, 72, 110
2, 946688, Note_on_c, 0, 76, 110
2, 946688, Note_on_c, 0, 81, 110
2, 947189, Note_off_c, 0, 72, 0
2, 947189, Note_off_c, 0, 76, 0
2, 947189, Note_off_c, 0, 81, 0
2, 947200, Note_on_c, 0, 76, 110
2, 947200, Note_on_c, 0, 81, 110
2, 947200, Note_on_c, 0, 84, 110
2, 948053, Note_off_c, 0, 76, 0
2, 948053, Note_off_c, 0, 81, 0
2, 948053, Note_off_c, 0, 84, 0
2, 948736, Note_on_c, 0, 72, 110
2, 948736, Note_on_c, 0, 76, 110
2, 948736, Note_on_c, 0, 81, 110
2, 949237, Note_off_c, 0, 72, 0
2, 949237, Note_off_c, 0, 76, 0
2, 949237, Note_off_c, 0, 81, 0
2, 949248, Note_on_c, 0, 74, 110
2, 949248, Note_on_c, 0, 78, 110
2, 949248, Note_on_c, 0, 83, 110
2, 949749, Note_off_c, 0, 74, 0
2, 949749, Note_off_c, 0, 78, 0
2, 949749, Note_off_c, 0, 83, 0
2, 949760, Note_on_c, 0, 69, 110
2, 949760, Note_on_c, 0, 76, 110
2, 949760, Note_on_c, 0, 81, 110
2, 949760, Note_on_c, 0, 84, 110
2, 950261, Note_off_c, 0, 69, 0
2, 950261, Note_off_c, 0, 76, 0
2, 950261, Note_off_c, 0, 81, 0
2, 950261, Note_off_c, 0, 84, 0
2, 950272, Note_on_c, 0, 78, 110
2, 950272, Note_on_c, 0, 83, 110
2, 950272, Note_on_c, 0, 86, 110
2, 950773, Note_off_c, 0, 78, 0
2, 950773, Note_off_c, 0, 83, 0
2, 950773, Note_off_c, 0, 86, 0
2, 950784, Note_on_c, 0, 78, 110
2, 950784, Note_on_c, 0, 81, 110
2, 950784, Note_on_c, 0, 84, 110
2, 951285, Note_off_c, 0, 78, 0
2, 951285, Note_off_c, 0, 81, 0
2, 951285, Note_off_c, 0, 84, 0
2, 951296, Note_on_c, 0, 78, 110
2, 951296, Note_on_c, 0, 83, 110
2, 951296, Note_on_c, 0, 86, 110
2, 951797, Note_off_c, 0, 78, 0
2, 951797, Note_off_c, 0, 83, 0
2, 951797, Note_off_c, 0, 86, 0
2, 951808, Note_on_c, 0, 78, 110
2, 951808, Note_on_c, 0, 81, 110
2, 951808, Note_on_c, 0, 84, 110
2, 952821, Note_off_c, 0, 78, 0
2, 952821, Note_off_c, 0, 81, 0
2, 952821, Note_off_c, 0, 84, 0
2, 952832, Note_on_c, 0, 74, 110
2, 952832, Note_on_c, 0, 78, 110
2, 952832, Note_on_c, 0, 81, 110
2, 953333, Note_off_c, 0, 74, 0
2, 953333, Note_off_c, 0, 78, 0
2, 953333, Note_off_c, 0, 81, 0
2, 953344, Note_on_c, 0, 72, 110
2, 953344, Note_on_c, 0, 74, 110
2, 953344, Note_on_c, 0, 78, 110
2, 953845, Note_off_c, 0, 72, 0
2, 953845, Note_off_c, 0, 74, 0
2, 953845, Note_off_c, 0, 78, 0
2, 953856, Note_on_c, 0, 69, 110
2, 953856, Note_on_c, 0, 72, 110
2, 953856, Note_on_c, 0, 74, 110
2, 954357, Note_off_c, 0, 69, 0
2, 954357, Note_off_c, 0, 72, 0
2, 954357, Note_off_c, 0, 74, 0
2, 954368, Note_on_c, 0, 69, 110
2, 954368, Note_on_c, 0, 72, 110
2, 954869, Note_off_c, 0, 69, 0
2, 954869, Note_off_c, 0, 72, 0
2, 954880, Note_on_c, 0, 69, 110
2, 955381, Note_off_c, 0, 69, 0
2, 958464, Note_on_c, 0, 69, 110
2, 958464, Note_on_c, 0, 74, 110
2, 958464, Note_on_c, 0, 76, 110
2, 959317, Note_off_c, 0, 69, 0
2, 959317, Note_off_c, 0, 74, 0
2, 959317, Note_off_c, 0, 76, 0
2, 960512, Note_on_c, 0, 69, 110
2, 960512, Note_on_c, 0, 74, 110
2, 960512, Note_on_c, 0, 76, 110
2, 961365, Note_off_c, 0, 69, 0
2, 961365, Note_off_c, 0, 74, 0
2, 961365, Note_off_c, 0, 76, 0
2, 962560, Note_on_c, 0, 69, 110
2, 962560, Note_on_c, 0, 74, 110
2, 962560, Note_on_c, 0, 76, 110
2, 963413, Note_off_c, 0, 69, 0
2, 963413, Note_off_c, 0, 74, 0
2, 963413, Note_off_c, 0, 76, 0
2, 963584, Note_on_c, 0, 73, 110
2, 964085, Note_off_c, 0, 73, 0
2, 964096, Note_on_c, 0, 57, 110
2, 964597, Note_off_c, 0, 57, 0
2, 964608, Note_on_c, 0, 71, 110
2, 965461, Note_off_c, 0, 71, 0
2, 965632, Note_on_c, 0, 70, 110
2, 966485, Note_off_c, 0, 70, 0
2, 966656, Note_on_c, 0, 69, 110
2, 968448, Note_off_c, 0, 69, 0
2, 968704, Note_on_c, 0, 71, 110
2, 969557, Note_off_c, 0, 71, 0
2, 969728, Note_on_c, 0, 69, 110
2, 970581, Note_off_c, 0, 69, 0
2, 970752, Note_on_c, 0, 62, 110
2, 973568, Note_off_c, 0, 62, 0
2, 974848, Note_on_c, 0, 59, 110
2, 975701, Note_off_c, 0, 59, 0
2, 975872, Note_on_c, 0, 59, 110
2, 976725, Note_off_c, 0, 59, 0
2, 976896, Note_on_c, 0, 64, 110
2, 977749, Note_off_c, 0, 64, 0
2, 977920, Note_on_c, 0, 62, 110
2, 978773, Note_off_c, 0, 62, 0
2, 978944, Note_on_c, 0, 59, 110
2, 981760, Note_off_c, 0, 59, 0
2, 983040, Note_on_c, 0, 57, 110
2, 984405, Note_off_c, 0, 57, 0
2, 984576, Note_on_c, 0, 57, 110
2, 985941, Note_off_c, 0, 57, 0
2, 986112, Note_on_c, 0, 69, 110
2, 987637, Note_off_c, 0, 69, 0
2, 987648, Note_on_c, 0, 57, 110
2, 989013, Note_off_c, 0, 57, 0
2, 989184, Note_on_c, 0, 57, 110
2, 990037, Note_off_c, 0, 57, 0
2, 990208, Note_on_c, 0, 69, 110
2, 991061, Note_off_c, 0, 69, 0
2, 991232, Note_on_c, 0, 57, 110
2, 993024, Note_off_c, 0, 57, 0
2, 994304, Note_on_c, 0, 69, 110
2, 995157, Note_off_c, 0, 69, 0
2, 995328, Note_on_c, 0, 64, 110
2, 998144, Note_off_c, 0, 64, 0
2, 999424, Note_on_c, 0, 66, 110
2, 1001216, Note_off_c, 0, 66, 0
2, 1001472, Note_on_c, 0, 71, 110
2, 1002325, Note_off_c, 0, 71, 0
2, 1002496, Note_on_c, 0, 69, 110
2, 1003349, Note_off_c, 0, 69, 0
2, 1003520, Note_on_c, 0, 72, 110
2, 1006336, Note_off_c, 0, 72, 0
2, 1007616, Note_on_c, 0, 71, 110
2, 1008469, Note_off_c, 0, 71, 0
2, 1008640, Note_on_c, 0, 71, 110
2, 1009493, Note_off_c, 0, 71, 0
2, 1009664, Note_on_c, 0, 76, 110
2, 1010517, Note_off_c, 0, 76, 0
2, 1010688, Note_on_c, 0, 74, 110
2, 1011541, Note_off_c, 0, 74, 0
2, 1011712, Note_on_c, 0, 71, 110
2, 1014528, Note_off_c, 0, 71, 0
2, 1015808, Note_on_c, 0, 69, 110
2, 1017173, Note_off_c, 0, 69, 0
2, 1017344, Note_on_c, 0, 69, 110
2, 1018709, Note_off_c, 0, 69, 0
2, 1018880, Note_on_c, 0, 57, 110
2, 1020405, Note_off_c, 0, 57, 0
2, 1020416, Note_on_c, 0, 69, 110
2, 1021781, Note_off_c, 0, 69, 0
2, 1021952, Note_on_c, 0, 57, 110
2, 1022805, Note_off_c, 0, 57, 0
2, 1022976, Note_on_c, 0, 64, 110
2, 1023829, Note_off_c, 0, 64, 0
2, 1024000, Note_on_c, 0, 62, 110
2, 1029888, Note_off_c, 0, 62, 0
2, 1032192, Note_on_c, 0, 69, 110
2, 1033984, Note_off_c, 0, 69, 0
2, 1034240, Note_on_c, 0, 71, 110
2, 1035093, Note_off_c, 0, 71, 0
2, 1035264, Note_on_c, 0, 69, 110
2, 1036117, Note_off_c, 0, 69, 0
2, 1036288, Note_on_c, 0, 62, 110
2, 1039104, Note_off_c, 0, 62, 0
2, 1040384, Note_on_c, 0, 59, 110
2, 1041237, Note_off_c, 0, 59, 0
2, 1041408, Note_on_c, 0, 59, 110
2, 1042261, Note_off_c, 0, 59, 0
2, 1042432, Note_on_c, 0, 64, 110
2, 1043285, Note_off_c, 0, 64, 0
2, 1043456, Note_on_c, 0, 62, 110
2, 1044309, Note_off_c, 0, 62, 0
2, 1044480, Note_on_c, 0, 59, 110
2, 1047296, Note_off_c, 0, 59, 0
2, 1048576, Note_on_c, 0, 57, 110
2, 1049941, Note_off_c, 0, 57, 0
2, 1050112, Note_on_c, 0, 57, 110
2, 1051477, Note_off_c, 0, 57, 0
2, 1051648, Note_on_c, 0, 69, 110
2, 1053173, Note_off_c, 0, 69, 0
2, 1053184, Note_on_c, 0, 57, 110
2, 1054549, Note_off_c, 0, 57, 0
2, 1054720, Note_on_c, 0, 57, 110
2, 1055573, Note_off_c, 0, 57, 0
2, 1055744, Note_on_c, 0, 69, 110
2, 1056597, Note_off_c, 0, 69, 0
2, 1056768, Note_on_c, 0, 57, 110
2, 1058560, Note_off_c, 0, 57, 0
2, 1059840, Note_on_c, 0, 69, 110
2, 1060693, Note_off_c, 0, 69, 0
2, 1060864, Note_on_c, 0, 64, 110
2, 1063680, Note_off_c, 0, 64, 0
2, 1064960, Note_on_c, 0, 66, 110
2, 1066752, Note_off_c, 0, 66, 0
2, 1067008, Note_on_c, 0, 71, 110
2, 1067861, Note_off_c, 0, 71, 0
2, 1068032, Note_on_c, 0, 69, 110
2, 1068885, Note_off_c, 0, 69, 0
2, 1069056, Note_on_c, 0, 72, 110
2, 1071872, Note_off_c, 0, 72, 0
2, 1073152, Note_on_c, 0, 71, 110
2, 1074005, Note_off_c, 0, 71, 0
2, 1074176, Note_on_c, 0, 71, 110
2, 1075029, Note_off_c, 0, 71, 0
2, 1075200, Note_on_c, 0, 76, 110
2, 1076053, Note_off_c, 0, 76, 0
2, 1076224, Note_on_c, 0, 74, 110
2, 1077077, Note_off_c, 0, 74, 0
2, 1077248, Note_on_c, 0, 71, 110
2, 1080064, Note_off_c, 0, 71, 0
2, 1081344, Note_on_c, 0, 69, 110
2, 1082709, Note_off_c, 0, 69, 0
2, 1082880, Note_on_c, 0, 69, 110
2, 1084245, Note_off_c, 0, 69, 0
2, 1084416, Note_on_c, 0, 57, 110
2, 1085941, Note_off_c, 0, 57, 0
2, 1085952, Note_on_c, 0, 69, 110
2, 1087317, Note_off_c, 0, 69, 0
2, 1087488, Note_on_c, 0, 57, 110
2, 1088341, Note_off_c, 0, 57, 0
2, 1088512, Note_on_c, 0, 64, 110
2, 1089365, Note_off_c, 0, 64, 0
2, 1089536, Note_on_c, 0, 62, 110
2, 1093376, Note_off_c, 0, 62, 0
2, 1094144, Note_on_c, 0, 74, 110
2, 1094645, Note_off_c, 0, 74, 0
2, 1094656, Note_on_c, 0, 73, 110
2, 1095157, Note_off_c, 0, 73, 0
2, 1095168, Note_on_c, 0, 74, 110
2, 1095669, Note_off_c, 0, 74, 0
2, 1095680, Note_on_c, 0, 76, 110
2, 1096181, Note_off_c, 0, 76, 0
2, 1096192, Note_on_c, 0, 78, 110
2, 1096693, Note_off_c, 0, 78, 0
2, 1096704, Note_on_c, 0, 79, 110
2, 1097205, Note_off_c, 0, 79, 0
2, 1097216, Note_on_c, 0, 81, 110
2, 1097717, Note_off_c, 0, 81, 0
2, 1097728, Note_on_c, 0, 83, 110
2, 1099520, Note_off_c, 0, 83, 0
2, 1099776, Note_on_c, 0, 82, 110
2, 1101568, Note_off_c, 0, 82, 0
2, 1101824, Note_on_c, 0, 81, 110
2, 1103616, Note_off_c, 0, 81, 0
2, 1103872, Note_on_c, 0, 83, 110
2, 1104725, Note_off_c, 0, 83, 0
2, 1104896, Note_on_c, 0, 78, 110
2, 1105749, Note_off_c, 0, 78, 0
2, 1105920, Note_on_c, 0, 79, 110
2, 1107712, Note_off_c, 0, 79, 0
2, 1107968, Note_on_c, 0, 81, 110
2, 1109760, Note_off_c, 0, 81, 0
2, 1110016, Note_on_c, 0, 78, 110
2, 1111808, Note_off_c, 0, 78, 0
2, 1112576, Note_on_c, 0, 81, 110
2, 1113077, Note_off_c, 0, 81, 0
2, 1113088, Note_on_c, 0, 83, 110
2, 1113589, Note_off_c, 0, 83, 0
2, 1113600, Note_on_c, 0, 85, 110
2, 1114101, Note_off_c, 0, 85, 0
2, 1114112, Note_on_c, 0, 86, 110
2, 1115904, Note_off_c, 0, 86, 0
2, 1116672, Note_on_c, 0, 85, 110
2, 1117173, Note_off_c, 0, 85, 0
2, 1117184, Note_on_c, 0, 86, 110
2, 1117685, Note_off_c, 0, 86, 0
2, 1117696, Note_on_c, 0, 88, 110
2, 1118197, Note_off_c, 0, 88, 0
2, 1118208, Note_on_c, 0, 90, 110
2, 1120000, Note_off_c, 0, 90, 0
2, 1120256, Note_on_c, 0, 81, 110
2, 1121109, Note_off_c, 0, 81, 0
2, 1121280, Note_on_c, 0, 90, 110
2, 1122133, Note_off_c, 0, 90, 0
2, 1122304, Note_on_c, 0, 88, 110
2, 1124096, Note_off_c, 0, 88, 0
2, 1124352, Note_on_c, 0, 86, 110
2, 1125205, Note_off_c, 0, 86, 0
2, 1125376, Note_on_c, 0, 85, 110
2, 1126229, Note_off_c, 0, 85, 0
2, 1126400, Note_on_c, 0, 86, 110
2, 1130240, Note_off_c, 0, 86, 0
2, 1130496, Note_on_c, 0, 61, 110
2, 1130741, Note_off_c, 0, 61, 0
2, 1130752, Note_on_c, 0, 62, 110
2, 1130997, Note_off_c, 0, 62, 0
2, 1131008, Note_on_c, 0, 61, 110
2, 1131253, Note_off_c, 0, 61, 0
2, 1131264, Note_on_c, 0, 62, 110
2, 1131509, Note_off_c, 0, 62, 0
2, 1131520, Note_on_c, 0, 64, 110
2, 1131765, Note_off_c, 0, 64, 0
2, 1131776, Note_on_c, 0, 62, 110
2, 1132021, Note_off_c, 0, 62, 0
2, 1132032, Note_on_c, 0, 61, 110
2, 1132277, Note_off_c, 0, 61, 0
2, 1132288, Note_on_c, 0, 62, 110
2, 1132533, Note_off_c, 0, 62, 0
2, 1132544, Note_on_c, 0, 61, 110
2, 1132789, Note_off_c, 0, 61, 0
2, 1132800, Note_on_c, 0, 62, 110
2, 1133045, Note_off_c, 0, 62, 0
2, 1133056, Note_on_c, 0, 61, 110
2, 1133301, Note_off_c, 0, 61, 0
2, 1133312, Note_on_c, 0, 62, 110
2, 1133557, Note_off_c, 0, 62, 0
2, 1133568, Note_on_c, 0, 64, 110
2, 1133813, Note_off_c, 0, 64, 0
2, 1133824, Note_on_c, 0, 62, 110
2, 1134069, Note_off_c, 0, 62, 0
2, 1134080, Note_on_c, 0, 61, 110
2, 1134325, Note_off_c, 0, 61, 0
2, 1134336, Note_on_c, 0, 62, 110
2, 1134581, Note_off_c, 0, 62, 0
2, 1134592, Note_on_c, 0, 61, 110
2, 1134837, Note_off_c, 0, 61, 0
2, 1134848, Note_on_c, 0, 62, 110
2, 1135093, Note_off_c, 0, 62, 0
2, 1135104, Note_on_c, 0, 61, 110
2, 1135349, Note_off_c, 0, 61, 0
2, 1135360, Note_on_c, 0, 62, 110
2, 1135605, Note_off_c, 0, 62, 0
2, 1135616, Note_on_c, 0, 67, 110
2, 1135861, Note_off_c, 0, 67, 0
2, 1135872, Note_on_c, 0, 62, 110
2, 1136117, Note_off_c, 0, 62, 0
2, 1136128, Note_on_c, 0, 61, 110
2, 1136373, Note_off_c, 0, 61, 0
2, 1136384, Note_on_c, 0, 62, 110
2, 1136629, Note_off_c, 0, 62, 0
2, 1136640, Note_on_c, 0, 69, 110
2, 1136885, Note_off_c, 0, 69, 0
2, 1136896, Note_on_c, 0, 62, 110
2, 1137141, Note_off_c, 0, 62, 0
2, 1137152, Note_on_c, 0, 61, 110
2, 1137397, Note_off_c, 0, 61, 0
2, 1137408, Note_on_c, 0, 62, 110
2, 1137653, Note_off_c, 0, 62, 0
2, 1137664, Note_on_c, 0, 67, 110
2, 1137909, Note_off_c, 0, 67, 0
2, 1137920, Note_on_c, 0, 62, 110
2, 1138165, Note_off_c, 0, 62, 0
2, 1138176, Note_on_c, 0, 61, 110
2, 1138421, Note_off_c, 0, 61, 0
2, 1138432, Note_on_c, 0, 62, 110
2, 1138677, Note_off_c, 0, 62, 0
2, 1138688, Note_on_c, 0, 61, 110
2, 1138933, Note_off_c, 0, 61, 0
2, 1138944, Note_on_c, 0, 62, 110
2, 1139189, Note_off_c, 0, 62, 0
2, 1139200, Note_on_c, 0, 61, 110
2, 1139445, Note_off_c, 0, 61, 0
2, 1139456, Note_on_c, 0, 62, 110
2, 1139701, Note_off_c, 0, 62, 0
2, 1139712, Note_on_c, 0, 64, 110
2, 1139957, Note_off_c, 0, 64, 0
2, 1139968, Note_on_c, 0, 62, 110
2, 1140213, Note_off_c, 0, 62, 0
2, 1140224, Note_on_c, 0, 61, 110
2, 1140469, Note_off_c, 0, 61, 0
2, 1140480, Note_on_c, 0, 62, 110
2, 1140725, Note_off_c, 0, 62, 0
2, 1140736, Note_on_c, 0, 61, 110
2, 1140981, Note_off_c, 0, 61, 0
2, 1140992, Note_on_c, 0, 62, 110
2, 1141237, Note_off_c, 0, 62, 0
2, 1141248, Note_on_c, 0, 61, 110
2, 1141493, Note_off_c, 0, 61, 0
2, 1141504, Note_on_c, 0, 62, 110
2, 1141749, Note_off_c, 0, 62, 0
2, 1141760, Note_on_c, 0, 64, 110
2, 1142005, Note_off_c, 0, 64, 0
2, 1142016, Note_on_c, 0, 62, 110
2, 1142261, Note_off_c, 0, 62, 0
2, 1142272, Note_on_c, 0, 61, 110
2, 1142517, Note_off_c, 0, 61, 0
2, 1142528, Note_on_c, 0, 62, 110
2, 1142773, Note_off_c, 0, 62, 0
2, 1142784, Note_on_c, 0, 61, 110
2, 1143029, Note_off_c, 0, 61, 0
2, 1143040, Note_on_c, 0, 62, 110
2, 1143285, Note_off_c, 0, 62, 0
2, 1143296, Note_on_c, 0, 61, 110
2, 1143541, Note_off_c, 0, 61, 0
2, 1143552, Note_on_c, 0, 62, 110
2, 1143797, Note_off_c, 0, 62, 0
2, 1143808, Note_on_c, 0, 67, 110
2, 1144053, Note_off_c, 0, 67, 0
2, 1144064, Note_on_c, 0, 62, 110
2, 1144309, Note_off_c, 0, 62, 0
2, 1144320, Note_on_c, 0, 61, 110
2, 1144565, Note_off_c, 0, 61, 0
2, 1144576, Note_on_c, 0, 62, 110
2, 1144821, Note_off_c, 0, 62, 0
2, 1144832, Note_on_c, 0, 69, 110
2, 1145077, Note_off_c, 0, 69, 0
2, 1145088, Note_on_c, 0, 62, 110
2, 1145333, Note_off_c, 0, 62, 0
2, 1145344, Note_on_c, 0, 61, 110
2, 1145589, Note_off_c, 0, 61, 0
2, 1145600, Note_on_c, 0, 62, 110
2, 1145845, Note_off_c, 0, 62, 0
2, 1145856, Note_on_c, 0, 67, 110
2, 1146101, Note_off_c, 0, 67, 0
2, 1146112, Note_on_c, 0, 62, 110
2, 1146357, Note_off_c, 0, 62, 0
2, 1146368, Note_on_c, 0, 61, 110
2, 1146613, Note_off_c, 0, 61, 0
2, 1146624, Note_on_c, 0, 62, 110
2, 1146869, Note_off_c, 0, 62, 0
2, 1146880, Note_on_c, 0, 74, 110
2, 1146880, Note_on_c, 0, 79, 110
2, 1146880, Note_on_c, 0, 81, 110
2, 1147733, Note_off_c, 0, 74, 0
2, 1147733, Note_off_c, 0, 79, 0
2, 1147733, Note_off_c, 0, 81, 0
2, 1148928, Note_on_c, 0, 74, 110
2, 1148928, Note_on_c, 0, 79, 110
2, 1148928, Note_on_c, 0, 81, 110
2, 1149781, Note_off_c, 0, 74, 0
2, 1149781, Note_off_c, 0, 79, 0
2, 1149781, Note_off_c, 0, 81, 0
2, 1150976, Note_on_c, 0, 74, 110
2, 1150976, Note_on_c, 0, 79, 110
2, 1150976, Note_on_c, 0, 81, 110
2, 1151829, Note_off_c, 0, 74, 0
2, 1151829, Note_off_c, 0, 79, 0
2, 1151829, Note_off_c, 0, 81, 0
2, 1152000, Note_on_c, 0, 78, 110
2, 1152853, Note_off_c, 0, 78, 0
2, 1153024, Note_on_c, 0, 76, 110
2, 1153877, Note_off_c, 0, 76, 0
2, 1154048, Note_on_c, 0, 75, 110
2, 1154901, Note_off_c, 0, 75, 0
2, 1155072, Note_on_c, 0, 67, 110
2, 1155072, Note_on_c, 0, 72, 110
2, 1155072, Note_on_c, 0, 74, 110
2, 1155925, Note_off_c, 0, 67, 0
2, 1155925, Note_off_c, 0, 72, 0
2, 1155925, Note_off_c, 0, 74, 0
2, 1157120, Note_on_c, 0, 67, 110
2, 1157120, Note_on_c, 0, 72, 110
2, 1157120, Note_on_c, 0, 74, 110
2, 1157973, Note_off_c, 0, 67, 0
2, 1157973, Note_off_c, 0, 72, 0
2, 1157973, Note_off_c, 0, 74, 0
2, 1159168, Note_on_c, 0, 67, 110
2, 1159168, Note_on_c, 0, 72, 110
2, 1159168, Note_on_c, 0, 74, 110
2, 1160021, Note_off_c, 0, 67, 0
2, 1160021, Note_off_c, 0, 72, 0
2, 1160021, Note_off_c, 0, 74, 0
2, 1160704, Note_on_c, 0, 67, 110
2, 1160704, Note_on_c, 0, 71, 110
2, 1160949, Note_off_c, 0, 67, 0
2, 1160949, Note_off_c, 0, 71, 0
2, 1160960, Note_on_c, 0, 67, 110
2, 1160960, Note_on_c, 0, 72, 110
2, 1161205, Note_off_c, 0, 67, 0
2, 1161205, Note_off_c, 0, 72, 0
2, 1161216, Note_on_c, 0, 67, 110
2, 1161216, Note_on_c, 0, 72, 110
2, 1161216, Note_on_c, 0, 74, 110
2, 1162069, Note_off_c, 0, 67, 0
2, 1162069, Note_off_c, 0, 72, 0
2, 1162069, Note_off_c, 0, 74, 0
2, 1162240, Note_on_c, 0, 67, 110
2, 1162240, Note_on_c, 0, 74, 110
2, 1162240, Note_on_c, 0, 76, 110
2, 1163093, Note_off_c, 0, 67, 0
2, 1163093, Note_off_c, 0, 74, 0
2, 1163093, Note_off_c, 0, 76, 0
2, 1163264, Note_on_c, 0, 69, 110
2, 1163264, Note_on_c, 0, 72, 110
2, 1163264, Note_on_c, 0, 74, 110
2, 1164117, Note_off_c, 0, 69, 0
2, 1164117, Note_off_c, 0, 72, 0
2, 1164117, Note_off_c, 0, 74, 0
2, 1164800, Note_on_c, 0, 74, 110
2, 1165301, Note_off_c, 0, 74, 0
2, 1165312, Note_on_c, 0, 69, 110
2, 1165312, Note_on_c, 0, 78, 110
2, 1166165, Note_off_c, 0, 69, 0
2, 1166165, Note_off_c, 0, 78, 0
2, 1166336, Note_on_c, 0, 81, 110
2, 1167189, Note_off_c, 0, 81, 0
2, 1167360, Note_on_c, 0, 80, 110
2, 1168213, Note_off_c, 0, 80, 0
2, 1168384, Note_on_c, 0, 81, 110
2, 1169237, Note_off_c, 0, 81, 0
2, 1169408, Note_on_c, 0, 80, 110
2, 1169653, Note_off_c, 0, 80, 0
2, 1169664, Note_on_c, 0, 81, 110
2, 1169909, Note_off_c, 0, 81, 0
2, 1169920, Note_on_c, 0, 80, 110
2, 1170165, Note_off_c, 0, 80, 0
2, 1170176, Note_on_c, 0, 78, 110
2, 1170421, Note_off_c, 0, 78, 0
2, 1170432, Note_on_c, 0, 74, 110
2, 1170933, Note_off_c, 0, 74, 0
2, 1170944, Note_on_c, 0, 69, 110
2, 1171445, Note_off_c, 0, 69, 0
2, 1171456, Note_on_c, 0, 71, 110
2, 1172213, Note_off_c, 0, 71, 0
2, 1172224, Note_on_c, 0, 73, 110
2, 1172469, Note_off_c, 0, 73, 0
2, 1172480, Note_on_c, 0, 74, 110
2, 1173237, Note_off_c, 0, 74, 0
2, 1173248, Note_on_c, 0, 76, 110
2, 1173493, Note_off_c, 0, 76, 0
2, 1173504, Note_on_c, 0, 78, 110
2, 1173749, Note_off_c, 0, 78, 0
2, 1173760, Note_on_c, 0, 77, 110
2, 1174005, Note_off_c, 0, 77, 0
2, 1174016, Note_on_c, 0, 78, 110
2, 1174261, Note_off_c, 0, 78, 0
2, 1174272, Note_on_c, 0, 79, 110
2, 1174517, Note_off_c, 0, 79, 0
2, 1174528, Note_on_c, 0, 81, 110
2, 1174773, Note_off_c, 0, 81, 0
2, 1174784, Note_on_c, 0, 79, 110
2, 1175029, Note_off_c, 0, 79, 0
2, 1175040, Note_on_c, 0, 78, 110
2, 1175285, Note_off_c, 0, 78, 0
2, 1175296, Note_on_c, 0, 76, 110
2, 1175541, Note_off_c, 0, 76, 0
2, 1175552, Note_on_c, 0, 74, 110
2, 1175797, Note_off_c, 0, 74, 0
2, 1175808, Note_on_c, 0, 73, 110
2, 1176053, Note_off_c, 0, 73, 0
2, 1176064, Note_on_c, 0, 74, 110
2, 1176309, Note_off_c, 0, 74, 0
2, 1176320, Note_on_c, 0, 81, 110
2, 1176565, Note_off_c, 0, 81, 0
2, 1176576, Note_on_c, 0, 73, 110
2, 1176821, Note_off_c, 0, 73, 0
2, 1176832, Note_on_c, 0, 72, 110
2, 1177077, Note_off_c, 0, 72, 0
2, 1177088, Note_on_c, 0, 73, 110
2, 1177333, Note_off_c, 0, 73, 0
2, 1177344, Note_on_c, 0, 81, 110
2, 1177589, Note_off_c, 0, 81, 0
2, 1177600, Note_on_c, 0, 73, 110
2, 1177845, Note_off_c, 0, 73, 0
2, 1177856, Note_on_c, 0, 72, 110
2, 1178101, Note_off_c, 0, 72, 0
2, 1178112, Note_on_c, 0, 71, 110
2, 1178357, Note_off_c, 0, 71, 0
2, 1178368, Note_on_c, 0, 70, 110
2, 1178613, Note_off_c, 0, 70, 0
2, 1178624, Note_on_c, 0, 69, 110
2, 1178869, Note_off_c, 0, 69, 0
2, 1178880, Note_on_c, 0, 68, 110
2, 1179125, Note_off_c, 0, 68, 0
2, 1179136, Note_on_c, 0, 67, 110
2, 1179381, Note_off_c, 0, 67, 0
2, 1179392, Note_on_c, 0, 64, 110
2, 1179637, Note_off_c, 0, 64, 0
2, 1183744, Note_on_c, 0, 69, 110
2, 1184245, Note_off_c, 0, 69, 0
2, 1184256, Note_on_c, 0, 74, 110
2, 1184256, Note_on_c, 0, 86, 110
2, 1184757, Note_off_c, 0, 74, 0
2, 1184757, Note_off_c, 0, 86, 0
2, 1184768, Note_on_c, 0, 77, 110
2, 1184768, Note_on_c, 0, 81, 110
2, 1185269, Note_off_c, 0, 77, 0
2, 1185269, Note_off_c, 0, 81, 0
2, 1185280, Note_on_c, 0, 76, 110
2, 1185280, Note_on_c, 0, 80, 110
2, 1189632, Note_off_c, 0, 76, 0
2, 1189632, Note_off_c, 0, 80, 0
2, 1200128, Note_on_c, 0, 69, 110
2, 1200629, Note_off_c, 0, 69, 0
2, 1200640, Note_on_c, 0, 74, 110
2, 1200640, Note_on_c, 0, 86, 110
2, 1201141, Note_off_c, 0, 74, 0
2, 1201141, Note_off_c, 0, 86, 0
2, 1201152, Note_on_c, 0, 77, 110
2, 1201152, Note_on_c, 0, 81, 110
2, 1201653, Note_off_c, 0, 77, 0
2, 1201653, Note_off_c, 0, 81, 0
2, 1201664, Note_on_c, 0, 76, 110
2, 1201664, Note_on_c, 0, 80, 110
2, 1205077, Note_off_c, 0, 76, 0
2, 1205077, Note_off_c, 0, 80, 0
2, 1205248, Note_on_c, 0, 83, 110
2, 1205248, Note_on_c, 0, 95, 110
2, 1206101, Note_off_c, 0, 83, 0
2, 1206101, Note_off_c, 0, 95, 0
2, 1216512, Note_on_c, 0, 69, 110
2, 1217013, Note_off_c, 0, 69, 0
2, 1217024, Note_on_c, 0, 74, 110
2, 1217024, Note_on_c, 0, 86, 110
2, 1217525, Note_off_c, 0, 74, 0
2, 1217525, Note_off_c, 0, 86, 0
2, 1217536, Note_on_c, 0, 77, 110
2, 1217536, Note_on_c, 0, 81, 110
2, 1218037, Note_off_c, 0, 77, 0
2, 1218037, Note_off_c, 0, 81, 0
2, 1218048, Note_on_c, 0, 76, 110
2, 1218048, Note_on_c, 0, 80, 110
2, 1220352, Note_off_c, 0, 76, 0
2, 1220352, Note_off_c, 0, 80, 0
2, 1220864, Note_on_c, 0, 69, 110
2, 1221109, Note_off_c, 0, 69, 0
2, 1221120, Note_on_c, 0, 74, 110
2, 1221365, Note_off_c, 0, 74, 0
2, 1221376, Note_on_c, 0, 81, 110
2, 1221621, Note_off_c, 0, 81, 0
2, 1221632, Note_on_c, 0, 80, 110
2, 1221877, Note_off_c, 0, 80, 0
2, 1221888, Note_on_c, 0, 69, 110
2, 1222133, Note_off_c, 0, 69, 0
2, 1222144, Note_on_c, 0, 74, 110
2, 1222389, Note_off_c, 0, 74, 0
2, 1222400, Note_on_c, 0, 79, 110
2, 1222645, Note_off_c, 0, 79, 0
2, 1222656, Note_on_c, 0, 77, 110
2, 1222901, Note_off_c, 0, 77, 0
2, 1222912, Note_on_c, 0, 69, 110
2, 1223157, Note_off_c, 0, 69, 0
2, 1223168, Note_on_c, 0, 74, 110
2, 1223413, Note_off_c, 0, 74, 0
2, 1223424, Note_on_c, 0, 77, 110
2, 1223669, Note_off_c, 0, 77, 0
2, 1223680, Note_on_c, 0, 76, 110
2, 1223925, Note_off_c, 0, 76, 0
2, 1223936, Note_on_c, 0, 67, 110
2, 1224181, Note_off_c, 0, 67, 0
2, 1224192, Note_on_c, 0, 73, 110
2, 1224437, Note_off_c, 0, 73, 0
2, 1224448, Note_on_c, 0, 76, 110
2, 1224693, Note_off_c, 0, 76, 0
2, 1224704, Note_on_c, 0, 74, 110
2, 1225205, Note_off_c, 0, 74, 0
2, 1225216, Note_on_c, 0, 69, 110
2, 1225461, Note_off_c, 0, 69, 0
2, 1225472, Note_on_c, 0, 74, 110
2, 1225717, Note_off_c, 0, 74, 0
2, 1225728, Note_on_c, 0, 73, 110
2, 1226229, Note_off_c, 0, 73, 0
2, 1226240, Note_on_c, 0, 67, 110
2, 1226485, Note_off_c, 0, 67, 0
2, 1226496, Note_on_c, 0, 70, 110
2, 1226741, Note_off_c, 0, 70, 0
2, 1226752, Note_on_c, 0, 69, 110
2, 1227253, Note_off_c, 0, 69, 0
2, 1227264, Note_on_c, 0, 69, 110
2, 1227509, Note_off_c, 0, 69, 0
2, 1227520, Note_on_c, 0, 74, 110
2, 1227765, Note_off_c, 0, 74, 0
2, 1227776, Note_on_c, 0, 77, 110
2, 1228021, Note_off_c, 0, 77, 0
2, 1228032, Note_on_c, 0, 69, 110
2, 1228277, Note_off_c, 0, 69, 0
2, 1228288, Note_on_c, 0, 74, 110
2, 1228533, Note_off_c, 0, 74, 0
2, 1228544, Note_on_c, 0, 77, 110
2, 1228789, Note_off_c, 0, 77, 0
2, 1228800, Note_on_c, 0, 70, 110
2, 1229045, Note_off_c, 0, 70, 0
2, 1229056, Note_on_c, 0, 67, 110
2, 1229301, Note_off_c, 0, 67, 0
2, 1229312, Note_on_c, 0, 70, 110
2, 1229557, Note_off_c, 0, 70, 0
2, 1229568, Note_on_c, 0, 73, 110
2, 1229813, Note_off_c, 0, 73, 0
2, 1229824, Note_on_c, 0, 76, 110
2, 1230069, Note_off_c, 0, 76, 0
2, 1230080, Note_on_c, 0, 70, 110
2, 1230325, Note_off_c, 0, 70, 0
2, 1230336, Note_on_c, 0, 73, 110
2, 1230581, Note_off_c, 0, 73, 0
2, 1230592, Note_on_c, 0, 76, 110
2, 1230837, Note_off_c, 0, 76, 0
2, 1230848, Note_on_c, 0, 77, 110
2, 1231093, Note_off_c, 0, 77, 0
2, 1231104, Note_on_c, 0, 81, 110
2, 1231349, Note_off_c, 0, 81, 0
2, 1231360, Note_on_c, 0, 86, 110
2, 1231605, Note_off_c, 0, 86, 0
2, 1231616, Note_on_c, 0, 81, 110
2, 1231861, Note_off_c, 0, 81, 0
2, 1231872, Note_on_c, 0, 77, 110
2, 1232117, Note_off_c, 0, 77, 0
2, 1232128, Note_on_c, 0, 86, 110
2, 1232373, Note_off_c, 0, 86, 0
2, 1232384, Note_on_c, 0, 81, 110
2, 1232629, Note_off_c, 0, 81, 0
2, 1232640, Note_on_c, 0, 77, 110
2, 1232885, Note_off_c, 0, 77, 0
2, 1232896, Note_on_c, 0, 76, 110
2, 1233141, Note_off_c, 0, 76, 0
2, 1233152, Note_on_c, 0, 79, 110
2, 1233397, Note_off_c, 0, 79, 0
2, 1233408, Note_on_c, 0, 85, 110
2, 1233653, Note_off_c, 0, 85, 0
2, 1233664, Note_on_c, 0, 79, 110
2, 1233909, Note_off_c, 0, 79, 0
2, 1233920, Note_on_c, 0, 76, 110
2, 1234165, Note_off_c, 0, 76, 0
2, 1234176, Note_on_c, 0, 85, 110
2, 1234421, Note_off_c, 0, 85, 0
2, 1234432, Note_on_c, 0, 79, 110
2, 1234677, Note_off_c, 0, 79, 0
2, 1234688, Note_on_c, 0, 76, 110
2, 1234933, Note_off_c, 0, 76, 0
2, 1234944, Note_on_c, 0, 74, 110
2, 1235189, Note_off_c, 0, 74, 0
2, 1235200, Note_on_c, 0, 77, 110
2, 1235445, Note_off_c, 0, 77, 0
2, 1235456, Note_on_c, 0, 81, 110
2, 1235701, Note_off_c, 0, 81, 0
2, 1235712, Note_on_c, 0, 77, 110
2, 1235957, Note_off_c, 0, 77, 0
2, 1235968, Note_on_c, 0, 74, 110
2, 1236213, Note_off_c, 0, 74, 0
2, 1236224, Note_on_c, 0, 81, 110
2, 1236469, Note_off_c, 0, 81, 0
2, 1236480, Note_on_c, 0, 77, 110
2, 1236725, Note_off_c, 0, 77, 0
2, 1236736, Note_on_c, 0, 74, 110
2, 1236981, Note_off_c, 0, 74, 0
2, 1236992, Note_on_c, 0, 73, 110
2, 1237493, Note_off_c, 0, 73, 0
2, 1237504, Note_on_c, 0, 69, 110
2, 1237504, Note_on_c, 0, 73, 110
2, 1237504, Note_on_c, 0, 79, 110
2, 1238005, Note_off_c, 0, 69, 0
2, 1238005, Note_off_c, 0, 73, 0
2, 1238005, Note_off_c, 0, 79, 0
2, 1238016, Note_on_c, 0, 74, 110
2, 1238016, Note_on_c, 0, 77, 110
2, 1238016, Note_on_c, 0, 82, 110
2, 1238517, Note_off_c, 0, 74, 0
2, 1238517, Note_off_c, 0, 77, 0
2, 1238517, Note_off_c, 0, 82, 0
2, 1238528, Note_on_c, 0, 73, 110
2, 1238528, Note_on_c, 0, 76, 110
2, 1238528, Note_on_c, 0, 81, 110
2, 1239029, Note_off_c, 0, 73, 0
2, 1239029, Note_off_c, 0, 76, 0
2, 1239029, Note_off_c, 0, 81, 0
2, 1239040, Note_on_c, 0, 69, 110
2, 1239040, Note_on_c, 0, 73, 110
2, 1239040, Note_on_c, 0, 79, 110
2, 1240832, Note_off_c, 0, 69, 0
2, 1240832, Note_off_c, 0, 73, 0
2, 1240832, Note_off_c, 0, 79, 0
2, 1241344, Note_on_c, 0, 74, 110
2, 1241344, Note_on_c, 0, 86, 110
2, 1241589, Note_off_c, 0, 74, 0
2, 1241589, Note_off_c, 0, 86, 0
2, 1241600, Note_on_c, 0, 73, 110
2, 1241600, Note_on_c, 0, 85, 110
2, 1241845, Note_off_c, 0, 73, 0
2, 1241845, Note_off_c, 0, 85, 0
2, 1241856, Note_on_c, 0, 74, 110
2, 1241856, Note_on_c, 0, 86, 110
2, 1242101, Note_off_c, 0, 74, 0
2, 1242101, Note_off_c, 0, 86, 0
2, 1242112, Note_on_c, 0, 75, 110
2, 1242112, Note_on_c, 0, 87, 110
2, 1242357, Note_off_c, 0, 75, 0
2, 1242357, Note_off_c, 0, 87, 0
2, 1242368, Note_on_c, 0, 74, 110
2, 1242368, Note_on_c, 0, 86, 110
2, 1242613, Note_off_c, 0, 74, 0
2, 1242613, Note_off_c, 0, 86, 0
2, 1242624, Note_on_c, 0, 73, 110
2, 1242624, Note_on_c, 0, 85, 110
2, 1242869, Note_off_c, 0, 73, 0
2, 1242869, Note_off_c, 0, 85, 0
2, 1242880, Note_on_c, 0, 68, 110
2, 1242880, Note_on_c, 0, 80, 110
2, 1243125, Note_off_c, 0, 68, 0
2, 1243125, Note_off_c, 0, 80, 0
2, 1243136, Note_on_c, 0, 69, 110
2, 1243136, Note_on_c, 0, 81, 110
2, 1243381, Note_off_c, 0, 69, 0
2, 1243381, Note_off_c, 0, 81, 0
2, 1243392, Note_on_c, 0, 77, 110
2, 1243637, Note_off_c, 0, 77, 0
2, 1243648, Note_on_c, 0, 76, 110
2, 1243893, Note_off_c, 0, 76, 0
2, 1243904, Note_on_c, 0, 77, 110
2, 1244149, Note_off_c, 0, 77, 0
2, 1244160, Note_on_c, 0, 67, 110
2, 1244160, Note_on_c, 0, 79, 110
2, 1244405, Note_off_c, 0, 67, 0
2, 1244405, Note_off_c, 0, 79, 0
2, 1244416, Note_on_c, 0, 77, 110
2, 1244661, Note_off_c, 0, 77, 0
2, 1244672, Note_on_c, 0, 76, 110
2, 1244917, Note_off_c, 0, 76, 0
2, 1244928, Note_on_c, 0, 73, 110
2, 1245173, Note_off_c, 0, 73, 0
2, 1245184, Note_on_c, 0, 74, 110
2, 1246037, Note_off_c, 0, 74, 0
2, 1250816, Note_on_c, 0, 67, 110
2, 1251317, Note_off_c, 0, 67, 0
2, 1251840, Note_on_c, 0, 70, 110
2, 1252341, Note_off_c, 0, 70, 0
2, 1252352, Note_on_c, 0, 67, 110
2, 1252352, Note_on_c, 0, 69, 110
2, 1252853, Note_off_c, 0, 67, 0
2, 1252853, Note_off_c, 0, 69, 0
2, 1252864, Note_on_c, 0, 73, 110
2, 1253365, Note_off_c, 0, 73, 0
2, 1253376, Note_on_c, 0, 69, 110
2, 1253376, Note_on_c, 0, 74, 110
2, 1253621, Note_off_c, 0, 69, 0
2, 1253621, Note_off_c, 0, 74, 0
2, 1253632, Note_on_c, 0, 69, 110
2, 1253877, Note_off_c, 0, 69, 0
2, 1253888, Note_on_c, 0, 74, 110
2, 1254133, Note_off_c, 0, 74, 0
2, 1254144, Note_on_c, 0, 81, 110
2, 1254389, Note_off_c, 0, 81, 0
2, 1254400, Note_on_c, 0, 80, 110
2, 1254645, Note_off_c, 0, 80, 0
2, 1254656, Note_on_c, 0, 69, 110
2, 1254901, Note_off_c, 0, 69, 0
2, 1254912, Note_on_c, 0, 74, 110
2, 1255157, Note_off_c, 0, 74, 0
2, 1255168, Note_on_c, 0, 79, 110
2, 1255413, Note_off_c, 0, 79, 0
2, 1255424, Note_on_c, 0, 77, 110
2, 1255669, Note_off_c, 0, 77, 0
2, 1255680, Note_on_c, 0, 69, 110
2, 1255925, Note_off_c, 0, 69, 0
2, 1255936, Note_on_c, 0, 74, 110
2, 1256181, Note_off_c, 0, 74, 0
2, 1256192, Note_on_c, 0, 77, 110
2, 1256437, Note_off_c, 0, 77, 0
2, 1256448, Note_on_c, 0, 76, 110
2, 1256693, Note_off_c, 0, 76, 0
2, 1256704, Note_on_c, 0, 67, 110
2, 1256949, Note_off_c, 0, 67, 0
2, 1256960, Note_on_c, 0, 73, 110
2, 1257205, Note_off_c, 0, 73, 0
2, 1257216, Note_on_c, 0, 76, 110
2, 1257461, Note_off_c, 0, 76, 0
2, 1257472, Note_on_c, 0, 74, 110
2, 1257973, Note_off_c, 0, 74, 0
2, 1257984, Note_on_c, 0, 69, 110
2, 1258229, Note_off_c, 0, 69, 0
2, 1258240, Note_on_c, 0, 74, 110
2, 1258485, Note_off_c, 0, 74, 0
2, 1258496, Note_on_c, 0, 73, 110
2, 1258997, Note_off_c, 0, 73, 0
2, 1259008, Note_on_c, 0, 67, 110
2, 1259253, Note_off_c, 0, 67, 0
2, 1259264, Note_on_c, 0, 70, 110
2, 1259509, Note_off_c, 0, 70, 0
2, 1259520, Note_on_c, 0, 69, 110
2, 1260021, Note_off_c, 0, 69, 0
2, 1260032, Note_on_c, 0, 69, 110
2, 1260277, Note_off_c, 0, 69, 0
2, 1260288, Note_on_c, 0, 74, 110
2, 1260533, Note_off_c, 0, 74, 0
2, 1260544, Note_on_c, 0, 77, 110
2, 1260789, Note_off_c, 0, 77, 0
2, 1260800, Note_on_c, 0, 69, 110
2, 1261045, Note_off_c, 0, 69, 0
2, 1261056, Note_on_c, 0, 74, 110
2, 1261301, Note_off_c, 0, 74, 0
2, 1261312, Note_on_c, 0, 77, 110
2, 1261557, Note_off_c, 0, 77, 0
2, 1261568, Note_on_c, 0, 76, 110
2, 1261813, Note_off_c, 0, 76, 0
2, 1261824, Note_on_c, 0, 67, 110
2, 1262069, Note_off_c, 0, 67, 0
2, 1262080, Note_on_c, 0, 70, 110
2, 1262325, Note_off_c, 0, 70, 0
2, 1262336, Note_on_c, 0, 73, 110
2, 1262581, Note_off_c, 0, 73, 0
2, 1262592, Note_on_c, 0, 76, 110
2, 1262837, Note_off_c, 0, 76, 0
2, 1262848, Note_on_c, 0, 73, 110
2, 1263093, Note_off_c, 0, 73, 0
2, 1263104, Note_on_c, 0, 76, 110
2, 1263349, Note_off_c, 0, 76, 0
2, 1263360, Note_on_c, 0, 79, 110
2, 1263605, Note_off_c, 0, 79, 0
2, 1263616, Note_on_c, 0, 77, 110
2, 1263861, Note_off_c, 0, 77, 0
2, 1263872, Note_on_c, 0, 81, 110
2, 1264117, Note_off_c, 0, 81, 0
2, 1264128, Note_on_c, 0, 86, 110
2, 1264373, Note_off_c, 0, 86, 0
2, 1264384, Note_on_c, 0, 81, 110
2, 1264629, Note_off_c, 0, 81, 0
2, 1264640, Note_on_c, 0, 77, 110
2, 1264885, Note_off_c, 0, 77, 0
2, 1264896, Note_on_c, 0, 86, 110
2, 1265141, Note_off_c, 0, 86, 0
2, 1265152, Note_on_c, 0, 81, 110
2, 1265397, Note_off_c, 0, 81, 0
2, 1265408, Note_on_c, 0, 77, 110
2, 1265653, Note_off_c, 0, 77, 0
2, 1265664, Note_on_c, 0, 76, 110
2, 1265909, Note_off_c, 0, 76, 0
2, 1265920, Note_on_c, 0, 79, 110
2, 1266165, Note_off_c, 0, 79, 0
2, 1266176, Note_on_c, 0, 85, 110
2, 1266421, Note_off_c, 0, 85, 0
2, 1266432, Note_on_c, 0, 79, 110
2, 1266677, Note_off_c, 0, 79, 0
2, 1266688, Note_on_c, 0, 76, 110
2, 1266933, Note_off_c, 0, 76, 0
2, 1266944, Note_on_c, 0, 85, 110
2, 1267189, Note_off_c, 0, 85, 0
2, 1267200, Note_on_c, 0, 79, 110
2, 1267445, Note_off_c, 0, 79, 0
2, 1267456, Note_on_c, 0, 76, 110
2, 1267701, Note_off_c, 0, 76, 0
2, 1267968, Note_on_c, 0, 69, 110
2, 1268213, Note_off_c, 0, 69, 0
2, 1268224, Note_on_c, 0, 74, 110
2, 1268469, Note_off_c, 0, 74, 0
2, 1268480, Note_on_c, 0, 69, 110
2, 1268725, Note_off_c, 0, 69, 0
2, 1268736, Note_on_c, 0, 77, 110
2, 1268981, Note_off_c, 0, 77, 0
2, 1268992, Note_on_c, 0, 69, 110
2, 1269237, Note_off_c, 0, 69, 0
2, 1269248, Note_on_c, 0, 74, 110
2, 1269493, Note_off_c, 0, 74, 0
2, 1269504, Note_on_c, 0, 69, 110
2, 1269749, Note_off_c, 0, 69, 0
2, 1269760, Note_on_c, 0, 75, 110
2, 1270005, Note_off_c, 0, 75, 0
2, 1270016, Note_on_c, 0, 67, 110
2, 1270261, Note_off_c, 0, 67, 0
2, 1270272, Note_on_c, 0, 74, 110
2, 1270517, Note_off_c, 0, 74, 0
2, 1270528, Note_on_c, 0, 69, 110
2, 1270773, Note_off_c, 0, 69, 0
2, 1270784, Note_on_c, 0, 75, 110
2, 1271029, Note_off_c, 0, 75, 0
2, 1271040, Note_on_c, 0, 69, 110
2, 1271285, Note_off_c, 0, 69, 0
2, 1271296, Note_on_c, 0, 74, 110
2, 1271541, Note_off_c, 0, 74, 0
2, 1271552, Note_on_c, 0, 69, 110
2, 1271797, Note_off_c, 0, 69, 0
2, 1272064, Note_on_c, 0, 67, 110
2, 1272309, Note_off_c, 0, 67, 0
2, 1272320, Note_on_c, 0, 73, 110
2, 1272565, Note_off_c, 0, 73, 0
2, 1272576, Note_on_c, 0, 67, 110
2, 1272821, Note_off_c, 0, 67, 0
2, 1273088, Note_on_c, 0, 67, 110
2, 1273333, Note_off_c, 0, 67, 0
2, 1273344, Note_on_c, 0, 73, 110
2, 1273589, Note_off_c, 0, 73, 0
2, 1273600, Note_on_c, 0, 67, 110
2, 1273845, Note_off_c, 0, 67, 0
2, 1274112, Note_on_c, 0, 67, 110
2, 1274357, Note_off_c, 0, 67, 0
2, 1274368, Note_on_c, 0, 73, 110
2, 1274613, Note_off_c, 0, 73, 0
2, 1274624, Note_on_c, 0, 67, 110
2, 1274869, Note_off_c, 0, 67, 0
2, 1275136, Note_on_c, 0, 67, 110
2, 1275381, Note_off_c, 0, 67, 0
2, 1275392, Note_on_c, 0, 73, 110
2, 1275637, Note_off_c, 0, 73, 0
2, 1275648, Note_on_c, 0, 67, 110
2, 1275893, Note_off_c, 0, 67, 0
2, 1276160, Note_on_c, 0, 68, 110
2, 1276405, Note_off_c, 0, 68, 0
2, 1276416, Note_on_c, 0, 71, 110
2, 1276661, Note_off_c, 0, 71, 0
2, 1276672, Note_on_c, 0, 68, 110
2, 1276917, Note_off_c, 0, 68, 0
2, 1276928, Note_on_c, 0, 74, 110
2, 1277173, Note_off_c, 0, 74, 0
2, 1277184, Note_on_c, 0, 68, 110
2, 1277429, Note_off_c, 0, 68, 0
2, 1277440, Note_on_c, 0, 71, 110
2, 1277685, Note_off_c, 0, 71, 0
2, 1277696, Note_on_c, 0, 68, 110
2, 1277941, Note_off_c, 0, 68, 0
2, 1278208, Note_on_c, 0, 68, 110
2, 1278453, Note_off_c, 0, 68, 0
2, 1278464, Note_on_c, 0, 71, 110
2, 1278709, Note_off_c, 0, 71, 0
2, 1278720, Note_on_c, 0, 68, 110
2, 1278965, Note_off_c, 0, 68, 0
2, 1278976, Note_on_c, 0, 73, 110
2, 1279221, Note_off_c, 0, 73, 0
2, 1279232, Note_on_c, 0, 67, 110
2, 1279477, Note_off_c, 0, 67, 0
2, 1279488, Note_on_c, 0, 70, 110
2, 1279733, Note_off_c, 0, 70, 0
2, 1279744, Note_on_c, 0, 67, 110
2, 1279989, Note_off_c, 0, 67, 0
2, 1280256, Note_on_c, 0, 69, 110
2, 1280501, Note_off_c, 0, 69, 0
2, 1280512, Note_on_c, 0, 74, 110
2, 1280757, Note_off_c, 0, 74, 0
2, 1280768, Note_on_c, 0, 69, 110
2, 1281013, Note_off_c, 0, 69, 0
2, 1281024, Note_on_c, 0, 77, 110
2, 1281269, Note_off_c, 0, 77, 0
2, 1281280, Note_on_c, 0, 69, 110
2, 1281525, Note_off_c, 0, 69, 0
2, 1281536, Note_on_c, 0, 74, 110
2, 1281781, Note_off_c, 0, 74, 0
2, 1281792, Note_on_c, 0, 69, 110
2, 1282037, Note_off_c, 0, 69, 0
2, 1282304, Note_on_c, 0, 69, 110
2, 1282549, Note_off_c, 0, 69, 0
2, 1282560, Note_on_c, 0, 74, 110
2, 1282805, Note_off_c, 0, 74, 0
2, 1282816, Note_on_c, 0, 69, 110
2, 1283061, Note_off_c, 0, 69, 0
2, 1283072, Note_on_c, 0, 77, 110
2, 1283317, Note_off_c, 0, 77, 0
2, 1283328, Note_on_c, 0, 74, 110
2, 1283573, Note_off_c, 0, 74, 0
2, 1283584, Note_on_c, 0, 77, 110
2, 1283829, Note_off_c, 0, 77, 0
2, 1283840, Note_on_c, 0, 81, 110
2, 1284085, Note_off_c, 0, 81, 0
2, 1284096, Note_on_c, 0, 74, 110
2, 1284096, Note_on_c, 0, 86, 110
2, 1284341, Note_off_c, 0, 74, 0
2, 1284341, Note_off_c, 0, 86, 0
2, 1284352, Note_on_c, 0, 74, 110
2, 1284597, Note_off_c, 0, 74, 0
2, 1284608, Note_on_c, 0, 77, 110
2, 1284853, Note_off_c, 0, 77, 0
2, 1284864, Note_on_c, 0, 74, 110
2, 1285109, Note_off_c, 0, 74, 0
2, 1285120, Note_on_c, 0, 81, 110
2, 1285365, Note_off_c, 0, 81, 0
2, 1285376, Note_on_c, 0, 74, 110
2, 1285621, Note_off_c, 0, 74, 0
2, 1285632, Note_on_c, 0, 77, 110
2, 1285877, Note_off_c, 0, 77, 0
2, 1285888, Note_on_c, 0, 74, 110
2, 1286133, Note_off_c, 0, 74, 0
2, 1286144, Note_on_c, 0, 75, 110
2, 1286144, Note_on_c, 0, 81, 110
2, 1286389, Note_off_c, 0, 75, 0
2, 1286389, Note_off_c, 0, 81, 0
2, 1286400, Note_on_c, 0, 74, 110
2, 1286645, Note_off_c, 0, 74, 0
2, 1286656, Note_on_c, 0, 74, 110
2, 1286656, Note_on_c, 0, 77, 110
2, 1287157, Note_off_c, 0, 74, 0
2, 1287157, Note_off_c, 0, 77, 0
2, 1287168, Note_on_c, 0, 73, 110
2, 1287168, Note_on_c, 0, 81, 110
2, 1287413, Note_off_c, 0, 73, 0
2, 1287413, Note_off_c, 0, 81, 0
2, 1287424, Note_on_c, 0, 74, 110
2, 1287669, Note_off_c, 0, 74, 0
2, 1287680, Note_on_c, 0, 68, 110
2, 1287680, Note_on_c, 0, 77, 110
2, 1287925, Note_off_c, 0, 68, 0
2, 1287925, Note_off_c, 0, 77, 0
2, 1287936, Note_on_c, 0, 74, 110
2, 1288181, Note_off_c, 0, 74, 0
2, 1288192, Note_on_c, 0, 69, 110
2, 1288437, Note_off_c, 0, 69, 0
2, 1288448, Note_on_c, 0, 73, 110
2, 1288693, Note_off_c, 0, 73, 0
2, 1288704, Note_on_c, 0, 76, 110
2, 1288949, Note_off_c, 0, 76, 0
2, 1288960, Note_on_c, 0, 73, 110
2, 1289205, Note_off_c, 0, 73, 0
2, 1289216, Note_on_c, 0, 79, 110
2, 1289461, Note_off_c, 0, 79, 0
2, 1289472, Note_on_c, 0, 73, 110
2, 1289717, Note_off_c, 0, 73, 0
2, 1289728, Note_on_c, 0, 76, 110
2, 1289973, Note_off_c, 0, 76, 0
2, 1289984, Note_on_c, 0, 73, 110
2, 1290229, Note_off_c, 0, 73, 0
2, 1290240, Note_on_c, 0, 69, 110
2, 1290485, Note_off_c, 0, 69, 0
2, 1290496, Note_on_c, 0, 73, 110
2, 1290741, Note_off_c, 0, 73, 0
2, 1290752, Note_on_c, 0, 76, 110
2, 1290997, Note_off_c, 0, 76, 0
2, 1291008, Note_on_c, 0, 73, 110
2, 1291253, Note_off_c, 0, 73, 0
2, 1291264, Note_on_c, 0, 79, 110
2, 1291509, Note_off_c, 0, 79, 0
2, 1291520, Note_on_c, 0, 73, 110
2, 1291765, Note_off_c, 0, 73, 0
2, 1291776, Note_on_c, 0, 76, 110
2, 1292021, Note_off_c, 0, 76, 0
2, 1292032, Note_on_c, 0, 73, 110
2, 1292277, Note_off_c, 0, 73, 0
2, 1292288, Note_on_c, 0, 68, 110
2, 1292288, Note_on_c, 0, 71, 110
2, 1292533, Note_off_c, 0, 68, 0
2, 1292533, Note_off_c, 0, 71, 0
2, 1292544, Note_on_c, 0, 74, 110
2, 1292789, Note_off_c, 0, 74, 0
2, 1292800, Note_on_c, 0, 77, 110
2, 1293045, Note_off_c, 0, 77, 0
2, 1293056, Note_on_c, 0, 74, 110
2, 1293301, Note_off_c, 0, 74, 0
2, 1293312, Note_on_c, 0, 80, 110
2, 1293557, Note_off_c, 0, 80, 0
2, 1293568, Note_on_c, 0, 74, 110
2, 1293813, Note_off_c, 0, 74, 0
2, 1293824, Note_on_c, 0, 77, 110
2, 1294069, Note_off_c, 0, 77, 0
2, 1294080, Note_on_c, 0, 74, 110
2, 1294325, Note_off_c, 0, 74, 0
2, 1294336, Note_on_c, 0, 69, 110
2, 1294336, Note_on_c, 0, 71, 110
2, 1294581, Note_off_c, 0, 69, 0
2, 1294581, Note_off_c, 0, 71, 0
2, 1294592, Note_on_c, 0, 74, 110
2, 1294837, Note_off_c, 0, 74, 0
2, 1294848, Note_on_c, 0, 77, 110
2, 1295093, Note_off_c, 0, 77, 0
2, 1295104, Note_on_c, 0, 74, 110
2, 1295349, Note_off_c, 0, 74, 0
2, 1295360, Note_on_c, 0, 67, 110
2, 1295360, Note_on_c, 0, 79, 110
2, 1295605, Note_off_c, 0, 67, 0
2, 1295605, Note_off_c, 0, 79, 0
2, 1295616, Note_on_c, 0, 70, 110
2, 1295861, Note_off_c, 0, 70, 0
2, 1295872, Note_on_c, 0, 73, 110
2, 1296117, Note_off_c, 0, 73, 0
2, 1296128, Note_on_c, 0, 70, 110
2, 1296373, Note_off_c, 0, 70, 0
2, 1296384, Note_on_c, 0, 69, 110
2, 1296629, Note_off_c, 0, 69, 0
2, 1296640, Note_on_c, 0, 74, 110
2, 1296885, Note_off_c, 0, 74, 0
2, 1296896, Note_on_c, 0, 77, 110
2, 1297141, Note_off_c, 0, 77, 0
2, 1297152, Note_on_c, 0, 74, 110
2, 1297397, Note_off_c, 0, 74, 0
2, 1297408, Note_on_c, 0, 81, 110
2, 1297653, Note_off_c, 0, 81, 0
2, 1297664, Note_on_c, 0, 69, 110
2, 1297909, Note_off_c, 0, 69, 0
2, 1297920, Note_on_c, 0, 74, 110
2, 1298165, Note_off_c, 0, 74, 0
2, 1298176, Note_on_c, 0, 77, 110
2, 1298421, Note_off_c, 0, 77, 0
2, 1298432, Note_on_c, 0, 74, 110
2, 1298432, Note_on_c, 0, 77, 110
2, 1298432, Note_on_c, 0, 81, 110
2, 1298933, Note_off_c, 0, 74, 0
2, 1298933, Note_off_c, 0, 77, 0
2, 1298933, Note_off_c, 0, 81, 0
2, 1298944, Note_on_c, 0, 74, 110
2, 1298944, Note_on_c, 0, 77, 110
2, 1298944, Note_on_c, 0, 81, 110
2, 1299445, Note_off_c, 0, 74, 0
2, 1299445, Note_off_c, 0, 77, 0
2, 1299445, Note_off_c, 0, 81, 0
2, 1299456, Note_on_c, 0, 74, 110
2, 1299456, Note_on_c, 0, 77, 110
2, 1299456, Note_on_c, 0, 81, 110
2, 1299957, Note_off_c, 0, 74, 0
2, 1299957, Note_off_c, 0, 77, 0
2, 1299957, Note_off_c, 0, 81, 0
2, 1299968, Note_on_c, 0, 74, 110
2, 1299968, Note_on_c, 0, 77, 110
2, 1299968, Note_on_c, 0, 81, 110
2, 1300469, Note_off_c, 0, 74, 0
2, 1300469, Note_off_c, 0, 77, 0
2, 1300469, Note_off_c, 0, 81, 0
2, 1300736, Note_on_c, 0, 57, 110
2, 1300736, Note_on_c, 0, 62, 110
2, 1300736, Note_on_c, 0, 65, 110
2, 1300981, Note_off_c, 0, 57, 0
2, 1300981, Note_off_c, 0, 62, 0
2, 1300981, Note_off_c, 0, 65, 0
2, 1300992, Note_on_c, 0, 57, 110
2, 1300992, Note_on_c, 0, 62, 110
2, 1300992, Note_on_c, 0, 65, 110
2, 1301237, Note_off_c, 0, 57, 0
2, 1301237, Note_off_c, 0, 62, 0
2, 1301237, Note_off_c, 0, 65, 0
2, 1301248, Note_on_c, 0, 57, 110
2, 1301248, Note_on_c, 0, 62, 110
2, 1301248, Note_on_c, 0, 65, 110
2, 1301493, Note_off_c, 0, 57, 0
2, 1301493, Note_off_c, 0, 62, 0
2, 1301493, Note_off_c, 0, 65, 0
2, 1301504, Note_on_c, 0, 58, 110
2, 1301504, Note_on_c, 0, 64, 110
2, 1301749, Note_off_c, 0, 58, 0
2, 1301749, Note_off_c, 0, 64, 0
2, 1301760, Note_on_c, 0, 58, 110
2, 1301760, Note_on_c, 0, 64, 110
2, 1302005, Note_off_c, 0, 58, 0
2, 1302005, Note_off_c, 0, 64, 0
2, 1302016, Note_on_c, 0, 55, 110
2, 1302016, Note_on_c, 0, 61, 110
2, 1302261, Note_off_c, 0, 55, 0
2, 1302261, Note_off_c, 0, 61, 0
2, 1302272, Note_on_c, 0, 55, 110
2, 1302272, Note_on_c, 0, 61, 110
2, 1302517, Note_off_c, 0, 55, 0
2, 1302517, Note_off_c, 0, 61, 0
2, 1302528, Note_on_c, 0, 57, 110
2, 1302528, Note_on_c, 0, 62, 110
2, 1302773, Note_off_c, 0, 57, 0
2, 1302773, Note_off_c, 0, 62, 0
2, 1302784, Note_on_c, 0, 57, 110
2, 1302784, Note_on_c, 0, 62, 110
2, 1303029, Note_off_c, 0, 57, 0
2, 1303029, Note_off_c, 0, 62, 0
2, 1303040, Note_on_c, 0, 57, 110
2, 1303040, Note_on_c, 0, 62, 110
2, 1303040, Note_on_c, 0, 65, 110
2, 1303285, Note_off_c, 0, 57, 0
2, 1303285, Note_off_c, 0, 62, 0
2, 1303285, Note_off_c, 0, 65, 0
2, 1303296, Note_on_c, 0, 57, 110
2, 1303296, Note_on_c, 0, 62, 110
2, 1303296, Note_on_c, 0, 65, 110
2, 1303541, Note_off_c, 0, 57, 0
2, 1303541, Note_off_c, 0, 62, 0
2, 1303541, Note_off_c, 0, 65, 0
2, 1303552, Note_on_c, 0, 58, 110
2, 1303552, Note_on_c, 0, 64, 110
2, 1303797, Note_off_c, 0, 58, 0
2, 1303797, Note_off_c, 0, 64, 0
2, 1303808, Note_on_c, 0, 58, 110
2, 1303808, Note_on_c, 0, 64, 110
2, 1304053, Note_off_c, 0, 58, 0
2, 1304053, Note_off_c, 0, 64, 0
2, 1304064, Note_on_c, 0, 55, 110
2, 1304064, Note_on_c, 0, 60, 110
2, 1304309, Note_off_c, 0, 55, 0
2, 1304309, Note_off_c, 0, 60, 0
2, 1304320, Note_on_c, 0, 55, 110
2, 1304320, Note_on_c, 0, 60, 110
2, 1304565, Note_off_c, 0, 55, 0
2, 1304565, Note_off_c, 0, 60, 0
2, 1304832, Note_on_c, 0, 62, 110
2, 1304832, Note_on_c, 0, 65, 110
2, 1304832, Note_on_c, 0, 70, 110
2, 1305077, Note_off_c, 0, 62, 0
2, 1305077, Note_off_c, 0, 65, 0
2, 1305077, Note_off_c, 0, 70, 0
2, 1305088, Note_on_c, 0, 62, 110
2, 1305088, Note_on_c, 0, 65, 110
2, 1305088, Note_on_c, 0, 70, 110
2, 1305333, Note_off_c, 0, 62, 0
2, 1305333, Note_off_c, 0, 65, 0
2, 1305333, Note_off_c, 0, 70, 0
2, 1305344, Note_on_c, 0, 62, 110
2, 1305344, Note_on_c, 0, 65, 110
2, 1305344, Note_on_c, 0, 70, 110
2, 1305589, Note_off_c, 0, 62, 0
2, 1305589, Note_off_c, 0, 65, 0
2, 1305589, Note_off_c, 0, 70, 0
2, 1305600, Note_on_c, 0, 62, 110
2, 1305600, Note_on_c, 0, 65, 110
2, 1305600, Note_on_c, 0, 74, 110
2, 1305845, Note_off_c, 0, 62, 0
2, 1305845, Note_off_c, 0, 65, 0
2, 1305845, Note_off_c, 0, 74, 0
2, 1305856, Note_on_c, 0, 62, 110
2, 1305856, Note_on_c, 0, 65, 110
2, 1305856, Note_on_c, 0, 74, 110
2, 1306101, Note_off_c, 0, 62, 0
2, 1306101, Note_off_c, 0, 65, 0
2, 1306101, Note_off_c, 0, 74, 0
2, 1306112, Note_on_c, 0, 62, 110
2, 1306112, Note_on_c, 0, 65, 110
2, 1306112, Note_on_c, 0, 70, 110
2, 1306357, Note_off_c, 0, 62, 0
2, 1306357, Note_off_c, 0, 65, 0
2, 1306357, Note_off_c, 0, 70, 0
2, 1306368, Note_on_c, 0, 62, 110
2, 1306368, Note_on_c, 0, 65, 110
2, 1306368, Note_on_c, 0, 70, 110
2, 1306613, Note_off_c, 0, 62, 0
2, 1306613, Note_off_c, 0, 65, 0
2, 1306613, Note_off_c, 0, 70, 0
2, 1306624, Note_on_c, 0, 67, 110
2, 1306624, Note_on_c, 0, 76, 110
2, 1306624, Note_on_c, 0, 82, 110
2, 1306869, Note_off_c, 0, 67, 0
2, 1306869, Note_off_c, 0, 76, 0
2, 1306869, Note_off_c, 0, 82, 0
2, 1306880, Note_on_c, 0, 67, 110
2, 1306880, Note_on_c, 0, 76, 110
2, 1306880, Note_on_c, 0, 82, 110
2, 1307125, Note_off_c, 0, 67, 0
2, 1307125, Note_off_c, 0, 76, 0
2, 1307125, Note_off_c, 0, 82, 0
2, 1307136, Note_on_c, 0, 67, 110
2, 1307136, Note_on_c, 0, 73, 110
2, 1307136, Note_on_c, 0, 79, 110
2, 1307381, Note_off_c, 0, 67, 0
2, 1307381, Note_off_c, 0, 73, 0
2, 1307381, Note_off_c, 0, 79, 0
2, 1307392, Note_on_c, 0, 67, 110
2, 1307392, Note_on_c, 0, 73, 110
2, 1307392, Note_on_c, 0, 79, 110
2, 1307637, Note_off_c, 0, 67, 0
2, 1307637, Note_off_c, 0, 73, 0
2, 1307637, Note_off_c, 0, 79, 0
2, 1307648, Note_on_c, 0, 67, 110
2, 1307648, Note_on_c, 0, 70, 110
2, 1307648, Note_on_c, 0, 79, 110
2, 1307648, Note_on_c, 0, 85, 110
2, 1307893, Note_off_c, 0, 67, 0
2, 1307893, Note_off_c, 0, 70, 0
2, 1307893, Note_off_c, 0, 79, 0
2, 1307893, Note_off_c, 0, 85, 0
2, 1307904, Note_on_c, 0, 67, 110
2, 1307904, Note_on_c, 0, 70, 110
2, 1307904, Note_on_c, 0, 79, 110
2, 1307904, Note_on_c, 0, 85, 110
2, 1308149, Note_off_c, 0, 67, 0
2, 1308149, Note_off_c, 0, 70, 0
2, 1308149, Note_off_c, 0, 79, 0
2, 1308149, Note_off_c, 0, 85, 0
2, 1308160, Note_on_c, 0, 67, 110
2, 1308160, Note_on_c, 0, 70, 110
2, 1308160, Note_on_c, 0, 76, 110
2, 1308160, Note_on_c, 0, 82, 110
2, 1308405, Note_off_c, 0, 67, 0
2, 1308405, Note_off_c, 0, 70, 0
2, 1308405, Note_off_c, 0, 76, 0
2, 1308405, Note_off_c, 0, 82, 0
2, 1308416, Note_on_c, 0, 67, 110
2, 1308416, Note_on_c, 0, 70, 110
2, 1308416, Note_on_c, 0, 76, 110
2, 1308416, Note_on_c, 0, 82, 110
2, 1308661, Note_off_c, 0, 67, 0
2, 1308661, Note_off_c, 0, 70, 0
2, 1308661, Note_off_c, 0, 76, 0
2, 1308661, Note_off_c, 0, 82, 0
2, 1308928, Note_on_c, 0, 69, 110
2, 1309173, Note_off_c, 0, 69, 0
2, 1309184, Note_on_c, 0, 74, 110
2, 1309429, Note_off_c, 0, 74, 0
2, 1309440, Note_on_c, 0, 81, 110
2, 1309685, Note_off_c, 0, 81, 0
2, 1309696, Note_on_c, 0, 80, 110
2, 1309941, Note_off_c, 0, 80, 0
2, 1309952, Note_on_c, 0, 69, 110
2, 1310197, Note_off_c, 0, 69, 0
2, 1310208, Note_on_c, 0, 74, 110
2, 1310453, Note_off_c, 0, 74, 0
2, 1310464, Note_on_c, 0, 79, 110
2, 1310709, Note_off_c, 0, 79, 0
2, 1310720, Note_on_c, 0, 77, 110
2, 1310965, Note_off_c, 0, 77, 0
2, 1310976, Note_on_c, 0, 69, 110
2, 1311221, Note_off_c, 0, 69, 0
2, 1311232, Note_on_c, 0, 74, 110
2, 1311477, Note_off_c, 0, 74, 0
2, 1311488, Note_on_c, 0, 77, 110
2, 1311733, Note_off_c, 0, 77, 0
2, 1311744, Note_on_c, 0, 76, 110
2, 1311989, Note_off_c, 0, 76, 0
2, 1312000, Note_on_c, 0, 67, 110
2, 1312245, Note_off_c, 0, 67, 0
2, 1312256, Note_on_c, 0, 73, 110
2, 1312501, Note_off_c, 0, 73, 0
2, 1312512, Note_on_c, 0, 76, 110
2, 1312757, Note_off_c, 0, 76, 0
2, 1312768, Note_on_c, 0, 74, 110
2, 1313269, Note_off_c, 0, 74, 0
2, 1313280, Note_on_c, 0, 69, 110
2, 1313525, Note_off_c, 0, 69, 0
2, 1313536, Note_on_c, 0, 74, 110
2, 1313781, Note_off_c, 0, 74, 0
2, 1313792, Note_on_c, 0, 73, 110
2, 1314293, Note_off_c, 0, 73, 0
2, 1314304, Note_on_c, 0, 67, 110
2, 1314549, Note_off_c, 0, 67, 0
2, 1314560, Note_on_c, 0, 70, 110
2, 1314805, Note_off_c, 0, 70, 0
2, 1314816, Note_on_c, 0, 69, 110
2, 1315317, Note_off_c, 0, 69, 0
2, 1315328, Note_on_c, 0, 69, 110
2, 1315573, Note_off_c, 0, 69, 0
2, 1315584, Note_on_c, 0, 74, 110
2, 1315829, Note_off_c, 0, 74, 0
2, 1315840, Note_on_c, 0, 77, 110
2, 1316085, Note_off_c, 0, 77, 0
2, 1316096, Note_on_c, 0, 69, 110
2, 1316341, Note_off_c, 0, 69, 0
2, 1316352, Note_on_c, 0, 74, 110
2, 1316597, Note_off_c, 0, 74, 0
2, 1316608, Note_on_c, 0, 77, 110
2, 1316853, Note_off_c, 0, 77, 0
2, 1316864, Note_on_c, 0, 70, 110
2, 1317109, Note_off_c, 0, 70, 0
2, 1317120, Note_on_c, 0, 67, 110
2, 1317365, Note_off_c, 0, 67, 0
2, 1317376, Note_on_c, 0, 70, 110
2, 1317621, Note_off_c, 0, 70, 0
2, 1317632, Note_on_c, 0, 73, 110
2, 1317877, Note_off_c, 0, 73, 0
2, 1317888, Note_on_c, 0, 76, 110
2, 1318133, Note_off_c, 0, 76, 0
2, 1318144, Note_on_c, 0, 70, 110
2, 1318389, Note_off_c, 0, 70, 0
2, 1318400, Note_on_c, 0, 73, 110
2, 1318645, Note_off_c, 0, 73, 0
2, 1318656, Note_on_c, 0, 76, 110
2, 1318901, Note_off_c, 0, 76, 0
2, 1318912, Note_on_c, 0, 77, 110
2, 1319157, Note_off_c, 0, 77, 0
2, 1319168, Note_on_c, 0, 81, 110
2, 1319413, Note_off_c, 0, 81, 0
2, 1319424, Note_on_c, 0, 86, 110
2, 1319669, Note_off_c, 0, 86, 0
2, 1319680, Note_on_c, 0, 81, 110
2, 1319925, Note_off_c, 0, 81, 0
2, 1319936, Note_on_c, 0, 77, 110
2, 1320181, Note_off_c, 0, 77, 0
2, 1320192, Note_on_c, 0, 86, 110
2, 1320437, Note_off_c, 0, 86, 0
2, 1320448, Note_on_c, 0, 81, 110
2, 1320693, Note_off_c, 0, 81, 0
2, 1320704, Note_on_c, 0, 77, 110
2, 1320949, Note_off_c, 0, 77, 0
2, 1320960, Note_on_c, 0, 76, 110
2, 1321205, Note_off_c, 0, 76, 0
2, 1321216, Note_on_c, 0, 79, 110
2, 1321461, Note_off_c, 0, 79, 0
2, 1321472, Note_on_c, 0, 85, 110
2, 1321717, Note_off_c, 0, 85, 0
2, 1321728, Note_on_c, 0, 79, 110
2, 1321973, Note_off_c, 0, 79, 0
2, 1321984, Note_on_c, 0, 76, 110
2, 1322229, Note_off_c, 0, 76, 0
2, 1322240, Note_on_c, 0, 85, 110
2, 1322485, Note_off_c, 0, 85, 0
2, 1322496, Note_on_c, 0, 79, 110
2, 1322741, Note_off_c, 0, 79, 0
2, 1322752, Note_on_c, 0, 76, 110
2, 1322997, Note_off_c, 0, 76, 0
2, 1323008, Note_on_c, 0, 74, 110
2, 1323253, Note_off_c, 0, 74, 0
2, 1323264, Note_on_c, 0, 77, 110
2, 1323509, Note_off_c, 0, 77, 0
2, 1323520, Note_on_c, 0, 81, 110
2, 1323765, Note_off_c, 0, 81, 0
2, 1323776, Note_on_c, 0, 77, 110
2, 1324021, Note_off_c, 0, 77, 0
2, 1324032, Note_on_c, 0, 74, 110
2, 1324277, Note_off_c, 0, 74, 0
2, 1324288, Note_on_c, 0, 81, 110
2, 1324533, Note_off_c, 0, 81, 0
2, 1324544, Note_on_c, 0, 77, 110
2, 1324789, Note_off_c, 0, 77, 0
2, 1324800, Note_on_c, 0, 74, 110
2, 1325045, Note_off_c, 0, 74, 0
2, 1325056, Note_on_c, 0, 73, 110
2, 1325557, Note_off_c, 0, 73, 0
2, 1325568, Note_on_c, 0, 69, 110
2, 1325568, Note_on_c, 0, 73, 110
2, 1325568, Note_on_c, 0, 79, 110
2, 1326069, Note_off_c, 0, 69, 0
2, 1326069, Note_off_c, 0, 73, 0
2, 1326069, Note_off_c, 0, 79, 0
2, 1326080, Note_on_c, 0, 74, 110
2, 1326080, Note_on_c, 0, 77, 110
2, 1326080, Note_on_c, 0, 82, 110
2, 1326581, Note_off_c, 0, 74, 0
2, 1326581, Note_off_c, 0, 77, 0
2, 1326581, Note_off_c, 0, 82, 0
2, 1326592, Note_on_c, 0, 73, 110
2, 1326592, Note_on_c, 0, 76, 110
2, 1326592, Note_on_c, 0, 81, 110
2, 1327093, Note_off_c, 0, 73, 0
2, 1327093, Note_off_c, 0, 76, 0
2, 1327093, Note_off_c, 0, 81, 0
2, 1327104, Note_on_c, 0, 69, 110
2, 1327104, Note_on_c, 0, 72, 110
2, 1327104, Note_on_c, 0, 79, 110
2, 1328896, Note_off_c, 0, 69, 0
2, 1328896, Note_off_c, 0, 72, 0
2, 1328896, Note_off_c, 0, 79, 0
2, 1329408, Note_on_c, 0, 74, 110
2, 1329408, Note_on_c, 0, 86, 110
2, 1329653, Note_off_c, 0, 74, 0
2, 1329653, Note_off_c, 0, 86, 0
2, 1329664, Note_on_c, 0, 72, 110
2, 1329664, Note_on_c, 0, 84, 110
2, 1329909, Note_off_c, 0, 72, 0
2, 1329909, Note_off_c, 0, 84, 0
2, 1329920, Note_on_c, 0, 74, 110
2, 1329920, Note_on_c, 0, 86, 110
2, 1330165, Note_off_c, 0, 74, 0
2, 1330165, Note_off_c, 0, 86, 0
2, 1330176, Note_on_c, 0, 75, 110
2, 1330176, Note_on_c, 0, 87, 110
2, 1330421, Note_off_c, 0, 75, 0
2, 1330421, Note_off_c, 0, 87, 0
2, 1330432, Note_on_c, 0, 74, 110
2, 1330432, Note_on_c, 0, 86, 110
2, 1330677, Note_off_c, 0, 74, 0
2, 1330677, Note_off_c, 0, 86, 0
2, 1330688, Note_on_c, 0, 72, 110
2, 1330688, Note_on_c, 0, 84, 110
2, 1330933, Note_off_c, 0, 72, 0
2, 1330933, Note_off_c, 0, 84, 0
2, 1330944, Note_on_c, 0, 68, 110
2, 1330944, Note_on_c, 0, 80, 110
2, 1331189, Note_off_c, 0, 68, 0
2, 1331189, Note_off_c, 0, 80, 0
2, 1331200, Note_on_c, 0, 69, 110
2, 1331200, Note_on_c, 0, 81, 110
2, 1331445, Note_off_c, 0, 69, 0
2, 1331445, Note_off_c, 0, 81, 0
2, 1331456, Note_on_c, 0, 77, 110
2, 1331701, Note_off_c, 0, 77, 0
2, 1331712, Note_on_c, 0, 76, 110
2, 1331957, Note_off_c, 0, 76, 0
2, 1331968, Note_on_c, 0, 77, 110
2, 1332213, Note_off_c, 0, 77, 0
2, 1332224, Note_on_c, 0, 67, 110
2, 1332224, Note_on_c, 0, 79, 110
2, 1332469, Note_off_c, 0, 67, 0
2, 1332469, Note_off_c, 0, 79, 0
2, 1332480, Note_on_c, 0, 77, 110
2, 1332725, Note_off_c, 0, 77, 0
2, 1332736, Note_on_c, 0, 76, 110
2, 1332981, Note_off_c, 0, 76, 0
2, 1332992, Note_on_c, 0, 73, 110
2, 1333237, Note_off_c, 0, 73, 0
2, 1333248, Note_on_c, 0, 74, 110
2, 1334101, Note_off_c, 0, 74, 0
2, 1338880, Note_on_c, 0, 67, 110
2, 1339381, Note_off_c, 0, 67, 0
2, 1339904, Note_on_c, 0, 70, 110
2, 1340405, Note_off_c, 0, 70, 0
2, 1340416, Note_on_c, 0, 67, 110
2, 1340416, Note_on_c, 0, 69, 110
2, 1340917, Note_off_c, 0, 67, 0
2, 1340917, Note_off_c, 0, 69, 0
2, 1340928, Note_on_c, 0, 73, 110
2, 1341429, Note_off_c, 0, 73, 0
2, 1341440, Note_on_c, 0, 69, 110
2, 1341440, Note_on_c, 0, 74, 110
2, 1341685, Note_off_c, 0, 69, 0
2, 1341685, Note_off_c, 0, 74, 0
2, 1341696, Note_on_c, 0, 69, 110
2, 1341941, Note_off_c, 0, 69, 0
2, 1341952, Note_on_c, 0, 74, 110
2, 1342197, Note_off_c, 0, 74, 0
2, 1342208, Note_on_c, 0, 81, 110
2, 1342453, Note_off_c, 0, 81, 0
2, 1342464, Note_on_c, 0, 80, 110
2, 1342709, Note_off_c, 0, 80, 0
2, 1342720, Note_on_c, 0, 69, 110
2, 1342965, Note_off_c, 0, 69, 0
2, 1342976, Note_on_c, 0, 74, 110
2, 1343221, Note_off_c, 0, 74, 0
2, 1343232, Note_on_c, 0, 79, 110
2, 1343477, Note_off_c, 0, 79, 0
2, 1343488, Note_on_c, 0, 77, 110
2, 1343733, Note_off_c, 0, 77, 0
2, 1343744, Note_on_c, 0, 69, 110
2, 1343989, Note_off_c, 0, 69, 0
2, 1344000, Note_on_c, 0, 74, 110
2, 1344245, Note_off_c, 0, 74, 0
2, 1344256, Note_on_c, 0, 77, 110
2, 1344501, Note_off_c, 0, 77, 0
2, 1344512, Note_on_c, 0, 76, 110
2, 1344757, Note_off_c, 0, 76, 0
2, 1344768, Note_on_c, 0, 67, 110
2, 1345013, Note_off_c, 0, 67, 0
2, 1345024, Note_on_c, 0, 73, 110
2, 1345269, Note_off_c, 0, 73, 0
2, 1345280, Note_on_c, 0, 76, 110
2, 1345525, Note_off_c, 0, 76, 0
2, 1345536, Note_on_c, 0, 74, 110
2, 1345781, Note_off_c, 0, 74, 0
2, 1345792, Note_on_c, 0, 65, 110
2, 1346037, Note_off_c, 0, 65, 0
2, 1346048, Note_on_c, 0, 69, 110
2, 1346293, Note_off_c, 0, 69, 0
2, 1346304, Note_on_c, 0, 74, 110
2, 1346549, Note_off_c, 0, 74, 0
2, 1346560, Note_on_c, 0, 73, 110
2, 1347061, Note_off_c, 0, 73, 0
2, 1347072, Note_on_c, 0, 67, 110
2, 1347317, Note_off_c, 0, 67, 0
2, 1347328, Note_on_c, 0, 70, 110
2, 1347573, Note_off_c, 0, 70, 0
2, 1347584, Note_on_c, 0, 69, 110
2, 1347829, Note_off_c, 0, 69, 0
2, 1347840, Note_on_c, 0, 65, 110
2, 1348085, Note_off_c, 0, 65, 0
2, 1348096, Note_on_c, 0, 69, 110
2, 1348341, Note_off_c, 0, 69, 0
2, 1348352, Note_on_c, 0, 74, 110
2, 1348597, Note_off_c, 0, 74, 0
2, 1348608, Note_on_c, 0, 77, 110
2, 1348853, Note_off_c, 0, 77, 0
2, 1348864, Note_on_c, 0, 69, 110
2, 1349109, Note_off_c, 0, 69, 0
2, 1349120, Note_on_c, 0, 74, 110
2, 1349365, Note_off_c, 0, 74, 0
2, 1349376, Note_on_c, 0, 77, 110
2, 1349621, Note_off_c, 0, 77, 0
2, 1349632, Note_on_c, 0, 76, 110
2, 1349877, Note_off_c, 0, 76, 0
2, 1349888, Note_on_c, 0, 67, 110
2, 1350133, Note_off_c, 0, 67, 0
2, 1350144, Note_on_c, 0, 70, 110
2, 1350389, Note_off_c, 0, 70, 0
2, 1350400, Note_on_c, 0, 73, 110
2, 1350645, Note_off_c, 0, 73, 0
2, 1350656, Note_on_c, 0, 76, 110
2, 1350901, Note_off_c, 0, 76, 0
2, 1350912, Note_on_c, 0, 73, 110
2, 1351157, Note_off_c, 0, 73, 0
2, 1351168, Note_on_c, 0, 76, 110
2, 1351413, Note_off_c, 0, 76, 0
2, 1351424, Note_on_c, 0, 79, 110
2, 1351669, Note_off_c, 0, 79, 0
2, 1351680, Note_on_c, 0, 77, 110
2, 1351925, Note_off_c, 0, 77, 0
2, 1351936, Note_on_c, 0, 81, 110
2, 1352181, Note_off_c, 0, 81, 0
2, 1352192, Note_on_c, 0, 86, 110
2, 1352437, Note_off_c, 0, 86, 0
2, 1352448, Note_on_c, 0, 81, 110
2, 1352693, Note_off_c, 0, 81, 0
2, 1352704, Note_on_c, 0, 77, 110
2, 1352949, Note_off_c, 0, 77, 0
2, 1352960, Note_on_c, 0, 86, 110
2, 1353205, Note_off_c, 0, 86, 0
2, 1353216, Note_on_c, 0, 81, 110
2, 1353461, Note_off_c, 0, 81, 0
2, 1353472, Note_on_c, 0, 77, 110
2, 1353717, Note_off_c, 0, 77, 0
2, 1353728, Note_on_c, 0, 76, 110
2, 1353973, Note_off_c, 0, 76, 0
2, 1353984, Note_on_c, 0, 79, 110
2, 1354229, Note_off_c, 0, 79, 0
2, 1354240, Note_on_c, 0, 85, 110
2, 1354485, Note_off_c, 0, 85, 0
2, 1354496, Note_on_c, 0, 79, 110
2, 1354741, Note_off_c, 0, 79, 0
2, 1354752, Note_on_c, 0, 76, 110
2, 1354997, Note_off_c, 0, 76, 0
2, 1355008, Note_on_c, 0, 85, 110
2, 1355253, Note_off_c, 0, 85, 0
2, 1355264, Note_on_c, 0, 79, 110
2, 1355509, Note_off_c, 0, 79, 0
2, 1355520, Note_on_c, 0, 76, 110
2, 1355765, Note_off_c, 0, 76, 0
2, 1356032, Note_on_c, 0, 69, 110
2, 1356277, Note_off_c, 0, 69, 0
2, 1356288, Note_on_c, 0, 74, 110
2, 1356533, Note_off_c, 0, 74, 0
2, 1356544, Note_on_c, 0, 69, 110
2, 1356789, Note_off_c, 0, 69, 0
2, 1356800, Note_on_c, 0, 77, 110
2, 1357045, Note_off_c, 0, 77, 0
2, 1357056, Note_on_c, 0, 69, 110
2, 1357301, Note_off_c, 0, 69, 0
2, 1357312, Note_on_c, 0, 74, 110
2, 1357557, Note_off_c, 0, 74, 0
2, 1357568, Note_on_c, 0, 69, 110
2, 1357813, Note_off_c, 0, 69, 0
2, 1357824, Note_on_c, 0, 75, 110
2, 1358069, Note_off_c, 0, 75, 0
2, 1358080, Note_on_c, 0, 67, 110
2, 1358325, Note_off_c, 0, 67, 0
2, 1358336, Note_on_c, 0, 74, 110
2, 1358581, Note_off_c, 0, 74, 0
2, 1358592, Note_on_c, 0, 69, 110
2, 1358837, Note_off_c, 0, 69, 0
2, 1358848, Note_on_c, 0, 75, 110
2, 1359093, Note_off_c, 0, 75, 0
2, 1359104, Note_on_c, 0, 69, 110
2, 1359349, Note_off_c, 0, 69, 0
2, 1359360, Note_on_c, 0, 74, 110
2, 1359605, Note_off_c, 0, 74, 0
2, 1359616, Note_on_c, 0, 69, 110
2, 1359861, Note_off_c, 0, 69, 0
2, 1360128, Note_on_c, 0, 67, 110
2, 1360373, Note_off_c, 0, 67, 0
2, 1360384, Note_on_c, 0, 73, 110
2, 1360629, Note_off_c, 0, 73, 0
2, 1360640, Note_on_c, 0, 67, 110
2, 1360885, Note_off_c, 0, 67, 0
2, 1361152, Note_on_c, 0, 67, 110
2, 1361397, Note_off_c, 0, 67, 0
2, 1361408, Note_on_c, 0, 73, 110
2, 1361653, Note_off_c, 0, 73, 0
2, 1361664, Note_on_c, 0, 67, 110
2, 1361909, Note_off_c, 0, 67, 0
2, 1362176, Note_on_c, 0, 67, 110
2, 1362421, Note_off_c, 0, 67, 0
2, 1362432, Note_on_c, 0, 73, 110
2, 1362677, Note_off_c, 0, 73, 0
2, 1362688, Note_on_c, 0, 67, 110
2, 1362933, Note_off_c, 0, 67, 0
2, 1363200, Note_on_c, 0, 67, 110
2, 1363445, Note_off_c, 0, 67, 0
2, 1363456, Note_on_c, 0, 73, 110
2, 1363701, Note_off_c, 0, 73, 0
2, 1363712, Note_on_c, 0, 67, 110
2, 1363957, Note_off_c, 0, 67, 0
2, 1364224, Note_on_c, 0, 68, 110
2, 1364469, Note_off_c, 0, 68, 0
2, 1364480, Note_on_c, 0, 71, 110
2, 1364725, Note_off_c, 0, 71, 0
2, 1364736, Note_on_c, 0, 68, 110
2, 1364981, Note_off_c, 0, 68, 0
2, 1364992, Note_on_c, 0, 74, 110
2, 1365237, Note_off_c, 0, 74, 0
2, 1365248, Note_on_c, 0, 68, 110
2, 1365493, Note_off_c, 0, 68, 0
2, 1365504, Note_on_c, 0, 71, 110
2, 1365749, Note_off_c, 0, 71, 0
2, 1365760, Note_on_c, 0, 68, 110
2, 1366005, Note_off_c, 0, 68, 0
2, 1366272, Note_on_c, 0, 68, 110
2, 1366517, Note_off_c, 0, 68, 0
2, 1366528, Note_on_c, 0, 71, 110
2, 1366773, Note_off_c, 0, 71, 0
2, 1366784, Note_on_c, 0, 68, 110
2, 1367029, Note_off_c, 0, 68, 0
2, 1367040, Note_on_c, 0, 73, 110
2, 1367285, Note_off_c, 0, 73, 0
2, 1367296, Note_on_c, 0, 67, 110
2, 1367541, Note_off_c, 0, 67, 0
2, 1367552, Note_on_c, 0, 70, 110
2, 1367797, Note_off_c, 0, 70, 0
2, 1367808, Note_on_c, 0, 67, 110
2, 1368053, Note_off_c, 0, 67, 0
2, 1368320, Note_on_c, 0, 69, 110
2, 1368565, Note_off_c, 0, 69, 0
2, 1368576, Note_on_c, 0, 74, 110
2, 1368821, Note_off_c, 0, 74, 0
2, 1368832, Note_on_c, 0, 69, 110
2, 1369077, Note_off_c, 0, 69, 0
2, 1369088, Note_on_c, 0, 77, 110
2, 1369333, Note_off_c, 0, 77, 0
2, 1369344, Note_on_c, 0, 69, 110
2, 1369589, Note_off_c, 0, 69, 0
2, 1369600, Note_on_c, 0, 74, 110
2, 1369845, Note_off_c, 0, 74, 0
2, 1369856, Note_on_c, 0, 69, 110
2, 1370101, Note_off_c, 0, 69, 0
2, 1370368, Note_on_c, 0, 69, 110
2, 1370613, Note_off_c, 0, 69, 0
2, 1370624, Note_on_c, 0, 74, 110
2, 1370869, Note_off_c, 0, 74, 0
2, 1370880, Note_on_c, 0, 69, 110
2, 1371125, Note_off_c, 0, 69, 0
2, 1371136, Note_on_c, 0, 77, 110
2, 1371381, Note_off_c, 0, 77, 0
2, 1371392, Note_on_c, 0, 74, 110
2, 1371637, Note_off_c, 0, 74, 0
2, 1371648, Note_on_c, 0, 77, 110
2, 1371893, Note_off_c, 0, 77, 0
2, 1371904, Note_on_c, 0, 81, 110
2, 1372149, Note_off_c, 0, 81, 0
2, 1372160, Note_on_c, 0, 74, 110
2, 1372160, Note_on_c, 0, 86, 110
2, 1372405, Note_off_c, 0, 74, 0
2, 1372405, Note_off_c, 0, 86, 0
2, 1372416, Note_on_c, 0, 74, 110
2, 1372661, Note_off_c, 0, 74, 0
2, 1372672, Note_on_c, 0, 77, 110
2, 1372917, Note_off_c, 0, 77, 0
2, 1372928, Note_on_c, 0, 74, 110
2, 1373173, Note_off_c, 0, 74, 0
2, 1373184, Note_on_c, 0, 81, 110
2, 1373429, Note_off_c, 0, 81, 0
2, 1373440, Note_on_c, 0, 74, 110
2, 1373685, Note_off_c, 0, 74, 0
2, 1373696, Note_on_c, 0, 77, 110
2, 1373941, Note_off_c, 0, 77, 0
2, 1373952, Note_on_c, 0, 74, 110
2, 1374197, Note_off_c, 0, 74, 0
2, 1374208, Note_on_c, 0, 75, 110
2, 1374208, Note_on_c, 0, 81, 110
2, 1374453, Note_off_c, 0, 75, 0
2, 1374453, Note_off_c, 0, 81, 0
2, 1374464, Note_on_c, 0, 74, 110
2, 1374709, Note_off_c, 0, 74, 0
2, 1374720, Note_on_c, 0, 74, 110
2, 1374720, Note_on_c, 0, 77, 110
2, 1375221, Note_off_c, 0, 74, 0
2, 1375221, Note_off_c, 0, 77, 0
2, 1375232, Note_on_c, 0, 73, 110
2, 1375232, Note_on_c, 0, 81, 110
2, 1375477, Note_off_c, 0, 73, 0
2, 1375477, Note_off_c, 0, 81, 0
2, 1375488, Note_on_c, 0, 74, 110
2, 1375733, Note_off_c, 0, 74, 0
2, 1375744, Note_on_c, 0, 68, 110
2, 1375744, Note_on_c, 0, 77, 110
2, 1375989, Note_off_c, 0, 68, 0
2, 1375989, Note_off_c, 0, 77, 0
2, 1376000, Note_on_c, 0, 74, 110
2, 1376245, Note_off_c, 0, 74, 0
2, 1376256, Note_on_c, 0, 69, 110
2, 1376501, Note_off_c, 0, 69, 0
2, 1376512, Note_on_c, 0, 73, 110
2, 1376757, Note_off_c, 0, 73, 0
2, 1376768, Note_on_c, 0, 76, 110
2, 1377013, Note_off_c, 0, 76, 0
2, 1377024, Note_on_c, 0, 73, 110
2, 1377269, Note_off_c, 0, 73, 0
2, 1377280, Note_on_c, 0, 79, 110
2, 1377525, Note_off_c, 0, 79, 0
2, 1377536, Note_on_c, 0, 73, 110
2, 1377781, Note_off_c, 0, 73, 0
2, 1377792, Note_on_c, 0, 76, 110
2, 1378037, Note_off_c, 0, 76, 0
2, 1378048, Note_on_c, 0, 73, 110
2, 1378293, Note_off_c, 0, 73, 0
2, 1378304, Note_on_c, 0, 69, 110
2, 1378549, Note_off_c, 0, 69, 0
2, 1378560, Note_on_c, 0, 73, 110
2, 1378805, Note_off_c, 0, 73, 0
2, 1378816, Note_on_c, 0, 76, 110
2, 1379061, Note_off_c, 0, 76, 0
2, 1379072, Note_on_c, 0, 73, 110
2, 1379317, Note_off_c, 0, 73, 0
2, 1379328, Note_on_c, 0, 79, 110
2, 1379573, Note_off_c, 0, 79, 0
2, 1379584, Note_on_c, 0, 73, 110
2, 1379829, Note_off_c, 0, 73, 0
2, 1379840, Note_on_c, 0, 76, 110
2, 1380085, Note_off_c, 0, 76, 0
2, 1380096, Note_on_c, 0, 73, 110
2, 1380341, Note_off_c, 0, 73, 0
2, 1380352, Note_on_c, 0, 68, 110
2, 1380352, Note_on_c, 0, 71, 110
2, 1380597, Note_off_c, 0, 68, 0
2, 1380597, Note_off_c, 0, 71, 0
2, 1380608, Note_on_c, 0, 74, 110
2, 1380853, Note_off_c, 0, 74, 0
2, 1380864, Note_on_c, 0, 77, 110
2, 1381109, Note_off_c, 0, 77, 0
2, 1381120, Note_on_c, 0, 74, 110
2, 1381365, Note_off_c, 0, 74, 0
2, 1381376, Note_on_c, 0, 80, 110
2, 1381621, Note_off_c, 0, 80, 0
2, 1381632, Note_on_c, 0, 74, 110
2, 1381877, Note_off_c, 0, 74, 0
2, 1381888, Note_on_c, 0, 77, 110
2, 1382133, Note_off_c, 0, 77, 0
2, 1382144, Note_on_c, 0, 74, 110
2, 1382389, Note_off_c, 0, 74, 0
2, 1382400, Note_on_c, 0, 69, 110
2, 1382400, Note_on_c, 0, 71, 110
2, 1382645, Note_off_c, 0, 69, 0
2, 1382645, Note_off_c, 0, 71, 0
2, 1382656, Note_on_c, 0, 74, 110
2, 1382901, Note_off_c, 0, 74, 0
2, 1382912, Note_on_c, 0, 77, 110
2, 1383157, Note_off_c, 0, 77, 0
2, 1383168, Note_on_c, 0, 74, 110
2, 1383413, Note_off_c, 0, 74, 0
2, 1383424, Note_on_c, 0, 67, 110
2, 1383424, Note_on_c, 0, 79, 110
2, 1383669, Note_off_c, 0, 67, 0
2, 1383669, Note_off_c, 0, 79, 0
2, 1383680, Note_on_c, 0, 70, 110
2, 1383925, Note_off_c, 0, 70, 0
2, 1383936, Note_on_c, 0, 73, 110
2, 1384181, Note_off_c, 0, 73, 0
2, 1384192, Note_on_c, 0, 70, 110
2, 1384437, Note_off_c, 0, 70, 0
2, 1384448, Note_on_c, 0, 69, 110
2, 1384693, Note_off_c, 0, 69, 0
2, 1384704, Note_on_c, 0, 74, 110
2, 1384949, Note_off_c, 0, 74, 0
2, 1384960, Note_on_c, 0, 77, 110
2, 1385205, Note_off_c, 0, 77, 0
2, 1385216, Note_on_c, 0, 74, 110
2, 1385461, Note_off_c, 0, 74, 0
2, 1385472, Note_on_c, 0, 81, 110
2, 1385717, Note_off_c, 0, 81, 0
2, 1385728, Note_on_c, 0, 69, 110
2, 1385973, Note_off_c, 0, 69, 0
2, 1385984, Note_on_c, 0, 74, 110
2, 1386229, Note_off_c, 0, 74, 0
2, 1386240, Note_on_c, 0, 77, 110
2, 1386485, Note_off_c, 0, 77, 0
2, 1386496, Note_on_c, 0, 74, 110
2, 1386496, Note_on_c, 0, 77, 110
2, 1386496, Note_on_c, 0, 81, 110
2, 1386997, Note_off_c, 0, 74, 0
2, 1386997, Note_off_c, 0, 77, 0
2, 1386997, Note_off_c, 0, 81, 0
2, 1387008, Note_on_c, 0, 74, 110
2, 1387008, Note_on_c, 0, 77, 110
2, 1387008, Note_on_c, 0, 81, 110
2, 1387509, Note_off_c, 0, 74, 0
2, 1387509, Note_off_c, 0, 77, 0
2, 1387509, Note_off_c, 0, 81, 0
2, 1387520, Note_on_c, 0, 74, 110
2, 1387520, Note_on_c, 0, 77, 110
2, 1387520, Note_on_c, 0, 81, 110
2, 1388021, Note_off_c, 0, 74, 0
2, 1388021, Note_off_c, 0, 77, 0
2, 1388021, Note_off_c, 0, 81, 0
2, 1388032, Note_on_c, 0, 74, 110
2, 1388032, Note_on_c, 0, 77, 110
2, 1388032, Note_on_c, 0, 81, 110
2, 1388533, Note_off_c, 0, 74, 0
2, 1388533, Note_off_c, 0, 77, 0
2, 1388533, Note_off_c, 0, 81, 0
2, 1388800, Note_on_c, 0, 57, 110
2, 1388800, Note_on_c, 0, 62, 110
2, 1388800, Note_on_c, 0, 65, 110
2, 1389045, Note_off_c, 0, 57, 0
2, 1389045, Note_off_c, 0, 62, 0
2, 1389045, Note_off_c, 0, 65, 0
2, 1389056, Note_on_c, 0, 57, 110
2, 1389056, Note_on_c, 0, 62, 110
2, 1389056, Note_on_c, 0, 65, 110
2, 1389301, Note_off_c, 0, 57, 0
2, 1389301, Note_off_c, 0, 62, 0
2, 1389301, Note_off_c, 0, 65, 0
2, 1389312, Note_on_c, 0, 57, 110
2, 1389312, Note_on_c, 0, 62, 110
2, 1389312, Note_on_c, 0, 65, 110
2, 1389557, Note_off_c, 0, 57, 0
2, 1389557, Note_off_c, 0, 62, 0
2, 1389557, Note_off_c, 0, 65, 0
2, 1389568, Note_on_c, 0, 58, 110
2, 1389568, Note_on_c, 0, 64, 110
2, 1389813, Note_off_c, 0, 58, 0
2, 1389813, Note_off_c, 0, 64, 0
2, 1389824, Note_on_c, 0, 58, 110
2, 1389824, Note_on_c, 0, 64, 110
2, 1390069, Note_off_c, 0, 58, 0
2, 1390069, Note_off_c, 0, 64, 0
2, 1390080, Note_on_c, 0, 55, 110
2, 1390080, Note_on_c, 0, 61, 110
2, 1390325, Note_off_c, 0, 55, 0
2, 1390325, Note_off_c, 0, 61, 0
2, 1390336, Note_on_c, 0, 55, 110
2, 1390336, Note_on_c, 0, 61, 110
2, 1390581, Note_off_c, 0, 55, 0
2, 1390581, Note_off_c, 0, 61, 0
2, 1390592, Note_on_c, 0, 57, 110
2, 1390592, Note_on_c, 0, 62, 110
2, 1390837, Note_off_c, 0, 57, 0
2, 1390837, Note_off_c, 0, 62, 0
2, 1390848, Note_on_c, 0, 57, 110
2, 1390848, Note_on_c, 0, 62, 110
2, 1391093, Note_off_c, 0, 57, 0
2, 1391093, Note_off_c, 0, 62, 0
2, 1391104, Note_on_c, 0, 57, 110
2, 1391104, Note_on_c, 0, 62, 110
2, 1391104, Note_on_c, 0, 65, 110
2, 1391349, Note_off_c, 0, 57, 0
2, 1391349, Note_off_c, 0, 62, 0
2, 1391349, Note_off_c, 0, 65, 0
2, 1391360, Note_on_c, 0, 57, 110
2, 1391360, Note_on_c, 0, 62, 110
2, 1391360, Note_on_c, 0, 65, 110
2, 1391605, Note_off_c, 0, 57, 0
2, 1391605, Note_off_c, 0, 62, 0
2, 1391605, Note_off_c, 0, 65, 0
2, 1391616, Note_on_c, 0, 58, 110
2, 1391616, Note_on_c, 0, 64, 110
2, 1391861, Note_off_c, 0, 58, 0
2, 1391861, Note_off_c, 0, 64, 0
2, 1391872, Note_on_c, 0, 58, 110
2, 1391872, Note_on_c, 0, 64, 110
2, 1392117, Note_off_c, 0, 58, 0
2, 1392117, Note_off_c, 0, 64, 0
2, 1392128, Note_on_c, 0, 55, 110
2, 1392128, Note_on_c, 0, 61, 110
2, 1392373, Note_off_c, 0, 55, 0
2, 1392373, Note_off_c, 0, 61, 0
2, 1392384, Note_on_c, 0, 55, 110
2, 1392384, Note_on_c, 0, 61, 110
2, 1392629, Note_off_c, 0, 55, 0
2, 1392629, Note_off_c, 0, 61, 0
2, 1392896, Note_on_c, 0, 62, 110
2, 1392896, Note_on_c, 0, 65, 110
2, 1392896, Note_on_c, 0, 69, 110
2, 1393141, Note_off_c, 0, 62, 0
2, 1393141, Note_off_c, 0, 65, 0
2, 1393141, Note_off_c, 0, 69, 0
2, 1393152, Note_on_c, 0, 62, 110
2, 1393152, Note_on_c, 0, 65, 110
2, 1393152, Note_on_c, 0, 69, 110
2, 1393397, Note_off_c, 0, 62, 0
2, 1393397, Note_off_c, 0, 65, 0
2, 1393397, Note_off_c, 0, 69, 0
2, 1393408, Note_on_c, 0, 62, 110
2, 1393408, Note_on_c, 0, 65, 110
2, 1393408, Note_on_c, 0, 69, 110
2, 1393653, Note_off_c, 0, 62, 0
2, 1393653, Note_off_c, 0, 65, 0
2, 1393653, Note_off_c, 0, 69, 0
2, 1393664, Note_on_c, 0, 62, 110
2, 1393664, Note_on_c, 0, 65, 110
2, 1393664, Note_on_c, 0, 74, 110
2, 1393909, Note_off_c, 0, 62, 0
2, 1393909, Note_off_c, 0, 65, 0
2, 1393909, Note_off_c, 0, 74, 0
2, 1393920, Note_on_c, 0, 62, 110
2, 1393920, Note_on_c, 0, 65, 110
2, 1393920, Note_on_c, 0, 74, 110
2, 1394165, Note_off_c, 0, 62, 0
2, 1394165, Note_off_c, 0, 65, 0
2, 1394165, Note_off_c, 0, 74, 0
2, 1394176, Note_on_c, 0, 62, 110
2, 1394176, Note_on_c, 0, 65, 110
2, 1394176, Note_on_c, 0, 69, 110
2, 1394421, Note_off_c, 0, 62, 0
2, 1394421, Note_off_c, 0, 65, 0
2, 1394421, Note_off_c, 0, 69, 0
2, 1394432, Note_on_c, 0, 62, 110
2, 1394432, Note_on_c, 0, 65, 110
2, 1394432, Note_on_c, 0, 69, 110
2, 1394677, Note_off_c, 0, 62, 0
2, 1394677, Note_off_c, 0, 65, 0
2, 1394677, Note_off_c, 0, 69, 0
2, 1394688, Note_on_c, 0, 67, 110
2, 1394688, Note_on_c, 0, 76, 110
2, 1394688, Note_on_c, 0, 82, 110
2, 1394933, Note_off_c, 0, 67, 0
2, 1394933, Note_off_c, 0, 76, 0
2, 1394933, Note_off_c, 0, 82, 0
2, 1394944, Note_on_c, 0, 67, 110
2, 1394944, Note_on_c, 0, 76, 110
2, 1394944, Note_on_c, 0, 82, 110
2, 1395189, Note_off_c, 0, 67, 0
2, 1395189, Note_off_c, 0, 76, 0
2, 1395189, Note_off_c, 0, 82, 0
2, 1395200, Note_on_c, 0, 67, 110
2, 1395200, Note_on_c, 0, 73, 110
2, 1395200, Note_on_c, 0, 79, 110
2, 1395445, Note_off_c, 0, 67, 0
2, 1395445, Note_off_c, 0, 73, 0
2, 1395445, Note_off_c, 0, 79, 0
2, 1395456, Note_on_c, 0, 67, 110
2, 1395456, Note_on_c, 0, 73, 110
2, 1395456, Note_on_c, 0, 79, 110
2, 1395701, Note_off_c, 0, 67, 0
2, 1395701, Note_off_c, 0, 73, 0
2, 1395701, Note_off_c, 0, 79, 0
2, 1395712, Note_on_c, 0, 67, 110
2, 1395712, Note_on_c, 0, 70, 110
2, 1395712, Note_on_c, 0, 79, 110
2, 1395712, Note_on_c, 0, 85, 110
2, 1395957, Note_off_c, 0, 67, 0
2, 1395957, Note_off_c, 0, 70, 0
2, 1395957, Note_off_c, 0, 79, 0
2, 1395957, Note_off_c, 0, 85, 0
2, 1395968, Note_on_c, 0, 67, 110
2, 1395968, Note_on_c, 0, 70, 110
2, 1395968, Note_on_c, 0, 79, 110
2, 1395968, Note_on_c, 0, 85, 110
2, 1396213, Note_off_c, 0, 67, 0
2, 1396213, Note_off_c, 0, 70, 0
2, 1396213, Note_off_c, 0, 79, 0
2, 1396213, Note_off_c, 0, 85, 0
2, 1396224, Note_on_c, 0, 67, 110
2, 1396224, Note_on_c, 0, 70, 110
2, 1396224, Note_on_c, 0, 76, 110
2, 1396224, Note_on_c, 0, 82, 110
2, 1396469, Note_off_c, 0, 67, 0
2, 1396469, Note_off_c, 0, 70, 0
2, 1396469, Note_off_c, 0, 76, 0
2, 1396469, Note_off_c, 0, 82, 0
2, 1396480, Note_on_c, 0, 67, 110
2, 1396480, Note_on_c, 0, 70, 110
2, 1396480, Note_on_c, 0, 76, 110
2, 1396480, Note_on_c, 0, 82, 110
2, 1396725, Note_off_c, 0, 67, 0
2, 1396725, Note_off_c, 0, 70, 0
2, 1396725, Note_off_c, 0, 76, 0
2, 1396725, Note_off_c, 0, 82, 0
2, 1399040, Note_on_c, 0, 62, 110
2, 1399541, Note_off_c, 0, 62, 0
2, 1399552, Note_on_c, 0, 65, 110
2, 1400053, Note_off_c, 0, 65, 0
2, 1400064, Note_on_c, 0, 66, 110
2, 1400309, Note_off_c, 0, 66, 0
2, 1400320, Note_on_c, 0, 67, 110
2, 1400821, Note_off_c, 0, 67, 0
2, 1400832, Note_on_c, 0, 57, 110
2, 1400832, Note_on_c, 0, 60, 110
2, 1401333, Note_off_c, 0, 57, 0
2, 1401333, Note_off_c, 0, 60, 0
2, 1401344, Note_on_c, 0, 57, 110
2, 1401344, Note_on_c, 0, 60, 110
2, 1401845, Note_off_c, 0, 57, 0
2, 1401845, Note_off_c, 0, 60, 0
2, 1401856, Note_on_c, 0, 57, 110
2, 1401856, Note_on_c, 0, 60, 110
2, 1402357, Note_off_c, 0, 57, 0
2, 1402357, Note_off_c, 0, 60, 0
2, 1402368, Note_on_c, 0, 53, 110
2, 1402368, Note_on_c, 0, 57, 110
2, 1402613, Note_off_c, 0, 53, 0
2, 1402613, Note_off_c, 0, 57, 0
2, 1402624, Note_on_c, 0, 57, 110
2, 1402624, Note_on_c, 0, 60, 110
2, 1402869, Note_off_c, 0, 57, 0
2, 1402869, Note_off_c, 0, 60, 0
2, 1403136, Note_on_c, 0, 57, 110
2, 1403136, Note_on_c, 0, 60, 110
2, 1403637, Note_off_c, 0, 57, 0
2, 1403637, Note_off_c, 0, 60, 0
2, 1403648, Note_on_c, 0, 53, 110
2, 1403648, Note_on_c, 0, 57, 110
2, 1403893, Note_off_c, 0, 53, 0
2, 1403893, Note_off_c, 0, 57, 0
2, 1403904, Note_on_c, 0, 57, 110
2, 1403904, Note_on_c, 0, 60, 110
2, 1404149, Note_off_c, 0, 57, 0
2, 1404149, Note_off_c, 0, 60, 0
2, 1404160, Note_on_c, 0, 53, 110
2, 1404160, Note_on_c, 0, 57, 110
2, 1404405, Note_off_c, 0, 53, 0
2, 1404405, Note_off_c, 0, 57, 0
2, 1404416, Note_on_c, 0, 57, 110
2, 1404416, Note_on_c, 0, 60, 110
2, 1404917, Note_off_c, 0, 57, 0
2, 1404917, Note_off_c, 0, 60, 0
2, 1404928, Note_on_c, 0, 55, 110
2, 1404928, Note_on_c, 0, 59, 110
2, 1405429, Note_off_c, 0, 55, 0
2, 1405429, Note_off_c, 0, 59, 0
2, 1405440, Note_on_c, 0, 55, 110
2, 1405440, Note_on_c, 0, 59, 110
2, 1405941, Note_off_c, 0, 55, 0
2, 1405941, Note_off_c, 0, 59, 0
2, 1405952, Note_on_c, 0, 55, 110
2, 1405952, Note_on_c, 0, 59, 110
2, 1406453, Note_off_c, 0, 55, 0
2, 1406453, Note_off_c, 0, 59, 0
2, 1406464, Note_on_c, 0, 52, 110
2, 1406464, Note_on_c, 0, 55, 110
2, 1406709, Note_off_c, 0, 52, 0
2, 1406709, Note_off_c, 0, 55, 0
2, 1406720, Note_on_c, 0, 55, 110
2, 1406720, Note_on_c, 0, 59, 110
2, 1406965, Note_off_c, 0, 55, 0
2, 1406965, Note_off_c, 0, 59, 0
2, 1407232, Note_on_c, 0, 55, 110
2, 1407232, Note_on_c, 0, 59, 110
2, 1407733, Note_off_c, 0, 55, 0
2, 1407733, Note_off_c, 0, 59, 0
2, 1407744, Note_on_c, 0, 52, 110
2, 1407744, Note_on_c, 0, 55, 110
2, 1407989, Note_off_c, 0, 52, 0
2, 1407989, Note_off_c, 0, 55, 0
2, 1408000, Note_on_c, 0, 55, 110
2, 1408000, Note_on_c, 0, 59, 110
2, 1408245, Note_off_c, 0, 55, 0
2, 1408245, Note_off_c, 0, 59, 0
2, 1408256, Note_on_c, 0, 52, 110
2, 1408256, Note_on_c, 0, 55, 110
2, 1408501, Note_off_c, 0, 52, 0
2, 1408501, Note_off_c, 0, 55, 0
2, 1408512, Note_on_c, 0, 55, 110
2, 1408512, Note_on_c, 0, 59, 110
2, 1409013, Note_off_c, 0, 55, 0
2, 1409013, Note_off_c, 0, 59, 0
2, 1409024, Note_on_c, 0, 57, 110
2, 1409024, Note_on_c, 0, 60, 110
2, 1409525, Note_off_c, 0, 57, 0
2, 1409525, Note_off_c, 0, 60, 0
2, 1409536, Note_on_c, 0, 57, 110
2, 1409536, Note_on_c, 0, 60, 110
2, 1410037, Note_off_c, 0, 57, 0
2, 1410037, Note_off_c, 0, 60, 0
2, 1410048, Note_on_c, 0, 57, 110
2, 1410048, Note_on_c, 0, 60, 110
2, 1410549, Note_off_c, 0, 57, 0
2, 1410549, Note_off_c, 0, 60, 0
2, 1410560, Note_on_c, 0, 53, 110
2, 1410560, Note_on_c, 0, 57, 110
2, 1410805, Note_off_c, 0, 53, 0
2, 1410805, Note_off_c, 0, 57, 0
2, 1410816, Note_on_c, 0, 57, 110
2, 1410816, Note_on_c, 0, 60, 110
2, 1411061, Note_off_c, 0, 57, 0
2, 1411061, Note_off_c, 0, 60, 0
2, 1411328, Note_on_c, 0, 57, 110
2, 1411328, Note_on_c, 0, 60, 110
2, 1411829, Note_off_c, 0, 57, 0
2, 1411829, Note_off_c, 0, 60, 0
2, 1411840, Note_on_c, 0, 53, 110
2, 1411840, Note_on_c, 0, 57, 110
2, 1412085, Note_off_c, 0, 53, 0
2, 1412085, Note_off_c, 0, 57, 0
2, 1412096, Note_on_c, 0, 57, 110
2, 1412096, Note_on_c, 0, 60, 110
2, 1412341, Note_off_c, 0, 57, 0
2, 1412341, Note_off_c, 0, 60, 0
2, 1412352, Note_on_c, 0, 53, 110
2, 1412352, Note_on_c, 0, 57, 110
2, 1412597, Note_off_c, 0, 53, 0
2, 1412597, Note_off_c, 0, 57, 0
2, 1412608, Note_on_c, 0, 57, 110
2, 1412608, Note_on_c, 0, 60, 110
2, 1413109, Note_off_c, 0, 57, 0
2, 1413109, Note_off_c, 0, 60, 0
2, 1413120, Note_on_c, 0, 55, 110
2, 1413120, Note_on_c, 0, 59, 110
2, 1413621, Note_off_c, 0, 55, 0
2, 1413621, Note_off_c, 0, 59, 0
2, 1413632, Note_on_c, 0, 55, 110
2, 1413632, Note_on_c, 0, 59, 110
2, 1414133, Note_off_c, 0, 55, 0
2, 1414133, Note_off_c, 0, 59, 0
2, 1414144, Note_on_c, 0, 55, 110
2, 1414144, Note_on_c, 0, 59, 110
2, 1414645, Note_off_c, 0, 55, 0
2, 1414645, Note_off_c, 0, 59, 0
2, 1414656, Note_on_c, 0, 52, 110
2, 1414656, Note_on_c, 0, 55, 110
2, 1414901, Note_off_c, 0, 52, 0
2, 1414901, Note_off_c, 0, 55, 0
2, 1414912, Note_on_c, 0, 55, 110
2, 1414912, Note_on_c, 0, 59, 110
2, 1415157, Note_off_c, 0, 55, 0
2, 1415157, Note_off_c, 0, 59, 0
2, 1415424, Note_on_c, 0, 55, 110
2, 1415424, Note_on_c, 0, 59, 110
2, 1415925, Note_off_c, 0, 55, 0
2, 1415925, Note_off_c, 0, 59, 0
2, 1415936, Note_on_c, 0, 52, 110
2, 1415936, Note_on_c, 0, 55, 110
2, 1416181, Note_off_c, 0, 52, 0
2, 1416181, Note_off_c, 0, 55, 0
2, 1416192, Note_on_c, 0, 55, 110
2, 1416192, Note_on_c, 0, 59, 110
2, 1416437, Note_off_c, 0, 55, 0
2, 1416437, Note_off_c, 0, 59, 0
2, 1416448, Note_on_c, 0, 52, 110
2, 1416448, Note_on_c, 0, 55, 110
2, 1416693, Note_off_c, 0, 52, 0
2, 1416693, Note_off_c, 0, 55, 0
2, 1416704, Note_on_c, 0, 55, 110
2, 1416704, Note_on_c, 0, 59, 110
2, 1417205, Note_off_c, 0, 55, 0
2, 1417205, Note_off_c, 0, 59, 0
2, 1417216, Note_on_c, 0, 57, 110
2, 1417216, Note_on_c, 0, 60, 110
2, 1421056, Note_off_c, 0, 57, 0
2, 1421056, Note_off_c, 0, 60, 0
2, 1421312, Note_on_c, 0, 55, 110
2, 1421312, Note_on_c, 0, 59, 110
2, 1421312, Note_on_c, 0, 64, 110
2, 1423104, Note_off_c, 0, 55, 0
2, 1423104, Note_off_c, 0, 59, 0
2, 1423104, Note_off_c, 0, 64, 0
2, 1423872, Note_on_c, 0, 64, 110
2, 1424373, Note_off_c, 0, 64, 0
2, 1424384, Note_on_c, 0, 65, 110
2, 1424757, Note_off_c, 0, 65, 0
2, 1424768, Note_on_c, 0, 67, 110
2, 1425397, Note_off_c, 0, 67, 0
2, 1425408, Note_on_c, 0, 60, 110
2, 1425408, Note_on_c, 0, 65, 110
2, 1425408, Note_on_c, 0, 69, 110
2, 1427200, Note_off_c, 0, 60, 0
2, 1427200, Note_off_c, 0, 65, 0
2, 1427200, Note_off_c, 0, 69, 0
2, 1427968, Note_on_c, 0, 69, 110
2, 1428469, Note_off_c, 0, 69, 0
2, 1428480, Note_on_c, 0, 67, 110
2, 1428853, Note_off_c, 0, 67, 0
2, 1428864, Note_on_c, 0, 65, 110
2, 1429493, Note_off_c, 0, 65, 0
2, 1429504, Note_on_c, 0, 55, 110
2, 1429504, Note_on_c, 0, 59, 110
2, 1429504, Note_on_c, 0, 64, 110
2, 1431296, Note_off_c, 0, 55, 0
2, 1431296, Note_off_c, 0, 59, 0
2, 1431296, Note_off_c, 0, 64, 0
2, 1432064, Note_on_c, 0, 64, 110
2, 1432565, Note_off_c, 0, 64, 0
2, 1432576, Note_on_c, 0, 65, 110
2, 1432949, Note_off_c, 0, 65, 0
2, 1432960, Note_on_c, 0, 67, 110
2, 1433589, Note_off_c, 0, 67, 0
2, 1433600, Note_on_c, 0, 60, 110
2, 1433600, Note_on_c, 0, 65, 110
2, 1433600, Note_on_c, 0, 69, 110
2, 1435392, Note_off_c, 0, 60, 0
2, 1435392, Note_off_c, 0, 65, 0
2, 1435392, Note_off_c, 0, 69, 0
2, 1436160, Note_on_c, 0, 71, 110
2, 1436661, Note_off_c, 0, 71, 0
2, 1436672, Note_on_c, 0, 72, 110
2, 1437045, Note_off_c, 0, 72, 0
2, 1437056, Note_on_c, 0, 74, 110
2, 1437685, Note_off_c, 0, 74, 0
2, 1437696, Note_on_c, 0, 55, 110
2, 1437696, Note_on_c, 0, 59, 110
2, 1437696, Note_on_c, 0, 64, 110
2, 1439488, Note_off_c, 0, 55, 0
2, 1439488, Note_off_c, 0, 59, 0
2, 1439488, Note_off_c, 0, 64, 0
2, 1440256, Note_on_c, 0, 64, 110
2, 1440757, Note_off_c, 0, 64, 0
2, 1440768, Note_on_c, 0, 65, 110
2, 1441141, Note_off_c, 0, 65, 0
2, 1441152, Note_on_c, 0, 67, 110
2, 1441781, Note_off_c, 0, 67, 0
2, 1441792, Note_on_c, 0, 60, 110
2, 1441792, Note_on_c, 0, 65, 110
2, 1441792, Note_on_c, 0, 69, 110
2, 1443584, Note_off_c, 0, 60, 0
2, 1443584, Note_off_c, 0, 65, 0
2, 1443584, Note_off_c, 0, 69, 0
2, 1443840, Note_on_c, 0, 62, 110
2, 1443840, Note_on_c, 0, 67, 110
2, 1443840, Note_on_c, 0, 71, 110
2, 1444341, Note_off_c, 0, 62, 0
2, 1444341, Note_off_c, 0, 67, 0
2, 1444341, Note_off_c, 0, 71, 0
2, 1444352, Note_on_c, 0, 62, 110
2, 1444352, Note_on_c, 0, 67, 110
2, 1444352, Note_on_c, 0, 71, 110
2, 1444853, Note_off_c, 0, 62, 0
2, 1444853, Note_off_c, 0, 67, 0
2, 1444853, Note_off_c, 0, 71, 0
2, 1445248, Note_on_c, 0, 62, 110
2, 1445248, Note_on_c, 0, 67, 110
2, 1445248, Note_on_c, 0, 71, 110
2, 1445877, Note_off_c, 0, 62, 0
2, 1445877, Note_off_c, 0, 67, 0
2, 1445877, Note_off_c, 0, 71, 0
2, 1445888, Note_on_c, 0, 64, 110
2, 1447253, Note_off_c, 0, 64, 0
2, 1447424, Note_on_c, 0, 64, 110
2, 1447925, Note_off_c, 0, 64, 0
2, 1447936, Note_on_c, 0, 65, 110
2, 1448437, Note_off_c, 0, 65, 0
2, 1448448, Note_on_c, 0, 64, 110
2, 1448949, Note_off_c, 0, 64, 0
2, 1448960, Note_on_c, 0, 65, 110
2, 1449461, Note_off_c, 0, 65, 0
2, 1449472, Note_on_c, 0, 67, 110
2, 1449973, Note_off_c, 0, 67, 0
2, 1449984, Note_on_c, 0, 64, 110
2, 1451776, Note_off_c, 0, 64, 0
2, 1452032, Note_on_c, 0, 60, 110
2, 1452885, Note_off_c, 0, 60, 0
2, 1453056, Note_on_c, 0, 64, 110
2, 1453557, Note_off_c, 0, 64, 0
2, 1453568, Note_on_c, 0, 67, 110
2, 1454069, Note_off_c, 0, 67, 0
2, 1454080, Note_on_c, 0, 69, 110
2, 1454933, Note_off_c, 0, 69, 0
2, 1455104, Note_on_c, 0, 69, 110
2, 1455605, Note_off_c, 0, 69, 0
2, 1455616, Note_on_c, 0, 69, 110
2, 1456117, Note_off_c, 0, 69, 0
2, 1456128, Note_on_c, 0, 71, 110
2, 1456981, Note_off_c, 0, 71, 0
2, 1457152, Note_on_c, 0, 74, 110
2, 1457653, Note_off_c, 0, 74, 0
2, 1457664, Note_on_c, 0, 72, 110
2, 1458165, Note_off_c, 0, 72, 0
2, 1458176, Note_on_c, 0, 67, 110
2, 1460992, Note_off_c, 0, 67, 0
2, 1462272, Note_on_c, 0, 69, 110
2, 1463637, Note_off_c, 0, 69, 0
2, 1463808, Note_on_c, 0, 69, 110
2, 1464309, Note_off_c, 0, 69, 0
2, 1464320, Note_on_c, 0, 71, 110
2, 1465173, Note_off_c, 0, 71, 0
2, 1465344, Note_on_c, 0, 74, 110
2, 1465845, Note_off_c, 0, 74, 0
2, 1465856, Note_on_c, 0, 72, 110
2, 1466357, Note_off_c, 0, 72, 0
2, 1466368, Note_on_c, 0, 67, 110
2, 1468160, Note_off_c, 0, 67, 0
2, 1468416, Note_on_c, 0, 72, 110
2, 1469269, Note_off_c, 0, 72, 0
2, 1469440, Note_on_c, 0, 60, 110
2, 1469941, Note_off_c, 0, 60, 0
2, 1469952, Note_on_c, 0, 62, 110
2, 1470453, Note_off_c, 0, 62, 0
2, 1470464, Note_on_c, 0, 65, 110
2, 1471829, Note_off_c, 0, 65, 0
2, 1472000, Note_on_c, 0, 67, 110
2, 1472629, Note_off_c, 0, 67, 0
2, 1472640, Note_on_c, 0, 65, 110
2, 1473141, Note_off_c, 0, 65, 0
2, 1473152, Note_on_c, 0, 64, 110
2, 1473525, Note_off_c, 0, 64, 0
2, 1473536, Note_on_c, 0, 62, 110
2, 1474037, Note_off_c, 0, 62, 0
2, 1474048, Note_on_c, 0, 60, 110
2, 1474549, Note_off_c, 0, 60, 0
2, 1474560, Note_on_c, 0, 67, 110
2, 1478400, Note_off_c, 0, 67, 0
2, 1478656, Note_on_c, 0, 64, 110
2, 1480021, Note_off_c, 0, 64, 0
2, 1480192, Note_on_c, 0, 64, 110
2, 1480693, Note_off_c, 0, 64, 0
2, 1480704, Note_on_c, 0, 65, 110
2, 1481205, Note_off_c, 0, 65, 0
2, 1481216, Note_on_c, 0, 64, 110
2, 1481717, Note_off_c, 0, 64, 0
2, 1481728, Note_on_c, 0, 65, 110
2, 1482229, Note_off_c, 0, 65, 0
2, 1482240, Note_on_c, 0, 67, 110
2, 1482741, Note_off_c, 0, 67, 0
2, 1482752, Note_on_c, 0, 64, 110
2, 1484544, Note_off_c, 0, 64, 0
2, 1484800, Note_on_c, 0, 60, 110
2, 1485653, Note_off_c, 0, 60, 0
2, 1485824, Note_on_c, 0, 64, 110
2, 1486325, Note_off_c, 0, 64, 0
2, 1486336, Note_on_c, 0, 67, 110
2, 1486837, Note_off_c, 0, 67, 0
2, 1486848, Note_on_c, 0, 69, 110
2, 1487701, Note_off_c, 0, 69, 0
2, 1487872, Note_on_c, 0, 69, 110
2, 1488373, Note_off_c, 0, 69, 0
2, 1488384, Note_on_c, 0, 69, 110
2, 1488885, Note_off_c, 0, 69, 0
2, 1488896, Note_on_c, 0, 71, 110
2, 1489749, Note_off_c, 0, 71, 0
2, 1489920, Note_on_c, 0, 74, 110
2, 1490421, Note_off_c, 0, 74, 0
2, 1490432, Note_on_c, 0, 72, 110
2, 1490933, Note_off_c, 0, 72, 0
2, 1490944, Note_on_c, 0, 67, 110
2, 1493760, Note_off_c, 0, 67, 0
2, 1495040, Note_on_c, 0, 69, 110
2, 1496405, Note_off_c, 0, 69, 0
2, 1496576, Note_on_c, 0, 69, 110
2, 1497077, Note_off_c, 0, 69, 0
2, 1497088, Note_on_c, 0, 71, 110
2, 1497941, Note_off_c, 0, 71, 0
2, 1498112, Note_on_c, 0, 74, 110
2, 1498613, Note_off_c, 0, 74, 0
2, 1498624, Note_on_c, 0, 72, 110
2, 1499125, Note_off_c, 0, 72, 0
2, 1499136, Note_on_c, 0, 67, 110
2, 1500928, Note_off_c, 0, 67, 0
2, 1501184, Note_on_c, 0, 72, 110
2, 1502037, Note_off_c, 0, 72, 0
2, 1502208, Note_on_c, 0, 72, 110
2, 1502709, Note_off_c, 0, 72, 0
2, 1502720, Note_on_c, 0, 74, 110
2, 1503221, Note_off_c, 0, 74, 0
2, 1503232, Note_on_c, 0, 77, 110
2, 1504085, Note_off_c, 0, 77, 0
2, 1504256, Note_on_c, 0, 76, 110
2, 1505109, Note_off_c, 0, 76, 0
2, 1505280, Note_on_c, 0, 71, 110
2, 1506133, Note_off_c, 0, 71, 0
2, 1506816, Note_on_c, 0, 72, 110
2, 1507317, Note_off_c, 0, 72, 0
2, 1507328, Note_on_c, 0, 72, 110
2, 1509120, Note_off_c, 0, 72, 0
2, 1511424, Note_on_c, 0, 72, 110
2, 1512277, Note_off_c, 0, 72, 0
2, 1512960, Note_on_c, 0, 74, 110
2, 1513461, Note_off_c, 0, 74, 0
2, 1514496, Note_on_c, 0, 76, 110
2, 1515349, Note_off_c, 0, 76, 0
2, 1515520, Note_on_c, 0, 71, 110
2, 1516373, Note_off_c, 0, 71, 0
2, 1517056, Note_on_c, 0, 67, 110
2, 1517557, Note_off_c, 0, 67, 0
2, 1518592, Note_on_c, 0, 64, 110
2, 1519445, Note_off_c, 0, 64, 0
2, 1519616, Note_on_c, 0, 69, 110
2, 1520469, Note_off_c, 0, 69, 0
2, 1521152, Note_on_c, 0, 71, 110
2, 1521653, Note_off_c, 0, 71, 0
2, 1522688, Note_on_c, 0, 72, 110
2, 1523541, Note_off_c, 0, 72, 0
2, 1523712, Note_on_c, 0, 67, 110
2, 1524565, Note_off_c, 0, 67, 0
2, 1527808, Note_on_c, 0, 65, 110
2, 1528661, Note_off_c, 0, 65, 0
2, 1529344, Note_on_c, 0, 67, 110
2, 1529845, Note_off_c, 0, 67, 0
2, 1530880, Note_on_c, 0, 69, 110
2, 1531733, Note_off_c, 0, 69, 0
2, 1531904, Note_on_c, 0, 67, 110
2, 1532757, Note_off_c, 0, 67, 0
2, 1533440, Note_on_c, 0, 71, 110
2, 1533941, Note_off_c, 0, 71, 0
2, 1534976, Note_on_c, 0, 72, 110
2, 1535829, Note_off_c, 0, 72, 0
2, 1536000, Note_on_c, 0, 69, 110
2, 1536853, Note_off_c, 0, 69, 0
2, 1539072, Note_on_c, 0, 72, 110
2, 1539925, Note_off_c, 0, 72, 0
2, 1540096, Note_on_c, 0, 74, 110
2, 1540949, Note_off_c, 0, 74, 0
2, 1544192, Note_on_c, 0, 72, 110
2, 1544192, Note_on_c, 0, 76, 110
2, 1544693, Note_off_c, 0, 72, 0
2, 1544693, Note_off_c, 0, 76, 0
2, 1544704, Note_on_c, 0, 71, 110
2, 1544704, Note_on_c, 0, 74, 110
2, 1545205, Note_off_c, 0, 71, 0
2, 1545205, Note_off_c, 0, 74, 0
2, 1545216, Note_on_c, 0, 72, 110
2, 1545216, Note_on_c, 0, 76, 110
2, 1545717, Note_off_c, 0, 72, 0
2, 1545717, Note_off_c, 0, 76, 0
2, 1545728, Note_on_c, 0, 74, 110
2, 1545728, Note_on_c, 0, 77, 110
2, 1546229, Note_off_c, 0, 74, 0
2, 1546229, Note_off_c, 0, 77, 0
2, 1546240, Note_on_c, 0, 76, 110
2, 1546240, Note_on_c, 0, 79, 110
2, 1547093, Note_off_c, 0, 76, 0
2, 1547093, Note_off_c, 0, 79, 0
2, 1547264, Note_on_c, 0, 72, 110
2, 1547264, Note_on_c, 0, 76, 110
2, 1547765, Note_off_c, 0, 72, 0
2, 1547765, Note_off_c, 0, 76, 0
2, 1547776, Note_on_c, 0, 71, 110
2, 1547776, Note_on_c, 0, 74, 110
2, 1548277, Note_off_c, 0, 71, 0
2, 1548277, Note_off_c, 0, 74, 0
2, 1548288, Note_on_c, 0, 71, 110
2, 1548288, Note_on_c, 0, 74, 110
2, 1549653, Note_off_c, 0, 71, 0
2, 1549653, Note_off_c, 0, 74, 0
2, 1549824, Note_on_c, 0, 67, 110
2, 1549824, Note_on_c, 0, 72, 110
2, 1550325, Note_off_c, 0, 67, 0
2, 1550325, Note_off_c, 0, 72, 0
2, 1550336, Note_on_c, 0, 67, 110
2, 1550336, Note_on_c, 0, 72, 110
2, 1551189, Note_off_c, 0, 67, 0
2, 1551189, Note_off_c, 0, 72, 0
2, 1551360, Note_on_c, 0, 72, 110
2, 1551360, Note_on_c, 0, 76, 110
2, 1551861, Note_off_c, 0, 72, 0
2, 1551861, Note_off_c, 0, 76, 0
2, 1551872, Note_on_c, 0, 76, 110
2, 1551872, Note_on_c, 0, 79, 110
2, 1552373, Note_off_c, 0, 76, 0
2, 1552373, Note_off_c, 0, 79, 0
2, 1552384, Note_on_c, 0, 77, 110
2, 1552384, Note_on_c, 0, 81, 110
2, 1552885, Note_off_c, 0, 77, 0
2, 1552885, Note_off_c, 0, 81, 0
2, 1552896, Note_on_c, 0, 76, 110
2, 1552896, Note_on_c, 0, 79, 110
2, 1553397, Note_off_c, 0, 76, 0
2, 1553397, Note_off_c, 0, 79, 0
2, 1553408, Note_on_c, 0, 77, 110
2, 1553408, Note_on_c, 0, 81, 110
2, 1553909, Note_off_c, 0, 77, 0
2, 1553909, Note_off_c, 0, 81, 0
2, 1553920, Note_on_c, 0, 77, 110
2, 1553920, Note_on_c, 0, 83, 110
2, 1554421, Note_off_c, 0, 77, 0
2, 1554421, Note_off_c, 0, 83, 0
2, 1554432, Note_on_c, 0, 76, 110
2, 1554432, Note_on_c, 0, 84, 110
2, 1555285, Note_off_c, 0, 76, 0
2, 1555285, Note_off_c, 0, 84, 0
2, 1555456, Note_on_c, 0, 76, 110
2, 1555456, Note_on_c, 0, 79, 110
2, 1555957, Note_off_c, 0, 76, 0
2, 1555957, Note_off_c, 0, 79, 0
2, 1555968, Note_on_c, 0, 74, 110
2, 1555968, Note_on_c, 0, 77, 110
2, 1556469, Note_off_c, 0, 74, 0
2, 1556469, Note_off_c, 0, 77, 0
2, 1556480, Note_on_c, 0, 72, 110
2, 1556480, Note_on_c, 0, 76, 110
2, 1557333, Note_off_c, 0, 72, 0
2, 1557333, Note_off_c, 0, 76, 0
2, 1557504, Note_on_c, 0, 72, 110
2, 1557504, Note_on_c, 0, 76, 110
2, 1558005, Note_off_c, 0, 72, 0
2, 1558005, Note_off_c, 0, 76, 0
2, 1558016, Note_on_c, 0, 74, 110
2, 1558016, Note_on_c, 0, 77, 110
2, 1558517, Note_off_c, 0, 74, 0
2, 1558517, Note_off_c, 0, 77, 0
2, 1558528, Note_on_c, 0, 71, 110
2, 1558528, Note_on_c, 0, 74, 110
2, 1560320, Note_off_c, 0, 71, 0
2, 1560320, Note_off_c, 0, 74, 0
2, 1560576, Note_on_c, 0, 72, 110
2, 1560576, Note_on_c, 0, 76, 110
2, 1561077, Note_off_c, 0, 72, 0
2, 1561077, Note_off_c, 0, 76, 0
2, 1561088, Note_on_c, 0, 71, 110
2, 1561088, Note_on_c, 0, 74, 110
2, 1561589, Note_off_c, 0, 71, 0
2, 1561589, Note_off_c, 0, 74, 0
2, 1561600, Note_on_c, 0, 72, 110
2, 1561600, Note_on_c, 0, 76, 110
2, 1562101, Note_off_c, 0, 72, 0
2, 1562101, Note_off_c, 0, 76, 0
2, 1562112, Note_on_c, 0, 74, 110
2, 1562112, Note_on_c, 0, 77, 110
2, 1562613, Note_off_c, 0, 74, 0
2, 1562613, Note_off_c, 0, 77, 0
2, 1562624, Note_on_c, 0, 76, 110
2, 1562624, Note_on_c, 0, 79, 110
2, 1563477, Note_off_c, 0, 76, 0
2, 1563477, Note_off_c, 0, 79, 0
2, 1563648, Note_on_c, 0, 72, 110
2, 1563648, Note_on_c, 0, 76, 110
2, 1564149, Note_off_c, 0, 72, 0
2, 1564149, Note_off_c, 0, 76, 0
2, 1564160, Note_on_c, 0, 71, 110
2, 1564160, Note_on_c, 0, 74, 110
2, 1564661, Note_off_c, 0, 71, 0
2, 1564661, Note_off_c, 0, 74, 0
2, 1564672, Note_on_c, 0, 71, 110
2, 1564672, Note_on_c, 0, 74, 110
2, 1566037, Note_off_c, 0, 71, 0
2, 1566037, Note_off_c, 0, 74, 0
2, 1566208, Note_on_c, 0, 67, 110
2, 1566208, Note_on_c, 0, 72, 110
2, 1566709, Note_off_c, 0, 67, 0
2, 1566709, Note_off_c, 0, 72, 0
2, 1566720, Note_on_c, 0, 67, 110
2, 1566720, Note_on_c, 0, 72, 110
2, 1567573, Note_off_c, 0, 67, 0
2, 1567573, Note_off_c, 0, 72, 0
2, 1567744, Note_on_c, 0, 72, 110
2, 1567744, Note_on_c, 0, 76, 110
2, 1568245, Note_off_c, 0, 72, 0
2, 1568245, Note_off_c, 0, 76, 0
2, 1568256, Note_on_c, 0, 76, 110
2, 1568256, Note_on_c, 0, 79, 110
2, 1568757, Note_off_c, 0, 76, 0
2, 1568757, Note_off_c, 0, 79, 0
2, 1568768, Note_on_c, 0, 77, 110
2, 1568768, Note_on_c, 0, 81, 110
2, 1569269, Note_off_c, 0, 77, 0
2, 1569269, Note_off_c, 0, 81, 0
2, 1569280, Note_on_c, 0, 76, 110
2, 1569280, Note_on_c, 0, 79, 110
2, 1569781, Note_off_c, 0, 76, 0
2, 1569781, Note_off_c, 0, 79, 0
2, 1569792, Note_on_c, 0, 77, 110
2, 1569792, Note_on_c, 0, 81, 110
2, 1570293, Note_off_c, 0, 77, 0
2, 1570293, Note_off_c, 0, 81, 0
2, 1570304, Note_on_c, 0, 77, 110
2, 1570304, Note_on_c, 0, 83, 110
2, 1570805, Note_off_c, 0, 77, 0
2, 1570805, Note_off_c, 0, 83, 0
2, 1570816, Note_on_c, 0, 76, 110
2, 1570816, Note_on_c, 0, 84, 110
2, 1571669, Note_off_c, 0, 76, 0
2, 1571669, Note_off_c, 0, 84, 0
2, 1571840, Note_on_c, 0, 76, 110
2, 1571840, Note_on_c, 0, 79, 110
2, 1572341, Note_off_c, 0, 76, 0
2, 1572341, Note_off_c, 0, 79, 0
2, 1572352, Note_on_c, 0, 74, 110
2, 1572352, Note_on_c, 0, 77, 110
2, 1572853, Note_off_c, 0, 74, 0
2, 1572853, Note_off_c, 0, 77, 0
2, 1572864, Note_on_c, 0, 72, 110
2, 1572864, Note_on_c, 0, 77, 110
2, 1573365, Note_off_c, 0, 72, 0
2, 1573365, Note_off_c, 0, 77, 0
2, 1573376, Note_on_c, 0, 72, 110
2, 1573376, Note_on_c, 0, 76, 110
2, 1573877, Note_off_c, 0, 72, 0
2, 1573877, Note_off_c, 0, 76, 0
2, 1573888, Note_on_c, 0, 71, 110
2, 1573888, Note_on_c, 0, 74, 110
2, 1574389, Note_off_c, 0, 71, 0
2, 1574389, Note_off_c, 0, 74, 0
2, 1574400, Note_on_c, 0, 67, 110
2, 1574400, Note_on_c, 0, 72, 110
2, 1574901, Note_off_c, 0, 67, 0
2, 1574901, Note_off_c, 0, 72, 0
2, 1574912, Note_on_c, 0, 74, 110
2, 1574912, Note_on_c, 0, 79, 110
2, 1575765, Note_off_c, 0, 74, 0
2, 1575765, Note_off_c, 0, 79, 0
2, 1575936, Note_on_c, 0, 62, 110
2, 1575936, Note_on_c, 0, 67, 110
2, 1576789, Note_off_c, 0, 62, 0
2, 1576789, Note_off_c, 0, 67, 0
2, 1576960, Note_on_c, 0, 76, 110
2, 1578325, Note_off_c, 0, 76, 0
2, 1578496, Note_on_c, 0, 76, 110
2, 1578997, Note_off_c, 0, 76, 0
2, 1579008, Note_on_c, 0, 77, 110
2, 1579509, Note_off_c, 0, 77, 0
2, 1579520, Note_on_c, 0, 76, 110
2, 1580021, Note_off_c, 0, 76, 0
2, 1580032, Note_on_c, 0, 77, 110
2, 1580533, Note_off_c, 0, 77, 0
2, 1580544, Note_on_c, 0, 79, 110
2, 1581045, Note_off_c, 0, 79, 0
2, 1581056, Note_on_c, 0, 76, 110
2, 1582848, Note_off_c, 0, 76, 0
2, 1583104, Note_on_c, 0, 72, 110
2, 1583957, Note_off_c, 0, 72, 0
2, 1584128, Note_on_c, 0, 76, 110
2, 1584629, Note_off_c, 0, 76, 0
2, 1584640, Note_on_c, 0, 79, 110
2, 1585141, Note_off_c, 0, 79, 0
2, 1585152, Note_on_c, 0, 81, 110
2, 1586005, Note_off_c, 0, 81, 0
2, 1586176, Note_on_c, 0, 81, 110
2, 1586677, Note_off_c, 0, 81, 0
2, 1586688, Note_on_c, 0, 81, 110
2, 1587189, Note_off_c, 0, 81, 0
2, 1587200, Note_on_c, 0, 83, 110
2, 1588053, Note_off_c, 0, 83, 0
2, 1588224, Note_on_c, 0, 86, 110
2, 1588725, Note_off_c, 0, 86, 0
2, 1588736, Note_on_c, 0, 84, 110
2, 1589237, Note_off_c, 0, 84, 0
2, 1589248, Note_on_c, 0, 79, 110
2, 1592064, Note_off_c, 0, 79, 0
2, 1593344, Note_on_c, 0, 81, 110
2, 1594709, Note_off_c, 0, 81, 0
2, 1594880, Note_on_c, 0, 81, 110
2, 1595381, Note_off_c, 0, 81, 0
2, 1595392, Note_on_c, 0, 83, 110
2, 1596245, Note_off_c, 0, 83, 0
2, 1596416, Note_on_c, 0, 86, 110
2, 1596917, Note_off_c, 0, 86, 0
2, 1596928, Note_on_c, 0, 84, 110
2, 1597429, Note_off_c, 0, 84, 0
2, 1597440, Note_on_c, 0, 79, 110
2, 1599232, Note_off_c, 0, 79, 0
2, 1599488, Note_on_c, 0, 84, 110
2, 1600341, Note_off_c, 0, 84, 0
2, 1600512, Note_on_c, 0, 72, 110
2, 1601013, Note_off_c, 0, 72, 0
2, 1601024, Note_on_c, 0, 74, 110
2, 1601525, Note_off_c, 0, 74, 0
2, 1601536, Note_on_c, 0, 77, 110
2, 1602901, Note_off_c, 0, 77, 0
2, 1603072, Note_on_c, 0, 79, 110
2, 1603701, Note_off_c, 0, 79, 0
2, 1603712, Note_on_c, 0, 77, 110
2, 1604213, Note_off_c, 0, 77, 0
2, 1604224, Note_on_c, 0, 76, 110
2, 1604597, Note_off_c, 0, 76, 0
2, 1604608, Note_on_c, 0, 74, 110
2, 1605109, Note_off_c, 0, 74, 0
2, 1605120, Note_on_c, 0, 72, 110
2, 1605621, Note_off_c, 0, 72, 0
2, 1605632, Note_on_c, 0, 79, 110
2, 1609472, Note_off_c, 0, 79, 0
2, 1609728, Note_on_c, 0, 64, 110
2, 1611093, Note_off_c, 0, 64, 0
2, 1611264, Note_on_c, 0, 64, 110
2, 1611765, Note_off_c, 0, 64, 0
2, 1611776, Note_on_c, 0, 65, 110
2, 1612277, Note_off_c, 0, 65, 0
2, 1612288, Note_on_c, 0, 64, 110
2, 1612789, Note_off_c, 0, 64, 0
2, 1612800, Note_on_c, 0, 65, 110
2, 1613301, Note_off_c, 0, 65, 0
2, 1613312, Note_on_c, 0, 67, 110
2, 1613813, Note_off_c, 0, 67, 0
2, 1613824, Note_on_c, 0, 64, 110
2, 1615616, Note_off_c, 0, 64, 0
2, 1615872, Note_on_c, 0, 60, 110
2, 1616725, Note_off_c, 0, 60, 0
2, 1616896, Note_on_c, 0, 64, 110
2, 1617397, Note_off_c, 0, 64, 0
2, 1617408, Note_on_c, 0, 67, 110
2, 1617909, Note_off_c, 0, 67, 0
2, 1617920, Note_on_c, 0, 69, 110
2, 1618773, Note_off_c, 0, 69, 0
2, 1618944, Note_on_c, 0, 69, 110
2, 1619445, Note_off_c, 0, 69, 0
2, 1619456, Note_on_c, 0, 69, 110
2, 1619957, Note_off_c, 0, 69, 0
2, 1619968, Note_on_c, 0, 71, 110
2, 1620821, Note_off_c, 0, 71, 0
2, 1620992, Note_on_c, 0, 74, 110
2, 1621493, Note_off_c, 0, 74, 0
2, 1621504, Note_on_c, 0, 72, 110
2, 1622005, Note_off_c, 0, 72, 0
2, 1622016, Note_on_c, 0, 67, 110
2, 1624832, Note_off_c, 0, 67, 0
2, 1626112, Note_on_c, 0, 69, 110
2, 1627477, Note_off_c, 0, 69, 0
2, 1627648, Note_on_c, 0, 69, 110
2, 1628149, Note_off_c, 0, 69, 0
2, 1628160, Note_on_c, 0, 71, 110
2, 1629013, Note_off_c, 0, 71, 0
2, 1629184, Note_on_c, 0, 74, 110
2, 1629685, Note_off_c, 0, 74, 0
2, 1629696, Note_on_c, 0, 72, 110
2, 1630197, Note_off_c, 0, 72, 0
2, 1630208, Note_on_c, 0, 67, 110
2, 1632000, Note_off_c, 0, 67, 0
2, 1632256, Note_on_c, 0, 72, 110
2, 1633109, Note_off_c, 0, 72, 0
2, 1633280, Note_on_c, 0, 72, 110
2, 1633781, Note_off_c, 0, 72, 0
2, 1633792, Note_on_c, 0, 74, 110
2, 1634293, Note_off_c, 0, 74, 0
2, 1634304, Note_on_c, 0, 77, 110
2, 1635157, Note_off_c, 0, 77, 0
2, 1635328, Note_on_c, 0, 76, 110
2, 1636181, Note_off_c, 0, 76, 0
2, 1636352, Note_on_c, 0, 71, 110
2, 1637205, Note_off_c, 0, 71, 0
2, 1637888, Note_on_c, 0, 72, 110
2, 1638389, Note_off_c, 0, 72, 0
2, 1638400, Note_on_c, 0, 72, 110
2, 1640192, Note_off_c, 0, 72, 0
2, 1642496, Note_on_c, 0, 72, 110
2, 1643349, Note_off_c, 0, 72, 0
2, 1644032, Note_on_c, 0, 74, 110
2, 1644533, Note_off_c, 0, 74, 0
2, 1645568, Note_on_c, 0, 76, 110
2, 1646421, Note_off_c, 0, 76, 0
2, 1646592, Note_on_c, 0, 71, 110
2, 1647445, Note_off_c, 0, 71, 0
2, 1648128, Note_on_c, 0, 67, 110
2, 1648629, Note_off_c, 0, 67, 0
2, 1649664, Note_on_c, 0, 64, 110
2, 1650517, Note_off_c, 0, 64, 0
2, 1650688, Note_on_c, 0, 69, 110
2, 1651541, Note_off_c, 0, 69, 0
2, 1652224, Note_on_c, 0, 71, 110
2, 1652725, Note_off_c, 0, 71, 0
2, 1653760, Note_on_c, 0, 72, 110
2, 1654613, Note_off_c, 0, 72, 0
2, 1654784, Note_on_c, 0, 67, 110
2, 1655637, Note_off_c, 0, 67, 0
2, 1658880, Note_on_c, 0, 65, 110
2, 1659733, Note_off_c, 0, 65, 0
2, 1660416, Note_on_c, 0, 67, 110
2, 1660917, Note_off_c, 0, 67, 0
2, 1661952, Note_on_c, 0, 69, 110
2, 1662805, Note_off_c, 0, 69, 0
2, 1662976, Note_on_c, 0, 67, 110
2, 1663829, Note_off_c, 0, 67, 0
2, 1664512, Note_on_c, 0, 71, 110
2, 1665013, Note_off_c, 0, 71, 0
2, 1666048, Note_on_c, 0, 72, 110
2, 1666901, Note_off_c, 0, 72, 0
2, 1667072, Note_on_c, 0, 69, 110
2, 1667925, Note_off_c, 0, 69, 0
2, 1670144, Note_on_c, 0, 72, 110
2, 1670997, Note_off_c, 0, 72, 0
2, 1671168, Note_on_c, 0, 74, 110
2, 1672021, Note_off_c, 0, 74, 0
2, 1675264, Note_on_c, 0, 72, 110
2, 1675264, Note_on_c, 0, 76, 110
2, 1675765, Note_off_c, 0, 72, 0
2, 1675765, Note_off_c, 0, 76, 0
2, 1675776, Note_on_c, 0, 71, 110
2, 1675776, Note_on_c, 0, 74, 110
2, 1676277, Note_off_c, 0, 71, 0
2, 1676277, Note_off_c, 0, 74, 0
2, 1676288, Note_on_c, 0, 72, 110
2, 1676288, Note_on_c, 0, 76, 110
2, 1676789, Note_off_c, 0, 72, 0
2, 1676789, Note_off_c, 0, 76, 0
2, 1676800, Note_on_c, 0, 74, 110
2, 1676800, Note_on_c, 0, 77, 110
2, 1677301, Note_off_c, 0, 74, 0
2, 1677301, Note_off_c, 0, 77, 0
2, 1677312, Note_on_c, 0, 76, 110
2, 1677312, Note_on_c, 0, 79, 110
2, 1678165, Note_off_c, 0, 76, 0
2, 1678165, Note_off_c, 0, 79, 0
2, 1678336, Note_on_c, 0, 72, 110
2, 1678336, Note_on_c, 0, 76, 110
2, 1678837, Note_off_c, 0, 72, 0
2, 1678837, Note_off_c, 0, 76, 0
2, 1678848, Note_on_c, 0, 71, 110
2, 1678848, Note_on_c, 0, 74, 110
2, 1679349, Note_off_c, 0, 71, 0
2, 1679349, Note_off_c, 0, 74, 0
2, 1679360, Note_on_c, 0, 71, 110
2, 1679360, Note_on_c, 0, 74, 110
2, 1680725, Note_off_c, 0, 71, 0
2, 1680725, Note_off_c, 0, 74, 0
2, 1680896, Note_on_c, 0, 67, 110
2, 1680896, Note_on_c, 0, 72, 110
2, 1681397, Note_off_c, 0, 67, 0
2, 1681397, Note_off_c, 0, 72, 0
2, 1681408, Note_on_c, 0, 67, 110
2, 1681408, Note_on_c, 0, 72, 110
2, 1682261, Note_off_c, 0, 67, 0
2, 1682261, Note_off_c, 0, 72, 0
2, 1682432, Note_on_c, 0, 72, 110
2, 1682432, Note_on_c, 0, 76, 110
2, 1682933, Note_off_c, 0, 72, 0
2, 1682933, Note_off_c, 0, 76, 0
2, 1682944, Note_on_c, 0, 76, 110
2, 1682944, Note_on_c, 0, 79, 110
2, 1683445, Note_off_c, 0, 76, 0
2, 1683445, Note_off_c, 0, 79, 0
2, 1683456, Note_on_c, 0, 77, 110
2, 1683456, Note_on_c, 0, 81, 110
2, 1683957, Note_off_c, 0, 77, 0
2, 1683957, Note_off_c, 0, 81, 0
2, 1683968, Note_on_c, 0, 76, 110
2, 1683968, Note_on_c, 0, 79, 110
2, 1684469, Note_off_c, 0, 76, 0
2, 1684469, Note_off_c, 0, 79, 0
2, 1684480, Note_on_c, 0, 77, 110
2, 1684480, Note_on_c, 0, 81, 110
2, 1684981, Note_off_c, 0, 77, 0
2, 1684981, Note_off_c, 0, 81, 0
2, 1684992, Note_on_c, 0, 77, 110
2, 1684992, Note_on_c, 0, 83, 110
2, 1685493, Note_off_c, 0, 77, 0
2, 1685493, Note_off_c, 0, 83, 0
2, 1685504, Note_on_c, 0, 76, 110
2, 1685504, Note_on_c, 0, 84, 110
2, 1686357, Note_off_c, 0, 76, 0
2, 1686357, Note_off_c, 0, 84, 0
2, 1686528, Note_on_c, 0, 76, 110
2, 1686528, Note_on_c, 0, 79, 110
2, 1687029, Note_off_c, 0, 76, 0
2, 1687029, Note_off_c, 0, 79, 0
2, 1687040, Note_on_c, 0, 74, 110
2, 1687040, Note_on_c, 0, 77, 110
2, 1687541, Note_off_c, 0, 74, 0
2, 1687541, Note_off_c, 0, 77, 0
2, 1687552, Note_on_c, 0, 72, 110
2, 1687552, Note_on_c, 0, 76, 110
2, 1688405, Note_off_c, 0, 72, 0
2, 1688405, Note_off_c, 0, 76, 0
2, 1688576, Note_on_c, 0, 72, 110
2, 1688576, Note_on_c, 0, 76, 110
2, 1689077, Note_off_c, 0, 72, 0
2, 1689077, Note_off_c, 0, 76, 0
2, 1689088, Note_on_c, 0, 74, 110
2, 1689088, Note_on_c, 0, 77, 110
2, 1689589, Note_off_c, 0, 74, 0
2, 1689589, Note_off_c, 0, 77, 0
2, 1689600, Note_on_c, 0, 71, 110
2, 1689600, Note_on_c, 0, 74, 110
2, 1691392, Note_off_c, 0, 71, 0
2, 1691392, Note_off_c, 0, 74, 0
2, 1691648, Note_on_c, 0, 72, 110
2, 1691648, Note_on_c, 0, 76, 110
2, 1692149, Note_off_c, 0, 72, 0
2, 1692149, Note_off_c, 0, 76, 0
2, 1692160, Note_on_c, 0, 71, 110
2, 1692160, Note_on_c, 0, 74, 110
2, 1692661, Note_off_c, 0, 71, 0
2, 1692661, Note_off_c, 0, 74, 0
2, 1692672, Note_on_c, 0, 72, 110
2, 1692672, Note_on_c, 0, 76, 110
2, 1693173, Note_off_c, 0, 72, 0
2, 1693173, Note_off_c, 0, 76, 0
2, 1693184, Note_on_c, 0, 74, 110
2, 1693184, Note_on_c, 0, 77, 110
2, 1693685, Note_off_c, 0, 74, 0
2, 1693685, Note_off_c, 0, 77, 0
2, 1693696, Note_on_c, 0, 76, 110
2, 1693696, Note_on_c, 0, 79, 110
2, 1694549, Note_off_c, 0, 76, 0
2, 1694549, Note_off_c, 0, 79, 0
2, 1694720, Note_on_c, 0, 72, 110
2, 1694720, Note_on_c, 0, 76, 110
2, 1695221, Note_off_c, 0, 72, 0
2, 1695221, Note_off_c, 0, 76, 0
2, 1695232, Note_on_c, 0, 71, 110
2, 1695232, Note_on_c, 0, 74, 110
2, 1695733, Note_off_c, 0, 71, 0
2, 1695733, Note_off_c, 0, 74, 0
2, 1695744, Note_on_c, 0, 71, 110
2, 1695744, Note_on_c, 0, 74, 110
2, 1697109, Note_off_c, 0, 71, 0
2, 1697109, Note_off_c, 0, 74, 0
2, 1697280, Note_on_c, 0, 67, 110
2, 1697280, Note_on_c, 0, 72, 110
2, 1697781, Note_off_c, 0, 67, 0
2, 1697781, Note_off_c, 0, 72, 0
2, 1697792, Note_on_c, 0, 67, 110
2, 1697792, Note_on_c, 0, 72, 110
2, 1698645, Note_off_c, 0, 67, 0
2, 1698645, Note_off_c, 0, 72, 0
2, 1698816, Note_on_c, 0, 72, 110
2, 1698816, Note_on_c, 0, 76, 110
2, 1699317, Note_off_c, 0, 72, 0
2, 1699317, Note_off_c, 0, 76, 0
2, 1699328, Note_on_c, 0, 76, 110
2, 1699328, Note_on_c, 0, 79, 110
2, 1699829, Note_off_c, 0, 76, 0
2, 1699829, Note_off_c, 0, 79, 0
2, 1699840, Note_on_c, 0, 77, 110
2, 1699840, Note_on_c, 0, 81, 110
2, 1700341, Note_off_c, 0, 77, 0
2, 1700341, Note_off_c, 0, 81, 0
2, 1700352, Note_on_c, 0, 76, 110
2, 1700352, Note_on_c, 0, 79, 110
2, 1700853, Note_off_c, 0, 76, 0
2, 1700853, Note_off_c, 0, 79, 0
2, 1700864, Note_on_c, 0, 77, 110
2, 1700864, Note_on_c, 0, 81, 110
2, 1701365, Note_off_c, 0, 77, 0
2, 1701365, Note_off_c, 0, 81, 0
2, 1701376, Note_on_c, 0, 77, 110
2, 1701376, Note_on_c, 0, 83, 110
2, 1701877, Note_off_c, 0, 77, 0
2, 1701877, Note_off_c, 0, 83, 0
2, 1701888, Note_on_c, 0, 76, 110
2, 1701888, Note_on_c, 0, 84, 110
2, 1702741, Note_off_c, 0, 76, 0
2, 1702741, Note_off_c, 0, 84, 0
2, 1702912, Note_on_c, 0, 76, 110
2, 1702912, Note_on_c, 0, 79, 110
2, 1703413, Note_off_c, 0, 76, 0
2, 1703413, Note_off_c, 0, 79, 0
2, 1703424, Note_on_c, 0, 74, 110
2, 1703424, Note_on_c, 0, 77, 110
2, 1703925, Note_off_c, 0, 74, 0
2, 1703925, Note_off_c, 0, 77, 0
2, 1703936, Note_on_c, 0, 72, 110
2, 1703936, Note_on_c, 0, 77, 110
2, 1704437, Note_off_c, 0, 72, 0
2, 1704437, Note_off_c, 0, 77, 0
2, 1704448, Note_on_c, 0, 72, 110
2, 1704448, Note_on_c, 0, 76, 110
2, 1704949, Note_off_c, 0, 72, 0
2, 1704949, Note_off_c, 0, 76, 0
2, 1704960, Note_on_c, 0, 71, 110
2, 1704960, Note_on_c, 0, 74, 110
2, 1705461, Note_off_c, 0, 71, 0
2, 1705461, Note_off_c, 0, 74, 0
2, 1705472, Note_on_c, 0, 67, 110
2, 1705472, Note_on_c, 0, 72, 110
2, 1705973, Note_off_c, 0, 67, 0
2, 1705973, Note_off_c, 0, 72, 0
2, 1705984, Note_on_c, 0, 74, 110
2, 1705984, Note_on_c, 0, 79, 110
2, 1706837, Note_off_c, 0, 74, 0
2, 1706837, Note_off_c, 0, 79, 0
2, 1707008, Note_on_c, 0, 62, 110
2, 1707008, Note_on_c, 0, 67, 110
2, 1707861, Note_off_c, 0, 62, 0
2, 1707861, Note_off_c, 0, 67, 0
2, 1708032, Note_on_c, 0, 73, 110
2, 1708032, Note_on_c, 0, 77, 110
2, 1708533, Note_off_c, 0, 73, 0
2, 1708533, Note_off_c, 0, 77, 0
2, 1708544, Note_on_c, 0, 72, 110
2, 1708544, Note_on_c, 0, 75, 110
2, 1709045, Note_off_c, 0, 72, 0
2, 1709045, Note_off_c, 0, 75, 0
2, 1709056, Note_on_c, 0, 73, 110
2, 1709056, Note_on_c, 0, 77, 110
2, 1709557, Note_off_c, 0, 73, 0
2, 1709557, Note_off_c, 0, 77, 0
2, 1709568, Note_on_c, 0, 75, 110
2, 1709568, Note_on_c, 0, 78, 110
2, 1710069, Note_off_c, 0, 75, 0
2, 1710069, Note_off_c, 0, 78, 0
2, 1710080, Note_on_c, 0, 77, 110
2, 1710080, Note_on_c, 0, 80, 110
2, 1710933, Note_off_c, 0, 77, 0
2, 1710933, Note_off_c, 0, 80, 0
2, 1711104, Note_on_c, 0, 73, 110
2, 1711104, Note_on_c, 0, 77, 110
2, 1711605, Note_off_c, 0, 73, 0
2, 1711605, Note_off_c, 0, 77, 0
2, 1711616, Note_on_c, 0, 72, 110
2, 1711616, Note_on_c, 0, 75, 110
2, 1712117, Note_off_c, 0, 72, 0
2, 1712117, Note_off_c, 0, 75, 0
2, 1712128, Note_on_c, 0, 72, 110
2, 1712128, Note_on_c, 0, 75, 110
2, 1713493, Note_off_c, 0, 72, 0
2, 1713493, Note_off_c, 0, 75, 0
2, 1713664, Note_on_c, 0, 68, 110
2, 1713664, Note_on_c, 0, 73, 110
2, 1714165, Note_off_c, 0, 68, 0
2, 1714165, Note_off_c, 0, 73, 0
2, 1714176, Note_on_c, 0, 68, 110
2, 1714176, Note_on_c, 0, 73, 110
2, 1715029, Note_off_c, 0, 68, 0
2, 1715029, Note_off_c, 0, 73, 0
2, 1715200, Note_on_c, 0, 73, 110
2, 1715200, Note_on_c, 0, 77, 110
2, 1715701, Note_off_c, 0, 73, 0
2, 1715701, Note_off_c, 0, 77, 0
2, 1715712, Note_on_c, 0, 77, 110
2, 1715712, Note_on_c, 0, 80, 110
2, 1716213, Note_off_c, 0, 77, 0
2, 1716213, Note_off_c, 0, 80, 0
2, 1716224, Note_on_c, 0, 78, 110
2, 1716224, Note_on_c, 0, 82, 110
2, 1716725, Note_off_c, 0, 78, 0
2, 1716725, Note_off_c, 0, 82, 0
2, 1716736, Note_on_c, 0, 77, 110
2, 1716736, Note_on_c, 0, 80, 110
2, 1717237, Note_off_c, 0, 77, 0
2, 1717237, Note_off_c, 0, 80, 0
2, 1717248, Note_on_c, 0, 78, 110
2, 1717248, Note_on_c, 0, 82, 110
2, 1717749, Note_off_c, 0, 78, 0
2, 1717749, Note_off_c, 0, 82, 0
2, 1717760, Note_on_c, 0, 78, 110
2, 1717760, Note_on_c, 0, 84, 110
2, 1718261, Note_off_c, 0, 78, 0
2, 1718261, Note_off_c, 0, 84, 0
2, 1718272, Note_on_c, 0, 77, 110
2, 1718272, Note_on_c, 0, 85, 110
2, 1719125, Note_off_c, 0, 77, 0
2, 1719125, Note_off_c, 0, 85, 0
2, 1719296, Note_on_c, 0, 77, 110
2, 1719296, Note_on_c, 0, 80, 110
2, 1719797, Note_off_c, 0, 77, 0
2, 1719797, Note_off_c, 0, 80, 0
2, 1719808, Note_on_c, 0, 75, 110
2, 1719808, Note_on_c, 0, 78, 110
2, 1720309, Note_off_c, 0, 75, 0
2, 1720309, Note_off_c, 0, 78, 0
2, 1720320, Note_on_c, 0, 73, 110
2, 1720320, Note_on_c, 0, 77, 110
2, 1721173, Note_off_c, 0, 73, 0
2, 1721173, Note_off_c, 0, 77, 0
2, 1721344, Note_on_c, 0, 73, 110
2, 1721344, Note_on_c, 0, 77, 110
2, 1721845, Note_off_c, 0, 73, 0
2, 1721845, Note_off_c, 0, 77, 0
2, 1721856, Note_on_c, 0, 75, 110
2, 1721856, Note_on_c, 0, 78, 110
2, 1722357, Note_off_c, 0, 75, 0
2, 1722357, Note_off_c, 0, 78, 0
2, 1722368, Note_on_c, 0, 72, 110
2, 1722368, Note_on_c, 0, 75, 110
2, 1724160, Note_off_c, 0, 72, 0
2, 1724160, Note_off_c, 0, 75, 0
2, 1724416, Note_on_c, 0, 73, 110
2, 1724416, Note_on_c, 0, 77, 110
2, 1724917, Note_off_c, 0, 73, 0
2, 1724917, Note_off_c, 0, 77, 0
2, 1724928, Note_on_c, 0, 72, 110
2, 1724928, Note_on_c, 0, 75, 110
2, 1725429, Note_off_c, 0, 72, 0
2, 1725429, Note_off_c, 0, 75, 0
2, 1725440, Note_on_c, 0, 73, 110
2, 1725440, Note_on_c, 0, 77, 110
2, 1725941, Note_off_c, 0, 73, 0
2, 1725941, Note_off_c, 0, 77, 0
2, 1725952, Note_on_c, 0, 75, 110
2, 1725952, Note_on_c, 0, 78, 110
2, 1726453, Note_off_c, 0, 75, 0
2, 1726453, Note_off_c, 0, 78, 0
2, 1726464, Note_on_c, 0, 77, 110
2, 1726464, Note_on_c, 0, 80, 110
2, 1727317, Note_off_c, 0, 77, 0
2, 1727317, Note_off_c, 0, 80, 0
2, 1727488, Note_on_c, 0, 73, 110
2, 1727488, Note_on_c, 0, 77, 110
2, 1727989, Note_off_c, 0, 73, 0
2, 1727989, Note_off_c, 0, 77, 0
2, 1728000, Note_on_c, 0, 72, 110
2, 1728000, Note_on_c, 0, 75, 110
2, 1728501, Note_off_c, 0, 72, 0
2, 1728501, Note_off_c, 0, 75, 0
2, 1728512, Note_on_c, 0, 72, 110
2, 1728512, Note_on_c, 0, 75, 110
2, 1729877, Note_off_c, 0, 72, 0
2, 1729877, Note_off_c, 0, 75, 0
2, 1730048, Note_on_c, 0, 68, 110
2, 1730048, Note_on_c, 0, 73, 110
2, 1730549, Note_off_c, 0, 68, 0
2, 1730549, Note_off_c, 0, 73, 0
2, 1730560, Note_on_c, 0, 68, 110
2, 1730560, Note_on_c, 0, 73, 110
2, 1731413, Note_off_c, 0, 68, 0
2, 1731413, Note_off_c, 0, 73, 0
2, 1731584, Note_on_c, 0, 73, 110
2, 1731584, Note_on_c, 0, 77, 110
2, 1732085, Note_off_c, 0, 73, 0
2, 1732085, Note_off_c, 0, 77, 0
2, 1732096, Note_on_c, 0, 77, 110
2, 1732096, Note_on_c, 0, 80, 110
2, 1732597, Note_off_c, 0, 77, 0
2, 1732597, Note_off_c, 0, 80, 0
2, 1732608, Note_on_c, 0, 78, 110
2, 1732608, Note_on_c, 0, 82, 110
2, 1733109, Note_off_c, 0, 78, 0
2, 1733109, Note_off_c, 0, 82, 0
2, 1733120, Note_on_c, 0, 77, 110
2, 1733120, Note_on_c, 0, 80, 110
2, 1733621, Note_off_c, 0, 77, 0
2, 1733621, Note_off_c, 0, 80, 0
2, 1733632, Note_on_c, 0, 78, 110
2, 1733632, Note_on_c, 0, 82, 110
2, 1734133, Note_off_c, 0, 78, 0
2, 1734133, Note_off_c, 0, 82, 0
2, 1734144, Note_on_c, 0, 78, 110
2, 1734144, Note_on_c, 0, 84, 110
2, 1734645, Note_off_c, 0, 78, 0
2, 1734645, Note_off_c, 0, 84, 0
2, 1734656, Note_on_c, 0, 77, 110
2, 1734656, Note_on_c, 0, 85, 110
2, 1735509, Note_off_c, 0, 77, 0
2, 1735509, Note_off_c, 0, 85, 0
2, 1735680, Note_on_c, 0, 77, 110
2, 1735680, Note_on_c, 0, 80, 110
2, 1736181, Note_off_c, 0, 77, 0
2, 1736181, Note_off_c, 0, 80, 0
2, 1736192, Note_on_c, 0, 75, 110
2, 1736192, Note_on_c, 0, 78, 110
2, 1736693, Note_off_c, 0, 75, 0
2, 1736693, Note_off_c, 0, 78, 0
2, 1736704, Note_on_c, 0, 73, 110
2, 1736704, Note_on_c, 0, 78, 110
2, 1737205, Note_off_c, 0, 73, 0
2, 1737205, Note_off_c, 0, 78, 0
2, 1737216, Note_on_c, 0, 73, 110
2, 1737216, Note_on_c, 0, 77, 110
2, 1737717, Note_off_c, 0, 73, 0
2, 1737717, Note_off_c, 0, 77, 0
2, 1737728, Note_on_c, 0, 72, 110
2, 1737728, Note_on_c, 0, 75, 110
2, 1738229, Note_off_c, 0, 72, 0
2, 1738229, Note_off_c, 0, 75, 0
2, 1738240, Note_on_c, 0, 68, 110
2, 1738240, Note_on_c, 0, 73, 110
2, 1738741, Note_off_c, 0, 68, 0
2, 1738741, Note_off_c, 0, 73, 0
2, 1738752, Note_on_c, 0, 75, 110
2, 1738752, Note_on_c, 0, 80, 110
2, 1739605, Note_off_c, 0, 75, 0
2, 1739605, Note_off_c, 0, 80, 0
2, 1739776, Note_on_c, 0, 68, 110
2, 1739776, Note_on_c, 0, 72, 110
2, 1740629, Note_off_c, 0, 68, 0
2, 1740629, Note_off_c, 0, 72, 0
2, 1740800, Note_on_c, 0, 56, 110
2, 1740800, Note_on_c, 0, 60, 110
2, 1740800, Note_on_c, 0, 65, 110
2, 1742592, Note_off_c, 0, 56, 0
2, 1742592, Note_off_c, 0, 60, 0
2, 1742592, Note_off_c, 0, 65, 0
2, 1743360, Note_on_c, 0, 65, 110
2, 1743861, Note_off_c, 0, 65, 0
2, 1743872, Note_on_c, 0, 66, 110
2, 1744245, Note_off_c, 0, 66, 0
2, 1744256, Note_on_c, 0, 68, 110
2, 1744885, Note_off_c, 0, 68, 0
2, 1744896, Note_on_c, 0, 61, 110
2, 1744896, Note_on_c, 0, 66, 110
2, 1744896, Note_on_c, 0, 70, 110
2, 1746688, Note_off_c, 0, 61, 0
2, 1746688, Note_off_c, 0, 66, 0
2, 1746688, Note_off_c, 0, 70, 0
2, 1747456, Note_on_c, 0, 70, 110
2, 1747957, Note_off_c, 0, 70, 0
2, 1747968, Note_on_c, 0, 68, 110
2, 1748341, Note_off_c, 0, 68, 0
2, 1748352, Note_on_c, 0, 66, 110
2, 1748981, Note_off_c, 0, 66, 0
2, 1748992, Note_on_c, 0, 56, 110
2, 1748992, Note_on_c, 0, 60, 110
2, 1748992, Note_on_c, 0, 65, 110
2, 1750784, Note_off_c, 0, 56, 0
2, 1750784, Note_off_c, 0, 60, 0
2, 1750784, Note_off_c, 0, 65, 0
2, 1751552, Note_on_c, 0, 65, 110
2, 1752053, Note_off_c, 0, 65, 0
2, 1752064, Note_on_c, 0, 66, 110
2, 1752437, Note_off_c, 0, 66, 0
2, 1752448, Note_on_c, 0, 68, 110
2, 1753077, Note_off_c, 0, 68, 0
2, 1753088, Note_on_c, 0, 61, 110
2, 1753088, Note_on_c, 0, 66, 110
2, 1753088, Note_on_c, 0, 70, 110
2, 1754880, Note_off_c, 0, 61, 0
2, 1754880, Note_off_c, 0, 66, 0
2, 1754880, Note_off_c, 0, 70, 0
2, 1755648, Note_on_c, 0, 70, 110
2, 1756149, Note_off_c, 0, 70, 0
2, 1756160, Note_on_c, 0, 68, 110
2, 1756533, Note_off_c, 0, 68, 0
2, 1756544, Note_on_c, 0, 66, 110
2, 1757173, Note_off_c, 0, 66, 0
2, 1757184, Note_on_c, 0, 56, 110
2, 1757184, Note_on_c, 0, 60, 110
2, 1757184, Note_on_c, 0, 65, 110
2, 1758976, Note_off_c, 0, 56, 0
2, 1758976, Note_off_c, 0, 60, 0
2, 1758976, Note_off_c, 0, 65, 0
2, 1759744, Note_on_c, 0, 65, 110
2, 1760245, Note_off_c, 0, 65, 0
2, 1760256, Note_on_c, 0, 66, 110
2, 1760629, Note_off_c, 0, 66, 0
2, 1760640, Note_on_c, 0, 68, 110
2, 1761269, Note_off_c, 0, 68, 0
2, 1761280, Note_on_c, 0, 61, 110
2, 1761280, Note_on_c, 0, 66, 110
2, 1761280, Note_on_c, 0, 70, 110
2, 1763072, Note_off_c, 0, 61, 0
2, 1763072, Note_off_c, 0, 66, 0
2, 1763072, Note_off_c, 0, 70, 0
2, 1763328, Note_on_c, 0, 66, 110
2, 1763328, Note_on_c, 0, 69, 110
2, 1763328, Note_on_c, 0, 73, 110
2, 1765877, Note_off_c, 0, 66, 0
2, 1765877, Note_off_c, 0, 69, 0
2, 1765877, Note_off_c, 0, 73, 0
2, 1765888, Note_on_c, 0, 68, 110
2, 1766005, Note_off_c, 0, 68, 0
2, 1766016, Note_on_c, 0, 65, 110
2, 1766016, Note_on_c, 0, 73, 110
2, 1768192, Note_off_c, 0, 65, 0
2, 1768192, Note_off_c, 0, 73, 0
2, 1770326, End_track
3, 0, Start_track
3, 0, Device_name_t, "SmartMusic SoftSynth 1"
3, 0, Title_t, "Acoustic Grand Piano"
3, 0, Program_c, 1, 0
3, 0, Control_c, 1, 7, 101
3, 0, Control_c, 1, 10, 64
3, 0, Control_c, 1, 10, 64
3, 0, Control_c, 1, 7, 127
3, 0, Note_on_c, 1, 38, 110
3, 501, Note_off_c, 1, 38, 0
3, 512, Note_on_c, 1, 38, 110
3, 1013, Note_off_c, 1, 38, 0
3, 1536, Note_on_c, 1, 38, 110
3, 2037, Note_off_c, 1, 38, 0
3, 2560, Note_on_c, 1, 38, 110
3, 3061, Note_off_c, 1, 38, 0
3, 3072, Note_on_c, 1, 38, 110
3, 3925, Note_off_c, 1, 38, 0
3, 4096, Note_on_c, 1, 43, 110
3, 4949, Note_off_c, 1, 43, 0
3, 6144, Note_on_c, 1, 47, 110
3, 6997, Note_off_c, 1, 47, 0
3, 8192, Note_on_c, 1, 43, 110
3, 14080, Note_off_c, 1, 43, 0
3, 16384, Note_on_c, 1, 48, 110
3, 22272, Note_off_c, 1, 48, 0
3, 24576, Note_on_c, 1, 43, 110
3, 30464, Note_off_c, 1, 43, 0
3, 32768, Note_on_c, 1, 48, 110
3, 38656, Note_off_c, 1, 48, 0
3, 40960, Note_on_c, 1, 47, 110
3, 46848, Note_off_c, 1, 47, 0
3, 49152, Note_on_c, 1, 45, 110
3, 55040, Note_off_c, 1, 45, 0
3, 57344, Note_on_c, 1, 47, 110
3, 63232, Note_off_c, 1, 47, 0
3, 65536, Note_on_c, 1, 50, 110
3, 71424, Note_off_c, 1, 50, 0
3, 73728, Note_on_c, 1, 36, 110
3, 73728, Note_on_c, 1, 48, 110
3, 81664, Note_off_c, 1, 36, 0
3, 81664, Note_off_c, 1, 48, 0
3, 81920, Note_on_c, 1, 36, 110
3, 81920, Note_on_c, 1, 48, 110
3, 85760, Note_off_c, 1, 36, 0
3, 85760, Note_off_c, 1, 48, 0
3, 86016, Note_on_c, 1, 36, 110
3, 86016, Note_on_c, 1, 48, 110
3, 89856, Note_off_c, 1, 36, 0
3, 89856, Note_off_c, 1, 48, 0
3, 90112, Note_on_c, 1, 36, 110
3, 90112, Note_on_c, 1, 48, 110
3, 93952, Note_off_c, 1, 36, 0
3, 93952, Note_off_c, 1, 48, 0
3, 94208, Note_on_c, 1, 36, 110
3, 94208, Note_on_c, 1, 48, 110
3, 98048, Note_off_c, 1, 36, 0
3, 98048, Note_off_c, 1, 48, 0
3, 98304, Note_on_c, 1, 37, 110
3, 98304, Note_on_c, 1, 49, 110
3, 102144, Note_off_c, 1, 37, 0
3, 102144, Note_off_c, 1, 49, 0
3, 102400, Note_on_c, 1, 38, 110
3, 102400, Note_on_c, 1, 50, 110
3, 106240, Note_off_c, 1, 38, 0
3, 106240, Note_off_c, 1, 50, 0
3, 106496, Note_on_c, 1, 39, 110
3, 106496, Note_on_c, 1, 51, 110
3, 110336, Note_off_c, 1, 39, 0
3, 110336, Note_off_c, 1, 51, 0
3, 110592, Note_on_c, 1, 40, 110
3, 110592, Note_on_c, 1, 52, 110
3, 114432, Note_off_c, 1, 40, 0
3, 114432, Note_off_c, 1, 52, 0
3, 114688, Note_on_c, 1, 39, 110
3, 114688, Note_on_c, 1, 51, 110
3, 118528, Note_off_c, 1, 39, 0
3, 118528, Note_off_c, 1, 51, 0
3, 118784, Note_on_c, 1, 38, 110
3, 118784, Note_on_c, 1, 50, 110
3, 122624, Note_off_c, 1, 38, 0
3, 122624, Note_off_c, 1, 50, 0
3, 122880, Note_on_c, 1, 37, 110
3, 122880, Note_on_c, 1, 49, 110
3, 130816, Note_off_c, 1, 37, 0
3, 130816, Note_off_c, 1, 49, 0
3, 131072, Note_on_c, 1, 48, 110
3, 131072, Note_on_c, 1, 60, 110
3, 131573, Note_off_c, 1, 48, 0
3, 131573, Note_off_c, 1, 60, 0
3, 131584, Note_on_c, 1, 45, 110
3, 131584, Note_on_c, 1, 57, 110
3, 132085, Note_off_c, 1, 45, 0
3, 132085, Note_off_c, 1, 57, 0
3, 132096, Note_on_c, 1, 48, 110
3, 132096, Note_on_c, 1, 60, 110
3, 132597, Note_off_c, 1, 48, 0
3, 132597, Note_off_c, 1, 60, 0
3, 132608, Note_on_c, 1, 62, 110
3, 132725, Note_off_c, 1, 62, 0
3, 132736, Note_on_c, 1, 50, 110
3, 132853, Note_off_c, 1, 50, 0
3, 132864, Note_on_c, 1, 48, 110
3, 132864, Note_on_c, 1, 60, 110
3, 133109, Note_off_c, 1, 48, 0
3, 133109, Note_off_c, 1, 60, 0
3, 133376, Note_on_c, 1, 40, 110
3, 133376, Note_on_c, 1, 52, 110
3, 134133, Note_off_c, 1, 40, 0
3, 134133, Note_off_c, 1, 52, 0
3, 134144, Note_on_c, 1, 41, 110
3, 134144, Note_on_c, 1, 53, 110
3, 134645, Note_off_c, 1, 41, 0
3, 134645, Note_off_c, 1, 53, 0
3, 134656, Note_on_c, 1, 42, 110
3, 134656, Note_on_c, 1, 54, 110
3, 135157, Note_off_c, 1, 42, 0
3, 135157, Note_off_c, 1, 54, 0
3, 135168, Note_on_c, 1, 43, 110
3, 135168, Note_on_c, 1, 55, 110
3, 136021, Note_off_c, 1, 43, 0
3, 136021, Note_off_c, 1, 55, 0
3, 136192, Note_on_c, 1, 43, 110
3, 136192, Note_on_c, 1, 55, 110
3, 136437, Note_off_c, 1, 43, 0
3, 136437, Note_off_c, 1, 55, 0
3, 136448, Note_on_c, 1, 43, 110
3, 136448, Note_on_c, 1, 55, 110
3, 136949, Note_off_c, 1, 43, 0
3, 136949, Note_off_c, 1, 55, 0
3, 136960, Note_on_c, 1, 43, 110
3, 136960, Note_on_c, 1, 55, 110
3, 137205, Note_off_c, 1, 43, 0
3, 137205, Note_off_c, 1, 55, 0
3, 139264, Note_on_c, 1, 52, 110
3, 139264, Note_on_c, 1, 55, 110
3, 140117, Note_off_c, 1, 52, 0
3, 140117, Note_off_c, 1, 55, 0
3, 140288, Note_on_c, 1, 52, 110
3, 140288, Note_on_c, 1, 55, 110
3, 140789, Note_off_c, 1, 52, 0
3, 140789, Note_off_c, 1, 55, 0
3, 140800, Note_on_c, 1, 52, 110
3, 140800, Note_on_c, 1, 55, 110
3, 141301, Note_off_c, 1, 52, 0
3, 141301, Note_off_c, 1, 55, 0
3, 141824, Note_on_c, 1, 52, 110
3, 141824, Note_on_c, 1, 55, 110
3, 142325, Note_off_c, 1, 52, 0
3, 142325, Note_off_c, 1, 55, 0
3, 142336, Note_on_c, 1, 52, 110
3, 142336, Note_on_c, 1, 55, 110
3, 143189, Note_off_c, 1, 52, 0
3, 143189, Note_off_c, 1, 55, 0
3, 143360, Note_on_c, 1, 53, 110
3, 143360, Note_on_c, 1, 57, 110
3, 144213, Note_off_c, 1, 53, 0
3, 144213, Note_off_c, 1, 57, 0
3, 144384, Note_on_c, 1, 53, 110
3, 144384, Note_on_c, 1, 57, 110
3, 145141, Note_off_c, 1, 53, 0
3, 145141, Note_off_c, 1, 57, 0
3, 145152, Note_on_c, 1, 53, 110
3, 145152, Note_on_c, 1, 57, 110
3, 145397, Note_off_c, 1, 53, 0
3, 145397, Note_off_c, 1, 57, 0
3, 145920, Note_on_c, 1, 53, 110
3, 145920, Note_on_c, 1, 57, 110
3, 147285, Note_off_c, 1, 53, 0
3, 147285, Note_off_c, 1, 57, 0
3, 147456, Note_on_c, 1, 52, 110
3, 147456, Note_on_c, 1, 55, 110
3, 148309, Note_off_c, 1, 52, 0
3, 148309, Note_off_c, 1, 55, 0
3, 148480, Note_on_c, 1, 52, 110
3, 148480, Note_on_c, 1, 55, 110
3, 149237, Note_off_c, 1, 52, 0
3, 149237, Note_off_c, 1, 55, 0
3, 149248, Note_on_c, 1, 52, 110
3, 149248, Note_on_c, 1, 55, 110
3, 149493, Note_off_c, 1, 52, 0
3, 149493, Note_off_c, 1, 55, 0
3, 150016, Note_on_c, 1, 52, 110
3, 150016, Note_on_c, 1, 55, 110
3, 150517, Note_off_c, 1, 52, 0
3, 150517, Note_off_c, 1, 55, 0
3, 150528, Note_on_c, 1, 52, 110
3, 150528, Note_on_c, 1, 55, 110
3, 151381, Note_off_c, 1, 52, 0
3, 151381, Note_off_c, 1, 55, 0
3, 151552, Note_on_c, 1, 50, 110
3, 151552, Note_on_c, 1, 53, 110
3, 152405, Note_off_c, 1, 50, 0
3, 152405, Note_off_c, 1, 53, 0
3, 152576, Note_on_c, 1, 50, 110
3, 152576, Note_on_c, 1, 53, 110
3, 153333, Note_off_c, 1, 50, 0
3, 153333, Note_off_c, 1, 53, 0
3, 153344, Note_on_c, 1, 50, 110
3, 153344, Note_on_c, 1, 55, 110
3, 153589, Note_off_c, 1, 50, 0
3, 153589, Note_off_c, 1, 55, 0
3, 154112, Note_on_c, 1, 50, 110
3, 154112, Note_on_c, 1, 55, 110
3, 155125, Note_off_c, 1, 50, 0
3, 155125, Note_off_c, 1, 55, 0
3, 155136, Note_on_c, 1, 52, 110
3, 155136, Note_on_c, 1, 55, 110
3, 155637, Note_off_c, 1, 52, 0
3, 155637, Note_off_c, 1, 55, 0
3, 155648, Note_on_c, 1, 52, 110
3, 155648, Note_on_c, 1, 55, 110
3, 156501, Note_off_c, 1, 52, 0
3, 156501, Note_off_c, 1, 55, 0
3, 156672, Note_on_c, 1, 52, 110
3, 156672, Note_on_c, 1, 55, 110
3, 157173, Note_off_c, 1, 52, 0
3, 157173, Note_off_c, 1, 55, 0
3, 157184, Note_on_c, 1, 52, 110
3, 157184, Note_on_c, 1, 55, 110
3, 157685, Note_off_c, 1, 52, 0
3, 157685, Note_off_c, 1, 55, 0
3, 158208, Note_on_c, 1, 52, 110
3, 158208, Note_on_c, 1, 55, 110
3, 158709, Note_off_c, 1, 52, 0
3, 158709, Note_off_c, 1, 55, 0
3, 158720, Note_on_c, 1, 52, 110
3, 158720, Note_on_c, 1, 55, 110
3, 159573, Note_off_c, 1, 52, 0
3, 159573, Note_off_c, 1, 55, 0
3, 159744, Note_on_c, 1, 53, 110
3, 159744, Note_on_c, 1, 57, 110
3, 160597, Note_off_c, 1, 53, 0
3, 160597, Note_off_c, 1, 57, 0
3, 160768, Note_on_c, 1, 53, 110
3, 160768, Note_on_c, 1, 57, 110
3, 161525, Note_off_c, 1, 53, 0
3, 161525, Note_off_c, 1, 57, 0
3, 161536, Note_on_c, 1, 54, 110
3, 161536, Note_on_c, 1, 57, 110
3, 161781, Note_off_c, 1, 54, 0
3, 161781, Note_off_c, 1, 57, 0
3, 162304, Note_on_c, 1, 54, 110
3, 162304, Note_on_c, 1, 57, 110
3, 162805, Note_off_c, 1, 54, 0
3, 162805, Note_off_c, 1, 57, 0
3, 162816, Note_on_c, 1, 54, 110
3, 162816, Note_on_c, 1, 57, 110
3, 163669, Note_off_c, 1, 54, 0
3, 163669, Note_off_c, 1, 57, 0
3, 163840, Note_on_c, 1, 52, 110
3, 163840, Note_on_c, 1, 55, 110
3, 164693, Note_off_c, 1, 52, 0
3, 164693, Note_off_c, 1, 55, 0
3, 164864, Note_on_c, 1, 52, 110
3, 164864, Note_on_c, 1, 55, 110
3, 165365, Note_off_c, 1, 52, 0
3, 165365, Note_off_c, 1, 55, 0
3, 165376, Note_on_c, 1, 52, 110
3, 165376, Note_on_c, 1, 55, 110
3, 165877, Note_off_c, 1, 52, 0
3, 165877, Note_off_c, 1, 55, 0
3, 166400, Note_on_c, 1, 52, 110
3, 166400, Note_on_c, 1, 55, 110
3, 166901, Note_off_c, 1, 52, 0
3, 166901, Note_off_c, 1, 55, 0
3, 166912, Note_on_c, 1, 52, 110
3, 166912, Note_on_c, 1, 55, 110
3, 167765, Note_off_c, 1, 52, 0
3, 167765, Note_off_c, 1, 55, 0
3, 167936, Note_on_c, 1, 48, 110
3, 167936, Note_on_c, 1, 55, 110
3, 168789, Note_off_c, 1, 48, 0
3, 168789, Note_off_c, 1, 55, 0
3, 168960, Note_on_c, 1, 55, 110
3, 169205, Note_off_c, 1, 55, 0
3, 169216, Note_on_c, 1, 57, 110
3, 169717, Note_off_c, 1, 57, 0
3, 169728, Note_on_c, 1, 60, 110
3, 169973, Note_off_c, 1, 60, 0
3, 172032, Note_on_c, 1, 52, 110
3, 172032, Note_on_c, 1, 55, 110
3, 172533, Note_off_c, 1, 52, 0
3, 172533, Note_off_c, 1, 55, 0
3, 172544, Note_on_c, 1, 52, 110
3, 172544, Note_on_c, 1, 55, 110
3, 173045, Note_off_c, 1, 52, 0
3, 173045, Note_off_c, 1, 55, 0
3, 173824, Note_on_c, 1, 52, 110
3, 173824, Note_on_c, 1, 55, 110
3, 174069, Note_off_c, 1, 52, 0
3, 174069, Note_off_c, 1, 55, 0
3, 174592, Note_on_c, 1, 52, 110
3, 174592, Note_on_c, 1, 55, 110
3, 175093, Note_off_c, 1, 52, 0
3, 175093, Note_off_c, 1, 55, 0
3, 175104, Note_on_c, 1, 67, 110
3, 175605, Note_off_c, 1, 67, 0
3, 175616, Note_on_c, 1, 65, 110
3, 175733, Note_off_c, 1, 65, 0
3, 175744, Note_on_c, 1, 64, 110
3, 175861, Note_off_c, 1, 64, 0
3, 175872, Note_on_c, 1, 62, 110
3, 175989, Note_off_c, 1, 62, 0
3, 176128, Note_on_c, 1, 59, 110
3, 176245, Note_off_c, 1, 59, 0
3, 176256, Note_on_c, 1, 57, 110
3, 176373, Note_off_c, 1, 57, 0
3, 176384, Note_on_c, 1, 55, 110
3, 176501, Note_off_c, 1, 55, 0
3, 176512, Note_on_c, 1, 53, 110
3, 176629, Note_off_c, 1, 53, 0
3, 176640, Note_on_c, 1, 53, 110
3, 176640, Note_on_c, 1, 57, 110
3, 177141, Note_off_c, 1, 53, 0
3, 177141, Note_off_c, 1, 57, 0
3, 177920, Note_on_c, 1, 53, 110
3, 177920, Note_on_c, 1, 57, 110
3, 178165, Note_off_c, 1, 53, 0
3, 178165, Note_off_c, 1, 57, 0
3, 178688, Note_on_c, 1, 53, 110
3, 178688, Note_on_c, 1, 57, 110
3, 179189, Note_off_c, 1, 53, 0
3, 179189, Note_off_c, 1, 57, 0
3, 179200, Note_on_c, 1, 65, 110
3, 179701, Note_off_c, 1, 65, 0
3, 179712, Note_on_c, 1, 64, 110
3, 179829, Note_off_c, 1, 64, 0
3, 179840, Note_on_c, 1, 62, 110
3, 179957, Note_off_c, 1, 62, 0
3, 179968, Note_on_c, 1, 60, 110
3, 180085, Note_off_c, 1, 60, 0
3, 180224, Note_on_c, 1, 57, 110
3, 180341, Note_off_c, 1, 57, 0
3, 180352, Note_on_c, 1, 55, 110
3, 180469, Note_off_c, 1, 55, 0
3, 180480, Note_on_c, 1, 53, 110
3, 180597, Note_off_c, 1, 53, 0
3, 180608, Note_on_c, 1, 52, 110
3, 180608, Note_on_c, 1, 55, 110
3, 180981, Note_off_c, 1, 52, 0
3, 180981, Note_off_c, 1, 55, 0
3, 180992, Note_on_c, 1, 52, 110
3, 180992, Note_on_c, 1, 55, 110
3, 181237, Note_off_c, 1, 52, 0
3, 181237, Note_off_c, 1, 55, 0
3, 181760, Note_on_c, 1, 52, 110
3, 181760, Note_on_c, 1, 55, 110
3, 182261, Note_off_c, 1, 52, 0
3, 182261, Note_off_c, 1, 55, 0
3, 182272, Note_on_c, 1, 52, 110
3, 182272, Note_on_c, 1, 55, 110
3, 184064, Note_off_c, 1, 52, 0
3, 184064, Note_off_c, 1, 55, 0
3, 184320, Note_on_c, 1, 53, 110
3, 184320, Note_on_c, 1, 57, 110
3, 185077, Note_off_c, 1, 53, 0
3, 185077, Note_off_c, 1, 57, 0
3, 185088, Note_on_c, 1, 60, 110
3, 185205, Note_off_c, 1, 60, 0
3, 185216, Note_on_c, 1, 55, 110
3, 185333, Note_off_c, 1, 55, 0
3, 185856, Note_on_c, 1, 55, 110
3, 185856, Note_on_c, 1, 62, 110
3, 186997, Note_off_c, 1, 55, 0
3, 186997, Note_off_c, 1, 62, 0
3, 187008, Note_on_c, 1, 60, 110
3, 187125, Note_off_c, 1, 60, 0
3, 187136, Note_on_c, 1, 59, 110
3, 187253, Note_off_c, 1, 59, 0
3, 187264, Note_on_c, 1, 57, 110
3, 187381, Note_off_c, 1, 57, 0
3, 187392, Note_on_c, 1, 55, 110
3, 187509, Note_off_c, 1, 55, 0
3, 187520, Note_on_c, 1, 53, 110
3, 187637, Note_off_c, 1, 53, 0
3, 187648, Note_on_c, 1, 50, 110
3, 187893, Note_off_c, 1, 50, 0
3, 187904, Note_on_c, 1, 48, 110
3, 187904, Note_on_c, 1, 52, 110
3, 188405, Note_off_c, 1, 48, 0
3, 188405, Note_off_c, 1, 52, 0
3, 188416, Note_on_c, 1, 52, 110
3, 188416, Note_on_c, 1, 55, 110
3, 189173, Note_off_c, 1, 52, 0
3, 189173, Note_off_c, 1, 55, 0
3, 189184, Note_on_c, 1, 52, 110
3, 189184, Note_on_c, 1, 55, 110
3, 189429, Note_off_c, 1, 52, 0
3, 189429, Note_off_c, 1, 55, 0
3, 189952, Note_on_c, 1, 52, 110
3, 189952, Note_on_c, 1, 55, 110
3, 190453, Note_off_c, 1, 52, 0
3, 190453, Note_off_c, 1, 55, 0
3, 190976, Note_on_c, 1, 52, 110
3, 190976, Note_on_c, 1, 60, 110
3, 191477, Note_off_c, 1, 52, 0
3, 191477, Note_off_c, 1, 60, 0
3, 191488, Note_on_c, 1, 62, 110
3, 191733, Note_off_c, 1, 62, 0
3, 191744, Note_on_c, 1, 64, 110
3, 192245, Note_off_c, 1, 64, 0
3, 192256, Note_on_c, 1, 60, 110
3, 192501, Note_off_c, 1, 60, 0
3, 192512, Note_on_c, 1, 53, 110
3, 192512, Note_on_c, 1, 57, 110
3, 193365, Note_off_c, 1, 53, 0
3, 193365, Note_off_c, 1, 57, 0
3, 193536, Note_on_c, 1, 53, 110
3, 193536, Note_on_c, 1, 57, 110
3, 194293, Note_off_c, 1, 53, 0
3, 194293, Note_off_c, 1, 57, 0
3, 194304, Note_on_c, 1, 54, 110
3, 194304, Note_on_c, 1, 57, 110
3, 194549, Note_off_c, 1, 54, 0
3, 194549, Note_off_c, 1, 57, 0
3, 195072, Note_on_c, 1, 54, 110
3, 195072, Note_on_c, 1, 60, 110
3, 195573, Note_off_c, 1, 54, 0
3, 195573, Note_off_c, 1, 60, 0
3, 195584, Note_on_c, 1, 63, 110
3, 195829, Note_off_c, 1, 63, 0
3, 195840, Note_on_c, 1, 62, 110
3, 196341, Note_off_c, 1, 62, 0
3, 196352, Note_on_c, 1, 55, 110
3, 196352, Note_on_c, 1, 60, 110
3, 196597, Note_off_c, 1, 55, 0
3, 196597, Note_off_c, 1, 60, 0
3, 197120, Note_on_c, 1, 52, 110
3, 197120, Note_on_c, 1, 55, 110
3, 197621, Note_off_c, 1, 52, 0
3, 197621, Note_off_c, 1, 55, 0
3, 198400, Note_on_c, 1, 52, 110
3, 198400, Note_on_c, 1, 55, 110
3, 198645, Note_off_c, 1, 52, 0
3, 198645, Note_off_c, 1, 55, 0
3, 199168, Note_on_c, 1, 52, 110
3, 199168, Note_on_c, 1, 55, 110
3, 199669, Note_off_c, 1, 52, 0
3, 199669, Note_off_c, 1, 55, 0
3, 200192, Note_on_c, 1, 52, 110
3, 200192, Note_on_c, 1, 55, 110
3, 200693, Note_off_c, 1, 52, 0
3, 200693, Note_off_c, 1, 55, 0
3, 200704, Note_on_c, 1, 52, 110
3, 200704, Note_on_c, 1, 55, 110
3, 201557, Note_off_c, 1, 52, 0
3, 201557, Note_off_c, 1, 55, 0
3, 201728, Note_on_c, 1, 58, 110
3, 201973, Note_off_c, 1, 58, 0
3, 201984, Note_on_c, 1, 59, 110
3, 202485, Note_off_c, 1, 59, 0
3, 202496, Note_on_c, 1, 60, 110
3, 203605, Note_off_c, 1, 60, 0
3, 203776, Note_on_c, 1, 64, 110
3, 204149, Note_off_c, 1, 64, 0
3, 204160, Note_on_c, 1, 65, 110
3, 204277, Note_off_c, 1, 65, 0
3, 204288, Note_on_c, 1, 67, 110
3, 204533, Note_off_c, 1, 67, 0
3, 204544, Note_on_c, 1, 68, 110
3, 204789, Note_off_c, 1, 68, 0
3, 204800, Note_on_c, 1, 65, 110
3, 204800, Note_on_c, 1, 69, 110
3, 206165, Note_off_c, 1, 65, 0
3, 206165, Note_off_c, 1, 69, 0
3, 206336, Note_on_c, 1, 60, 110
3, 206336, Note_on_c, 1, 65, 110
3, 206837, Note_off_c, 1, 60, 0
3, 206837, Note_off_c, 1, 65, 0
3, 206848, Note_on_c, 1, 64, 110
3, 206848, Note_on_c, 1, 67, 110
3, 208213, Note_off_c, 1, 64, 0
3, 208213, Note_off_c, 1, 67, 0
3, 208384, Note_on_c, 1, 60, 110
3, 208384, Note_on_c, 1, 64, 110
3, 208885, Note_off_c, 1, 60, 0
3, 208885, Note_off_c, 1, 64, 0
3, 208896, Note_on_c, 1, 65, 110
3, 209653, Note_off_c, 1, 65, 0
3, 209664, Note_on_c, 1, 67, 110
3, 209909, Note_off_c, 1, 67, 0
3, 210561, Note_on_c, 1, 64, 110
3, 210773, Note_off_c, 1, 64, 0
3, 210944, Note_on_c, 1, 64, 110
3, 211317, Note_off_c, 1, 64, 0
3, 211328, Note_on_c, 1, 65, 110
3, 211445, Note_off_c, 1, 65, 0
3, 211456, Note_on_c, 1, 67, 110
3, 211701, Note_off_c, 1, 67, 0
3, 211712, Note_on_c, 1, 68, 110
3, 211957, Note_off_c, 1, 68, 0
3, 212992, Note_on_c, 1, 65, 110
3, 212992, Note_on_c, 1, 69, 110
3, 214357, Note_off_c, 1, 65, 0
3, 214357, Note_off_c, 1, 69, 0
3, 214528, Note_on_c, 1, 65, 110
3, 214528, Note_on_c, 1, 68, 110
3, 215029, Note_off_c, 1, 65, 0
3, 215029, Note_off_c, 1, 68, 0
3, 215040, Note_on_c, 1, 64, 110
3, 215040, Note_on_c, 1, 67, 110
3, 216405, Note_off_c, 1, 64, 0
3, 216405, Note_off_c, 1, 67, 0
3, 216576, Note_on_c, 1, 66, 110
3, 217077, Note_off_c, 1, 66, 0
3, 217088, Note_on_c, 1, 65, 110
3, 217845, Note_off_c, 1, 65, 0
3, 217856, Note_on_c, 1, 64, 110
3, 218613, Note_off_c, 1, 64, 0
3, 218624, Note_on_c, 1, 60, 110
3, 219989, Note_off_c, 1, 60, 0
3, 221184, Note_on_c, 1, 65, 110
3, 221184, Note_on_c, 1, 69, 110
3, 221685, Note_off_c, 1, 65, 0
3, 221685, Note_off_c, 1, 69, 0
3, 221696, Note_on_c, 1, 65, 110
3, 221696, Note_on_c, 1, 69, 110
3, 222197, Note_off_c, 1, 65, 0
3, 222197, Note_off_c, 1, 69, 0
3, 222208, Note_on_c, 1, 65, 110
3, 222208, Note_on_c, 1, 68, 110
3, 222709, Note_off_c, 1, 65, 0
3, 222709, Note_off_c, 1, 68, 0
3, 222720, Note_on_c, 1, 65, 110
3, 222720, Note_on_c, 1, 68, 110
3, 223221, Note_off_c, 1, 65, 0
3, 223221, Note_off_c, 1, 68, 0
3, 223232, Note_on_c, 1, 64, 110
3, 223232, Note_on_c, 1, 67, 110
3, 223733, Note_off_c, 1, 64, 0
3, 223733, Note_off_c, 1, 67, 0
3, 223744, Note_on_c, 1, 64, 110
3, 223744, Note_on_c, 1, 67, 110
3, 224245, Note_off_c, 1, 64, 0
3, 224245, Note_off_c, 1, 67, 0
3, 224256, Note_on_c, 1, 63, 110
3, 224256, Note_on_c, 1, 66, 110
3, 224757, Note_off_c, 1, 63, 0
3, 224757, Note_off_c, 1, 66, 0
3, 224768, Note_on_c, 1, 63, 110
3, 224768, Note_on_c, 1, 66, 110
3, 225269, Note_off_c, 1, 63, 0
3, 225269, Note_off_c, 1, 66, 0
3, 225280, Note_on_c, 1, 62, 110
3, 225280, Note_on_c, 1, 65, 110
3, 226037, Note_off_c, 1, 62, 0
3, 226037, Note_off_c, 1, 65, 0
3, 226048, Note_on_c, 1, 64, 110
3, 226048, Note_on_c, 1, 67, 110
3, 226293, Note_off_c, 1, 64, 0
3, 226293, Note_off_c, 1, 67, 0
3, 226816, Note_on_c, 1, 60, 110
3, 226816, Note_on_c, 1, 64, 110
3, 229120, Note_off_c, 1, 60, 0
3, 229120, Note_off_c, 1, 64, 0
3, 229376, Note_on_c, 1, 65, 110
3, 229376, Note_on_c, 1, 69, 110
3, 229877, Note_off_c, 1, 65, 0
3, 229877, Note_off_c, 1, 69, 0
3, 229888, Note_on_c, 1, 65, 110
3, 229888, Note_on_c, 1, 69, 110
3, 230389, Note_off_c, 1, 65, 0
3, 230389, Note_off_c, 1, 69, 0
3, 230400, Note_on_c, 1, 65, 110
3, 230400, Note_on_c, 1, 68, 110
3, 230901, Note_off_c, 1, 65, 0
3, 230901, Note_off_c, 1, 68, 0
3, 230912, Note_on_c, 1, 65, 110
3, 230912, Note_on_c, 1, 68, 110
3, 231413, Note_off_c, 1, 65, 0
3, 231413, Note_off_c, 1, 68, 0
3, 231424, Note_on_c, 1, 64, 110
3, 231424, Note_on_c, 1, 67, 110
3, 231925, Note_off_c, 1, 64, 0
3, 231925, Note_off_c, 1, 67, 0
3, 231936, Note_on_c, 1, 64, 110
3, 231936, Note_on_c, 1, 67, 110
3, 232437, Note_off_c, 1, 64, 0
3, 232437, Note_off_c, 1, 67, 0
3, 232448, Note_on_c, 1, 63, 110
3, 232448, Note_on_c, 1, 66, 110
3, 232949, Note_off_c, 1, 63, 0
3, 232949, Note_off_c, 1, 66, 0
3, 232960, Note_on_c, 1, 63, 110
3, 232960, Note_on_c, 1, 66, 110
3, 233461, Note_off_c, 1, 63, 0
3, 233461, Note_off_c, 1, 66, 0
3, 233472, Note_on_c, 1, 62, 110
3, 233472, Note_on_c, 1, 65, 110
3, 234229, Note_off_c, 1, 62, 0
3, 234229, Note_off_c, 1, 65, 0
3, 234240, Note_on_c, 1, 60, 110
3, 234240, Note_on_c, 1, 64, 110
3, 234485, Note_off_c, 1, 60, 0
3, 234485, Note_off_c, 1, 64, 0
3, 235008, Note_on_c, 1, 55, 110
3, 235008, Note_on_c, 1, 60, 110
3, 237312, Note_off_c, 1, 55, 0
3, 237312, Note_off_c, 1, 60, 0
3, 237568, Note_on_c, 1, 60, 110
3, 237813, Note_off_c, 1, 60, 0
3, 237824, Note_on_c, 1, 52, 110
3, 238325, Note_off_c, 1, 52, 0
3, 238336, Note_on_c, 1, 58, 110
3, 238581, Note_off_c, 1, 58, 0
3, 239616, Note_on_c, 1, 60, 110
3, 239861, Note_off_c, 1, 60, 0
3, 239872, Note_on_c, 1, 52, 110
3, 240373, Note_off_c, 1, 52, 0
3, 240384, Note_on_c, 1, 58, 110
3, 240629, Note_off_c, 1, 58, 0
3, 241664, Note_on_c, 1, 57, 110
3, 241909, Note_off_c, 1, 57, 0
3, 241920, Note_on_c, 1, 48, 110
3, 242421, Note_off_c, 1, 48, 0
3, 242432, Note_on_c, 1, 51, 110
3, 242677, Note_off_c, 1, 51, 0
3, 243712, Note_on_c, 1, 57, 110
3, 243957, Note_off_c, 1, 57, 0
3, 243968, Note_on_c, 1, 48, 110
3, 244469, Note_off_c, 1, 48, 0
3, 244480, Note_on_c, 1, 51, 110
3, 244725, Note_off_c, 1, 51, 0
3, 245760, Note_on_c, 1, 60, 110
3, 246005, Note_off_c, 1, 60, 0
3, 246016, Note_on_c, 1, 52, 110
3, 246517, Note_off_c, 1, 52, 0
3, 246528, Note_on_c, 1, 58, 110
3, 246773, Note_off_c, 1, 58, 0
3, 247808, Note_on_c, 1, 60, 110
3, 248053, Note_off_c, 1, 60, 0
3, 248064, Note_on_c, 1, 52, 110
3, 248565, Note_off_c, 1, 52, 0
3, 248576, Note_on_c, 1, 58, 110
3, 248821, Note_off_c, 1, 58, 0
3, 249856, Note_on_c, 1, 53, 110
3, 249856, Note_on_c, 1, 57, 110
3, 250357, Note_off_c, 1, 53, 0
3, 250357, Note_off_c, 1, 57, 0
3, 250368, Note_on_c, 1, 53, 110
3, 250368, Note_on_c, 1, 57, 110
3, 250869, Note_off_c, 1, 53, 0
3, 250869, Note_off_c, 1, 57, 0
3, 250880, Note_on_c, 1, 53, 110
3, 250880, Note_on_c, 1, 57, 110
3, 251381, Note_off_c, 1, 53, 0
3, 251381, Note_off_c, 1, 57, 0
3, 251392, Note_on_c, 1, 53, 110
3, 251392, Note_on_c, 1, 57, 110
3, 251893, Note_off_c, 1, 53, 0
3, 251893, Note_off_c, 1, 57, 0
3, 251904, Note_on_c, 1, 53, 110
3, 251904, Note_on_c, 1, 56, 110
3, 252757, Note_off_c, 1, 53, 0
3, 252757, Note_off_c, 1, 56, 0
3, 252928, Note_on_c, 1, 55, 110
3, 253045, Note_off_c, 1, 55, 0
3, 253056, Note_on_c, 1, 53, 110
3, 253173, Note_off_c, 1, 53, 0
3, 253184, Note_on_c, 1, 52, 110
3, 253301, Note_off_c, 1, 52, 0
3, 253312, Note_on_c, 1, 50, 110
3, 253429, Note_off_c, 1, 50, 0
3, 253440, Note_on_c, 1, 48, 110
3, 253557, Note_off_c, 1, 48, 0
3, 253568, Note_on_c, 1, 46, 110
3, 253685, Note_off_c, 1, 46, 0
3, 253696, Note_on_c, 1, 43, 110
3, 253941, Note_off_c, 1, 43, 0
3, 253952, Note_on_c, 1, 60, 110
3, 254197, Note_off_c, 1, 60, 0
3, 254208, Note_on_c, 1, 52, 110
3, 254709, Note_off_c, 1, 52, 0
3, 254720, Note_on_c, 1, 58, 110
3, 254965, Note_off_c, 1, 58, 0
3, 256000, Note_on_c, 1, 60, 110
3, 256245, Note_off_c, 1, 60, 0
3, 256256, Note_on_c, 1, 52, 110
3, 256757, Note_off_c, 1, 52, 0
3, 256768, Note_on_c, 1, 58, 110
3, 257013, Note_off_c, 1, 58, 0
3, 258048, Note_on_c, 1, 57, 110
3, 258293, Note_off_c, 1, 57, 0
3, 258304, Note_on_c, 1, 48, 110
3, 258805, Note_off_c, 1, 48, 0
3, 258816, Note_on_c, 1, 51, 110
3, 259061, Note_off_c, 1, 51, 0
3, 260096, Note_on_c, 1, 57, 110
3, 260341, Note_off_c, 1, 57, 0
3, 260352, Note_on_c, 1, 48, 110
3, 260853, Note_off_c, 1, 48, 0
3, 260864, Note_on_c, 1, 51, 110
3, 261109, Note_off_c, 1, 51, 0
3, 262144, Note_on_c, 1, 60, 110
3, 262389, Note_off_c, 1, 60, 0
3, 262400, Note_on_c, 1, 52, 110
3, 262901, Note_off_c, 1, 52, 0
3, 262912, Note_on_c, 1, 58, 110
3, 263157, Note_off_c, 1, 58, 0
3, 264192, Note_on_c, 1, 60, 110
3, 264437, Note_off_c, 1, 60, 0
3, 264448, Note_on_c, 1, 52, 110
3, 264949, Note_off_c, 1, 52, 0
3, 264960, Note_on_c, 1, 58, 110
3, 265205, Note_off_c, 1, 58, 0
3, 266240, Note_on_c, 1, 52, 110
3, 266240, Note_on_c, 1, 60, 110
3, 267093, Note_off_c, 1, 52, 0
3, 267093, Note_off_c, 1, 60, 0
3, 267776, Note_on_c, 1, 53, 110
3, 267776, Note_on_c, 1, 60, 110
3, 268277, Note_off_c, 1, 53, 0
3, 268277, Note_off_c, 1, 60, 0
3, 268800, Note_on_c, 1, 52, 110
3, 268800, Note_on_c, 1, 60, 110
3, 269301, Note_off_c, 1, 52, 0
3, 269301, Note_off_c, 1, 60, 0
3, 269824, Note_on_c, 1, 51, 110
3, 269824, Note_on_c, 1, 55, 110
3, 270325, Note_off_c, 1, 51, 0
3, 270325, Note_off_c, 1, 55, 0
3, 270336, Note_on_c, 1, 52, 110
3, 270336, Note_on_c, 1, 60, 110
3, 270837, Note_off_c, 1, 52, 0
3, 270837, Note_off_c, 1, 60, 0
3, 270848, Note_on_c, 1, 55, 110
3, 270848, Note_on_c, 1, 60, 110
3, 271349, Note_off_c, 1, 55, 0
3, 271349, Note_off_c, 1, 60, 0
3, 271360, Note_on_c, 1, 60, 110
3, 272213, Note_off_c, 1, 60, 0
3, 274432, Note_on_c, 1, 50, 110
3, 274432, Note_on_c, 1, 59, 110
3, 275285, Note_off_c, 1, 50, 0
3, 275285, Note_off_c, 1, 59, 0
3, 275968, Note_on_c, 1, 52, 110
3, 275968, Note_on_c, 1, 59, 110
3, 276469, Note_off_c, 1, 52, 0
3, 276469, Note_off_c, 1, 59, 0
3, 276992, Note_on_c, 1, 50, 110
3, 276992, Note_on_c, 1, 59, 110
3, 277493, Note_off_c, 1, 50, 0
3, 277493, Note_off_c, 1, 59, 0
3, 278016, Note_on_c, 1, 49, 110
3, 278016, Note_on_c, 1, 55, 110
3, 278517, Note_off_c, 1, 49, 0
3, 278517, Note_off_c, 1, 55, 0
3, 278528, Note_on_c, 1, 50, 110
3, 278528, Note_on_c, 1, 59, 110
3, 279029, Note_off_c, 1, 50, 0
3, 279029, Note_off_c, 1, 59, 0
3, 279040, Note_on_c, 1, 55, 110
3, 279040, Note_on_c, 1, 59, 110
3, 279541, Note_off_c, 1, 55, 0
3, 279541, Note_off_c, 1, 59, 0
3, 279552, Note_on_c, 1, 59, 110
3, 280405, Note_off_c, 1, 59, 0
3, 282624, Note_on_c, 1, 48, 110
3, 282624, Note_on_c, 1, 57, 110
3, 283477, Note_off_c, 1, 48, 0
3, 283477, Note_off_c, 1, 57, 0
3, 284160, Note_on_c, 1, 50, 110
3, 284160, Note_on_c, 1, 57, 110
3, 284661, Note_off_c, 1, 50, 0
3, 284661, Note_off_c, 1, 57, 0
3, 285184, Note_on_c, 1, 48, 110
3, 285184, Note_on_c, 1, 57, 110
3, 285685, Note_off_c, 1, 48, 0
3, 285685, Note_off_c, 1, 57, 0
3, 286208, Note_on_c, 1, 47, 110
3, 286208, Note_on_c, 1, 52, 110
3, 286709, Note_off_c, 1, 47, 0
3, 286709, Note_off_c, 1, 52, 0
3, 286720, Note_on_c, 1, 48, 110
3, 286720, Note_on_c, 1, 57, 110
3, 287221, Note_off_c, 1, 48, 0
3, 287221, Note_off_c, 1, 57, 0
3, 287232, Note_on_c, 1, 52, 110
3, 287232, Note_on_c, 1, 57, 110
3, 287733, Note_off_c, 1, 52, 0
3, 287733, Note_off_c, 1, 57, 0
3, 287744, Note_on_c, 1, 57, 110
3, 288597, Note_off_c, 1, 57, 0
3, 289280, Note_on_c, 1, 48, 110
3, 289280, Note_on_c, 1, 57, 110
3, 289781, Note_off_c, 1, 48, 0
3, 289781, Note_off_c, 1, 57, 0
3, 289792, Note_on_c, 1, 50, 110
3, 289792, Note_on_c, 1, 59, 110
3, 290293, Note_off_c, 1, 50, 0
3, 290293, Note_off_c, 1, 59, 0
3, 290304, Note_on_c, 1, 52, 110
3, 290304, Note_on_c, 1, 60, 110
3, 290805, Note_off_c, 1, 52, 0
3, 290805, Note_off_c, 1, 60, 0
3, 290816, Note_on_c, 1, 54, 110
3, 290816, Note_on_c, 1, 62, 110
3, 291317, Note_off_c, 1, 54, 0
3, 291317, Note_off_c, 1, 62, 0
3, 291328, Note_on_c, 1, 54, 110
3, 291328, Note_on_c, 1, 60, 110
3, 291829, Note_off_c, 1, 54, 0
3, 291829, Note_off_c, 1, 60, 0
3, 291840, Note_on_c, 1, 54, 110
3, 291840, Note_on_c, 1, 62, 110
3, 292341, Note_off_c, 1, 54, 0
3, 292341, Note_off_c, 1, 62, 0
3, 292352, Note_on_c, 1, 54, 110
3, 292352, Note_on_c, 1, 60, 110
3, 293365, Note_off_c, 1, 54, 0
3, 293365, Note_off_c, 1, 60, 0
3, 293376, Note_on_c, 1, 50, 110
3, 293376, Note_on_c, 1, 57, 110
3, 293877, Note_off_c, 1, 50, 0
3, 293877, Note_off_c, 1, 57, 0
3, 293888, Note_on_c, 1, 48, 110
3, 293888, Note_on_c, 1, 54, 110
3, 294389, Note_off_c, 1, 48, 0
3, 294389, Note_off_c, 1, 54, 0
3, 294400, Note_on_c, 1, 45, 110
3, 294400, Note_on_c, 1, 50, 110
3, 294901, Note_off_c, 1, 45, 0
3, 294901, Note_off_c, 1, 50, 0
3, 294912, Note_on_c, 1, 45, 110
3, 294912, Note_on_c, 1, 50, 110
3, 295413, Note_off_c, 1, 45, 0
3, 295413, Note_off_c, 1, 50, 0
3, 295424, Note_on_c, 1, 47, 110
3, 295424, Note_on_c, 1, 52, 110
3, 295925, Note_off_c, 1, 47, 0
3, 295925, Note_off_c, 1, 52, 0
3, 295936, Note_on_c, 1, 49, 110
3, 295936, Note_on_c, 1, 53, 110
3, 296437, Note_off_c, 1, 49, 0
3, 296437, Note_off_c, 1, 53, 0
3, 296448, Note_on_c, 1, 50, 110
3, 296448, Note_on_c, 1, 54, 110
3, 298752, Note_off_c, 1, 50, 0
3, 298752, Note_off_c, 1, 54, 0
3, 299008, Note_on_c, 1, 43, 110
3, 299509, Note_off_c, 1, 43, 0
3, 299520, Note_on_c, 1, 50, 110
3, 300021, Note_off_c, 1, 50, 0
3, 300032, Note_on_c, 1, 55, 110
3, 300885, Note_off_c, 1, 55, 0
3, 303104, Note_on_c, 1, 43, 110
3, 303605, Note_off_c, 1, 43, 0
3, 303616, Note_on_c, 1, 50, 110
3, 304117, Note_off_c, 1, 50, 0
3, 304128, Note_on_c, 1, 55, 110
3, 304981, Note_off_c, 1, 55, 0
3, 307200, Note_on_c, 1, 41, 110
3, 307701, Note_off_c, 1, 41, 0
3, 307712, Note_on_c, 1, 48, 110
3, 308213, Note_off_c, 1, 48, 0
3, 308224, Note_on_c, 1, 53, 110
3, 309077, Note_off_c, 1, 53, 0
3, 311296, Note_on_c, 1, 41, 110
3, 311797, Note_off_c, 1, 41, 0
3, 311808, Note_on_c, 1, 48, 110
3, 312309, Note_off_c, 1, 48, 0
3, 312320, Note_on_c, 1, 53, 110
3, 313173, Note_off_c, 1, 53, 0
3, 314368, Note_on_c, 1, 48, 110
3, 315221, Note_off_c, 1, 48, 0
3, 315392, Note_on_c, 1, 43, 110
3, 315893, Note_off_c, 1, 43, 0
3, 315904, Note_on_c, 1, 50, 110
3, 316405, Note_off_c, 1, 50, 0
3, 316416, Note_on_c, 1, 55, 110
3, 317269, Note_off_c, 1, 55, 0
3, 319488, Note_on_c, 1, 43, 110
3, 319989, Note_off_c, 1, 43, 0
3, 320000, Note_on_c, 1, 50, 110
3, 320501, Note_off_c, 1, 50, 0
3, 320512, Note_on_c, 1, 55, 110
3, 321365, Note_off_c, 1, 55, 0
3, 323584, Note_on_c, 1, 41, 110
3, 324085, Note_off_c, 1, 41, 0
3, 324096, Note_on_c, 1, 48, 110
3, 324597, Note_off_c, 1, 48, 0
3, 324608, Note_on_c, 1, 53, 110
3, 325461, Note_off_c, 1, 53, 0
3, 327680, Note_on_c, 1, 41, 110
3, 328181, Note_off_c, 1, 41, 0
3, 328192, Note_on_c, 1, 48, 110
3, 328693, Note_off_c, 1, 48, 0
3, 328704, Note_on_c, 1, 53, 110
3, 329557, Note_off_c, 1, 53, 0
3, 331776, Note_on_c, 1, 39, 110
3, 332277, Note_off_c, 1, 39, 0
3, 332288, Note_on_c, 1, 46, 110
3, 332789, Note_off_c, 1, 46, 0
3, 332800, Note_on_c, 1, 51, 110
3, 333653, Note_off_c, 1, 51, 0
3, 335872, Note_on_c, 1, 39, 110
3, 336373, Note_off_c, 1, 39, 0
3, 336384, Note_on_c, 1, 46, 110
3, 336885, Note_off_c, 1, 46, 0
3, 336896, Note_on_c, 1, 51, 110
3, 337749, Note_off_c, 1, 51, 0
3, 339968, Note_on_c, 1, 41, 110
3, 340469, Note_off_c, 1, 41, 0
3, 340480, Note_on_c, 1, 48, 110
3, 340981, Note_off_c, 1, 48, 0
3, 340992, Note_on_c, 1, 53, 110
3, 341845, Note_off_c, 1, 53, 0
3, 344064, Note_on_c, 1, 41, 110
3, 344565, Note_off_c, 1, 41, 0
3, 344576, Note_on_c, 1, 48, 110
3, 345077, Note_off_c, 1, 48, 0
3, 345088, Note_on_c, 1, 53, 110
3, 345941, Note_off_c, 1, 53, 0
3, 347136, Note_on_c, 1, 48, 110
3, 347989, Note_off_c, 1, 48, 0
3, 348160, Note_on_c, 1, 43, 110
3, 348661, Note_off_c, 1, 43, 0
3, 348672, Note_on_c, 1, 50, 110
3, 349173, Note_off_c, 1, 50, 0
3, 351232, Note_on_c, 1, 55, 110
3, 351733, Note_off_c, 1, 55, 0
3, 351744, Note_on_c, 1, 50, 110
3, 352245, Note_off_c, 1, 50, 0
3, 352256, Note_on_c, 1, 41, 110
3, 352757, Note_off_c, 1, 41, 0
3, 352768, Note_on_c, 1, 48, 110
3, 353269, Note_off_c, 1, 48, 0
3, 353280, Note_on_c, 1, 53, 110
3, 354133, Note_off_c, 1, 53, 0
3, 356352, Note_on_c, 1, 39, 110
3, 356853, Note_off_c, 1, 39, 0
3, 356864, Note_on_c, 1, 46, 110
3, 357365, Note_off_c, 1, 46, 0
3, 357376, Note_on_c, 1, 51, 110
3, 358229, Note_off_c, 1, 51, 0
3, 359424, Note_on_c, 1, 51, 110
3, 360277, Note_off_c, 1, 51, 0
3, 360448, Note_on_c, 1, 41, 110
3, 360949, Note_off_c, 1, 41, 0
3, 360960, Note_on_c, 1, 48, 110
3, 361461, Note_off_c, 1, 48, 0
3, 361472, Note_on_c, 1, 53, 110
3, 362325, Note_off_c, 1, 53, 0
3, 363520, Note_on_c, 1, 48, 110
3, 364021, Note_off_c, 1, 48, 0
3, 364032, Note_on_c, 1, 53, 110
3, 364533, Note_off_c, 1, 53, 0
3, 364544, Note_on_c, 1, 43, 110
3, 365045, Note_off_c, 1, 43, 0
3, 365056, Note_on_c, 1, 50, 110
3, 365557, Note_off_c, 1, 50, 0
3, 365568, Note_on_c, 1, 55, 110
3, 366421, Note_off_c, 1, 55, 0
3, 368128, Note_on_c, 1, 55, 110
3, 368629, Note_off_c, 1, 55, 0
3, 368640, Note_on_c, 1, 43, 110
3, 369141, Note_off_c, 1, 43, 0
3, 369152, Note_on_c, 1, 50, 110
3, 369653, Note_off_c, 1, 50, 0
3, 369664, Note_on_c, 1, 55, 110
3, 370517, Note_off_c, 1, 55, 0
3, 372736, Note_on_c, 1, 43, 110
3, 373237, Note_off_c, 1, 43, 0
3, 373248, Note_on_c, 1, 50, 110
3, 373749, Note_off_c, 1, 50, 0
3, 375808, Note_on_c, 1, 55, 110
3, 376309, Note_off_c, 1, 55, 0
3, 376320, Note_on_c, 1, 50, 110
3, 376821, Note_off_c, 1, 50, 0
3, 376832, Note_on_c, 1, 41, 110
3, 377333, Note_off_c, 1, 41, 0
3, 377344, Note_on_c, 1, 48, 110
3, 377845, Note_off_c, 1, 48, 0
3, 377856, Note_on_c, 1, 53, 110
3, 378709, Note_off_c, 1, 53, 0
3, 380928, Note_on_c, 1, 39, 110
3, 381429, Note_off_c, 1, 39, 0
3, 381440, Note_on_c, 1, 46, 110
3, 381941, Note_off_c, 1, 46, 0
3, 381952, Note_on_c, 1, 51, 110
3, 382805, Note_off_c, 1, 51, 0
3, 384000, Note_on_c, 1, 51, 110
3, 384853, Note_off_c, 1, 51, 0
3, 385024, Note_on_c, 1, 41, 110
3, 385525, Note_off_c, 1, 41, 0
3, 385536, Note_on_c, 1, 48, 110
3, 386037, Note_off_c, 1, 48, 0
3, 386560, Note_on_c, 1, 53, 110
3, 387061, Note_off_c, 1, 53, 0
3, 388096, Note_on_c, 1, 48, 110
3, 388949, Note_off_c, 1, 48, 0
3, 389120, Note_on_c, 1, 43, 110
3, 389621, Note_off_c, 1, 43, 0
3, 389632, Note_on_c, 1, 50, 110
3, 390133, Note_off_c, 1, 50, 0
3, 390656, Note_on_c, 1, 55, 110
3, 391157, Note_off_c, 1, 55, 0
3, 392192, Note_on_c, 1, 50, 110
3, 393045, Note_off_c, 1, 50, 0
3, 393216, Note_on_c, 1, 43, 110
3, 393717, Note_off_c, 1, 43, 0
3, 393728, Note_on_c, 1, 50, 110
3, 394229, Note_off_c, 1, 50, 0
3, 394240, Note_on_c, 1, 55, 110
3, 395093, Note_off_c, 1, 55, 0
3, 397312, Note_on_c, 1, 48, 110
3, 397813, Note_off_c, 1, 48, 0
3, 397824, Note_on_c, 1, 55, 110
3, 398325, Note_off_c, 1, 55, 0
3, 398336, Note_on_c, 1, 60, 110
3, 399189, Note_off_c, 1, 60, 0
3, 401408, Note_on_c, 1, 47, 110
3, 401909, Note_off_c, 1, 47, 0
3, 401920, Note_on_c, 1, 55, 110
3, 402421, Note_off_c, 1, 55, 0
3, 402432, Note_on_c, 1, 59, 110
3, 403285, Note_off_c, 1, 59, 0
3, 403968, Note_on_c, 1, 55, 110
3, 404469, Note_off_c, 1, 55, 0
3, 404480, Note_on_c, 1, 59, 110
3, 405333, Note_off_c, 1, 59, 0
3, 405504, Note_on_c, 1, 45, 110
3, 406005, Note_off_c, 1, 45, 0
3, 406016, Note_on_c, 1, 52, 110
3, 406517, Note_off_c, 1, 52, 0
3, 406528, Note_on_c, 1, 57, 110
3, 407381, Note_off_c, 1, 57, 0
3, 408576, Note_on_c, 1, 52, 110
3, 409429, Note_off_c, 1, 52, 0
3, 409600, Note_on_c, 1, 43, 110
3, 410101, Note_off_c, 1, 43, 0
3, 410112, Note_on_c, 1, 50, 110
3, 410613, Note_off_c, 1, 50, 0
3, 410624, Note_on_c, 1, 55, 110
3, 411477, Note_off_c, 1, 55, 0
3, 412672, Note_on_c, 1, 50, 110
3, 413525, Note_off_c, 1, 50, 0
3, 413696, Note_on_c, 1, 48, 110
3, 414197, Note_off_c, 1, 48, 0
3, 414208, Note_on_c, 1, 55, 110
3, 414709, Note_off_c, 1, 55, 0
3, 414720, Note_on_c, 1, 60, 110
3, 415573, Note_off_c, 1, 60, 0
3, 417792, Note_on_c, 1, 47, 110
3, 418293, Note_off_c, 1, 47, 0
3, 418304, Note_on_c, 1, 55, 110
3, 418805, Note_off_c, 1, 55, 0
3, 418816, Note_on_c, 1, 59, 110
3, 419669, Note_off_c, 1, 59, 0
3, 420864, Note_on_c, 1, 59, 110
3, 421717, Note_off_c, 1, 59, 0
3, 421888, Note_on_c, 1, 46, 110
3, 422389, Note_off_c, 1, 46, 0
3, 422400, Note_on_c, 1, 53, 110
3, 422901, Note_off_c, 1, 53, 0
3, 422912, Note_on_c, 1, 58, 110
3, 423765, Note_off_c, 1, 58, 0
3, 424960, Note_on_c, 1, 58, 110
3, 425813, Note_off_c, 1, 58, 0
3, 425984, Note_on_c, 1, 45, 110
3, 426485, Note_off_c, 1, 45, 0
3, 426496, Note_on_c, 1, 57, 110
3, 426997, Note_off_c, 1, 57, 0
3, 428032, Note_on_c, 1, 50, 110
3, 428533, Note_off_c, 1, 50, 0
3, 428544, Note_on_c, 1, 57, 110
3, 429045, Note_off_c, 1, 57, 0
3, 430080, Note_on_c, 1, 43, 110
3, 430581, Note_off_c, 1, 43, 0
3, 430592, Note_on_c, 1, 50, 110
3, 431093, Note_off_c, 1, 50, 0
3, 433152, Note_on_c, 1, 55, 110
3, 434005, Note_off_c, 1, 55, 0
3, 434176, Note_on_c, 1, 41, 110
3, 434677, Note_off_c, 1, 41, 0
3, 434688, Note_on_c, 1, 48, 110
3, 435189, Note_off_c, 1, 48, 0
3, 435200, Note_on_c, 1, 53, 110
3, 436053, Note_off_c, 1, 53, 0
3, 436736, Note_on_c, 1, 48, 110
3, 437237, Note_off_c, 1, 48, 0
3, 437248, Note_on_c, 1, 53, 110
3, 438101, Note_off_c, 1, 53, 0
3, 438272, Note_on_c, 1, 39, 110
3, 438773, Note_off_c, 1, 39, 0
3, 438784, Note_on_c, 1, 46, 110
3, 439285, Note_off_c, 1, 46, 0
3, 439296, Note_on_c, 1, 51, 110
3, 440149, Note_off_c, 1, 51, 0
3, 441344, Note_on_c, 1, 46, 110
3, 442197, Note_off_c, 1, 46, 0
3, 442368, Note_on_c, 1, 41, 110
3, 442869, Note_off_c, 1, 41, 0
3, 442880, Note_on_c, 1, 48, 110
3, 443381, Note_off_c, 1, 48, 0
3, 443392, Note_on_c, 1, 53, 110
3, 444245, Note_off_c, 1, 53, 0
3, 445440, Note_on_c, 1, 48, 110
3, 446293, Note_off_c, 1, 48, 0
3, 446464, Note_on_c, 1, 43, 110
3, 446965, Note_off_c, 1, 43, 0
3, 446976, Note_on_c, 1, 50, 110
3, 447477, Note_off_c, 1, 50, 0
3, 447488, Note_on_c, 1, 55, 110
3, 448341, Note_off_c, 1, 55, 0
3, 449536, Note_on_c, 1, 55, 110
3, 450389, Note_off_c, 1, 55, 0
3, 450560, Note_on_c, 1, 43, 110
3, 451413, Note_off_c, 1, 43, 0
3, 451584, Note_on_c, 1, 50, 110
3, 452437, Note_off_c, 1, 50, 0
3, 454656, Note_on_c, 1, 43, 110
3, 455157, Note_off_c, 1, 43, 0
3, 455168, Note_on_c, 1, 50, 110
3, 455669, Note_off_c, 1, 50, 0
3, 457728, Note_on_c, 1, 55, 110
3, 458229, Note_off_c, 1, 55, 0
3, 458240, Note_on_c, 1, 50, 110
3, 458741, Note_off_c, 1, 50, 0
3, 458752, Note_on_c, 1, 41, 110
3, 459253, Note_off_c, 1, 41, 0
3, 459264, Note_on_c, 1, 48, 110
3, 459765, Note_off_c, 1, 48, 0
3, 459776, Note_on_c, 1, 53, 110
3, 460629, Note_off_c, 1, 53, 0
3, 461312, Note_on_c, 1, 48, 110
3, 461813, Note_off_c, 1, 48, 0
3, 462848, Note_on_c, 1, 39, 110
3, 463349, Note_off_c, 1, 39, 0
3, 463360, Note_on_c, 1, 46, 110
3, 463861, Note_off_c, 1, 46, 0
3, 463872, Note_on_c, 1, 51, 110
3, 464725, Note_off_c, 1, 51, 0
3, 465920, Note_on_c, 1, 51, 110
3, 466773, Note_off_c, 1, 51, 0
3, 466944, Note_on_c, 1, 41, 110
3, 467445, Note_off_c, 1, 41, 0
3, 467456, Note_on_c, 1, 48, 110
3, 467957, Note_off_c, 1, 48, 0
3, 467968, Note_on_c, 1, 53, 110
3, 468821, Note_off_c, 1, 53, 0
3, 470016, Note_on_c, 1, 48, 110
3, 470869, Note_off_c, 1, 48, 0
3, 471040, Note_on_c, 1, 43, 110
3, 471541, Note_off_c, 1, 43, 0
3, 471552, Note_on_c, 1, 50, 110
3, 472053, Note_off_c, 1, 50, 0
3, 472064, Note_on_c, 1, 55, 110
3, 472917, Note_off_c, 1, 55, 0
3, 474112, Note_on_c, 1, 55, 110
3, 474965, Note_off_c, 1, 55, 0
3, 475136, Note_on_c, 1, 43, 110
3, 475637, Note_off_c, 1, 43, 0
3, 475648, Note_on_c, 1, 50, 110
3, 476149, Note_off_c, 1, 50, 0
3, 476160, Note_on_c, 1, 55, 110
3, 477013, Note_off_c, 1, 55, 0
3, 479232, Note_on_c, 1, 41, 110
3, 479733, Note_off_c, 1, 41, 0
3, 479744, Note_on_c, 1, 48, 110
3, 480245, Note_off_c, 1, 48, 0
3, 480256, Note_on_c, 1, 53, 110
3, 481109, Note_off_c, 1, 53, 0
3, 483328, Note_on_c, 1, 41, 110
3, 484181, Note_off_c, 1, 41, 0
3, 485376, Note_on_c, 1, 48, 110
3, 486229, Note_off_c, 1, 48, 0
3, 486400, Note_on_c, 1, 53, 110
3, 487253, Note_off_c, 1, 53, 0
3, 487424, Note_on_c, 1, 39, 110
3, 487925, Note_off_c, 1, 39, 0
3, 487936, Note_on_c, 1, 46, 110
3, 488437, Note_off_c, 1, 46, 0
3, 488448, Note_on_c, 1, 51, 110
3, 489301, Note_off_c, 1, 51, 0
3, 490496, Note_on_c, 1, 51, 110
3, 491349, Note_off_c, 1, 51, 0
3, 491520, Note_on_c, 1, 39, 110
3, 492373, Note_off_c, 1, 39, 0
3, 493312, Note_on_c, 1, 51, 110
3, 493557, Note_off_c, 1, 51, 0
3, 495616, Note_on_c, 1, 38, 110
3, 496117, Note_off_c, 1, 38, 0
3, 496128, Note_on_c, 1, 45, 110
3, 496629, Note_off_c, 1, 45, 0
3, 496640, Note_on_c, 1, 50, 110
3, 497493, Note_off_c, 1, 50, 0
3, 498688, Note_on_c, 1, 50, 110
3, 499541, Note_off_c, 1, 50, 0
3, 499712, Note_on_c, 1, 38, 110
3, 500565, Note_off_c, 1, 38, 0
3, 500736, Note_on_c, 1, 50, 110
3, 501589, Note_off_c, 1, 50, 0
3, 502272, Note_on_c, 1, 50, 110
3, 502773, Note_off_c, 1, 50, 0
3, 503296, Note_on_c, 1, 50, 110
3, 503797, Note_off_c, 1, 50, 0
3, 503808, Note_on_c, 1, 45, 110
3, 503808, Note_on_c, 1, 50, 110
3, 504309, Note_off_c, 1, 45, 0
3, 504309, Note_off_c, 1, 50, 0
3, 504320, Note_on_c, 1, 38, 110
3, 504320, Note_on_c, 1, 53, 110
3, 504821, Note_off_c, 1, 38, 0
3, 504821, Note_off_c, 1, 53, 0
3, 504832, Note_on_c, 1, 45, 110
3, 504832, Note_on_c, 1, 57, 110
3, 505333, Note_off_c, 1, 45, 0
3, 505333, Note_off_c, 1, 57, 0
3, 505344, Note_on_c, 1, 44, 110
3, 505344, Note_on_c, 1, 56, 110
3, 507733, Note_off_c, 1, 44, 0
3, 507733, Note_off_c, 1, 56, 0
3, 507904, Note_on_c, 1, 62, 110
3, 508277, Note_off_c, 1, 62, 0
3, 508288, Note_on_c, 1, 60, 110
3, 508661, Note_off_c, 1, 60, 0
3, 508672, Note_on_c, 1, 55, 110
3, 508917, Note_off_c, 1, 55, 0
3, 508928, Note_on_c, 1, 50, 110
3, 509301, Note_off_c, 1, 50, 0
3, 509312, Note_on_c, 1, 48, 110
3, 509685, Note_off_c, 1, 48, 0
3, 509696, Note_on_c, 1, 43, 110
3, 509941, Note_off_c, 1, 43, 0
3, 509952, Note_on_c, 1, 38, 110
3, 509952, Note_on_c, 1, 45, 110
3, 509952, Note_on_c, 1, 50, 110
3, 515840, Note_off_c, 1, 38, 0
3, 515840, Note_off_c, 1, 45, 0
3, 515840, Note_off_c, 1, 50, 0
3, 516096, Note_on_c, 1, 38, 110
3, 516096, Note_on_c, 1, 45, 110
3, 516096, Note_on_c, 1, 50, 110
3, 532224, Note_off_c, 1, 38, 0
3, 532224, Note_off_c, 1, 45, 0
3, 532224, Note_off_c, 1, 50, 0
3, 532480, Note_on_c, 1, 38, 110
3, 532480, Note_on_c, 1, 45, 110
3, 532480, Note_on_c, 1, 50, 110
3, 546560, Note_off_c, 1, 38, 0
3, 546560, Note_off_c, 1, 45, 0
3, 546560, Note_off_c, 1, 50, 0
3, 548864, Note_on_c, 1, 50, 110
3, 548864, Note_on_c, 1, 57, 110
3, 548864, Note_on_c, 1, 62, 110
3, 549717, Note_off_c, 1, 50, 0
3, 549717, Note_off_c, 1, 57, 0
3, 549717, Note_off_c, 1, 62, 0
3, 549888, Note_on_c, 1, 50, 110
3, 549888, Note_on_c, 1, 57, 110
3, 549888, Note_on_c, 1, 62, 110
3, 550741, Note_off_c, 1, 50, 0
3, 550741, Note_off_c, 1, 57, 0
3, 550741, Note_off_c, 1, 62, 0
3, 551424, Note_on_c, 1, 50, 110
3, 551424, Note_on_c, 1, 57, 110
3, 551424, Note_on_c, 1, 62, 110
3, 551925, Note_off_c, 1, 50, 0
3, 551925, Note_off_c, 1, 57, 0
3, 551925, Note_off_c, 1, 62, 0
3, 551936, Note_on_c, 1, 50, 110
3, 551936, Note_on_c, 1, 57, 110
3, 551936, Note_on_c, 1, 62, 110
3, 552181, Note_off_c, 1, 50, 0
3, 552181, Note_off_c, 1, 57, 0
3, 552181, Note_off_c, 1, 62, 0
3, 552192, Note_on_c, 1, 50, 110
3, 552192, Note_on_c, 1, 57, 110
3, 552192, Note_on_c, 1, 62, 110
3, 552437, Note_off_c, 1, 50, 0
3, 552437, Note_off_c, 1, 57, 0
3, 552437, Note_off_c, 1, 62, 0
3, 552448, Note_on_c, 1, 50, 110
3, 552448, Note_on_c, 1, 57, 110
3, 552448, Note_on_c, 1, 62, 110
3, 552693, Note_off_c, 1, 50, 0
3, 552693, Note_off_c, 1, 57, 0
3, 552693, Note_off_c, 1, 62, 0
3, 552704, Note_on_c, 1, 50, 110
3, 552704, Note_on_c, 1, 57, 110
3, 552704, Note_on_c, 1, 62, 110
3, 552949, Note_off_c, 1, 50, 0
3, 552949, Note_off_c, 1, 57, 0
3, 552949, Note_off_c, 1, 62, 0
3, 552960, Note_on_c, 1, 52, 110
3, 552960, Note_on_c, 1, 59, 110
3, 552960, Note_on_c, 1, 64, 110
3, 553813, Note_off_c, 1, 52, 0
3, 553813, Note_off_c, 1, 59, 0
3, 553813, Note_off_c, 1, 64, 0
3, 553984, Note_on_c, 1, 52, 110
3, 553984, Note_on_c, 1, 59, 110
3, 553984, Note_on_c, 1, 64, 110
3, 554837, Note_off_c, 1, 52, 0
3, 554837, Note_off_c, 1, 59, 0
3, 554837, Note_off_c, 1, 64, 0
3, 555520, Note_on_c, 1, 52, 110
3, 555520, Note_on_c, 1, 59, 110
3, 555520, Note_on_c, 1, 64, 110
3, 556021, Note_off_c, 1, 52, 0
3, 556021, Note_off_c, 1, 59, 0
3, 556021, Note_off_c, 1, 64, 0
3, 556032, Note_on_c, 1, 52, 110
3, 556032, Note_on_c, 1, 59, 110
3, 556032, Note_on_c, 1, 64, 110
3, 556277, Note_off_c, 1, 52, 0
3, 556277, Note_off_c, 1, 59, 0
3, 556277, Note_off_c, 1, 64, 0
3, 556288, Note_on_c, 1, 52, 110
3, 556288, Note_on_c, 1, 59, 110
3, 556288, Note_on_c, 1, 64, 110
3, 556533, Note_off_c, 1, 52, 0
3, 556533, Note_off_c, 1, 59, 0
3, 556533, Note_off_c, 1, 64, 0
3, 556544, Note_on_c, 1, 52, 110
3, 556544, Note_on_c, 1, 59, 110
3, 556544, Note_on_c, 1, 64, 110
3, 556789, Note_off_c, 1, 52, 0
3, 556789, Note_off_c, 1, 59, 0
3, 556789, Note_off_c, 1, 64, 0
3, 556800, Note_on_c, 1, 52, 110
3, 556800, Note_on_c, 1, 59, 110
3, 556800, Note_on_c, 1, 64, 110
3, 557045, Note_off_c, 1, 52, 0
3, 557045, Note_off_c, 1, 59, 0
3, 557045, Note_off_c, 1, 64, 0
3, 557056, Note_on_c, 1, 53, 110
3, 557056, Note_on_c, 1, 60, 110
3, 557056, Note_on_c, 1, 65, 110
3, 557909, Note_off_c, 1, 53, 0
3, 557909, Note_off_c, 1, 60, 0
3, 557909, Note_off_c, 1, 65, 0
3, 558080, Note_on_c, 1, 53, 110
3, 558080, Note_on_c, 1, 60, 110
3, 558080, Note_on_c, 1, 65, 110
3, 558933, Note_off_c, 1, 53, 0
3, 558933, Note_off_c, 1, 60, 0
3, 558933, Note_off_c, 1, 65, 0
3, 559616, Note_on_c, 1, 53, 110
3, 559616, Note_on_c, 1, 60, 110
3, 559616, Note_on_c, 1, 65, 110
3, 560117, Note_off_c, 1, 53, 0
3, 560117, Note_off_c, 1, 60, 0
3, 560117, Note_off_c, 1, 65, 0
3, 560128, Note_on_c, 1, 53, 110
3, 560128, Note_on_c, 1, 60, 110
3, 560128, Note_on_c, 1, 65, 110
3, 560373, Note_off_c, 1, 53, 0
3, 560373, Note_off_c, 1, 60, 0
3, 560373, Note_off_c, 1, 65, 0
3, 560384, Note_on_c, 1, 53, 110
3, 560384, Note_on_c, 1, 60, 110
3, 560384, Note_on_c, 1, 65, 110
3, 560629, Note_off_c, 1, 53, 0
3, 560629, Note_off_c, 1, 60, 0
3, 560629, Note_off_c, 1, 65, 0
3, 560640, Note_on_c, 1, 53, 110
3, 560640, Note_on_c, 1, 60, 110
3, 560640, Note_on_c, 1, 65, 110
3, 560885, Note_off_c, 1, 53, 0
3, 560885, Note_off_c, 1, 60, 0
3, 560885, Note_off_c, 1, 65, 0
3, 560896, Note_on_c, 1, 53, 110
3, 560896, Note_on_c, 1, 60, 110
3, 560896, Note_on_c, 1, 65, 110
3, 561141, Note_off_c, 1, 53, 0
3, 561141, Note_off_c, 1, 60, 0
3, 561141, Note_off_c, 1, 65, 0
3, 561152, Note_on_c, 1, 55, 110
3, 561152, Note_on_c, 1, 62, 110
3, 561152, Note_on_c, 1, 67, 110
3, 562005, Note_off_c, 1, 55, 0
3, 562005, Note_off_c, 1, 62, 0
3, 562005, Note_off_c, 1, 67, 0
3, 562176, Note_on_c, 1, 55, 110
3, 562176, Note_on_c, 1, 62, 110
3, 562176, Note_on_c, 1, 67, 110
3, 563029, Note_off_c, 1, 55, 0
3, 563029, Note_off_c, 1, 62, 0
3, 563029, Note_off_c, 1, 67, 0
3, 563712, Note_on_c, 1, 55, 110
3, 563712, Note_on_c, 1, 62, 110
3, 563712, Note_on_c, 1, 67, 110
3, 564213, Note_off_c, 1, 55, 0
3, 564213, Note_off_c, 1, 62, 0
3, 564213, Note_off_c, 1, 67, 0
3, 564224, Note_on_c, 1, 55, 110
3, 564224, Note_on_c, 1, 62, 110
3, 564224, Note_on_c, 1, 67, 110
3, 564469, Note_off_c, 1, 55, 0
3, 564469, Note_off_c, 1, 62, 0
3, 564469, Note_off_c, 1, 67, 0
3, 564480, Note_on_c, 1, 55, 110
3, 564480, Note_on_c, 1, 62, 110
3, 564480, Note_on_c, 1, 67, 110
3, 564725, Note_off_c, 1, 55, 0
3, 564725, Note_off_c, 1, 62, 0
3, 564725, Note_off_c, 1, 67, 0
3, 564736, Note_on_c, 1, 55, 110
3, 564736, Note_on_c, 1, 62, 110
3, 564736, Note_on_c, 1, 67, 110
3, 564981, Note_off_c, 1, 55, 0
3, 564981, Note_off_c, 1, 62, 0
3, 564981, Note_off_c, 1, 67, 0
3, 564992, Note_on_c, 1, 55, 110
3, 564992, Note_on_c, 1, 62, 110
3, 564992, Note_on_c, 1, 67, 110
3, 565237, Note_off_c, 1, 55, 0
3, 565237, Note_off_c, 1, 62, 0
3, 565237, Note_off_c, 1, 67, 0
3, 565248, Note_on_c, 1, 50, 110
3, 565248, Note_on_c, 1, 57, 110
3, 565248, Note_on_c, 1, 62, 110
3, 566101, Note_off_c, 1, 50, 0
3, 566101, Note_off_c, 1, 57, 0
3, 566101, Note_off_c, 1, 62, 0
3, 566272, Note_on_c, 1, 50, 110
3, 566272, Note_on_c, 1, 57, 110
3, 566272, Note_on_c, 1, 62, 110
3, 567125, Note_off_c, 1, 50, 0
3, 567125, Note_off_c, 1, 57, 0
3, 567125, Note_off_c, 1, 62, 0
3, 567808, Note_on_c, 1, 50, 110
3, 567808, Note_on_c, 1, 57, 110
3, 567808, Note_on_c, 1, 62, 110
3, 568309, Note_off_c, 1, 50, 0
3, 568309, Note_off_c, 1, 57, 0
3, 568309, Note_off_c, 1, 62, 0
3, 568320, Note_on_c, 1, 50, 110
3, 568320, Note_on_c, 1, 57, 110
3, 568320, Note_on_c, 1, 62, 110
3, 568565, Note_off_c, 1, 50, 0
3, 568565, Note_off_c, 1, 57, 0
3, 568565, Note_off_c, 1, 62, 0
3, 568576, Note_on_c, 1, 50, 110
3, 568576, Note_on_c, 1, 57, 110
3, 568576, Note_on_c, 1, 62, 110
3, 568821, Note_off_c, 1, 50, 0
3, 568821, Note_off_c, 1, 57, 0
3, 568821, Note_off_c, 1, 62, 0
3, 568832, Note_on_c, 1, 50, 110
3, 568832, Note_on_c, 1, 57, 110
3, 568832, Note_on_c, 1, 62, 110
3, 569077, Note_off_c, 1, 50, 0
3, 569077, Note_off_c, 1, 57, 0
3, 569077, Note_off_c, 1, 62, 0
3, 569088, Note_on_c, 1, 50, 110
3, 569088, Note_on_c, 1, 57, 110
3, 569088, Note_on_c, 1, 62, 110
3, 569333, Note_off_c, 1, 50, 0
3, 569333, Note_off_c, 1, 57, 0
3, 569333, Note_off_c, 1, 62, 0
3, 569344, Note_on_c, 1, 52, 110
3, 569344, Note_on_c, 1, 59, 110
3, 569344, Note_on_c, 1, 64, 110
3, 570197, Note_off_c, 1, 52, 0
3, 570197, Note_off_c, 1, 59, 0
3, 570197, Note_off_c, 1, 64, 0
3, 570368, Note_on_c, 1, 52, 110
3, 570368, Note_on_c, 1, 59, 110
3, 570368, Note_on_c, 1, 64, 110
3, 571221, Note_off_c, 1, 52, 0
3, 571221, Note_off_c, 1, 59, 0
3, 571221, Note_off_c, 1, 64, 0
3, 571904, Note_on_c, 1, 52, 110
3, 571904, Note_on_c, 1, 59, 110
3, 571904, Note_on_c, 1, 64, 110
3, 572405, Note_off_c, 1, 52, 0
3, 572405, Note_off_c, 1, 59, 0
3, 572405, Note_off_c, 1, 64, 0
3, 572416, Note_on_c, 1, 52, 110
3, 572416, Note_on_c, 1, 59, 110
3, 572416, Note_on_c, 1, 64, 110
3, 572661, Note_off_c, 1, 52, 0
3, 572661, Note_off_c, 1, 59, 0
3, 572661, Note_off_c, 1, 64, 0
3, 572672, Note_on_c, 1, 52, 110
3, 572672, Note_on_c, 1, 59, 110
3, 572672, Note_on_c, 1, 64, 110
3, 572917, Note_off_c, 1, 52, 0
3, 572917, Note_off_c, 1, 59, 0
3, 572917, Note_off_c, 1, 64, 0
3, 572928, Note_on_c, 1, 52, 110
3, 572928, Note_on_c, 1, 59, 110
3, 572928, Note_on_c, 1, 64, 110
3, 573173, Note_off_c, 1, 52, 0
3, 573173, Note_off_c, 1, 59, 0
3, 573173, Note_off_c, 1, 64, 0
3, 573184, Note_on_c, 1, 52, 110
3, 573184, Note_on_c, 1, 59, 110
3, 573184, Note_on_c, 1, 64, 110
3, 573429, Note_off_c, 1, 52, 0
3, 573429, Note_off_c, 1, 59, 0
3, 573429, Note_off_c, 1, 64, 0
3, 573440, Note_on_c, 1, 53, 110
3, 573440, Note_on_c, 1, 60, 110
3, 573440, Note_on_c, 1, 65, 110
3, 574293, Note_off_c, 1, 53, 0
3, 574293, Note_off_c, 1, 60, 0
3, 574293, Note_off_c, 1, 65, 0
3, 574464, Note_on_c, 1, 53, 110
3, 574464, Note_on_c, 1, 60, 110
3, 574464, Note_on_c, 1, 65, 110
3, 575317, Note_off_c, 1, 53, 0
3, 575317, Note_off_c, 1, 60, 0
3, 575317, Note_off_c, 1, 65, 0
3, 576000, Note_on_c, 1, 53, 110
3, 576000, Note_on_c, 1, 60, 110
3, 576000, Note_on_c, 1, 65, 110
3, 576501, Note_off_c, 1, 53, 0
3, 576501, Note_off_c, 1, 60, 0
3, 576501, Note_off_c, 1, 65, 0
3, 576512, Note_on_c, 1, 53, 110
3, 576512, Note_on_c, 1, 60, 110
3, 576512, Note_on_c, 1, 65, 110
3, 576757, Note_off_c, 1, 53, 0
3, 576757, Note_off_c, 1, 60, 0
3, 576757, Note_off_c, 1, 65, 0
3, 576768, Note_on_c, 1, 53, 110
3, 576768, Note_on_c, 1, 60, 110
3, 576768, Note_on_c, 1, 65, 110
3, 577013, Note_off_c, 1, 53, 0
3, 577013, Note_off_c, 1, 60, 0
3, 577013, Note_off_c, 1, 65, 0
3, 577024, Note_on_c, 1, 53, 110
3, 577024, Note_on_c, 1, 60, 110
3, 577024, Note_on_c, 1, 65, 110
3, 577269, Note_off_c, 1, 53, 0
3, 577269, Note_off_c, 1, 60, 0
3, 577269, Note_off_c, 1, 65, 0
3, 577280, Note_on_c, 1, 53, 110
3, 577280, Note_on_c, 1, 60, 110
3, 577280, Note_on_c, 1, 65, 110
3, 577525, Note_off_c, 1, 53, 0
3, 577525, Note_off_c, 1, 60, 0
3, 577525, Note_off_c, 1, 65, 0
3, 577536, Note_on_c, 1, 55, 110
3, 577536, Note_on_c, 1, 62, 110
3, 577536, Note_on_c, 1, 67, 110
3, 578389, Note_off_c, 1, 55, 0
3, 578389, Note_off_c, 1, 62, 0
3, 578389, Note_off_c, 1, 67, 0
3, 578560, Note_on_c, 1, 55, 110
3, 578560, Note_on_c, 1, 62, 110
3, 578560, Note_on_c, 1, 67, 110
3, 579413, Note_off_c, 1, 55, 0
3, 579413, Note_off_c, 1, 62, 0
3, 579413, Note_off_c, 1, 67, 0
3, 580096, Note_on_c, 1, 55, 110
3, 580096, Note_on_c, 1, 62, 110
3, 580096, Note_on_c, 1, 67, 110
3, 580597, Note_off_c, 1, 55, 0
3, 580597, Note_off_c, 1, 62, 0
3, 580597, Note_off_c, 1, 67, 0
3, 580608, Note_on_c, 1, 55, 110
3, 580608, Note_on_c, 1, 62, 110
3, 580608, Note_on_c, 1, 67, 110
3, 580853, Note_off_c, 1, 55, 0
3, 580853, Note_off_c, 1, 62, 0
3, 580853, Note_off_c, 1, 67, 0
3, 580864, Note_on_c, 1, 55, 110
3, 580864, Note_on_c, 1, 62, 110
3, 580864, Note_on_c, 1, 67, 110
3, 581109, Note_off_c, 1, 55, 0
3, 581109, Note_off_c, 1, 62, 0
3, 581109, Note_off_c, 1, 67, 0
3, 581120, Note_on_c, 1, 55, 110
3, 581120, Note_on_c, 1, 62, 110
3, 581120, Note_on_c, 1, 67, 110
3, 581365, Note_off_c, 1, 55, 0
3, 581365, Note_off_c, 1, 62, 0
3, 581365, Note_off_c, 1, 67, 0
3, 581376, Note_on_c, 1, 55, 110
3, 581376, Note_on_c, 1, 62, 110
3, 581376, Note_on_c, 1, 67, 110
3, 581621, Note_off_c, 1, 55, 0
3, 581621, Note_off_c, 1, 62, 0
3, 581621, Note_off_c, 1, 67, 0
3, 581632, Note_on_c, 1, 53, 110
3, 581632, Note_on_c, 1, 60, 110
3, 581632, Note_on_c, 1, 65, 110
3, 582485, Note_off_c, 1, 53, 0
3, 582485, Note_off_c, 1, 60, 0
3, 582485, Note_off_c, 1, 65, 0
3, 582656, Note_on_c, 1, 53, 110
3, 582656, Note_on_c, 1, 60, 110
3, 582656, Note_on_c, 1, 65, 110
3, 583509, Note_off_c, 1, 53, 0
3, 583509, Note_off_c, 1, 60, 0
3, 583509, Note_off_c, 1, 65, 0
3, 584192, Note_on_c, 1, 53, 110
3, 584192, Note_on_c, 1, 60, 110
3, 584192, Note_on_c, 1, 65, 110
3, 584693, Note_off_c, 1, 53, 0
3, 584693, Note_off_c, 1, 60, 0
3, 584693, Note_off_c, 1, 65, 0
3, 584704, Note_on_c, 1, 53, 110
3, 584704, Note_on_c, 1, 60, 110
3, 584704, Note_on_c, 1, 65, 110
3, 584949, Note_off_c, 1, 53, 0
3, 584949, Note_off_c, 1, 60, 0
3, 584949, Note_off_c, 1, 65, 0
3, 584960, Note_on_c, 1, 53, 110
3, 584960, Note_on_c, 1, 60, 110
3, 584960, Note_on_c, 1, 65, 110
3, 585205, Note_off_c, 1, 53, 0
3, 585205, Note_off_c, 1, 60, 0
3, 585205, Note_off_c, 1, 65, 0
3, 585216, Note_on_c, 1, 53, 110
3, 585216, Note_on_c, 1, 60, 110
3, 585216, Note_on_c, 1, 65, 110
3, 585461, Note_off_c, 1, 53, 0
3, 585461, Note_off_c, 1, 60, 0
3, 585461, Note_off_c, 1, 65, 0
3, 585472, Note_on_c, 1, 53, 110
3, 585472, Note_on_c, 1, 60, 110
3, 585472, Note_on_c, 1, 65, 110
3, 585717, Note_off_c, 1, 53, 0
3, 585717, Note_off_c, 1, 60, 0
3, 585717, Note_off_c, 1, 65, 0
3, 585728, Note_on_c, 1, 55, 110
3, 585728, Note_on_c, 1, 62, 110
3, 585728, Note_on_c, 1, 67, 110
3, 586581, Note_off_c, 1, 55, 0
3, 586581, Note_off_c, 1, 62, 0
3, 586581, Note_off_c, 1, 67, 0
3, 586752, Note_on_c, 1, 55, 110
3, 586752, Note_on_c, 1, 62, 110
3, 586752, Note_on_c, 1, 67, 110
3, 587605, Note_off_c, 1, 55, 0
3, 587605, Note_off_c, 1, 62, 0
3, 587605, Note_off_c, 1, 67, 0
3, 588288, Note_on_c, 1, 55, 110
3, 588288, Note_on_c, 1, 62, 110
3, 588288, Note_on_c, 1, 67, 110
3, 588789, Note_off_c, 1, 55, 0
3, 588789, Note_off_c, 1, 62, 0
3, 588789, Note_off_c, 1, 67, 0
3, 588800, Note_on_c, 1, 55, 110
3, 588800, Note_on_c, 1, 62, 110
3, 588800, Note_on_c, 1, 67, 110
3, 589045, Note_off_c, 1, 55, 0
3, 589045, Note_off_c, 1, 62, 0
3, 589045, Note_off_c, 1, 67, 0
3, 589056, Note_on_c, 1, 55, 110
3, 589056, Note_on_c, 1, 62, 110
3, 589056, Note_on_c, 1, 67, 110
3, 589301, Note_off_c, 1, 55, 0
3, 589301, Note_off_c, 1, 62, 0
3, 589301, Note_off_c, 1, 67, 0
3, 589312, Note_on_c, 1, 55, 110
3, 589312, Note_on_c, 1, 62, 110
3, 589312, Note_on_c, 1, 67, 110
3, 589557, Note_off_c, 1, 55, 0
3, 589557, Note_off_c, 1, 62, 0
3, 589557, Note_off_c, 1, 67, 0
3, 589568, Note_on_c, 1, 55, 110
3, 589568, Note_on_c, 1, 62, 110
3, 589568, Note_on_c, 1, 67, 110
3, 589813, Note_off_c, 1, 55, 0
3, 589813, Note_off_c, 1, 62, 0
3, 589813, Note_off_c, 1, 67, 0
3, 589824, Note_on_c, 1, 56, 110
3, 589824, Note_on_c, 1, 63, 110
3, 589824, Note_on_c, 1, 68, 110
3, 590677, Note_off_c, 1, 56, 0
3, 590677, Note_off_c, 1, 63, 0
3, 590677, Note_off_c, 1, 68, 0
3, 590848, Note_on_c, 1, 56, 110
3, 590848, Note_on_c, 1, 63, 110
3, 590848, Note_on_c, 1, 68, 110
3, 591701, Note_off_c, 1, 56, 0
3, 591701, Note_off_c, 1, 63, 0
3, 591701, Note_off_c, 1, 68, 0
3, 592384, Note_on_c, 1, 56, 110
3, 592384, Note_on_c, 1, 63, 110
3, 592384, Note_on_c, 1, 68, 110
3, 592885, Note_off_c, 1, 56, 0
3, 592885, Note_off_c, 1, 63, 0
3, 592885, Note_off_c, 1, 68, 0
3, 592896, Note_on_c, 1, 56, 110
3, 592896, Note_on_c, 1, 63, 110
3, 592896, Note_on_c, 1, 68, 110
3, 593141, Note_off_c, 1, 56, 0
3, 593141, Note_off_c, 1, 63, 0
3, 593141, Note_off_c, 1, 68, 0
3, 593152, Note_on_c, 1, 56, 110
3, 593152, Note_on_c, 1, 63, 110
3, 593152, Note_on_c, 1, 68, 110
3, 593397, Note_off_c, 1, 56, 0
3, 593397, Note_off_c, 1, 63, 0
3, 593397, Note_off_c, 1, 68, 0
3, 593408, Note_on_c, 1, 56, 110
3, 593408, Note_on_c, 1, 63, 110
3, 593408, Note_on_c, 1, 68, 110
3, 593653, Note_off_c, 1, 56, 0
3, 593653, Note_off_c, 1, 63, 0
3, 593653, Note_off_c, 1, 68, 0
3, 593664, Note_on_c, 1, 56, 110
3, 593664, Note_on_c, 1, 63, 110
3, 593664, Note_on_c, 1, 68, 110
3, 593909, Note_off_c, 1, 56, 0
3, 593909, Note_off_c, 1, 63, 0
3, 593909, Note_off_c, 1, 68, 0
3, 593920, Note_on_c, 1, 58, 110
3, 593920, Note_on_c, 1, 65, 110
3, 593920, Note_on_c, 1, 70, 110
3, 594773, Note_off_c, 1, 58, 0
3, 594773, Note_off_c, 1, 65, 0
3, 594773, Note_off_c, 1, 70, 0
3, 594944, Note_on_c, 1, 58, 110
3, 594944, Note_on_c, 1, 65, 110
3, 594944, Note_on_c, 1, 70, 110
3, 595797, Note_off_c, 1, 58, 0
3, 595797, Note_off_c, 1, 65, 0
3, 595797, Note_off_c, 1, 70, 0
3, 596480, Note_on_c, 1, 58, 110
3, 596480, Note_on_c, 1, 65, 110
3, 596480, Note_on_c, 1, 70, 110
3, 596981, Note_off_c, 1, 58, 0
3, 596981, Note_off_c, 1, 65, 0
3, 596981, Note_off_c, 1, 70, 0
3, 596992, Note_on_c, 1, 58, 110
3, 596992, Note_on_c, 1, 65, 110
3, 596992, Note_on_c, 1, 70, 110
3, 597237, Note_off_c, 1, 58, 0
3, 597237, Note_off_c, 1, 65, 0
3, 597237, Note_off_c, 1, 70, 0
3, 597248, Note_on_c, 1, 58, 110
3, 597248, Note_on_c, 1, 65, 110
3, 597248, Note_on_c, 1, 70, 110
3, 597493, Note_off_c, 1, 58, 0
3, 597493, Note_off_c, 1, 65, 0
3, 597493, Note_off_c, 1, 70, 0
3, 597504, Note_on_c, 1, 58, 110
3, 597504, Note_on_c, 1, 65, 110
3, 597504, Note_on_c, 1, 70, 110
3, 597749, Note_off_c, 1, 58, 0
3, 597749, Note_off_c, 1, 65, 0
3, 597749, Note_off_c, 1, 70, 0
3, 597760, Note_on_c, 1, 58, 110
3, 597760, Note_on_c, 1, 65, 110
3, 597760, Note_on_c, 1, 70, 110
3, 598005, Note_off_c, 1, 58, 0
3, 598005, Note_off_c, 1, 65, 0
3, 598005, Note_off_c, 1, 70, 0
3, 598016, Note_on_c, 1, 50, 110
3, 598016, Note_on_c, 1, 57, 110
3, 598016, Note_on_c, 1, 62, 110
3, 598869, Note_off_c, 1, 50, 0
3, 598869, Note_off_c, 1, 57, 0
3, 598869, Note_off_c, 1, 62, 0
3, 599040, Note_on_c, 1, 50, 110
3, 599040, Note_on_c, 1, 57, 110
3, 599040, Note_on_c, 1, 62, 110
3, 599893, Note_off_c, 1, 50, 0
3, 599893, Note_off_c, 1, 57, 0
3, 599893, Note_off_c, 1, 62, 0
3, 600576, Note_on_c, 1, 50, 110
3, 600576, Note_on_c, 1, 57, 110
3, 600576, Note_on_c, 1, 62, 110
3, 601077, Note_off_c, 1, 50, 0
3, 601077, Note_off_c, 1, 57, 0
3, 601077, Note_off_c, 1, 62, 0
3, 601088, Note_on_c, 1, 50, 110
3, 601088, Note_on_c, 1, 57, 110
3, 601088, Note_on_c, 1, 62, 110
3, 601333, Note_off_c, 1, 50, 0
3, 601333, Note_off_c, 1, 57, 0
3, 601333, Note_off_c, 1, 62, 0
3, 601344, Note_on_c, 1, 50, 110
3, 601344, Note_on_c, 1, 57, 110
3, 601344, Note_on_c, 1, 62, 110
3, 601589, Note_off_c, 1, 50, 0
3, 601589, Note_off_c, 1, 57, 0
3, 601589, Note_off_c, 1, 62, 0
3, 601600, Note_on_c, 1, 50, 110
3, 601600, Note_on_c, 1, 57, 110
3, 601600, Note_on_c, 1, 62, 110
3, 601845, Note_off_c, 1, 50, 0
3, 601845, Note_off_c, 1, 57, 0
3, 601845, Note_off_c, 1, 62, 0
3, 601856, Note_on_c, 1, 50, 110
3, 601856, Note_on_c, 1, 57, 110
3, 601856, Note_on_c, 1, 62, 110
3, 602101, Note_off_c, 1, 50, 0
3, 602101, Note_off_c, 1, 57, 0
3, 602101, Note_off_c, 1, 62, 0
3, 602112, Note_on_c, 1, 52, 110
3, 602112, Note_on_c, 1, 59, 110
3, 602112, Note_on_c, 1, 64, 110
3, 602965, Note_off_c, 1, 52, 0
3, 602965, Note_off_c, 1, 59, 0
3, 602965, Note_off_c, 1, 64, 0
3, 603136, Note_on_c, 1, 52, 110
3, 603136, Note_on_c, 1, 59, 110
3, 603136, Note_on_c, 1, 64, 110
3, 603989, Note_off_c, 1, 52, 0
3, 603989, Note_off_c, 1, 59, 0
3, 603989, Note_off_c, 1, 64, 0
3, 604672, Note_on_c, 1, 52, 110
3, 604672, Note_on_c, 1, 59, 110
3, 604672, Note_on_c, 1, 64, 110
3, 605173, Note_off_c, 1, 52, 0
3, 605173, Note_off_c, 1, 59, 0
3, 605173, Note_off_c, 1, 64, 0
3, 605184, Note_on_c, 1, 52, 110
3, 605184, Note_on_c, 1, 59, 110
3, 605184, Note_on_c, 1, 64, 110
3, 605429, Note_off_c, 1, 52, 0
3, 605429, Note_off_c, 1, 59, 0
3, 605429, Note_off_c, 1, 64, 0
3, 605440, Note_on_c, 1, 52, 110
3, 605440, Note_on_c, 1, 59, 110
3, 605440, Note_on_c, 1, 64, 110
3, 605685, Note_off_c, 1, 52, 0
3, 605685, Note_off_c, 1, 59, 0
3, 605685, Note_off_c, 1, 64, 0
3, 605696, Note_on_c, 1, 52, 110
3, 605696, Note_on_c, 1, 59, 110
3, 605696, Note_on_c, 1, 64, 110
3, 605941, Note_off_c, 1, 52, 0
3, 605941, Note_off_c, 1, 59, 0
3, 605941, Note_off_c, 1, 64, 0
3, 605952, Note_on_c, 1, 52, 110
3, 605952, Note_on_c, 1, 59, 110
3, 605952, Note_on_c, 1, 64, 110
3, 606197, Note_off_c, 1, 52, 0
3, 606197, Note_off_c, 1, 59, 0
3, 606197, Note_off_c, 1, 64, 0
3, 606208, Note_on_c, 1, 53, 110
3, 606208, Note_on_c, 1, 60, 110
3, 606208, Note_on_c, 1, 65, 110
3, 607061, Note_off_c, 1, 53, 0
3, 607061, Note_off_c, 1, 60, 0
3, 607061, Note_off_c, 1, 65, 0
3, 607232, Note_on_c, 1, 53, 110
3, 607232, Note_on_c, 1, 60, 110
3, 607232, Note_on_c, 1, 65, 110
3, 608085, Note_off_c, 1, 53, 0
3, 608085, Note_off_c, 1, 60, 0
3, 608085, Note_off_c, 1, 65, 0
3, 608768, Note_on_c, 1, 53, 110
3, 608768, Note_on_c, 1, 60, 110
3, 608768, Note_on_c, 1, 65, 110
3, 609269, Note_off_c, 1, 53, 0
3, 609269, Note_off_c, 1, 60, 0
3, 609269, Note_off_c, 1, 65, 0
3, 609280, Note_on_c, 1, 53, 110
3, 609280, Note_on_c, 1, 60, 110
3, 609280, Note_on_c, 1, 65, 110
3, 609525, Note_off_c, 1, 53, 0
3, 609525, Note_off_c, 1, 60, 0
3, 609525, Note_off_c, 1, 65, 0
3, 609536, Note_on_c, 1, 53, 110
3, 609536, Note_on_c, 1, 60, 110
3, 609536, Note_on_c, 1, 65, 110
3, 609781, Note_off_c, 1, 53, 0
3, 609781, Note_off_c, 1, 60, 0
3, 609781, Note_off_c, 1, 65, 0
3, 609792, Note_on_c, 1, 53, 110
3, 609792, Note_on_c, 1, 60, 110
3, 609792, Note_on_c, 1, 65, 110
3, 610037, Note_off_c, 1, 53, 0
3, 610037, Note_off_c, 1, 60, 0
3, 610037, Note_off_c, 1, 65, 0
3, 610048, Note_on_c, 1, 53, 110
3, 610048, Note_on_c, 1, 60, 110
3, 610048, Note_on_c, 1, 65, 110
3, 610293, Note_off_c, 1, 53, 0
3, 610293, Note_off_c, 1, 60, 0
3, 610293, Note_off_c, 1, 65, 0
3, 610304, Note_on_c, 1, 55, 110
3, 610304, Note_on_c, 1, 62, 110
3, 610304, Note_on_c, 1, 67, 110
3, 611157, Note_off_c, 1, 55, 0
3, 611157, Note_off_c, 1, 62, 0
3, 611157, Note_off_c, 1, 67, 0
3, 611328, Note_on_c, 1, 55, 110
3, 611328, Note_on_c, 1, 62, 110
3, 611328, Note_on_c, 1, 67, 110
3, 612181, Note_off_c, 1, 55, 0
3, 612181, Note_off_c, 1, 62, 0
3, 612181, Note_off_c, 1, 67, 0
3, 612864, Note_on_c, 1, 55, 110
3, 612864, Note_on_c, 1, 62, 110
3, 612864, Note_on_c, 1, 67, 110
3, 613365, Note_off_c, 1, 55, 0
3, 613365, Note_off_c, 1, 62, 0
3, 613365, Note_off_c, 1, 67, 0
3, 613376, Note_on_c, 1, 55, 110
3, 613376, Note_on_c, 1, 62, 110
3, 613376, Note_on_c, 1, 67, 110
3, 613621, Note_off_c, 1, 55, 0
3, 613621, Note_off_c, 1, 62, 0
3, 613621, Note_off_c, 1, 67, 0
3, 613632, Note_on_c, 1, 55, 110
3, 613632, Note_on_c, 1, 62, 110
3, 613632, Note_on_c, 1, 67, 110
3, 613877, Note_off_c, 1, 55, 0
3, 613877, Note_off_c, 1, 62, 0
3, 613877, Note_off_c, 1, 67, 0
3, 613888, Note_on_c, 1, 55, 110
3, 613888, Note_on_c, 1, 62, 110
3, 613888, Note_on_c, 1, 67, 110
3, 614133, Note_off_c, 1, 55, 0
3, 614133, Note_off_c, 1, 62, 0
3, 614133, Note_off_c, 1, 67, 0
3, 614144, Note_on_c, 1, 55, 110
3, 614144, Note_on_c, 1, 62, 110
3, 614144, Note_on_c, 1, 67, 110
3, 614389, Note_off_c, 1, 55, 0
3, 614389, Note_off_c, 1, 62, 0
3, 614389, Note_off_c, 1, 67, 0
3, 671744, Note_on_c, 1, 33, 110
3, 672245, Note_off_c, 1, 33, 0
3, 672256, Note_on_c, 1, 38, 110
3, 672757, Note_off_c, 1, 38, 0
3, 672768, Note_on_c, 1, 45, 110
3, 673269, Note_off_c, 1, 45, 0
3, 673280, Note_on_c, 1, 44, 110
3, 675584, Note_off_c, 1, 44, 0
3, 675840, Note_on_c, 1, 33, 110
3, 676341, Note_off_c, 1, 33, 0
3, 676352, Note_on_c, 1, 38, 110
3, 676853, Note_off_c, 1, 38, 0
3, 676864, Note_on_c, 1, 43, 110
3, 677365, Note_off_c, 1, 43, 0
3, 677376, Note_on_c, 1, 41, 110
3, 679680, Note_off_c, 1, 41, 0
3, 679936, Note_on_c, 1, 33, 110
3, 680437, Note_off_c, 1, 33, 0
3, 680448, Note_on_c, 1, 38, 110
3, 680949, Note_off_c, 1, 38, 0
3, 680960, Note_on_c, 1, 45, 110
3, 681461, Note_off_c, 1, 45, 0
3, 681472, Note_on_c, 1, 44, 110
3, 682485, Note_off_c, 1, 44, 0
3, 682496, Note_on_c, 1, 43, 110
3, 683509, Note_off_c, 1, 43, 0
3, 683520, Note_on_c, 1, 41, 110
3, 684533, Note_off_c, 1, 41, 0
3, 684544, Note_on_c, 1, 38, 110
3, 687872, Note_off_c, 1, 38, 0
3, 688128, Note_on_c, 1, 33, 110
3, 688629, Note_off_c, 1, 33, 0
3, 688640, Note_on_c, 1, 38, 110
3, 689141, Note_off_c, 1, 38, 0
3, 689152, Note_on_c, 1, 45, 110
3, 689653, Note_off_c, 1, 45, 0
3, 689664, Note_on_c, 1, 44, 110
3, 691968, Note_off_c, 1, 44, 0
3, 692224, Note_on_c, 1, 33, 110
3, 692725, Note_off_c, 1, 33, 0
3, 692736, Note_on_c, 1, 38, 110
3, 693237, Note_off_c, 1, 38, 0
3, 693248, Note_on_c, 1, 43, 110
3, 693749, Note_off_c, 1, 43, 0
3, 693760, Note_on_c, 1, 41, 110
3, 696064, Note_off_c, 1, 41, 0
3, 696320, Note_on_c, 1, 33, 110
3, 696821, Note_off_c, 1, 33, 0
3, 696832, Note_on_c, 1, 38, 110
3, 697333, Note_off_c, 1, 38, 0
3, 697344, Note_on_c, 1, 45, 110
3, 697845, Note_off_c, 1, 45, 0
3, 697856, Note_on_c, 1, 44, 110
3, 698869, Note_off_c, 1, 44, 0
3, 698880, Note_on_c, 1, 43, 110
3, 699893, Note_off_c, 1, 43, 0
3, 699904, Note_on_c, 1, 41, 110
3, 700917, Note_off_c, 1, 41, 0
3, 700928, Note_on_c, 1, 38, 110
3, 704256, Note_off_c, 1, 38, 0
3, 704512, Note_on_c, 1, 33, 110
3, 705013, Note_off_c, 1, 33, 0
3, 705024, Note_on_c, 1, 38, 110
3, 705525, Note_off_c, 1, 38, 0
3, 705536, Note_on_c, 1, 45, 110
3, 706037, Note_off_c, 1, 45, 0
3, 706048, Note_on_c, 1, 44, 110
3, 708352, Note_off_c, 1, 44, 0
3, 708608, Note_on_c, 1, 33, 110
3, 709109, Note_off_c, 1, 33, 0
3, 709120, Note_on_c, 1, 38, 110
3, 709621, Note_off_c, 1, 38, 0
3, 709632, Note_on_c, 1, 43, 110
3, 710133, Note_off_c, 1, 43, 0
3, 710144, Note_on_c, 1, 41, 110
3, 712448, Note_off_c, 1, 41, 0
3, 712704, Note_on_c, 1, 33, 110
3, 713205, Note_off_c, 1, 33, 0
3, 713216, Note_on_c, 1, 38, 110
3, 713717, Note_off_c, 1, 38, 0
3, 713728, Note_on_c, 1, 45, 110
3, 714229, Note_off_c, 1, 45, 0
3, 714240, Note_on_c, 1, 44, 110
3, 715253, Note_off_c, 1, 44, 0
3, 715264, Note_on_c, 1, 43, 110
3, 716277, Note_off_c, 1, 43, 0
3, 716288, Note_on_c, 1, 41, 110
3, 717301, Note_off_c, 1, 41, 0
3, 717312, Note_on_c, 1, 38, 110
3, 720640, Note_off_c, 1, 38, 0
3, 720896, Note_on_c, 1, 38, 110
3, 721397, Note_off_c, 1, 38, 0
3, 721408, Note_on_c, 1, 33, 110
3, 721909, Note_off_c, 1, 33, 0
3, 721920, Note_on_c, 1, 38, 110
3, 722421, Note_off_c, 1, 38, 0
3, 722432, Note_on_c, 1, 37, 110
3, 724736, Note_off_c, 1, 37, 0
3, 724992, Note_on_c, 1, 36, 110
3, 725493, Note_off_c, 1, 36, 0
3, 725504, Note_on_c, 1, 33, 110
3, 726005, Note_off_c, 1, 33, 0
3, 726016, Note_on_c, 1, 36, 110
3, 726517, Note_off_c, 1, 36, 0
3, 726528, Note_on_c, 1, 35, 110
3, 728832, Note_off_c, 1, 35, 0
3, 729088, Note_on_c, 1, 38, 110
3, 729589, Note_off_c, 1, 38, 0
3, 729600, Note_on_c, 1, 33, 110
3, 730101, Note_off_c, 1, 33, 0
3, 730112, Note_on_c, 1, 38, 110
3, 730613, Note_off_c, 1, 38, 0
3, 730624, Note_on_c, 1, 37, 110
3, 732928, Note_off_c, 1, 37, 0
3, 733184, Note_on_c, 1, 36, 110
3, 733685, Note_off_c, 1, 36, 0
3, 733696, Note_on_c, 1, 33, 110
3, 734197, Note_off_c, 1, 33, 0
3, 734208, Note_on_c, 1, 36, 110
3, 734709, Note_off_c, 1, 36, 0
3, 734720, Note_on_c, 1, 35, 110
3, 737024, Note_off_c, 1, 35, 0
3, 737280, Note_on_c, 1, 38, 110
3, 737781, Note_off_c, 1, 38, 0
3, 737792, Note_on_c, 1, 33, 110
3, 738293, Note_off_c, 1, 33, 0
3, 738304, Note_on_c, 1, 38, 110
3, 738805, Note_off_c, 1, 38, 0
3, 738816, Note_on_c, 1, 37, 110
3, 739829, Note_off_c, 1, 37, 0
3, 739840, Note_on_c, 1, 40, 110
3, 741205, Note_off_c, 1, 40, 0
3, 741376, Note_on_c, 1, 38, 110
3, 741877, Note_off_c, 1, 38, 0
3, 741888, Note_on_c, 1, 33, 110
3, 742389, Note_off_c, 1, 33, 0
3, 742400, Note_on_c, 1, 38, 110
3, 742901, Note_off_c, 1, 38, 0
3, 742912, Note_on_c, 1, 37, 110
3, 745216, Note_off_c, 1, 37, 0
3, 745472, Note_on_c, 1, 38, 110
3, 745973, Note_off_c, 1, 38, 0
3, 745984, Note_on_c, 1, 33, 110
3, 746485, Note_off_c, 1, 33, 0
3, 746496, Note_on_c, 1, 38, 110
3, 746997, Note_off_c, 1, 38, 0
3, 747008, Note_on_c, 1, 37, 110
3, 749312, Note_off_c, 1, 37, 0
3, 749568, Note_on_c, 1, 36, 110
3, 750069, Note_off_c, 1, 36, 0
3, 750080, Note_on_c, 1, 33, 110
3, 750581, Note_off_c, 1, 33, 0
3, 750592, Note_on_c, 1, 36, 110
3, 751093, Note_off_c, 1, 36, 0
3, 751104, Note_on_c, 1, 35, 110
3, 753408, Note_off_c, 1, 35, 0
3, 753664, Note_on_c, 1, 26, 110
3, 754165, Note_off_c, 1, 26, 0
3, 754176, Note_on_c, 1, 33, 110
3, 754677, Note_off_c, 1, 33, 0
3, 754688, Note_on_c, 1, 38, 110
3, 755189, Note_off_c, 1, 38, 0
3, 755200, Note_on_c, 1, 26, 110
3, 755701, Note_off_c, 1, 26, 0
3, 755712, Note_on_c, 1, 33, 110
3, 756213, Note_off_c, 1, 33, 0
3, 756224, Note_on_c, 1, 37, 110
3, 756725, Note_off_c, 1, 37, 0
3, 756736, Note_on_c, 1, 26, 110
3, 757237, Note_off_c, 1, 26, 0
3, 757248, Note_on_c, 1, 33, 110
3, 757749, Note_off_c, 1, 33, 0
3, 757760, Note_on_c, 1, 36, 110
3, 758261, Note_off_c, 1, 36, 0
3, 758272, Note_on_c, 1, 26, 110
3, 758773, Note_off_c, 1, 26, 0
3, 758784, Note_on_c, 1, 29, 110
3, 759285, Note_off_c, 1, 29, 0
3, 759296, Note_on_c, 1, 36, 110
3, 759797, Note_off_c, 1, 36, 0
3, 759808, Note_on_c, 1, 35, 110
3, 760309, Note_off_c, 1, 35, 0
3, 760320, Note_on_c, 1, 31, 110
3, 761685, Note_off_c, 1, 31, 0
3, 761856, Note_on_c, 1, 26, 110
3, 762357, Note_off_c, 1, 26, 0
3, 762368, Note_on_c, 1, 33, 110
3, 762869, Note_off_c, 1, 33, 0
3, 762880, Note_on_c, 1, 38, 110
3, 763381, Note_off_c, 1, 38, 0
3, 763392, Note_on_c, 1, 26, 110
3, 763893, Note_off_c, 1, 26, 0
3, 763904, Note_on_c, 1, 33, 110
3, 764405, Note_off_c, 1, 33, 0
3, 764416, Note_on_c, 1, 37, 110
3, 764917, Note_off_c, 1, 37, 0
3, 764928, Note_on_c, 1, 26, 110
3, 765429, Note_off_c, 1, 26, 0
3, 765440, Note_on_c, 1, 33, 110
3, 765941, Note_off_c, 1, 33, 0
3, 765952, Note_on_c, 1, 36, 110
3, 766453, Note_off_c, 1, 36, 0
3, 766464, Note_on_c, 1, 26, 110
3, 766965, Note_off_c, 1, 26, 0
3, 766976, Note_on_c, 1, 29, 110
3, 767477, Note_off_c, 1, 29, 0
3, 767488, Note_on_c, 1, 36, 110
3, 767989, Note_off_c, 1, 36, 0
3, 768000, Note_on_c, 1, 35, 110
3, 768501, Note_off_c, 1, 35, 0
3, 768512, Note_on_c, 1, 31, 110
3, 769877, Note_off_c, 1, 31, 0
3, 770048, Note_on_c, 1, 48, 110
3, 770901, Note_off_c, 1, 48, 0
3, 772096, Note_on_c, 1, 46, 110
3, 772949, Note_off_c, 1, 46, 0
3, 773120, Note_on_c, 1, 43, 110
3, 773973, Note_off_c, 1, 43, 0
3, 774144, Note_on_c, 1, 48, 110
3, 774997, Note_off_c, 1, 48, 0
3, 776192, Note_on_c, 1, 46, 110
3, 777045, Note_off_c, 1, 46, 0
3, 777216, Note_on_c, 1, 43, 110
3, 778069, Note_off_c, 1, 43, 0
3, 778240, Note_on_c, 1, 48, 110
3, 779093, Note_off_c, 1, 48, 0
3, 780288, Note_on_c, 1, 46, 110
3, 781141, Note_off_c, 1, 46, 0
3, 781312, Note_on_c, 1, 43, 110
3, 782165, Note_off_c, 1, 43, 0
3, 782336, Note_on_c, 1, 48, 110
3, 783189, Note_off_c, 1, 48, 0
3, 784384, Note_on_c, 1, 46, 110
3, 785237, Note_off_c, 1, 46, 0
3, 785408, Note_on_c, 1, 43, 110
3, 786261, Note_off_c, 1, 43, 0
3, 786432, Note_on_c, 1, 48, 110
3, 787285, Note_off_c, 1, 48, 0
3, 788480, Note_on_c, 1, 46, 110
3, 789333, Note_off_c, 1, 46, 0
3, 789504, Note_on_c, 1, 43, 110
3, 790357, Note_off_c, 1, 43, 0
3, 790528, Note_on_c, 1, 48, 110
3, 791381, Note_off_c, 1, 48, 0
3, 792576, Note_on_c, 1, 46, 110
3, 793429, Note_off_c, 1, 46, 0
3, 793600, Note_on_c, 1, 43, 110
3, 794453, Note_off_c, 1, 43, 0
3, 794624, Note_on_c, 1, 48, 110
3, 795477, Note_off_c, 1, 48, 0
3, 796672, Note_on_c, 1, 46, 110
3, 797525, Note_off_c, 1, 46, 0
3, 797696, Note_on_c, 1, 43, 110
3, 798549, Note_off_c, 1, 43, 0
3, 798720, Note_on_c, 1, 48, 110
3, 799573, Note_off_c, 1, 48, 0
3, 800768, Note_on_c, 1, 46, 110
3, 801621, Note_off_c, 1, 46, 0
3, 801792, Note_on_c, 1, 43, 110
3, 802645, Note_off_c, 1, 43, 0
3, 802816, Note_on_c, 1, 48, 110
3, 803669, Note_off_c, 1, 48, 0
3, 804864, Note_on_c, 1, 46, 110
3, 805717, Note_off_c, 1, 46, 0
3, 805888, Note_on_c, 1, 43, 110
3, 806741, Note_off_c, 1, 43, 0
3, 806912, Note_on_c, 1, 48, 110
3, 807765, Note_off_c, 1, 48, 0
3, 808960, Note_on_c, 1, 46, 110
3, 809813, Note_off_c, 1, 46, 0
3, 809984, Note_on_c, 1, 43, 110
3, 810837, Note_off_c, 1, 43, 0
3, 811008, Note_on_c, 1, 48, 110
3, 811861, Note_off_c, 1, 48, 0
3, 813056, Note_on_c, 1, 46, 110
3, 813909, Note_off_c, 1, 46, 0
3, 814080, Note_on_c, 1, 43, 110
3, 814933, Note_off_c, 1, 43, 0
3, 815104, Note_on_c, 1, 48, 110
3, 815957, Note_off_c, 1, 48, 0
3, 817152, Note_on_c, 1, 46, 110
3, 818005, Note_off_c, 1, 46, 0
3, 818176, Note_on_c, 1, 43, 110
3, 819029, Note_off_c, 1, 43, 0
3, 819200, Note_on_c, 1, 48, 110
3, 820053, Note_off_c, 1, 48, 0
3, 821248, Note_on_c, 1, 46, 110
3, 822101, Note_off_c, 1, 46, 0
3, 822272, Note_on_c, 1, 43, 110
3, 823125, Note_off_c, 1, 43, 0
3, 823296, Note_on_c, 1, 48, 110
3, 824149, Note_off_c, 1, 48, 0
3, 825344, Note_on_c, 1, 46, 110
3, 826197, Note_off_c, 1, 46, 0
3, 826368, Note_on_c, 1, 43, 110
3, 827221, Note_off_c, 1, 43, 0
3, 827392, Note_on_c, 1, 48, 110
3, 828245, Note_off_c, 1, 48, 0
3, 829440, Note_on_c, 1, 46, 110
3, 830293, Note_off_c, 1, 46, 0
3, 830464, Note_on_c, 1, 43, 110
3, 831317, Note_off_c, 1, 43, 0
3, 831488, Note_on_c, 1, 48, 110
3, 832341, Note_off_c, 1, 48, 0
3, 833536, Note_on_c, 1, 46, 110
3, 834389, Note_off_c, 1, 46, 0
3, 834560, Note_on_c, 1, 43, 110
3, 835413, Note_off_c, 1, 43, 0
3, 835584, Note_on_c, 1, 48, 110
3, 836437, Note_off_c, 1, 48, 0
3, 837632, Note_on_c, 1, 46, 110
3, 838485, Note_off_c, 1, 46, 0
3, 838656, Note_on_c, 1, 43, 110
3, 839509, Note_off_c, 1, 43, 0
3, 839680, Note_on_c, 1, 48, 110
3, 840533, Note_off_c, 1, 48, 0
3, 841728, Note_on_c, 1, 46, 110
3, 842581, Note_off_c, 1, 46, 0
3, 842752, Note_on_c, 1, 43, 110
3, 843605, Note_off_c, 1, 43, 0
3, 843776, Note_on_c, 1, 41, 110
3, 844629, Note_off_c, 1, 41, 0
3, 845824, Note_on_c, 1, 39, 110
3, 846677, Note_off_c, 1, 39, 0
3, 846848, Note_on_c, 1, 43, 110
3, 847701, Note_off_c, 1, 43, 0
3, 847872, Note_on_c, 1, 48, 110
3, 848725, Note_off_c, 1, 48, 0
3, 849920, Note_on_c, 1, 46, 110
3, 850773, Note_off_c, 1, 46, 0
3, 850944, Note_on_c, 1, 43, 110
3, 851797, Note_off_c, 1, 43, 0
3, 851968, Note_on_c, 1, 41, 110
3, 852821, Note_off_c, 1, 41, 0
3, 854016, Note_on_c, 1, 39, 110
3, 854869, Note_off_c, 1, 39, 0
3, 855040, Note_on_c, 1, 43, 110
3, 855893, Note_off_c, 1, 43, 0
3, 856064, Note_on_c, 1, 48, 110
3, 856917, Note_off_c, 1, 48, 0
3, 858112, Note_on_c, 1, 46, 110
3, 858965, Note_off_c, 1, 46, 0
3, 859136, Note_on_c, 1, 43, 110
3, 859989, Note_off_c, 1, 43, 0
3, 860160, Note_on_c, 1, 48, 110
3, 861013, Note_off_c, 1, 48, 0
3, 862208, Note_on_c, 1, 46, 110
3, 863061, Note_off_c, 1, 46, 0
3, 863232, Note_on_c, 1, 43, 110
3, 864085, Note_off_c, 1, 43, 0
3, 864256, Note_on_c, 1, 41, 110
3, 865109, Note_off_c, 1, 41, 0
3, 866304, Note_on_c, 1, 39, 110
3, 867157, Note_off_c, 1, 39, 0
3, 867328, Note_on_c, 1, 43, 110
3, 868181, Note_off_c, 1, 43, 0
3, 868352, Note_on_c, 1, 48, 110
3, 869205, Note_off_c, 1, 48, 0
3, 870400, Note_on_c, 1, 46, 110
3, 871253, Note_off_c, 1, 46, 0
3, 871424, Note_on_c, 1, 43, 110
3, 872277, Note_off_c, 1, 43, 0
3, 872448, Note_on_c, 1, 48, 110
3, 873301, Note_off_c, 1, 48, 0
3, 874496, Note_on_c, 1, 46, 110
3, 875349, Note_off_c, 1, 46, 0
3, 875520, Note_on_c, 1, 43, 110
3, 876373, Note_off_c, 1, 43, 0
3, 876544, Note_on_c, 1, 48, 110
3, 877397, Note_off_c, 1, 48, 0
3, 878592, Note_on_c, 1, 46, 110
3, 879445, Note_off_c, 1, 46, 0
3, 879616, Note_on_c, 1, 43, 110
3, 880469, Note_off_c, 1, 43, 0
3, 880640, Note_on_c, 1, 48, 110
3, 881493, Note_off_c, 1, 48, 0
3, 882688, Note_on_c, 1, 46, 110
3, 883541, Note_off_c, 1, 46, 0
3, 883712, Note_on_c, 1, 43, 110
3, 884565, Note_off_c, 1, 43, 0
3, 884736, Note_on_c, 1, 48, 110
3, 885589, Note_off_c, 1, 48, 0
3, 886784, Note_on_c, 1, 46, 110
3, 887637, Note_off_c, 1, 46, 0
3, 887808, Note_on_c, 1, 43, 110
3, 888661, Note_off_c, 1, 43, 0
3, 888832, Note_on_c, 1, 48, 110
3, 889685, Note_off_c, 1, 48, 0
3, 890880, Note_on_c, 1, 46, 110
3, 891733, Note_off_c, 1, 46, 0
3, 891904, Note_on_c, 1, 43, 110
3, 892757, Note_off_c, 1, 43, 0
3, 892928, Note_on_c, 1, 41, 110
3, 893781, Note_off_c, 1, 41, 0
3, 894976, Note_on_c, 1, 39, 110
3, 895829, Note_off_c, 1, 39, 0
3, 896000, Note_on_c, 1, 43, 110
3, 896853, Note_off_c, 1, 43, 0
3, 897024, Note_on_c, 1, 48, 110
3, 897877, Note_off_c, 1, 48, 0
3, 899072, Note_on_c, 1, 46, 110
3, 899925, Note_off_c, 1, 46, 0
3, 900096, Note_on_c, 1, 43, 110
3, 900949, Note_off_c, 1, 43, 0
3, 901120, Note_on_c, 1, 41, 110
3, 901973, Note_off_c, 1, 41, 0
3, 903168, Note_on_c, 1, 39, 110
3, 904021, Note_off_c, 1, 39, 0
3, 904192, Note_on_c, 1, 43, 110
3, 905045, Note_off_c, 1, 43, 0
3, 905216, Note_on_c, 1, 48, 110
3, 906069, Note_off_c, 1, 48, 0
3, 907264, Note_on_c, 1, 46, 110
3, 908117, Note_off_c, 1, 46, 0
3, 908288, Note_on_c, 1, 43, 110
3, 909141, Note_off_c, 1, 43, 0
3, 909312, Note_on_c, 1, 48, 110
3, 910165, Note_off_c, 1, 48, 0
3, 911360, Note_on_c, 1, 46, 110
3, 912213, Note_off_c, 1, 46, 0
3, 912384, Note_on_c, 1, 43, 110
3, 913237, Note_off_c, 1, 43, 0
3, 913408, Note_on_c, 1, 41, 110
3, 914261, Note_off_c, 1, 41, 0
3, 915456, Note_on_c, 1, 39, 110
3, 916309, Note_off_c, 1, 39, 0
3, 916480, Note_on_c, 1, 43, 110
3, 917333, Note_off_c, 1, 43, 0
3, 917504, Note_on_c, 1, 48, 110
3, 918357, Note_off_c, 1, 48, 0
3, 919552, Note_on_c, 1, 46, 110
3, 920405, Note_off_c, 1, 46, 0
3, 920576, Note_on_c, 1, 43, 110
3, 921429, Note_off_c, 1, 43, 0
3, 921600, Note_on_c, 1, 48, 110
3, 922453, Note_off_c, 1, 48, 0
3, 923648, Note_on_c, 1, 46, 110
3, 924501, Note_off_c, 1, 46, 0
3, 924672, Note_on_c, 1, 43, 110
3, 925525, Note_off_c, 1, 43, 0
3, 925696, Note_on_c, 1, 52, 110
3, 925696, Note_on_c, 1, 60, 110
3, 926549, Note_off_c, 1, 52, 0
3, 926549, Note_off_c, 1, 60, 0
3, 927232, Note_on_c, 1, 53, 110
3, 927232, Note_on_c, 1, 60, 110
3, 927733, Note_off_c, 1, 53, 0
3, 927733, Note_off_c, 1, 60, 0
3, 928256, Note_on_c, 1, 52, 110
3, 928256, Note_on_c, 1, 60, 110
3, 928757, Note_off_c, 1, 52, 0
3, 928757, Note_off_c, 1, 60, 0
3, 929280, Note_on_c, 1, 51, 110
3, 929280, Note_on_c, 1, 55, 110
3, 929781, Note_off_c, 1, 51, 0
3, 929781, Note_off_c, 1, 55, 0
3, 929792, Note_on_c, 1, 52, 110
3, 929792, Note_on_c, 1, 60, 110
3, 930293, Note_off_c, 1, 52, 0
3, 930293, Note_off_c, 1, 60, 0
3, 930304, Note_on_c, 1, 55, 110
3, 930304, Note_on_c, 1, 60, 110
3, 930805, Note_off_c, 1, 55, 0
3, 930805, Note_off_c, 1, 60, 0
3, 930816, Note_on_c, 1, 60, 110
3, 931669, Note_off_c, 1, 60, 0
3, 933888, Note_on_c, 1, 50, 110
3, 933888, Note_on_c, 1, 59, 110
3, 934741, Note_off_c, 1, 50, 0
3, 934741, Note_off_c, 1, 59, 0
3, 935424, Note_on_c, 1, 52, 110
3, 935424, Note_on_c, 1, 59, 110
3, 935925, Note_off_c, 1, 52, 0
3, 935925, Note_off_c, 1, 59, 0
3, 936448, Note_on_c, 1, 50, 110
3, 936448, Note_on_c, 1, 59, 110
3, 936949, Note_off_c, 1, 50, 0
3, 936949, Note_off_c, 1, 59, 0
3, 937472, Note_on_c, 1, 49, 110
3, 937472, Note_on_c, 1, 55, 110
3, 937973, Note_off_c, 1, 49, 0
3, 937973, Note_off_c, 1, 55, 0
3, 937984, Note_on_c, 1, 50, 110
3, 937984, Note_on_c, 1, 59, 110
3, 938485, Note_off_c, 1, 50, 0
3, 938485, Note_off_c, 1, 59, 0
3, 938496, Note_on_c, 1, 55, 110
3, 938496, Note_on_c, 1, 59, 110
3, 938997, Note_off_c, 1, 55, 0
3, 938997, Note_off_c, 1, 59, 0
3, 939008, Note_on_c, 1, 59, 110
3, 939861, Note_off_c, 1, 59, 0
3, 942080, Note_on_c, 1, 48, 110
3, 942080, Note_on_c, 1, 57, 110
3, 942933, Note_off_c, 1, 48, 0
3, 942933, Note_off_c, 1, 57, 0
3, 943616, Note_on_c, 1, 50, 110
3, 943616, Note_on_c, 1, 57, 110
3, 944117, Note_off_c, 1, 50, 0
3, 944117, Note_off_c, 1, 57, 0
3, 944640, Note_on_c, 1, 48, 110
3, 944640, Note_on_c, 1, 57, 110
3, 945141, Note_off_c, 1, 48, 0
3, 945141, Note_off_c, 1, 57, 0
3, 945664, Note_on_c, 1, 47, 110
3, 945664, Note_on_c, 1, 52, 110
3, 946165, Note_off_c, 1, 47, 0
3, 946165, Note_off_c, 1, 52, 0
3, 946176, Note_on_c, 1, 48, 110
3, 946176, Note_on_c, 1, 57, 110
3, 946677, Note_off_c, 1, 48, 0
3, 946677, Note_off_c, 1, 57, 0
3, 946688, Note_on_c, 1, 52, 110
3, 946688, Note_on_c, 1, 57, 110
3, 947189, Note_off_c, 1, 52, 0
3, 947189, Note_off_c, 1, 57, 0
3, 947200, Note_on_c, 1, 57, 110
3, 948053, Note_off_c, 1, 57, 0
3, 948736, Note_on_c, 1, 48, 110
3, 948736, Note_on_c, 1, 57, 110
3, 949237, Note_off_c, 1, 48, 0
3, 949237, Note_off_c, 1, 57, 0
3, 949248, Note_on_c, 1, 50, 110
3, 949248, Note_on_c, 1, 59, 110
3, 949749, Note_off_c, 1, 50, 0
3, 949749, Note_off_c, 1, 59, 0
3, 949760, Note_on_c, 1, 52, 110
3, 949760, Note_on_c, 1, 60, 110
3, 950261, Note_off_c, 1, 52, 0
3, 950261, Note_off_c, 1, 60, 0
3, 950272, Note_on_c, 1, 54, 110
3, 950272, Note_on_c, 1, 62, 110
3, 950773, Note_off_c, 1, 54, 0
3, 950773, Note_off_c, 1, 62, 0
3, 950784, Note_on_c, 1, 54, 110
3, 950784, Note_on_c, 1, 60, 110
3, 951285, Note_off_c, 1, 54, 0
3, 951285, Note_off_c, 1, 60, 0
3, 951296, Note_on_c, 1, 54, 110
3, 951296, Note_on_c, 1, 62, 110
3, 951797, Note_off_c, 1, 54, 0
3, 951797, Note_off_c, 1, 62, 0
3, 951808, Note_on_c, 1, 54, 110
3, 951808, Note_on_c, 1, 60, 110
3, 952821, Note_off_c, 1, 54, 0
3, 952821, Note_off_c, 1, 60, 0
3, 952832, Note_on_c, 1, 50, 110
3, 952832, Note_on_c, 1, 57, 110
3, 953333, Note_off_c, 1, 50, 0
3, 953333, Note_off_c, 1, 57, 0
3, 953344, Note_on_c, 1, 48, 110
3, 953344, Note_on_c, 1, 54, 110
3, 953845, Note_off_c, 1, 48, 0
3, 953845, Note_off_c, 1, 54, 0
3, 953856, Note_on_c, 1, 45, 110
3, 953856, Note_on_c, 1, 50, 110
3, 954357, Note_off_c, 1, 45, 0
3, 954357, Note_off_c, 1, 50, 0
3, 954368, Note_on_c, 1, 45, 110
3, 954368, Note_on_c, 1, 50, 110
3, 954869, Note_off_c, 1, 45, 0
3, 954869, Note_off_c, 1, 50, 0
3, 954880, Note_on_c, 1, 47, 110
3, 954880, Note_on_c, 1, 52, 110
3, 955381, Note_off_c, 1, 47, 0
3, 955381, Note_off_c, 1, 52, 0
3, 955392, Note_on_c, 1, 49, 110
3, 955392, Note_on_c, 1, 53, 110
3, 955893, Note_off_c, 1, 49, 0
3, 955893, Note_off_c, 1, 53, 0
3, 955904, Note_on_c, 1, 50, 110
3, 955904, Note_on_c, 1, 54, 110
3, 958208, Note_off_c, 1, 50, 0
3, 958208, Note_off_c, 1, 54, 0
3, 959488, Note_on_c, 1, 57, 110
3, 960341, Note_off_c, 1, 57, 0
3, 961536, Note_on_c, 1, 57, 110
3, 962389, Note_off_c, 1, 57, 0
3, 963584, Note_on_c, 1, 57, 110
3, 964437, Note_off_c, 1, 57, 0
3, 964608, Note_on_c, 1, 59, 110
3, 965109, Note_off_c, 1, 59, 0
3, 965120, Note_on_c, 1, 59, 110
3, 965621, Note_off_c, 1, 59, 0
3, 965632, Note_on_c, 1, 60, 110
3, 966133, Note_off_c, 1, 60, 0
3, 966144, Note_on_c, 1, 60, 110
3, 966645, Note_off_c, 1, 60, 0
3, 966656, Note_on_c, 1, 57, 110
3, 967157, Note_off_c, 1, 57, 0
3, 967168, Note_on_c, 1, 50, 110
3, 967168, Note_on_c, 1, 54, 110
3, 967168, Note_on_c, 1, 57, 110
3, 967669, Note_off_c, 1, 50, 0
3, 967669, Note_off_c, 1, 54, 0
3, 967669, Note_off_c, 1, 57, 0
3, 967680, Note_on_c, 1, 50, 110
3, 968181, Note_off_c, 1, 50, 0
3, 968192, Note_on_c, 1, 50, 110
3, 968192, Note_on_c, 1, 54, 110
3, 968192, Note_on_c, 1, 57, 110
3, 968693, Note_off_c, 1, 50, 0
3, 968693, Note_off_c, 1, 54, 0
3, 968693, Note_off_c, 1, 57, 0
3, 968704, Note_on_c, 1, 50, 110
3, 968704, Note_on_c, 1, 54, 110
3, 968704, Note_on_c, 1, 57, 110
3, 969557, Note_off_c, 1, 50, 0
3, 969557, Note_off_c, 1, 54, 0
3, 969557, Note_off_c, 1, 57, 0
3, 969728, Note_on_c, 1, 50, 110
3, 970229, Note_off_c, 1, 50, 0
3, 970240, Note_on_c, 1, 57, 110
3, 970741, Note_off_c, 1, 57, 0
3, 970752, Note_on_c, 1, 57, 110
3, 971253, Note_off_c, 1, 57, 0
3, 971264, Note_on_c, 1, 50, 110
3, 971264, Note_on_c, 1, 54, 110
3, 971264, Note_on_c, 1, 57, 110
3, 971765, Note_off_c, 1, 50, 0
3, 971765, Note_off_c, 1, 54, 0
3, 971765, Note_off_c, 1, 57, 0
3, 971776, Note_on_c, 1, 50, 110
3, 972277, Note_off_c, 1, 50, 0
3, 972288, Note_on_c, 1, 50, 110
3, 972288, Note_on_c, 1, 54, 110
3, 972288, Note_on_c, 1, 57, 110
3, 972789, Note_off_c, 1, 50, 0
3, 972789, Note_off_c, 1, 54, 0
3, 972789, Note_off_c, 1, 57, 0
3, 972800, Note_on_c, 1, 50, 110
3, 972800, Note_on_c, 1, 54, 110
3, 972800, Note_on_c, 1, 57, 110
3, 973653, Note_off_c, 1, 50, 0
3, 973653, Note_off_c, 1, 54, 0
3, 973653, Note_off_c, 1, 57, 0
3, 973824, Note_on_c, 1, 50, 110
3, 973824, Note_on_c, 1, 54, 110
3, 973824, Note_on_c, 1, 57, 110
3, 974325, Note_off_c, 1, 50, 0
3, 974325, Note_off_c, 1, 54, 0
3, 974325, Note_off_c, 1, 57, 0
3, 974336, Note_on_c, 1, 48, 110
3, 974837, Note_off_c, 1, 48, 0
3, 974848, Note_on_c, 1, 43, 110
3, 975349, Note_off_c, 1, 43, 0
3, 975360, Note_on_c, 1, 50, 110
3, 975360, Note_on_c, 1, 55, 110
3, 975360, Note_on_c, 1, 59, 110
3, 975861, Note_off_c, 1, 50, 0
3, 975861, Note_off_c, 1, 55, 0
3, 975861, Note_off_c, 1, 59, 0
3, 975872, Note_on_c, 1, 38, 110
3, 976117, Note_off_c, 1, 38, 0
3, 976128, Note_on_c, 1, 50, 110
3, 976128, Note_on_c, 1, 55, 110
3, 976128, Note_on_c, 1, 59, 110
3, 976885, Note_off_c, 1, 50, 0
3, 976885, Note_off_c, 1, 55, 0
3, 976885, Note_off_c, 1, 59, 0
3, 976896, Note_on_c, 1, 43, 110
3, 976896, Note_on_c, 1, 50, 110
3, 976896, Note_on_c, 1, 55, 110
3, 976896, Note_on_c, 1, 59, 110
3, 977653, Note_off_c, 1, 43, 0
3, 977653, Note_off_c, 1, 50, 0
3, 977653, Note_off_c, 1, 55, 0
3, 977653, Note_off_c, 1, 59, 0
3, 977664, Note_on_c, 1, 50, 110
3, 977664, Note_on_c, 1, 55, 110
3, 977664, Note_on_c, 1, 59, 110
3, 977909, Note_off_c, 1, 50, 0
3, 977909, Note_off_c, 1, 55, 0
3, 977909, Note_off_c, 1, 59, 0
3, 977920, Note_on_c, 1, 38, 110
3, 978421, Note_off_c, 1, 38, 0
3, 978432, Note_on_c, 1, 50, 110
3, 978432, Note_on_c, 1, 55, 110
3, 978432, Note_on_c, 1, 59, 110
3, 978933, Note_off_c, 1, 50, 0
3, 978933, Note_off_c, 1, 55, 0
3, 978933, Note_off_c, 1, 59, 0
3, 978944, Note_on_c, 1, 44, 110
3, 979445, Note_off_c, 1, 44, 0
3, 979456, Note_on_c, 1, 52, 110
3, 979456, Note_on_c, 1, 56, 110
3, 979456, Note_on_c, 1, 59, 110
3, 979957, Note_off_c, 1, 52, 0
3, 979957, Note_off_c, 1, 56, 0
3, 979957, Note_off_c, 1, 59, 0
3, 979968, Note_on_c, 1, 38, 110
3, 980469, Note_off_c, 1, 38, 0
3, 980480, Note_on_c, 1, 52, 110
3, 980480, Note_on_c, 1, 56, 110
3, 980480, Note_on_c, 1, 59, 110
3, 980981, Note_off_c, 1, 52, 0
3, 980981, Note_off_c, 1, 56, 0
3, 980981, Note_off_c, 1, 59, 0
3, 980992, Note_on_c, 1, 44, 110
3, 980992, Note_on_c, 1, 52, 110
3, 980992, Note_on_c, 1, 56, 110
3, 980992, Note_on_c, 1, 59, 110
3, 981845, Note_off_c, 1, 44, 0
3, 981845, Note_off_c, 1, 52, 0
3, 981845, Note_off_c, 1, 56, 0
3, 981845, Note_off_c, 1, 59, 0
3, 982016, Note_on_c, 1, 38, 110
3, 982016, Note_on_c, 1, 52, 110
3, 982016, Note_on_c, 1, 56, 110
3, 982016, Note_on_c, 1, 59, 110
3, 982869, Note_off_c, 1, 38, 0
3, 982869, Note_off_c, 1, 52, 0
3, 982869, Note_off_c, 1, 56, 0
3, 982869, Note_off_c, 1, 59, 0
3, 983040, Note_on_c, 1, 45, 110
3, 983541, Note_off_c, 1, 45, 0
3, 983552, Note_on_c, 1, 50, 110
3, 983552, Note_on_c, 1, 54, 110
3, 983552, Note_on_c, 1, 57, 110
3, 984053, Note_off_c, 1, 50, 0
3, 984053, Note_off_c, 1, 54, 0
3, 984053, Note_off_c, 1, 57, 0
3, 984064, Note_on_c, 1, 38, 110
3, 984565, Note_off_c, 1, 38, 0
3, 984576, Note_on_c, 1, 50, 110
3, 984576, Note_on_c, 1, 54, 110
3, 984576, Note_on_c, 1, 57, 110
3, 985077, Note_off_c, 1, 50, 0
3, 985077, Note_off_c, 1, 54, 0
3, 985077, Note_off_c, 1, 57, 0
3, 985088, Note_on_c, 1, 45, 110
3, 985589, Note_off_c, 1, 45, 0
3, 985600, Note_on_c, 1, 50, 110
3, 985600, Note_on_c, 1, 54, 110
3, 985600, Note_on_c, 1, 57, 110
3, 986101, Note_off_c, 1, 50, 0
3, 986101, Note_off_c, 1, 54, 0
3, 986101, Note_off_c, 1, 57, 0
3, 986112, Note_on_c, 1, 45, 110
3, 986613, Note_off_c, 1, 45, 0
3, 986624, Note_on_c, 1, 50, 110
3, 986624, Note_on_c, 1, 54, 110
3, 986624, Note_on_c, 1, 57, 110
3, 987125, Note_off_c, 1, 50, 0
3, 987125, Note_off_c, 1, 54, 0
3, 987125, Note_off_c, 1, 57, 0
3, 987136, Note_on_c, 1, 45, 110
3, 987637, Note_off_c, 1, 45, 0
3, 987648, Note_on_c, 1, 50, 110
3, 987648, Note_on_c, 1, 54, 110
3, 987648, Note_on_c, 1, 57, 110
3, 988149, Note_off_c, 1, 50, 0
3, 988149, Note_off_c, 1, 54, 0
3, 988149, Note_off_c, 1, 57, 0
3, 988160, Note_on_c, 1, 38, 110
3, 988661, Note_off_c, 1, 38, 0
3, 988672, Note_on_c, 1, 50, 110
3, 988672, Note_on_c, 1, 54, 110
3, 988672, Note_on_c, 1, 57, 110
3, 989173, Note_off_c, 1, 50, 0
3, 989173, Note_off_c, 1, 54, 0
3, 989173, Note_off_c, 1, 57, 0
3, 989184, Note_on_c, 1, 45, 110
3, 989685, Note_off_c, 1, 45, 0
3, 989696, Note_on_c, 1, 50, 110
3, 989696, Note_on_c, 1, 54, 110
3, 989696, Note_on_c, 1, 57, 110
3, 990197, Note_off_c, 1, 50, 0
3, 990197, Note_off_c, 1, 54, 0
3, 990197, Note_off_c, 1, 57, 0
3, 990208, Note_on_c, 1, 45, 110
3, 990709, Note_off_c, 1, 45, 0
3, 990720, Note_on_c, 1, 50, 110
3, 990720, Note_on_c, 1, 54, 110
3, 990720, Note_on_c, 1, 57, 110
3, 991221, Note_off_c, 1, 50, 0
3, 991221, Note_off_c, 1, 54, 0
3, 991221, Note_off_c, 1, 57, 0
3, 991232, Note_on_c, 1, 45, 110
3, 991733, Note_off_c, 1, 45, 0
3, 991744, Note_on_c, 1, 50, 110
3, 991744, Note_on_c, 1, 54, 110
3, 991744, Note_on_c, 1, 57, 110
3, 992245, Note_off_c, 1, 50, 0
3, 992245, Note_off_c, 1, 54, 0
3, 992245, Note_off_c, 1, 57, 0
3, 992256, Note_on_c, 1, 38, 110
3, 992757, Note_off_c, 1, 38, 0
3, 992768, Note_on_c, 1, 50, 110
3, 992768, Note_on_c, 1, 54, 110
3, 992768, Note_on_c, 1, 57, 110
3, 993269, Note_off_c, 1, 50, 0
3, 993269, Note_off_c, 1, 54, 0
3, 993269, Note_off_c, 1, 57, 0
3, 993280, Note_on_c, 1, 45, 110
3, 993781, Note_off_c, 1, 45, 0
3, 993792, Note_on_c, 1, 50, 110
3, 993792, Note_on_c, 1, 54, 110
3, 993792, Note_on_c, 1, 57, 110
3, 994293, Note_off_c, 1, 50, 0
3, 994293, Note_off_c, 1, 54, 0
3, 994293, Note_off_c, 1, 57, 0
3, 994304, Note_on_c, 1, 45, 110
3, 994805, Note_off_c, 1, 45, 0
3, 994816, Note_on_c, 1, 50, 110
3, 994816, Note_on_c, 1, 54, 110
3, 994816, Note_on_c, 1, 57, 110
3, 995317, Note_off_c, 1, 50, 0
3, 995317, Note_off_c, 1, 54, 0
3, 995317, Note_off_c, 1, 57, 0
3, 995328, Note_on_c, 1, 52, 110
3, 995829, Note_off_c, 1, 52, 0
3, 995840, Note_on_c, 1, 49, 110
3, 995840, Note_on_c, 1, 52, 110
3, 995840, Note_on_c, 1, 57, 110
3, 996341, Note_off_c, 1, 49, 0
3, 996341, Note_off_c, 1, 52, 0
3, 996341, Note_off_c, 1, 57, 0
3, 996352, Note_on_c, 1, 45, 110
3, 996853, Note_off_c, 1, 45, 0
3, 996864, Note_on_c, 1, 49, 110
3, 996864, Note_on_c, 1, 52, 110
3, 996864, Note_on_c, 1, 57, 110
3, 997365, Note_off_c, 1, 49, 0
3, 997365, Note_off_c, 1, 52, 0
3, 997365, Note_off_c, 1, 57, 0
3, 997376, Note_on_c, 1, 49, 110
3, 997376, Note_on_c, 1, 52, 110
3, 997376, Note_on_c, 1, 57, 110
3, 998229, Note_off_c, 1, 49, 0
3, 998229, Note_off_c, 1, 52, 0
3, 998229, Note_off_c, 1, 57, 0
3, 998400, Note_on_c, 1, 49, 110
3, 998400, Note_on_c, 1, 52, 110
3, 998400, Note_on_c, 1, 57, 110
3, 998901, Note_off_c, 1, 49, 0
3, 998901, Note_off_c, 1, 52, 0
3, 998901, Note_off_c, 1, 57, 0
3, 998912, Note_on_c, 1, 49, 110
3, 998912, Note_on_c, 1, 52, 110
3, 998912, Note_on_c, 1, 57, 110
3, 999413, Note_off_c, 1, 49, 0
3, 999413, Note_off_c, 1, 52, 0
3, 999413, Note_off_c, 1, 57, 0
3, 999424, Note_on_c, 1, 54, 110
3, 999424, Note_on_c, 1, 57, 110
3, 999669, Note_off_c, 1, 54, 0
3, 999669, Note_off_c, 1, 57, 0
3, 999680, Note_on_c, 1, 50, 110
3, 999925, Note_off_c, 1, 50, 0
3, 999936, Note_on_c, 1, 54, 110
3, 1000181, Note_off_c, 1, 54, 0
3, 1000192, Note_on_c, 1, 50, 110
3, 1000437, Note_off_c, 1, 50, 0
3, 1000448, Note_on_c, 1, 50, 110
3, 1000448, Note_on_c, 1, 57, 110
3, 1000949, Note_off_c, 1, 50, 0
3, 1000949, Note_off_c, 1, 57, 0
3, 1000960, Note_on_c, 1, 50, 110
3, 1000960, Note_on_c, 1, 54, 110
3, 1000960, Note_on_c, 1, 57, 110
3, 1001461, Note_off_c, 1, 50, 0
3, 1001461, Note_off_c, 1, 54, 0
3, 1001461, Note_off_c, 1, 57, 0
3, 1001472, Note_on_c, 1, 57, 110
3, 1001973, Note_off_c, 1, 57, 0
3, 1001984, Note_on_c, 1, 50, 110
3, 1001984, Note_on_c, 1, 54, 110
3, 1001984, Note_on_c, 1, 57, 110
3, 1002485, Note_off_c, 1, 50, 0
3, 1002485, Note_off_c, 1, 54, 0
3, 1002485, Note_off_c, 1, 57, 0
3, 1002496, Note_on_c, 1, 50, 110
3, 1002997, Note_off_c, 1, 50, 0
3, 1003008, Note_on_c, 1, 50, 110
3, 1003008, Note_on_c, 1, 54, 110
3, 1003008, Note_on_c, 1, 57, 110
3, 1003509, Note_off_c, 1, 50, 0
3, 1003509, Note_off_c, 1, 54, 0
3, 1003509, Note_off_c, 1, 57, 0
3, 1003520, Note_on_c, 1, 54, 110
3, 1003520, Note_on_c, 1, 57, 110
3, 1003765, Note_off_c, 1, 54, 0
3, 1003765, Note_off_c, 1, 57, 0
3, 1003776, Note_on_c, 1, 50, 110
3, 1004021, Note_off_c, 1, 50, 0
3, 1004032, Note_on_c, 1, 54, 110
3, 1004277, Note_off_c, 1, 54, 0
3, 1004288, Note_on_c, 1, 50, 110
3, 1004533, Note_off_c, 1, 50, 0
3, 1004544, Note_on_c, 1, 50, 110
3, 1004544, Note_on_c, 1, 57, 110
3, 1005045, Note_off_c, 1, 50, 0
3, 1005045, Note_off_c, 1, 57, 0
3, 1005056, Note_on_c, 1, 50, 110
3, 1005056, Note_on_c, 1, 54, 110
3, 1005056, Note_on_c, 1, 57, 110
3, 1005557, Note_off_c, 1, 50, 0
3, 1005557, Note_off_c, 1, 54, 0
3, 1005557, Note_off_c, 1, 57, 0
3, 1005568, Note_on_c, 1, 57, 110
3, 1006069, Note_off_c, 1, 57, 0
3, 1006080, Note_on_c, 1, 50, 110
3, 1006080, Note_on_c, 1, 54, 110
3, 1006080, Note_on_c, 1, 57, 110
3, 1006581, Note_off_c, 1, 50, 0
3, 1006581, Note_off_c, 1, 54, 0
3, 1006581, Note_off_c, 1, 57, 0
3, 1006592, Note_on_c, 1, 50, 110
3, 1007093, Note_off_c, 1, 50, 0
3, 1007104, Note_on_c, 1, 50, 110
3, 1007104, Note_on_c, 1, 54, 110
3, 1007104, Note_on_c, 1, 57, 110
3, 1007605, Note_off_c, 1, 50, 0
3, 1007605, Note_off_c, 1, 54, 0
3, 1007605, Note_off_c, 1, 57, 0
3, 1007616, Note_on_c, 1, 56, 110
3, 1007616, Note_on_c, 1, 59, 110
3, 1007861, Note_off_c, 1, 56, 0
3, 1007861, Note_off_c, 1, 59, 0
3, 1007872, Note_on_c, 1, 52, 110
3, 1008117, Note_off_c, 1, 52, 0
3, 1008128, Note_on_c, 1, 56, 110
3, 1008373, Note_off_c, 1, 56, 0
3, 1008384, Note_on_c, 1, 52, 110
3, 1008629, Note_off_c, 1, 52, 0
3, 1008640, Note_on_c, 1, 52, 110
3, 1008640, Note_on_c, 1, 59, 110
3, 1009141, Note_off_c, 1, 52, 0
3, 1009141, Note_off_c, 1, 59, 0
3, 1009152, Note_on_c, 1, 52, 110
3, 1009152, Note_on_c, 1, 56, 110
3, 1009152, Note_on_c, 1, 59, 110
3, 1009653, Note_off_c, 1, 52, 0
3, 1009653, Note_off_c, 1, 56, 0
3, 1009653, Note_off_c, 1, 59, 0
3, 1009664, Note_on_c, 1, 59, 110
3, 1010165, Note_off_c, 1, 59, 0
3, 1010176, Note_on_c, 1, 52, 110
3, 1010176, Note_on_c, 1, 56, 110
3, 1010176, Note_on_c, 1, 59, 110
3, 1010677, Note_off_c, 1, 52, 0
3, 1010677, Note_off_c, 1, 56, 0
3, 1010677, Note_off_c, 1, 59, 0
3, 1010688, Note_on_c, 1, 52, 110
3, 1011189, Note_off_c, 1, 52, 0
3, 1011200, Note_on_c, 1, 52, 110
3, 1011200, Note_on_c, 1, 56, 110
3, 1011200, Note_on_c, 1, 59, 110
3, 1011701, Note_off_c, 1, 52, 0
3, 1011701, Note_off_c, 1, 56, 0
3, 1011701, Note_off_c, 1, 59, 0
3, 1011712, Note_on_c, 1, 56, 110
3, 1011712, Note_on_c, 1, 62, 110
3, 1011957, Note_off_c, 1, 56, 0
3, 1011957, Note_off_c, 1, 62, 0
3, 1011968, Note_on_c, 1, 52, 110
3, 1012213, Note_off_c, 1, 52, 0
3, 1012224, Note_on_c, 1, 56, 110
3, 1012469, Note_off_c, 1, 56, 0
3, 1012480, Note_on_c, 1, 52, 110
3, 1012725, Note_off_c, 1, 52, 0
3, 1012736, Note_on_c, 1, 52, 110
3, 1012736, Note_on_c, 1, 62, 110
3, 1013237, Note_off_c, 1, 52, 0
3, 1013237, Note_off_c, 1, 62, 0
3, 1013248, Note_on_c, 1, 52, 110
3, 1013248, Note_on_c, 1, 56, 110
3, 1013248, Note_on_c, 1, 62, 110
3, 1013749, Note_off_c, 1, 52, 0
3, 1013749, Note_off_c, 1, 56, 0
3, 1013749, Note_off_c, 1, 62, 0
3, 1013760, Note_on_c, 1, 62, 110
3, 1014261, Note_off_c, 1, 62, 0
3, 1014272, Note_on_c, 1, 52, 110
3, 1014272, Note_on_c, 1, 56, 110
3, 1014272, Note_on_c, 1, 62, 110
3, 1014773, Note_off_c, 1, 52, 0
3, 1014773, Note_off_c, 1, 56, 0
3, 1014773, Note_off_c, 1, 62, 0
3, 1014784, Note_on_c, 1, 52, 110
3, 1015285, Note_off_c, 1, 52, 0
3, 1015296, Note_on_c, 1, 52, 110
3, 1015296, Note_on_c, 1, 56, 110
3, 1015296, Note_on_c, 1, 62, 110
3, 1015797, Note_off_c, 1, 52, 0
3, 1015797, Note_off_c, 1, 56, 0
3, 1015797, Note_off_c, 1, 62, 0
3, 1015808, Note_on_c, 1, 50, 110
3, 1015808, Note_on_c, 1, 54, 110
3, 1015808, Note_on_c, 1, 57, 110
3, 1016661, Note_off_c, 1, 50, 0
3, 1016661, Note_off_c, 1, 54, 0
3, 1016661, Note_off_c, 1, 57, 0
3, 1016832, Note_on_c, 1, 50, 110
3, 1016832, Note_on_c, 1, 54, 110
3, 1016832, Note_on_c, 1, 57, 110
3, 1017685, Note_off_c, 1, 50, 0
3, 1017685, Note_off_c, 1, 54, 0
3, 1017685, Note_off_c, 1, 57, 0
3, 1017856, Note_on_c, 1, 53, 110
3, 1018357, Note_off_c, 1, 53, 0
3, 1018368, Note_on_c, 1, 50, 110
3, 1018368, Note_on_c, 1, 53, 110
3, 1018368, Note_on_c, 1, 57, 110
3, 1018869, Note_off_c, 1, 50, 0
3, 1018869, Note_off_c, 1, 53, 0
3, 1018869, Note_off_c, 1, 57, 0
3, 1018880, Note_on_c, 1, 53, 110
3, 1019381, Note_off_c, 1, 53, 0
3, 1019392, Note_on_c, 1, 50, 110
3, 1019392, Note_on_c, 1, 53, 110
3, 1019392, Note_on_c, 1, 57, 110
3, 1019893, Note_off_c, 1, 50, 0
3, 1019893, Note_off_c, 1, 53, 0
3, 1019893, Note_off_c, 1, 57, 0
3, 1019904, Note_on_c, 1, 52, 110
3, 1020405, Note_off_c, 1, 52, 0
3, 1020416, Note_on_c, 1, 50, 110
3, 1020416, Note_on_c, 1, 57, 110
3, 1020416, Note_on_c, 1, 59, 110
3, 1020917, Note_off_c, 1, 50, 0
3, 1020917, Note_off_c, 1, 57, 0
3, 1020917, Note_off_c, 1, 59, 0
3, 1020928, Note_on_c, 1, 52, 110
3, 1021429, Note_off_c, 1, 52, 0
3, 1021440, Note_on_c, 1, 50, 110
3, 1021440, Note_on_c, 1, 57, 110
3, 1021440, Note_on_c, 1, 59, 110
3, 1021941, Note_off_c, 1, 50, 0
3, 1021941, Note_off_c, 1, 57, 0
3, 1021941, Note_off_c, 1, 59, 0
3, 1021952, Note_on_c, 1, 51, 110
3, 1022453, Note_off_c, 1, 51, 0
3, 1022464, Note_on_c, 1, 52, 110
3, 1022464, Note_on_c, 1, 57, 110
3, 1022464, Note_on_c, 1, 59, 110
3, 1022965, Note_off_c, 1, 52, 0
3, 1022965, Note_off_c, 1, 57, 0
3, 1022965, Note_off_c, 1, 59, 0
3, 1022976, Note_on_c, 1, 51, 110
3, 1023829, Note_off_c, 1, 51, 0
3, 1024000, Note_on_c, 1, 50, 110
3, 1024000, Note_on_c, 1, 54, 110
3, 1024000, Note_on_c, 1, 57, 110
3, 1024853, Note_off_c, 1, 50, 0
3, 1024853, Note_off_c, 1, 54, 0
3, 1024853, Note_off_c, 1, 57, 0
3, 1025024, Note_on_c, 1, 50, 110
3, 1025024, Note_on_c, 1, 54, 110
3, 1025024, Note_on_c, 1, 57, 110
3, 1025877, Note_off_c, 1, 50, 0
3, 1025877, Note_off_c, 1, 54, 0
3, 1025877, Note_off_c, 1, 57, 0
3, 1026048, Note_on_c, 1, 47, 110
3, 1026549, Note_off_c, 1, 47, 0
3, 1026560, Note_on_c, 1, 50, 110
3, 1026560, Note_on_c, 1, 54, 110
3, 1026560, Note_on_c, 1, 57, 110
3, 1027061, Note_off_c, 1, 50, 0
3, 1027061, Note_off_c, 1, 54, 0
3, 1027061, Note_off_c, 1, 57, 0
3, 1027072, Note_on_c, 1, 47, 110
3, 1027573, Note_off_c, 1, 47, 0
3, 1027584, Note_on_c, 1, 50, 110
3, 1027584, Note_on_c, 1, 54, 110
3, 1027584, Note_on_c, 1, 57, 110
3, 1028085, Note_off_c, 1, 50, 0
3, 1028085, Note_off_c, 1, 54, 0
3, 1028085, Note_off_c, 1, 57, 0
3, 1028096, Note_on_c, 1, 46, 110
3, 1028597, Note_off_c, 1, 46, 0
3, 1028608, Note_on_c, 1, 50, 110
3, 1028608, Note_on_c, 1, 53, 110
3, 1028608, Note_on_c, 1, 57, 110
3, 1029109, Note_off_c, 1, 50, 0
3, 1029109, Note_off_c, 1, 53, 0
3, 1029109, Note_off_c, 1, 57, 0
3, 1029120, Note_on_c, 1, 46, 110
3, 1029621, Note_off_c, 1, 46, 0
3, 1029632, Note_on_c, 1, 50, 110
3, 1029632, Note_on_c, 1, 53, 110
3, 1029632, Note_on_c, 1, 57, 110
3, 1030133, Note_off_c, 1, 50, 0
3, 1030133, Note_off_c, 1, 53, 0
3, 1030133, Note_off_c, 1, 57, 0
3, 1030144, Note_on_c, 1, 51, 110
3, 1030645, Note_off_c, 1, 51, 0
3, 1030656, Note_on_c, 1, 50, 110
3, 1030656, Note_on_c, 1, 53, 110
3, 1030656, Note_on_c, 1, 57, 110
3, 1031157, Note_off_c, 1, 50, 0
3, 1031157, Note_off_c, 1, 53, 0
3, 1031157, Note_off_c, 1, 57, 0
3, 1031168, Note_on_c, 1, 51, 110
3, 1032021, Note_off_c, 1, 51, 0
3, 1032192, Note_on_c, 1, 57, 110
3, 1032693, Note_off_c, 1, 57, 0
3, 1032704, Note_on_c, 1, 50, 110
3, 1032704, Note_on_c, 1, 54, 110
3, 1032704, Note_on_c, 1, 57, 110
3, 1033205, Note_off_c, 1, 50, 0
3, 1033205, Note_off_c, 1, 54, 0
3, 1033205, Note_off_c, 1, 57, 0
3, 1033216, Note_on_c, 1, 50, 110
3, 1033717, Note_off_c, 1, 50, 0
3, 1033728, Note_on_c, 1, 50, 110
3, 1033728, Note_on_c, 1, 54, 110
3, 1033728, Note_on_c, 1, 57, 110
3, 1034229, Note_off_c, 1, 50, 0
3, 1034229, Note_off_c, 1, 54, 0
3, 1034229, Note_off_c, 1, 57, 0
3, 1034240, Note_on_c, 1, 50, 110
3, 1034240, Note_on_c, 1, 54, 110
3, 1034240, Note_on_c, 1, 57, 110
3, 1035093, Note_off_c, 1, 50, 0
3, 1035093, Note_off_c, 1, 54, 0
3, 1035093, Note_off_c, 1, 57, 0
3, 1035264, Note_on_c, 1, 50, 110
3, 1035765, Note_off_c, 1, 50, 0
3, 1035776, Note_on_c, 1, 57, 110
3, 1036277, Note_off_c, 1, 57, 0
3, 1036288, Note_on_c, 1, 57, 110
3, 1036789, Note_off_c, 1, 57, 0
3, 1036800, Note_on_c, 1, 50, 110
3, 1036800, Note_on_c, 1, 54, 110
3, 1036800, Note_on_c, 1, 57, 110
3, 1037301, Note_off_c, 1, 50, 0
3, 1037301, Note_off_c, 1, 54, 0
3, 1037301, Note_off_c, 1, 57, 0
3, 1037312, Note_on_c, 1, 50, 110
3, 1037813, Note_off_c, 1, 50, 0
3, 1037824, Note_on_c, 1, 50, 110
3, 1037824, Note_on_c, 1, 54, 110
3, 1037824, Note_on_c, 1, 57, 110
3, 1038325, Note_off_c, 1, 50, 0
3, 1038325, Note_off_c, 1, 54, 0
3, 1038325, Note_off_c, 1, 57, 0
3, 1038336, Note_on_c, 1, 50, 110
3, 1038336, Note_on_c, 1, 54, 110
3, 1038336, Note_on_c, 1, 57, 110
3, 1039189, Note_off_c, 1, 50, 0
3, 1039189, Note_off_c, 1, 54, 0
3, 1039189, Note_off_c, 1, 57, 0
3, 1039360, Note_on_c, 1, 50, 110
3, 1039360, Note_on_c, 1, 54, 110
3, 1039360, Note_on_c, 1, 57, 110
3, 1039861, Note_off_c, 1, 50, 0
3, 1039861, Note_off_c, 1, 54, 0
3, 1039861, Note_off_c, 1, 57, 0
3, 1039872, Note_on_c, 1, 48, 110
3, 1040373, Note_off_c, 1, 48, 0
3, 1040384, Note_on_c, 1, 43, 110
3, 1040885, Note_off_c, 1, 43, 0
3, 1040896, Note_on_c, 1, 50, 110
3, 1040896, Note_on_c, 1, 55, 110
3, 1040896, Note_on_c, 1, 59, 110
3, 1041397, Note_off_c, 1, 50, 0
3, 1041397, Note_off_c, 1, 55, 0
3, 1041397, Note_off_c, 1, 59, 0
3, 1041408, Note_on_c, 1, 38, 110
3, 1041653, Note_off_c, 1, 38, 0
3, 1041664, Note_on_c, 1, 50, 110
3, 1041664, Note_on_c, 1, 55, 110
3, 1041664, Note_on_c, 1, 59, 110
3, 1042421, Note_off_c, 1, 50, 0
3, 1042421, Note_off_c, 1, 55, 0
3, 1042421, Note_off_c, 1, 59, 0
3, 1042432, Note_on_c, 1, 43, 110
3, 1042432, Note_on_c, 1, 50, 110
3, 1042432, Note_on_c, 1, 55, 110
3, 1042432, Note_on_c, 1, 59, 110
3, 1043189, Note_off_c, 1, 43, 0
3, 1043189, Note_off_c, 1, 50, 0
3, 1043189, Note_off_c, 1, 55, 0
3, 1043189, Note_off_c, 1, 59, 0
3, 1043200, Note_on_c, 1, 50, 110
3, 1043200, Note_on_c, 1, 55, 110
3, 1043200, Note_on_c, 1, 59, 110
3, 1043445, Note_off_c, 1, 50, 0
3, 1043445, Note_off_c, 1, 55, 0
3, 1043445, Note_off_c, 1, 59, 0
3, 1043456, Note_on_c, 1, 38, 110
3, 1043957, Note_off_c, 1, 38, 0
3, 1043968, Note_on_c, 1, 50, 110
3, 1043968, Note_on_c, 1, 55, 110
3, 1043968, Note_on_c, 1, 59, 110
3, 1044469, Note_off_c, 1, 50, 0
3, 1044469, Note_off_c, 1, 55, 0
3, 1044469, Note_off_c, 1, 59, 0
3, 1044480, Note_on_c, 1, 44, 110
3, 1044981, Note_off_c, 1, 44, 0
3, 1044992, Note_on_c, 1, 52, 110
3, 1044992, Note_on_c, 1, 56, 110
3, 1044992, Note_on_c, 1, 59, 110
3, 1045493, Note_off_c, 1, 52, 0
3, 1045493, Note_off_c, 1, 56, 0
3, 1045493, Note_off_c, 1, 59, 0
3, 1045504, Note_on_c, 1, 38, 110
3, 1046005, Note_off_c, 1, 38, 0
3, 1046016, Note_on_c, 1, 52, 110
3, 1046016, Note_on_c, 1, 56, 110
3, 1046016, Note_on_c, 1, 59, 110
3, 1046517, Note_off_c, 1, 52, 0
3, 1046517, Note_off_c, 1, 56, 0
3, 1046517, Note_off_c, 1, 59, 0
3, 1046528, Note_on_c, 1, 44, 110
3, 1046528, Note_on_c, 1, 52, 110
3, 1046528, Note_on_c, 1, 56, 110
3, 1046528, Note_on_c, 1, 59, 110
3, 1047381, Note_off_c, 1, 44, 0
3, 1047381, Note_off_c, 1, 52, 0
3, 1047381, Note_off_c, 1, 56, 0
3, 1047381, Note_off_c, 1, 59, 0
3, 1047552, Note_on_c, 1, 38, 110
3, 1047552, Note_on_c, 1, 52, 110
3, 1047552, Note_on_c, 1, 56, 110
3, 1047552, Note_on_c, 1, 59, 110
3, 1048405, Note_off_c, 1, 38, 0
3, 1048405, Note_off_c, 1, 52, 0
3, 1048405, Note_off_c, 1, 56, 0
3, 1048405, Note_off_c, 1, 59, 0
3, 1048576, Note_on_c, 1, 45, 110
3, 1049077, Note_off_c, 1, 45, 0
3, 1049088, Note_on_c, 1, 50, 110
3, 1049088, Note_on_c, 1, 54, 110
3, 1049088, Note_on_c, 1, 57, 110
3, 1049589, Note_off_c, 1, 50, 0
3, 1049589, Note_off_c, 1, 54, 0
3, 1049589, Note_off_c, 1, 57, 0
3, 1049600, Note_on_c, 1, 38, 110
3, 1050101, Note_off_c, 1, 38, 0
3, 1050112, Note_on_c, 1, 50, 110
3, 1050112, Note_on_c, 1, 54, 110
3, 1050112, Note_on_c, 1, 57, 110
3, 1050613, Note_off_c, 1, 50, 0
3, 1050613, Note_off_c, 1, 54, 0
3, 1050613, Note_off_c, 1, 57, 0
3, 1050624, Note_on_c, 1, 45, 110
3, 1051125, Note_off_c, 1, 45, 0
3, 1051136, Note_on_c, 1, 50, 110
3, 1051136, Note_on_c, 1, 54, 110
3, 1051136, Note_on_c, 1, 57, 110
3, 1051637, Note_off_c, 1, 50, 0
3, 1051637, Note_off_c, 1, 54, 0
3, 1051637, Note_off_c, 1, 57, 0
3, 1051648, Note_on_c, 1, 45, 110
3, 1052149, Note_off_c, 1, 45, 0
3, 1052160, Note_on_c, 1, 50, 110
3, 1052160, Note_on_c, 1, 54, 110
3, 1052160, Note_on_c, 1, 57, 110
3, 1052661, Note_off_c, 1, 50, 0
3, 1052661, Note_off_c, 1, 54, 0
3, 1052661, Note_off_c, 1, 57, 0
3, 1052672, Note_on_c, 1, 45, 110
3, 1053173, Note_off_c, 1, 45, 0
3, 1053184, Note_on_c, 1, 50, 110
3, 1053184, Note_on_c, 1, 54, 110
3, 1053184, Note_on_c, 1, 57, 110
3, 1053685, Note_off_c, 1, 50, 0
3, 1053685, Note_off_c, 1, 54, 0
3, 1053685, Note_off_c, 1, 57, 0
3, 1053696, Note_on_c, 1, 38, 110
3, 1054197, Note_off_c, 1, 38, 0
3, 1054208, Note_on_c, 1, 50, 110
3, 1054208, Note_on_c, 1, 54, 110
3, 1054208, Note_on_c, 1, 57, 110
3, 1054709, Note_off_c, 1, 50, 0
3, 1054709, Note_off_c, 1, 54, 0
3, 1054709, Note_off_c, 1, 57, 0
3, 1054720, Note_on_c, 1, 45, 110
3, 1055221, Note_off_c, 1, 45, 0
3, 1055232, Note_on_c, 1, 50, 110
3, 1055232, Note_on_c, 1, 54, 110
3, 1055232, Note_on_c, 1, 57, 110
3, 1055733, Note_off_c, 1, 50, 0
3, 1055733, Note_off_c, 1, 54, 0
3, 1055733, Note_off_c, 1, 57, 0
3, 1055744, Note_on_c, 1, 45, 110
3, 1056245, Note_off_c, 1, 45, 0
3, 1056256, Note_on_c, 1, 50, 110
3, 1056256, Note_on_c, 1, 54, 110
3, 1056256, Note_on_c, 1, 57, 110
3, 1056757, Note_off_c, 1, 50, 0
3, 1056757, Note_off_c, 1, 54, 0
3, 1056757, Note_off_c, 1, 57, 0
3, 1056768, Note_on_c, 1, 45, 110
3, 1057269, Note_off_c, 1, 45, 0
3, 1057280, Note_on_c, 1, 50, 110
3, 1057280, Note_on_c, 1, 54, 110
3, 1057280, Note_on_c, 1, 57, 110
3, 1057781, Note_off_c, 1, 50, 0
3, 1057781, Note_off_c, 1, 54, 0
3, 1057781, Note_off_c, 1, 57, 0
3, 1057792, Note_on_c, 1, 38, 110
3, 1058293, Note_off_c, 1, 38, 0
3, 1058304, Note_on_c, 1, 50, 110
3, 1058304, Note_on_c, 1, 54, 110
3, 1058304, Note_on_c, 1, 57, 110
3, 1058805, Note_off_c, 1, 50, 0
3, 1058805, Note_off_c, 1, 54, 0
3, 1058805, Note_off_c, 1, 57, 0
3, 1058816, Note_on_c, 1, 45, 110
3, 1059317, Note_off_c, 1, 45, 0
3, 1059328, Note_on_c, 1, 50, 110
3, 1059328, Note_on_c, 1, 54, 110
3, 1059328, Note_on_c, 1, 57, 110
3, 1059829, Note_off_c, 1, 50, 0
3, 1059829, Note_off_c, 1, 54, 0
3, 1059829, Note_off_c, 1, 57, 0
3, 1059840, Note_on_c, 1, 45, 110
3, 1060341, Note_off_c, 1, 45, 0
3, 1060352, Note_on_c, 1, 50, 110
3, 1060352, Note_on_c, 1, 54, 110
3, 1060352, Note_on_c, 1, 57, 110
3, 1060853, Note_off_c, 1, 50, 0
3, 1060853, Note_off_c, 1, 54, 0
3, 1060853, Note_off_c, 1, 57, 0
3, 1060864, Note_on_c, 1, 52, 110
3, 1061365, Note_off_c, 1, 52, 0
3, 1061376, Note_on_c, 1, 49, 110
3, 1061376, Note_on_c, 1, 52, 110
3, 1061376, Note_on_c, 1, 57, 110
3, 1061877, Note_off_c, 1, 49, 0
3, 1061877, Note_off_c, 1, 52, 0
3, 1061877, Note_off_c, 1, 57, 0
3, 1061888, Note_on_c, 1, 45, 110
3, 1062389, Note_off_c, 1, 45, 0
3, 1062400, Note_on_c, 1, 49, 110
3, 1062400, Note_on_c, 1, 52, 110
3, 1062400, Note_on_c, 1, 57, 110
3, 1062901, Note_off_c, 1, 49, 0
3, 1062901, Note_off_c, 1, 52, 0
3, 1062901, Note_off_c, 1, 57, 0
3, 1062912, Note_on_c, 1, 49, 110
3, 1062912, Note_on_c, 1, 52, 110
3, 1062912, Note_on_c, 1, 57, 110
3, 1063765, Note_off_c, 1, 49, 0
3, 1063765, Note_off_c, 1, 52, 0
3, 1063765, Note_off_c, 1, 57, 0
3, 1063936, Note_on_c, 1, 49, 110
3, 1063936, Note_on_c, 1, 52, 110
3, 1063936, Note_on_c, 1, 57, 110
3, 1064437, Note_off_c, 1, 49, 0
3, 1064437, Note_off_c, 1, 52, 0
3, 1064437, Note_off_c, 1, 57, 0
3, 1064448, Note_on_c, 1, 49, 110
3, 1064448, Note_on_c, 1, 52, 110
3, 1064448, Note_on_c, 1, 57, 110
3, 1064949, Note_off_c, 1, 49, 0
3, 1064949, Note_off_c, 1, 52, 0
3, 1064949, Note_off_c, 1, 57, 0
3, 1064960, Note_on_c, 1, 54, 110
3, 1064960, Note_on_c, 1, 57, 110
3, 1065205, Note_off_c, 1, 54, 0
3, 1065205, Note_off_c, 1, 57, 0
3, 1065216, Note_on_c, 1, 50, 110
3, 1065461, Note_off_c, 1, 50, 0
3, 1065472, Note_on_c, 1, 54, 110
3, 1065717, Note_off_c, 1, 54, 0
3, 1065728, Note_on_c, 1, 50, 110
3, 1065973, Note_off_c, 1, 50, 0
3, 1065984, Note_on_c, 1, 50, 110
3, 1065984, Note_on_c, 1, 57, 110
3, 1066485, Note_off_c, 1, 50, 0
3, 1066485, Note_off_c, 1, 57, 0
3, 1066496, Note_on_c, 1, 50, 110
3, 1066496, Note_on_c, 1, 54, 110
3, 1066496, Note_on_c, 1, 57, 110
3, 1066997, Note_off_c, 1, 50, 0
3, 1066997, Note_off_c, 1, 54, 0
3, 1066997, Note_off_c, 1, 57, 0
3, 1067008, Note_on_c, 1, 57, 110
3, 1067509, Note_off_c, 1, 57, 0
3, 1067520, Note_on_c, 1, 50, 110
3, 1067520, Note_on_c, 1, 54, 110
3, 1067520, Note_on_c, 1, 57, 110
3, 1068021, Note_off_c, 1, 50, 0
3, 1068021, Note_off_c, 1, 54, 0
3, 1068021, Note_off_c, 1, 57, 0
3, 1068032, Note_on_c, 1, 50, 110
3, 1068533, Note_off_c, 1, 50, 0
3, 1068544, Note_on_c, 1, 50, 110
3, 1068544, Note_on_c, 1, 54, 110
3, 1068544, Note_on_c, 1, 57, 110
3, 1069045, Note_off_c, 1, 50, 0
3, 1069045, Note_off_c, 1, 54, 0
3, 1069045, Note_off_c, 1, 57, 0
3, 1069056, Note_on_c, 1, 54, 110
3, 1069056, Note_on_c, 1, 57, 110
3, 1069301, Note_off_c, 1, 54, 0
3, 1069301, Note_off_c, 1, 57, 0
3, 1069312, Note_on_c, 1, 50, 110
3, 1069557, Note_off_c, 1, 50, 0
3, 1069568, Note_on_c, 1, 54, 110
3, 1069813, Note_off_c, 1, 54, 0
3, 1069824, Note_on_c, 1, 50, 110
3, 1070069, Note_off_c, 1, 50, 0
3, 1070080, Note_on_c, 1, 50, 110
3, 1070080, Note_on_c, 1, 57, 110
3, 1070581, Note_off_c, 1, 50, 0
3, 1070581, Note_off_c, 1, 57, 0
3, 1070592, Note_on_c, 1, 50, 110
3, 1070592, Note_on_c, 1, 54, 110
3, 1070592, Note_on_c, 1, 57, 110
3, 1071093, Note_off_c, 1, 50, 0
3, 1071093, Note_off_c, 1, 54, 0
3, 1071093, Note_off_c, 1, 57, 0
3, 1071104, Note_on_c, 1, 57, 110
3, 1071605, Note_off_c, 1, 57, 0
3, 1071616, Note_on_c, 1, 50, 110
3, 1071616, Note_on_c, 1, 54, 110
3, 1071616, Note_on_c, 1, 57, 110
3, 1072117, Note_off_c, 1, 50, 0
3, 1072117, Note_off_c, 1, 54, 0
3, 1072117, Note_off_c, 1, 57, 0
3, 1072128, Note_on_c, 1, 50, 110
3, 1072629, Note_off_c, 1, 50, 0
3, 1072640, Note_on_c, 1, 50, 110
3, 1072640, Note_on_c, 1, 54, 110
3, 1072640, Note_on_c, 1, 57, 110
3, 1073141, Note_off_c, 1, 50, 0
3, 1073141, Note_off_c, 1, 54, 0
3, 1073141, Note_off_c, 1, 57, 0
3, 1073152, Note_on_c, 1, 56, 110
3, 1073152, Note_on_c, 1, 59, 110
3, 1073397, Note_off_c, 1, 56, 0
3, 1073397, Note_off_c, 1, 59, 0
3, 1073408, Note_on_c, 1, 52, 110
3, 1073653, Note_off_c, 1, 52, 0
3, 1073664, Note_on_c, 1, 56, 110
3, 1073909, Note_off_c, 1, 56, 0
3, 1073920, Note_on_c, 1, 52, 110
3, 1074165, Note_off_c, 1, 52, 0
3, 1074176, Note_on_c, 1, 52, 110
3, 1074176, Note_on_c, 1, 59, 110
3, 1074677, Note_off_c, 1, 52, 0
3, 1074677, Note_off_c, 1, 59, 0
3, 1074688, Note_on_c, 1, 52, 110
3, 1074688, Note_on_c, 1, 56, 110
3, 1074688, Note_on_c, 1, 59, 110
3, 1075189, Note_off_c, 1, 52, 0
3, 1075189, Note_off_c, 1, 56, 0
3, 1075189, Note_off_c, 1, 59, 0
3, 1075200, Note_on_c, 1, 59, 110
3, 1075701, Note_off_c, 1, 59, 0
3, 1075712, Note_on_c, 1, 52, 110
3, 1075712, Note_on_c, 1, 56, 110
3, 1075712, Note_on_c, 1, 59, 110
3, 1076213, Note_off_c, 1, 52, 0
3, 1076213, Note_off_c, 1, 56, 0
3, 1076213, Note_off_c, 1, 59, 0
3, 1076224, Note_on_c, 1, 52, 110
3, 1076725, Note_off_c, 1, 52, 0
3, 1076736, Note_on_c, 1, 52, 110
3, 1076736, Note_on_c, 1, 56, 110
3, 1076736, Note_on_c, 1, 59, 110
3, 1077237, Note_off_c, 1, 52, 0
3, 1077237, Note_off_c, 1, 56, 0
3, 1077237, Note_off_c, 1, 59, 0
3, 1077248, Note_on_c, 1, 56, 110
3, 1077248, Note_on_c, 1, 62, 110
3, 1077493, Note_off_c, 1, 56, 0
3, 1077493, Note_off_c, 1, 62, 0
3, 1077504, Note_on_c, 1, 52, 110
3, 1077749, Note_off_c, 1, 52, 0
3, 1077760, Note_on_c, 1, 56, 110
3, 1078005, Note_off_c, 1, 56, 0
3, 1078016, Note_on_c, 1, 52, 110
3, 1078261, Note_off_c, 1, 52, 0
3, 1078272, Note_on_c, 1, 52, 110
3, 1078272, Note_on_c, 1, 62, 110
3, 1078773, Note_off_c, 1, 52, 0
3, 1078773, Note_off_c, 1, 62, 0
3, 1078784, Note_on_c, 1, 52, 110
3, 1078784, Note_on_c, 1, 56, 110
3, 1078784, Note_on_c, 1, 62, 110
3, 1079285, Note_off_c, 1, 52, 0
3, 1079285, Note_off_c, 1, 56, 0
3, 1079285, Note_off_c, 1, 62, 0
3, 1079296, Note_on_c, 1, 62, 110
3, 1079797, Note_off_c, 1, 62, 0
3, 1079808, Note_on_c, 1, 52, 110
3, 1079808, Note_on_c, 1, 56, 110
3, 1079808, Note_on_c, 1, 62, 110
3, 1080309, Note_off_c, 1, 52, 0
3, 1080309, Note_off_c, 1, 56, 0
3, 1080309, Note_off_c, 1, 62, 0
3, 1080320, Note_on_c, 1, 52, 110
3, 1080821, Note_off_c, 1, 52, 0
3, 1080832, Note_on_c, 1, 52, 110
3, 1080832, Note_on_c, 1, 56, 110
3, 1080832, Note_on_c, 1, 62, 110
3, 1081333, Note_off_c, 1, 52, 0
3, 1081333, Note_off_c, 1, 56, 0
3, 1081333, Note_off_c, 1, 62, 0
3, 1081344, Note_on_c, 1, 50, 110
3, 1081344, Note_on_c, 1, 54, 110
3, 1081344, Note_on_c, 1, 57, 110
3, 1082197, Note_off_c, 1, 50, 0
3, 1082197, Note_off_c, 1, 54, 0
3, 1082197, Note_off_c, 1, 57, 0
3, 1082368, Note_on_c, 1, 50, 110
3, 1082368, Note_on_c, 1, 54, 110
3, 1082368, Note_on_c, 1, 57, 110
3, 1083221, Note_off_c, 1, 50, 0
3, 1083221, Note_off_c, 1, 54, 0
3, 1083221, Note_off_c, 1, 57, 0
3, 1083392, Note_on_c, 1, 53, 110
3, 1083893, Note_off_c, 1, 53, 0
3, 1083904, Note_on_c, 1, 50, 110
3, 1083904, Note_on_c, 1, 53, 110
3, 1083904, Note_on_c, 1, 57, 110
3, 1084405, Note_off_c, 1, 50, 0
3, 1084405, Note_off_c, 1, 53, 0
3, 1084405, Note_off_c, 1, 57, 0
3, 1084416, Note_on_c, 1, 53, 110
3, 1084917, Note_off_c, 1, 53, 0
3, 1084928, Note_on_c, 1, 50, 110
3, 1084928, Note_on_c, 1, 53, 110
3, 1084928, Note_on_c, 1, 57, 110
3, 1085429, Note_off_c, 1, 50, 0
3, 1085429, Note_off_c, 1, 53, 0
3, 1085429, Note_off_c, 1, 57, 0
3, 1085440, Note_on_c, 1, 52, 110
3, 1085941, Note_off_c, 1, 52, 0
3, 1085952, Note_on_c, 1, 50, 110
3, 1085952, Note_on_c, 1, 57, 110
3, 1085952, Note_on_c, 1, 59, 110
3, 1086453, Note_off_c, 1, 50, 0
3, 1086453, Note_off_c, 1, 57, 0
3, 1086453, Note_off_c, 1, 59, 0
3, 1086464, Note_on_c, 1, 52, 110
3, 1086965, Note_off_c, 1, 52, 0
3, 1086976, Note_on_c, 1, 50, 110
3, 1086976, Note_on_c, 1, 57, 110
3, 1086976, Note_on_c, 1, 59, 110
3, 1087477, Note_off_c, 1, 50, 0
3, 1087477, Note_off_c, 1, 57, 0
3, 1087477, Note_off_c, 1, 59, 0
3, 1087488, Note_on_c, 1, 51, 110
3, 1087989, Note_off_c, 1, 51, 0
3, 1088000, Note_on_c, 1, 52, 110
3, 1088000, Note_on_c, 1, 57, 110
3, 1088000, Note_on_c, 1, 59, 110
3, 1088501, Note_off_c, 1, 52, 0
3, 1088501, Note_off_c, 1, 57, 0
3, 1088501, Note_off_c, 1, 59, 0
3, 1088512, Note_on_c, 1, 51, 110
3, 1089365, Note_off_c, 1, 51, 0
3, 1089536, Note_on_c, 1, 50, 110
3, 1089536, Note_on_c, 1, 54, 110
3, 1089536, Note_on_c, 1, 57, 110
3, 1090389, Note_off_c, 1, 50, 0
3, 1090389, Note_off_c, 1, 54, 0
3, 1090389, Note_off_c, 1, 57, 0
3, 1090560, Note_on_c, 1, 47, 110
3, 1090560, Note_on_c, 1, 50, 110
3, 1090560, Note_on_c, 1, 54, 110
3, 1090560, Note_on_c, 1, 57, 110
3, 1091061, Note_off_c, 1, 47, 0
3, 1091061, Note_off_c, 1, 50, 0
3, 1091061, Note_off_c, 1, 54, 0
3, 1091061, Note_off_c, 1, 57, 0
3, 1091072, Note_on_c, 1, 49, 110
3, 1091573, Note_off_c, 1, 49, 0
3, 1091584, Note_on_c, 1, 50, 110
3, 1092085, Note_off_c, 1, 50, 0
3, 1092096, Note_on_c, 1, 50, 110
3, 1092096, Note_on_c, 1, 54, 110
3, 1092096, Note_on_c, 1, 57, 110
3, 1092597, Note_off_c, 1, 50, 0
3, 1092597, Note_off_c, 1, 54, 0
3, 1092597, Note_off_c, 1, 57, 0
3, 1092608, Note_on_c, 1, 45, 110
3, 1093109, Note_off_c, 1, 45, 0
3, 1093120, Note_on_c, 1, 50, 110
3, 1093120, Note_on_c, 1, 54, 110
3, 1093120, Note_on_c, 1, 57, 110
3, 1093621, Note_off_c, 1, 50, 0
3, 1093621, Note_off_c, 1, 54, 0
3, 1093621, Note_off_c, 1, 57, 0
3, 1093632, Note_on_c, 1, 50, 110
3, 1094133, Note_off_c, 1, 50, 0
3, 1094144, Note_on_c, 1, 50, 110
3, 1094144, Note_on_c, 1, 54, 110
3, 1094144, Note_on_c, 1, 57, 110
3, 1094645, Note_off_c, 1, 50, 0
3, 1094645, Note_off_c, 1, 54, 0
3, 1094645, Note_off_c, 1, 57, 0
3, 1094656, Note_on_c, 1, 47, 110
3, 1095157, Note_off_c, 1, 47, 0
3, 1095168, Note_on_c, 1, 49, 110
3, 1095168, Note_on_c, 1, 50, 110
3, 1095168, Note_on_c, 1, 54, 110
3, 1095168, Note_on_c, 1, 57, 110
3, 1095669, Note_off_c, 1, 49, 0
3, 1095669, Note_off_c, 1, 50, 0
3, 1095669, Note_off_c, 1, 54, 0
3, 1095669, Note_off_c, 1, 57, 0
3, 1095680, Note_on_c, 1, 50, 110
3, 1096181, Note_off_c, 1, 50, 0
3, 1096192, Note_on_c, 1, 50, 110
3, 1096192, Note_on_c, 1, 54, 110
3, 1096192, Note_on_c, 1, 57, 110
3, 1096693, Note_off_c, 1, 50, 0
3, 1096693, Note_off_c, 1, 54, 0
3, 1096693, Note_off_c, 1, 57, 0
3, 1096704, Note_on_c, 1, 52, 110
3, 1097205, Note_off_c, 1, 52, 0
3, 1097216, Note_on_c, 1, 54, 110
3, 1097717, Note_off_c, 1, 54, 0
3, 1097728, Note_on_c, 1, 50, 110
3, 1097728, Note_on_c, 1, 55, 110
3, 1097728, Note_on_c, 1, 59, 110
3, 1098485, Note_off_c, 1, 50, 0
3, 1098485, Note_off_c, 1, 55, 0
3, 1098485, Note_off_c, 1, 59, 0
3, 1098496, Note_on_c, 1, 50, 110
3, 1098496, Note_on_c, 1, 55, 110
3, 1098496, Note_on_c, 1, 59, 110
3, 1098741, Note_off_c, 1, 50, 0
3, 1098741, Note_off_c, 1, 55, 0
3, 1098741, Note_off_c, 1, 59, 0
3, 1098752, Note_on_c, 1, 55, 110
3, 1099253, Note_off_c, 1, 55, 0
3, 1099264, Note_on_c, 1, 50, 110
3, 1099264, Note_on_c, 1, 55, 110
3, 1099264, Note_on_c, 1, 59, 110
3, 1099765, Note_off_c, 1, 50, 0
3, 1099765, Note_off_c, 1, 55, 0
3, 1099765, Note_off_c, 1, 59, 0
3, 1099776, Note_on_c, 1, 50, 110
3, 1099776, Note_on_c, 1, 55, 110
3, 1099776, Note_on_c, 1, 59, 110
3, 1100629, Note_off_c, 1, 50, 0
3, 1100629, Note_off_c, 1, 55, 0
3, 1100629, Note_off_c, 1, 59, 0
3, 1100800, Note_on_c, 1, 55, 110
3, 1101653, Note_off_c, 1, 55, 0
3, 1101824, Note_on_c, 1, 50, 110
3, 1101824, Note_on_c, 1, 54, 110
3, 1101824, Note_on_c, 1, 57, 110
3, 1102581, Note_off_c, 1, 50, 0
3, 1102581, Note_off_c, 1, 54, 0
3, 1102581, Note_off_c, 1, 57, 0
3, 1102592, Note_on_c, 1, 50, 110
3, 1102592, Note_on_c, 1, 54, 110
3, 1102592, Note_on_c, 1, 57, 110
3, 1102837, Note_off_c, 1, 50, 0
3, 1102837, Note_off_c, 1, 54, 0
3, 1102837, Note_off_c, 1, 57, 0
3, 1102848, Note_on_c, 1, 54, 110
3, 1103349, Note_off_c, 1, 54, 0
3, 1103360, Note_on_c, 1, 50, 110
3, 1103360, Note_on_c, 1, 54, 110
3, 1103360, Note_on_c, 1, 57, 110
3, 1103861, Note_off_c, 1, 50, 0
3, 1103861, Note_off_c, 1, 54, 0
3, 1103861, Note_off_c, 1, 57, 0
3, 1103872, Note_on_c, 1, 53, 110
3, 1104373, Note_off_c, 1, 53, 0
3, 1104384, Note_on_c, 1, 50, 110
3, 1104384, Note_on_c, 1, 53, 110
3, 1104384, Note_on_c, 1, 56, 110
3, 1104885, Note_off_c, 1, 50, 0
3, 1104885, Note_off_c, 1, 53, 0
3, 1104885, Note_off_c, 1, 56, 0
3, 1104896, Note_on_c, 1, 53, 110
3, 1105141, Note_off_c, 1, 53, 0
3, 1105152, Note_on_c, 1, 50, 110
3, 1105152, Note_on_c, 1, 53, 110
3, 1105152, Note_on_c, 1, 56, 110
3, 1105909, Note_off_c, 1, 50, 0
3, 1105909, Note_off_c, 1, 53, 0
3, 1105909, Note_off_c, 1, 56, 0
3, 1105920, Note_on_c, 1, 52, 110
3, 1106677, Note_off_c, 1, 52, 0
3, 1106688, Note_on_c, 1, 45, 110
3, 1106688, Note_on_c, 1, 49, 110
3, 1106688, Note_on_c, 1, 55, 110
3, 1106933, Note_off_c, 1, 45, 0
3, 1106933, Note_off_c, 1, 49, 0
3, 1106933, Note_off_c, 1, 55, 0
3, 1106944, Note_on_c, 1, 52, 110
3, 1107445, Note_off_c, 1, 52, 0
3, 1107456, Note_on_c, 1, 45, 110
3, 1107456, Note_on_c, 1, 49, 110
3, 1107456, Note_on_c, 1, 55, 110
3, 1107957, Note_off_c, 1, 45, 0
3, 1107957, Note_off_c, 1, 49, 0
3, 1107957, Note_off_c, 1, 55, 0
3, 1107968, Note_on_c, 1, 45, 110
3, 1107968, Note_on_c, 1, 49, 110
3, 1107968, Note_on_c, 1, 51, 110
3, 1107968, Note_on_c, 1, 54, 110
3, 1108821, Note_off_c, 1, 45, 0
3, 1108821, Note_off_c, 1, 49, 0
3, 1108821, Note_off_c, 1, 51, 0
3, 1108821, Note_off_c, 1, 54, 0
3, 1108992, Note_on_c, 1, 51, 110
3, 1109845, Note_off_c, 1, 51, 0
3, 1110016, Note_on_c, 1, 50, 110
3, 1110517, Note_off_c, 1, 50, 0
3, 1110528, Note_on_c, 1, 45, 110
3, 1110528, Note_on_c, 1, 50, 110
3, 1110528, Note_on_c, 1, 54, 110
3, 1111029, Note_off_c, 1, 45, 0
3, 1111029, Note_off_c, 1, 50, 0
3, 1111029, Note_off_c, 1, 54, 0
3, 1111040, Note_on_c, 1, 45, 110
3, 1111541, Note_off_c, 1, 45, 0
3, 1111552, Note_on_c, 1, 45, 110
3, 1111552, Note_on_c, 1, 50, 110
3, 1111552, Note_on_c, 1, 54, 110
3, 1112053, Note_off_c, 1, 45, 0
3, 1112053, Note_off_c, 1, 50, 0
3, 1112053, Note_off_c, 1, 54, 0
3, 1112064, Note_on_c, 1, 50, 110
3, 1112565, Note_off_c, 1, 50, 0
3, 1112576, Note_on_c, 1, 45, 110
3, 1112576, Note_on_c, 1, 50, 110
3, 1112576, Note_on_c, 1, 54, 110
3, 1113077, Note_off_c, 1, 45, 0
3, 1113077, Note_off_c, 1, 50, 0
3, 1113077, Note_off_c, 1, 54, 0
3, 1113088, Note_on_c, 1, 52, 110
3, 1113589, Note_off_c, 1, 52, 0
3, 1113600, Note_on_c, 1, 45, 110
3, 1113600, Note_on_c, 1, 50, 110
3, 1113600, Note_on_c, 1, 54, 110
3, 1114101, Note_off_c, 1, 45, 0
3, 1114101, Note_off_c, 1, 50, 0
3, 1114101, Note_off_c, 1, 54, 0
3, 1114112, Note_on_c, 1, 43, 110
3, 1114112, Note_on_c, 1, 47, 110
3, 1114112, Note_on_c, 1, 50, 110
3, 1114112, Note_on_c, 1, 55, 110
3, 1114965, Note_off_c, 1, 43, 0
3, 1114965, Note_off_c, 1, 47, 0
3, 1114965, Note_off_c, 1, 50, 0
3, 1114965, Note_off_c, 1, 55, 0
3, 1115136, Note_on_c, 1, 55, 110
3, 1115989, Note_off_c, 1, 55, 0
3, 1116160, Note_on_c, 1, 43, 110
3, 1116160, Note_on_c, 1, 46, 110
3, 1116160, Note_on_c, 1, 49, 110
3, 1116160, Note_on_c, 1, 55, 110
3, 1117013, Note_off_c, 1, 43, 0
3, 1117013, Note_off_c, 1, 46, 0
3, 1117013, Note_off_c, 1, 49, 0
3, 1117013, Note_off_c, 1, 55, 0
3, 1117184, Note_on_c, 1, 43, 110
3, 1117184, Note_on_c, 1, 46, 110
3, 1117184, Note_on_c, 1, 49, 110
3, 1117184, Note_on_c, 1, 55, 110
3, 1118037, Note_off_c, 1, 43, 0
3, 1118037, Note_off_c, 1, 46, 0
3, 1118037, Note_off_c, 1, 49, 0
3, 1118037, Note_off_c, 1, 55, 0
3, 1118208, Note_on_c, 1, 54, 110
3, 1118709, Note_off_c, 1, 54, 0
3, 1118720, Note_on_c, 1, 42, 110
3, 1118720, Note_on_c, 1, 45, 110
3, 1118720, Note_on_c, 1, 50, 110
3, 1119221, Note_off_c, 1, 42, 0
3, 1119221, Note_off_c, 1, 45, 0
3, 1119221, Note_off_c, 1, 50, 0
3, 1119232, Note_on_c, 1, 49, 110
3, 1119733, Note_off_c, 1, 49, 0
3, 1119744, Note_on_c, 1, 51, 110
3, 1120245, Note_off_c, 1, 51, 0
3, 1120256, Note_on_c, 1, 42, 110
3, 1120256, Note_on_c, 1, 45, 110
3, 1120256, Note_on_c, 1, 50, 110
3, 1120256, Note_on_c, 1, 54, 110
3, 1121109, Note_off_c, 1, 42, 0
3, 1121109, Note_off_c, 1, 45, 0
3, 1121109, Note_off_c, 1, 50, 0
3, 1121109, Note_off_c, 1, 54, 0
3, 1121280, Note_on_c, 1, 42, 110
3, 1121280, Note_on_c, 1, 45, 110
3, 1121280, Note_on_c, 1, 50, 110
3, 1121280, Note_on_c, 1, 54, 110
3, 1122133, Note_off_c, 1, 42, 0
3, 1122133, Note_off_c, 1, 45, 0
3, 1122133, Note_off_c, 1, 50, 0
3, 1122133, Note_off_c, 1, 54, 0
3, 1122304, Note_on_c, 1, 52, 110
3, 1122805, Note_off_c, 1, 52, 0
3, 1122816, Note_on_c, 1, 43, 110
3, 1122816, Note_on_c, 1, 47, 110
3, 1122816, Note_on_c, 1, 50, 110
3, 1123317, Note_off_c, 1, 43, 0
3, 1123317, Note_off_c, 1, 47, 0
3, 1123317, Note_off_c, 1, 50, 0
3, 1123328, Note_on_c, 1, 52, 110
3, 1123829, Note_off_c, 1, 52, 0
3, 1123840, Note_on_c, 1, 43, 110
3, 1123840, Note_on_c, 1, 47, 110
3, 1123840, Note_on_c, 1, 50, 110
3, 1124341, Note_off_c, 1, 43, 0
3, 1124341, Note_off_c, 1, 47, 0
3, 1124341, Note_off_c, 1, 50, 0
3, 1124352, Note_on_c, 1, 50, 110
3, 1124853, Note_off_c, 1, 50, 0
3, 1124864, Note_on_c, 1, 43, 110
3, 1124864, Note_on_c, 1, 47, 110
3, 1124864, Note_on_c, 1, 50, 110
3, 1125365, Note_off_c, 1, 43, 0
3, 1125365, Note_off_c, 1, 47, 0
3, 1125365, Note_off_c, 1, 50, 0
3, 1125376, Note_on_c, 1, 50, 110
3, 1125877, Note_off_c, 1, 50, 0
3, 1125888, Note_on_c, 1, 43, 110
3, 1125888, Note_on_c, 1, 46, 110
3, 1125888, Note_on_c, 1, 50, 110
3, 1126389, Note_off_c, 1, 43, 0
3, 1126389, Note_off_c, 1, 46, 0
3, 1126389, Note_off_c, 1, 50, 0
3, 1126400, Note_on_c, 1, 42, 110
3, 1126400, Note_on_c, 1, 45, 110
3, 1126400, Note_on_c, 1, 50, 110
3, 1127253, Note_off_c, 1, 42, 0
3, 1127253, Note_off_c, 1, 45, 0
3, 1127253, Note_off_c, 1, 50, 0
3, 1127424, Note_on_c, 1, 45, 110
3, 1128277, Note_off_c, 1, 45, 0
3, 1128448, Note_on_c, 1, 50, 110
3, 1128949, Note_off_c, 1, 50, 0
3, 1128960, Note_on_c, 1, 42, 110
3, 1128960, Note_on_c, 1, 45, 110
3, 1128960, Note_on_c, 1, 50, 110
3, 1129461, Note_off_c, 1, 42, 0
3, 1129461, Note_off_c, 1, 45, 0
3, 1129461, Note_off_c, 1, 50, 0
3, 1129472, Note_on_c, 1, 45, 110
3, 1129717, Note_off_c, 1, 45, 0
3, 1129728, Note_on_c, 1, 42, 110
3, 1129728, Note_on_c, 1, 45, 110
3, 1129728, Note_on_c, 1, 50, 110
3, 1130485, Note_off_c, 1, 42, 0
3, 1130485, Note_off_c, 1, 45, 0
3, 1130485, Note_off_c, 1, 50, 0
3, 1130496, Note_on_c, 1, 50, 110
3, 1130997, Note_off_c, 1, 50, 0
3, 1131008, Note_on_c, 1, 45, 110
3, 1131008, Note_on_c, 1, 50, 110
3, 1131008, Note_on_c, 1, 54, 110
3, 1131509, Note_off_c, 1, 45, 0
3, 1131509, Note_off_c, 1, 50, 0
3, 1131509, Note_off_c, 1, 54, 0
3, 1131520, Note_on_c, 1, 49, 110
3, 1132021, Note_off_c, 1, 49, 0
3, 1132032, Note_on_c, 1, 45, 110
3, 1132032, Note_on_c, 1, 50, 110
3, 1132032, Note_on_c, 1, 54, 110
3, 1132533, Note_off_c, 1, 45, 0
3, 1132533, Note_off_c, 1, 50, 0
3, 1132533, Note_off_c, 1, 54, 0
3, 1132544, Note_on_c, 1, 47, 110
3, 1133045, Note_off_c, 1, 47, 0
3, 1133056, Note_on_c, 1, 45, 110
3, 1133056, Note_on_c, 1, 50, 110
3, 1133056, Note_on_c, 1, 54, 110
3, 1133557, Note_off_c, 1, 45, 0
3, 1133557, Note_off_c, 1, 50, 0
3, 1133557, Note_off_c, 1, 54, 0
3, 1133568, Note_on_c, 1, 45, 110
3, 1134069, Note_off_c, 1, 45, 0
3, 1134080, Note_on_c, 1, 45, 110
3, 1134080, Note_on_c, 1, 50, 110
3, 1134080, Note_on_c, 1, 54, 110
3, 1134581, Note_off_c, 1, 45, 0
3, 1134581, Note_off_c, 1, 50, 0
3, 1134581, Note_off_c, 1, 54, 0
3, 1134592, Note_on_c, 1, 50, 110
3, 1135093, Note_off_c, 1, 50, 0
3, 1135104, Note_on_c, 1, 45, 110
3, 1135104, Note_on_c, 1, 50, 110
3, 1135104, Note_on_c, 1, 54, 110
3, 1135605, Note_off_c, 1, 45, 0
3, 1135605, Note_off_c, 1, 50, 0
3, 1135605, Note_off_c, 1, 54, 0
3, 1135616, Note_on_c, 1, 45, 110
3, 1136117, Note_off_c, 1, 45, 0
3, 1136128, Note_on_c, 1, 45, 110
3, 1136128, Note_on_c, 1, 50, 110
3, 1136128, Note_on_c, 1, 54, 110
3, 1136629, Note_off_c, 1, 45, 0
3, 1136629, Note_off_c, 1, 50, 0
3, 1136629, Note_off_c, 1, 54, 0
3, 1136640, Note_on_c, 1, 50, 110
3, 1137141, Note_off_c, 1, 50, 0
3, 1137152, Note_on_c, 1, 45, 110
3, 1137152, Note_on_c, 1, 50, 110
3, 1137152, Note_on_c, 1, 54, 110
3, 1137653, Note_off_c, 1, 45, 0
3, 1137653, Note_off_c, 1, 50, 0
3, 1137653, Note_off_c, 1, 54, 0
3, 1137664, Note_on_c, 1, 52, 110
3, 1138165, Note_off_c, 1, 52, 0
3, 1138176, Note_on_c, 1, 45, 110
3, 1138176, Note_on_c, 1, 50, 110
3, 1138176, Note_on_c, 1, 54, 110
3, 1138677, Note_off_c, 1, 45, 0
3, 1138677, Note_off_c, 1, 50, 0
3, 1138677, Note_off_c, 1, 54, 0
3, 1138688, Note_on_c, 1, 47, 110
3, 1138688, Note_on_c, 1, 50, 110
3, 1138688, Note_on_c, 1, 55, 110
3, 1139541, Note_off_c, 1, 47, 0
3, 1139541, Note_off_c, 1, 50, 0
3, 1139541, Note_off_c, 1, 55, 0
3, 1139712, Note_on_c, 1, 54, 110
3, 1140213, Note_off_c, 1, 54, 0
3, 1140224, Note_on_c, 1, 47, 110
3, 1140224, Note_on_c, 1, 50, 110
3, 1140224, Note_on_c, 1, 55, 110
3, 1140725, Note_off_c, 1, 47, 0
3, 1140725, Note_off_c, 1, 50, 0
3, 1140725, Note_off_c, 1, 55, 0
3, 1140736, Note_on_c, 1, 52, 110
3, 1141237, Note_off_c, 1, 52, 0
3, 1141248, Note_on_c, 1, 47, 110
3, 1141248, Note_on_c, 1, 50, 110
3, 1141248, Note_on_c, 1, 55, 110
3, 1141749, Note_off_c, 1, 47, 0
3, 1141749, Note_off_c, 1, 50, 0
3, 1141749, Note_off_c, 1, 55, 0
3, 1141760, Note_on_c, 1, 50, 110
3, 1142261, Note_off_c, 1, 50, 0
3, 1142272, Note_on_c, 1, 47, 110
3, 1142272, Note_on_c, 1, 50, 110
3, 1142272, Note_on_c, 1, 55, 110
3, 1142773, Note_off_c, 1, 47, 0
3, 1142773, Note_off_c, 1, 50, 0
3, 1142773, Note_off_c, 1, 55, 0
3, 1142784, Note_on_c, 1, 55, 110
3, 1143285, Note_off_c, 1, 55, 0
3, 1143296, Note_on_c, 1, 47, 110
3, 1143296, Note_on_c, 1, 50, 110
3, 1143296, Note_on_c, 1, 55, 110
3, 1143797, Note_off_c, 1, 47, 0
3, 1143797, Note_off_c, 1, 50, 0
3, 1143797, Note_off_c, 1, 55, 0
3, 1143808, Note_on_c, 1, 50, 110
3, 1144309, Note_off_c, 1, 50, 0
3, 1144320, Note_on_c, 1, 47, 110
3, 1144320, Note_on_c, 1, 50, 110
3, 1144320, Note_on_c, 1, 55, 110
3, 1144821, Note_off_c, 1, 47, 0
3, 1144821, Note_off_c, 1, 50, 0
3, 1144821, Note_off_c, 1, 55, 0
3, 1144832, Note_on_c, 1, 55, 110
3, 1145333, Note_off_c, 1, 55, 0
3, 1145344, Note_on_c, 1, 47, 110
3, 1145344, Note_on_c, 1, 50, 110
3, 1145344, Note_on_c, 1, 55, 110
3, 1145589, Note_off_c, 1, 47, 0
3, 1145589, Note_off_c, 1, 50, 0
3, 1145589, Note_off_c, 1, 55, 0
3, 1145600, Note_on_c, 1, 55, 110
3, 1145845, Note_off_c, 1, 55, 0
3, 1145856, Note_on_c, 1, 54, 110
3, 1146357, Note_off_c, 1, 54, 0
3, 1146368, Note_on_c, 1, 47, 110
3, 1146368, Note_on_c, 1, 50, 110
3, 1146368, Note_on_c, 1, 52, 110
3, 1146368, Note_on_c, 1, 55, 110
3, 1146869, Note_off_c, 1, 47, 0
3, 1146869, Note_off_c, 1, 50, 0
3, 1146869, Note_off_c, 1, 52, 0
3, 1146869, Note_off_c, 1, 55, 0
3, 1146880, Note_on_c, 1, 45, 110
3, 1146880, Note_on_c, 1, 50, 110
3, 1146880, Note_on_c, 1, 54, 110
3, 1147637, Note_off_c, 1, 45, 0
3, 1147637, Note_off_c, 1, 50, 0
3, 1147637, Note_off_c, 1, 54, 0
3, 1147648, Note_on_c, 1, 45, 110
3, 1147648, Note_on_c, 1, 50, 110
3, 1147648, Note_on_c, 1, 54, 110
3, 1147893, Note_off_c, 1, 45, 0
3, 1147893, Note_off_c, 1, 50, 0
3, 1147893, Note_off_c, 1, 54, 0
3, 1147904, Note_on_c, 1, 49, 110
3, 1148405, Note_off_c, 1, 49, 0
3, 1148416, Note_on_c, 1, 45, 110
3, 1148416, Note_on_c, 1, 50, 110
3, 1148416, Note_on_c, 1, 54, 110
3, 1148917, Note_off_c, 1, 45, 0
3, 1148917, Note_off_c, 1, 50, 0
3, 1148917, Note_off_c, 1, 54, 0
3, 1148928, Note_on_c, 1, 47, 110
3, 1149429, Note_off_c, 1, 47, 0
3, 1149440, Note_on_c, 1, 45, 110
3, 1149440, Note_on_c, 1, 50, 110
3, 1149440, Note_on_c, 1, 54, 110
3, 1149941, Note_off_c, 1, 45, 0
3, 1149941, Note_off_c, 1, 50, 0
3, 1149941, Note_off_c, 1, 54, 0
3, 1149952, Note_on_c, 1, 45, 110
3, 1150453, Note_off_c, 1, 45, 0
3, 1150464, Note_on_c, 1, 45, 110
3, 1150464, Note_on_c, 1, 50, 110
3, 1150464, Note_on_c, 1, 54, 110
3, 1150965, Note_off_c, 1, 45, 0
3, 1150965, Note_off_c, 1, 50, 0
3, 1150965, Note_off_c, 1, 54, 0
3, 1150976, Note_on_c, 1, 45, 110
3, 1150976, Note_on_c, 1, 50, 110
3, 1150976, Note_on_c, 1, 54, 110
3, 1151829, Note_off_c, 1, 45, 0
3, 1151829, Note_off_c, 1, 50, 0
3, 1151829, Note_off_c, 1, 54, 0
3, 1152000, Note_on_c, 1, 45, 110
3, 1152501, Note_off_c, 1, 45, 0
3, 1152512, Note_on_c, 1, 45, 110
3, 1152512, Note_on_c, 1, 50, 110
3, 1152512, Note_on_c, 1, 54, 110
3, 1153013, Note_off_c, 1, 45, 0
3, 1153013, Note_off_c, 1, 50, 0
3, 1153013, Note_off_c, 1, 54, 0
3, 1153024, Note_on_c, 1, 50, 110
3, 1153525, Note_off_c, 1, 50, 0
3, 1153536, Note_on_c, 1, 45, 110
3, 1153536, Note_on_c, 1, 50, 110
3, 1153536, Note_on_c, 1, 54, 110
3, 1154037, Note_off_c, 1, 45, 0
3, 1154037, Note_off_c, 1, 50, 0
3, 1154037, Note_off_c, 1, 54, 0
3, 1154048, Note_on_c, 1, 52, 110
3, 1154549, Note_off_c, 1, 52, 0
3, 1154560, Note_on_c, 1, 45, 110
3, 1154560, Note_on_c, 1, 50, 110
3, 1154560, Note_on_c, 1, 54, 110
3, 1155061, Note_off_c, 1, 45, 0
3, 1155061, Note_off_c, 1, 50, 0
3, 1155061, Note_off_c, 1, 54, 0
3, 1155072, Note_on_c, 1, 47, 110
3, 1155072, Note_on_c, 1, 50, 110
3, 1155072, Note_on_c, 1, 55, 110
3, 1155829, Note_off_c, 1, 47, 0
3, 1155829, Note_off_c, 1, 50, 0
3, 1155829, Note_off_c, 1, 55, 0
3, 1155840, Note_on_c, 1, 47, 110
3, 1155840, Note_on_c, 1, 50, 110
3, 1155840, Note_on_c, 1, 55, 110
3, 1156085, Note_off_c, 1, 47, 0
3, 1156085, Note_off_c, 1, 50, 0
3, 1156085, Note_off_c, 1, 55, 0
3, 1156096, Note_on_c, 1, 50, 110
3, 1156597, Note_off_c, 1, 50, 0
3, 1156608, Note_on_c, 1, 47, 110
3, 1156608, Note_on_c, 1, 50, 110
3, 1156608, Note_on_c, 1, 55, 110
3, 1157109, Note_off_c, 1, 47, 0
3, 1157109, Note_off_c, 1, 50, 0
3, 1157109, Note_off_c, 1, 55, 0
3, 1157120, Note_on_c, 1, 55, 110
3, 1157621, Note_off_c, 1, 55, 0
3, 1157632, Note_on_c, 1, 47, 110
3, 1157632, Note_on_c, 1, 50, 110
3, 1157632, Note_on_c, 1, 55, 110
3, 1158133, Note_off_c, 1, 47, 0
3, 1158133, Note_off_c, 1, 50, 0
3, 1158133, Note_off_c, 1, 55, 0
3, 1158144, Note_on_c, 1, 50, 110
3, 1158645, Note_off_c, 1, 50, 0
3, 1158656, Note_on_c, 1, 47, 110
3, 1158656, Note_on_c, 1, 50, 110
3, 1158656, Note_on_c, 1, 55, 110
3, 1159157, Note_off_c, 1, 47, 0
3, 1159157, Note_off_c, 1, 50, 0
3, 1159157, Note_off_c, 1, 55, 0
3, 1159168, Note_on_c, 1, 55, 110
3, 1159669, Note_off_c, 1, 55, 0
3, 1159680, Note_on_c, 1, 47, 110
3, 1159680, Note_on_c, 1, 50, 110
3, 1159680, Note_on_c, 1, 55, 110
3, 1160181, Note_off_c, 1, 47, 0
3, 1160181, Note_off_c, 1, 50, 0
3, 1160181, Note_off_c, 1, 55, 0
3, 1160192, Note_on_c, 1, 50, 110
3, 1160693, Note_off_c, 1, 50, 0
3, 1160704, Note_on_c, 1, 47, 110
3, 1160704, Note_on_c, 1, 50, 110
3, 1160704, Note_on_c, 1, 55, 110
3, 1161205, Note_off_c, 1, 47, 0
3, 1161205, Note_off_c, 1, 50, 0
3, 1161205, Note_off_c, 1, 55, 0
3, 1161216, Note_on_c, 1, 55, 110
3, 1161717, Note_off_c, 1, 55, 0
3, 1161728, Note_on_c, 1, 47, 110
3, 1161728, Note_on_c, 1, 50, 110
3, 1161728, Note_on_c, 1, 55, 110
3, 1162229, Note_off_c, 1, 47, 0
3, 1162229, Note_off_c, 1, 50, 0
3, 1162229, Note_off_c, 1, 55, 0
3, 1162240, Note_on_c, 1, 54, 110
3, 1162741, Note_off_c, 1, 54, 0
3, 1162752, Note_on_c, 1, 47, 110
3, 1162752, Note_on_c, 1, 50, 110
3, 1162752, Note_on_c, 1, 55, 110
3, 1163253, Note_off_c, 1, 47, 0
3, 1163253, Note_off_c, 1, 50, 0
3, 1163253, Note_off_c, 1, 55, 0
3, 1163264, Note_on_c, 1, 42, 110
3, 1163264, Note_on_c, 1, 45, 110
3, 1163264, Note_on_c, 1, 50, 110
3, 1164117, Note_off_c, 1, 42, 0
3, 1164117, Note_off_c, 1, 45, 0
3, 1164117, Note_off_c, 1, 50, 0
3, 1164288, Note_on_c, 1, 45, 110
3, 1165141, Note_off_c, 1, 45, 0
3, 1165312, Note_on_c, 1, 50, 110
3, 1165813, Note_off_c, 1, 50, 0
3, 1165824, Note_on_c, 1, 42, 110
3, 1165824, Note_on_c, 1, 45, 110
3, 1165824, Note_on_c, 1, 50, 110
3, 1166325, Note_off_c, 1, 42, 0
3, 1166325, Note_off_c, 1, 45, 0
3, 1166325, Note_off_c, 1, 50, 0
3, 1166336, Note_on_c, 1, 45, 110
3, 1166581, Note_off_c, 1, 45, 0
3, 1166592, Note_on_c, 1, 42, 110
3, 1166592, Note_on_c, 1, 45, 110
3, 1166592, Note_on_c, 1, 50, 110
3, 1167349, Note_off_c, 1, 42, 0
3, 1167349, Note_off_c, 1, 45, 0
3, 1167349, Note_off_c, 1, 50, 0
3, 1167360, Note_on_c, 1, 42, 110
3, 1167360, Note_on_c, 1, 45, 110
3, 1167360, Note_on_c, 1, 50, 110
3, 1168213, Note_off_c, 1, 42, 0
3, 1168213, Note_off_c, 1, 45, 0
3, 1168213, Note_off_c, 1, 50, 0
3, 1168384, Note_on_c, 1, 45, 110
3, 1168885, Note_off_c, 1, 45, 0
3, 1168896, Note_on_c, 1, 42, 110
3, 1168896, Note_on_c, 1, 45, 110
3, 1168896, Note_on_c, 1, 50, 110
3, 1169397, Note_off_c, 1, 42, 0
3, 1169397, Note_off_c, 1, 45, 0
3, 1169397, Note_off_c, 1, 50, 0
3, 1169408, Note_on_c, 1, 50, 110
3, 1169909, Note_off_c, 1, 50, 0
3, 1169920, Note_on_c, 1, 42, 110
3, 1169920, Note_on_c, 1, 45, 110
3, 1169920, Note_on_c, 1, 50, 110
3, 1170421, Note_off_c, 1, 42, 0
3, 1170421, Note_off_c, 1, 45, 0
3, 1170421, Note_off_c, 1, 50, 0
3, 1170432, Note_on_c, 1, 52, 110
3, 1170933, Note_off_c, 1, 52, 0
3, 1170944, Note_on_c, 1, 42, 110
3, 1170944, Note_on_c, 1, 45, 110
3, 1170944, Note_on_c, 1, 50, 110
3, 1170944, Note_on_c, 1, 54, 110
3, 1171445, Note_off_c, 1, 42, 0
3, 1171445, Note_off_c, 1, 45, 0
3, 1171445, Note_off_c, 1, 50, 0
3, 1171445, Note_off_c, 1, 54, 0
3, 1171456, Note_on_c, 1, 47, 110
3, 1171456, Note_on_c, 1, 50, 110
3, 1171456, Note_on_c, 1, 55, 110
3, 1172309, Note_off_c, 1, 47, 0
3, 1172309, Note_off_c, 1, 50, 0
3, 1172309, Note_off_c, 1, 55, 0
3, 1172480, Note_on_c, 1, 50, 110
3, 1172981, Note_off_c, 1, 50, 0
3, 1172992, Note_on_c, 1, 47, 110
3, 1172992, Note_on_c, 1, 50, 110
3, 1172992, Note_on_c, 1, 55, 110
3, 1173493, Note_off_c, 1, 47, 0
3, 1173493, Note_off_c, 1, 50, 0
3, 1173493, Note_off_c, 1, 55, 0
3, 1173504, Note_on_c, 1, 47, 110
3, 1173504, Note_on_c, 1, 50, 110
3, 1173504, Note_on_c, 1, 55, 110
3, 1174357, Note_off_c, 1, 47, 0
3, 1174357, Note_off_c, 1, 50, 0
3, 1174357, Note_off_c, 1, 55, 0
3, 1174528, Note_on_c, 1, 47, 110
3, 1174528, Note_on_c, 1, 50, 110
3, 1174528, Note_on_c, 1, 55, 110
3, 1175381, Note_off_c, 1, 47, 0
3, 1175381, Note_off_c, 1, 50, 0
3, 1175381, Note_off_c, 1, 55, 0
3, 1175552, Note_on_c, 1, 57, 110
3, 1176053, Note_off_c, 1, 57, 0
3, 1176064, Note_on_c, 1, 47, 110
3, 1176064, Note_on_c, 1, 50, 110
3, 1176064, Note_on_c, 1, 55, 110
3, 1176565, Note_off_c, 1, 47, 0
3, 1176565, Note_off_c, 1, 50, 0
3, 1176565, Note_off_c, 1, 55, 0
3, 1176576, Note_on_c, 1, 52, 110
3, 1177077, Note_off_c, 1, 52, 0
3, 1177088, Note_on_c, 1, 47, 110
3, 1177088, Note_on_c, 1, 50, 110
3, 1177088, Note_on_c, 1, 55, 110
3, 1177589, Note_off_c, 1, 47, 0
3, 1177589, Note_off_c, 1, 50, 0
3, 1177589, Note_off_c, 1, 55, 0
3, 1177600, Note_on_c, 1, 57, 110
3, 1178101, Note_off_c, 1, 57, 0
3, 1178112, Note_on_c, 1, 47, 110
3, 1178112, Note_on_c, 1, 50, 110
3, 1178112, Note_on_c, 1, 55, 110
3, 1178613, Note_off_c, 1, 47, 0
3, 1178613, Note_off_c, 1, 50, 0
3, 1178613, Note_off_c, 1, 55, 0
3, 1178624, Note_on_c, 1, 52, 110
3, 1179125, Note_off_c, 1, 52, 0
3, 1179136, Note_on_c, 1, 47, 110
3, 1179136, Note_on_c, 1, 50, 110
3, 1179136, Note_on_c, 1, 55, 110
3, 1179637, Note_off_c, 1, 47, 0
3, 1179637, Note_off_c, 1, 50, 0
3, 1179637, Note_off_c, 1, 55, 0
3, 1179648, Note_on_c, 1, 38, 110
3, 1179648, Note_on_c, 1, 50, 110
3, 1196885, Note_off_c, 1, 38, 0
3, 1196885, Note_off_c, 1, 50, 0
3, 1197056, Note_on_c, 1, 38, 110
3, 1197056, Note_on_c, 1, 50, 110
3, 1212160, Note_off_c, 1, 38, 0
3, 1212160, Note_off_c, 1, 50, 0
3, 1212416, Note_on_c, 1, 38, 110
3, 1212416, Note_on_c, 1, 50, 110
3, 1220352, Note_off_c, 1, 38, 0
3, 1220352, Note_off_c, 1, 50, 0
3, 1220608, Note_on_c, 1, 38, 110
3, 1220608, Note_on_c, 1, 50, 110
3, 1225557, Note_off_c, 1, 38, 0
3, 1225557, Note_off_c, 1, 50, 0
3, 1225728, Note_on_c, 1, 40, 110
3, 1225728, Note_on_c, 1, 52, 110
3, 1226581, Note_off_c, 1, 40, 0
3, 1226581, Note_off_c, 1, 52, 0
3, 1226752, Note_on_c, 1, 41, 110
3, 1226752, Note_on_c, 1, 53, 110
3, 1228544, Note_off_c, 1, 41, 0
3, 1228544, Note_off_c, 1, 53, 0
3, 1228800, Note_on_c, 1, 43, 110
3, 1230592, Note_off_c, 1, 43, 0
3, 1230848, Note_on_c, 1, 45, 110
3, 1232640, Note_off_c, 1, 45, 0
3, 1232896, Note_on_c, 1, 43, 110
3, 1234688, Note_off_c, 1, 43, 0
3, 1234944, Note_on_c, 1, 41, 110
3, 1234944, Note_on_c, 1, 53, 110
3, 1236736, Note_off_c, 1, 41, 0
3, 1236736, Note_off_c, 1, 53, 0
3, 1236992, Note_on_c, 1, 40, 110
3, 1236992, Note_on_c, 1, 52, 110
3, 1237493, Note_off_c, 1, 40, 0
3, 1237493, Note_off_c, 1, 52, 0
3, 1237504, Note_on_c, 1, 43, 110
3, 1238005, Note_off_c, 1, 43, 0
3, 1238016, Note_on_c, 1, 46, 110
3, 1238517, Note_off_c, 1, 46, 0
3, 1238528, Note_on_c, 1, 44, 110
3, 1239029, Note_off_c, 1, 44, 0
3, 1239040, Note_on_c, 1, 45, 110
3, 1240832, Note_off_c, 1, 45, 0
3, 1241088, Note_on_c, 1, 38, 110
3, 1241088, Note_on_c, 1, 50, 110
3, 1246965, Note_off_c, 1, 38, 0
3, 1246965, Note_off_c, 1, 50, 0
3, 1246976, Note_on_c, 1, 52, 110
3, 1247221, Note_off_c, 1, 52, 0
3, 1247232, Note_on_c, 1, 53, 110
3, 1247477, Note_off_c, 1, 53, 0
3, 1247488, Note_on_c, 1, 50, 110
3, 1247733, Note_off_c, 1, 50, 0
3, 1247744, Note_on_c, 1, 49, 110
3, 1247989, Note_off_c, 1, 49, 0
3, 1248000, Note_on_c, 1, 50, 110
3, 1248245, Note_off_c, 1, 50, 0
3, 1248256, Note_on_c, 1, 51, 110
3, 1248501, Note_off_c, 1, 51, 0
3, 1248512, Note_on_c, 1, 50, 110
3, 1248757, Note_off_c, 1, 50, 0
3, 1248768, Note_on_c, 1, 49, 110
3, 1249013, Note_off_c, 1, 49, 0
3, 1249024, Note_on_c, 1, 44, 110
3, 1249269, Note_off_c, 1, 44, 0
3, 1249280, Note_on_c, 1, 45, 110
3, 1249280, Note_on_c, 1, 50, 110
3, 1249781, Note_off_c, 1, 45, 0
3, 1249781, Note_off_c, 1, 50, 0
3, 1249792, Note_on_c, 1, 50, 110
3, 1249792, Note_on_c, 1, 53, 110
3, 1250293, Note_off_c, 1, 50, 0
3, 1250293, Note_off_c, 1, 53, 0
3, 1250304, Note_on_c, 1, 40, 110
3, 1250304, Note_on_c, 1, 49, 110
3, 1250304, Note_on_c, 1, 52, 110
3, 1250805, Note_off_c, 1, 40, 0
3, 1250805, Note_off_c, 1, 49, 0
3, 1250805, Note_off_c, 1, 52, 0
3, 1250816, Note_on_c, 1, 52, 110
3, 1251317, Note_off_c, 1, 52, 0
3, 1251328, Note_on_c, 1, 41, 110
3, 1251328, Note_on_c, 1, 50, 110
3, 1251328, Note_on_c, 1, 53, 110
3, 1251829, Note_off_c, 1, 41, 0
3, 1251829, Note_off_c, 1, 50, 0
3, 1251829, Note_off_c, 1, 53, 0
3, 1251840, Note_on_c, 1, 53, 110
3, 1252341, Note_off_c, 1, 53, 0
3, 1252352, Note_on_c, 1, 43, 110
3, 1252853, Note_off_c, 1, 43, 0
3, 1252864, Note_on_c, 1, 52, 110
3, 1253365, Note_off_c, 1, 52, 0
3, 1253376, Note_on_c, 1, 45, 110
3, 1254229, Note_off_c, 1, 45, 0
3, 1267712, Note_on_c, 1, 38, 110
3, 1267712, Note_on_c, 1, 50, 110
3, 1269504, Note_off_c, 1, 38, 0
3, 1269504, Note_off_c, 1, 50, 0
3, 1269760, Note_on_c, 1, 39, 110
3, 1269760, Note_on_c, 1, 51, 110
3, 1270261, Note_off_c, 1, 39, 0
3, 1270261, Note_off_c, 1, 51, 0
3, 1270272, Note_on_c, 1, 38, 110
3, 1270272, Note_on_c, 1, 50, 110
3, 1270773, Note_off_c, 1, 38, 0
3, 1270773, Note_off_c, 1, 50, 0
3, 1270784, Note_on_c, 1, 49, 110
3, 1271285, Note_off_c, 1, 49, 0
3, 1271296, Note_on_c, 1, 44, 110
3, 1271797, Note_off_c, 1, 44, 0
3, 1271808, Note_on_c, 1, 45, 110
3, 1275648, Note_off_c, 1, 45, 0
3, 1275904, Note_on_c, 1, 44, 110
3, 1277696, Note_off_c, 1, 44, 0
3, 1277952, Note_on_c, 1, 45, 110
3, 1278453, Note_off_c, 1, 45, 0
3, 1278464, Note_on_c, 1, 44, 110
3, 1278965, Note_off_c, 1, 44, 0
3, 1278976, Note_on_c, 1, 43, 110
3, 1279477, Note_off_c, 1, 43, 0
3, 1279488, Note_on_c, 1, 49, 110
3, 1279989, Note_off_c, 1, 49, 0
3, 1280000, Note_on_c, 1, 38, 110
3, 1280000, Note_on_c, 1, 50, 110
3, 1283840, Note_off_c, 1, 38, 0
3, 1283840, Note_off_c, 1, 50, 0
3, 1284096, Note_on_c, 1, 38, 110
3, 1284096, Note_on_c, 1, 50, 110
3, 1285888, Note_off_c, 1, 38, 0
3, 1285888, Note_off_c, 1, 50, 0
3, 1286144, Note_on_c, 1, 51, 110
3, 1286645, Note_off_c, 1, 51, 0
3, 1286656, Note_on_c, 1, 50, 110
3, 1287157, Note_off_c, 1, 50, 0
3, 1287168, Note_on_c, 1, 49, 110
3, 1287669, Note_off_c, 1, 49, 0
3, 1287680, Note_on_c, 1, 44, 110
3, 1288181, Note_off_c, 1, 44, 0
3, 1288192, Note_on_c, 1, 40, 110
3, 1288192, Note_on_c, 1, 45, 110
3, 1288192, Note_on_c, 1, 52, 110
3, 1292032, Note_off_c, 1, 40, 0
3, 1292032, Note_off_c, 1, 45, 0
3, 1292032, Note_off_c, 1, 52, 0
3, 1292288, Note_on_c, 1, 41, 110
3, 1292288, Note_on_c, 1, 44, 110
3, 1292288, Note_on_c, 1, 53, 110
3, 1294080, Note_off_c, 1, 41, 0
3, 1294080, Note_off_c, 1, 44, 0
3, 1294080, Note_off_c, 1, 53, 0
3, 1294336, Note_on_c, 1, 45, 110
3, 1294837, Note_off_c, 1, 45, 0
3, 1294848, Note_on_c, 1, 44, 110
3, 1295349, Note_off_c, 1, 44, 0
3, 1295360, Note_on_c, 1, 40, 110
3, 1295360, Note_on_c, 1, 43, 110
3, 1295360, Note_on_c, 1, 52, 110
3, 1295861, Note_off_c, 1, 40, 0
3, 1295861, Note_off_c, 1, 43, 0
3, 1295861, Note_off_c, 1, 52, 0
3, 1295872, Note_on_c, 1, 49, 110
3, 1296373, Note_off_c, 1, 49, 0
3, 1296384, Note_on_c, 1, 38, 110
3, 1296384, Note_on_c, 1, 50, 110
3, 1296384, Note_on_c, 1, 53, 110
3, 1300224, Note_off_c, 1, 38, 0
3, 1300224, Note_off_c, 1, 50, 0
3, 1300224, Note_off_c, 1, 53, 0
3, 1308672, Note_on_c, 1, 38, 110
3, 1308672, Note_on_c, 1, 50, 110
3, 1313536, Note_off_c, 1, 38, 0
3, 1313536, Note_off_c, 1, 50, 0
3, 1313792, Note_on_c, 1, 40, 110
3, 1313792, Note_on_c, 1, 52, 110
3, 1314645, Note_off_c, 1, 40, 0
3, 1314645, Note_off_c, 1, 52, 0
3, 1314816, Note_on_c, 1, 41, 110
3, 1314816, Note_on_c, 1, 53, 110
3, 1316608, Note_off_c, 1, 41, 0
3, 1316608, Note_off_c, 1, 53, 0
3, 1316864, Note_on_c, 1, 43, 110
3, 1318656, Note_off_c, 1, 43, 0
3, 1318912, Note_on_c, 1, 45, 110
3, 1320704, Note_off_c, 1, 45, 0
3, 1320960, Note_on_c, 1, 43, 110
3, 1322752, Note_off_c, 1, 43, 0
3, 1323008, Note_on_c, 1, 41, 110
3, 1323008, Note_on_c, 1, 53, 110
3, 1324800, Note_off_c, 1, 41, 0
3, 1324800, Note_off_c, 1, 53, 0
3, 1325056, Note_on_c, 1, 40, 110
3, 1325056, Note_on_c, 1, 52, 110
3, 1325557, Note_off_c, 1, 40, 0
3, 1325557, Note_off_c, 1, 52, 0
3, 1325568, Note_on_c, 1, 43, 110
3, 1326069, Note_off_c, 1, 43, 0
3, 1326080, Note_on_c, 1, 46, 110
3, 1326581, Note_off_c, 1, 46, 0
3, 1326592, Note_on_c, 1, 44, 110
3, 1327093, Note_off_c, 1, 44, 0
3, 1327104, Note_on_c, 1, 45, 110
3, 1328896, Note_off_c, 1, 45, 0
3, 1329152, Note_on_c, 1, 38, 110
3, 1329152, Note_on_c, 1, 50, 110
3, 1335029, Note_off_c, 1, 38, 0
3, 1335029, Note_off_c, 1, 50, 0
3, 1335040, Note_on_c, 1, 52, 110
3, 1335285, Note_off_c, 1, 52, 0
3, 1335296, Note_on_c, 1, 53, 110
3, 1335541, Note_off_c, 1, 53, 0
3, 1335552, Note_on_c, 1, 50, 110
3, 1335797, Note_off_c, 1, 50, 0
3, 1335808, Note_on_c, 1, 49, 110
3, 1336053, Note_off_c, 1, 49, 0
3, 1336064, Note_on_c, 1, 50, 110
3, 1336309, Note_off_c, 1, 50, 0
3, 1336320, Note_on_c, 1, 51, 110
3, 1336565, Note_off_c, 1, 51, 0
3, 1336576, Note_on_c, 1, 50, 110
3, 1336821, Note_off_c, 1, 50, 0
3, 1336832, Note_on_c, 1, 49, 110
3, 1337077, Note_off_c, 1, 49, 0
3, 1337088, Note_on_c, 1, 44, 110
3, 1337333, Note_off_c, 1, 44, 0
3, 1337344, Note_on_c, 1, 45, 110
3, 1337344, Note_on_c, 1, 50, 110
3, 1337845, Note_off_c, 1, 45, 0
3, 1337845, Note_off_c, 1, 50, 0
3, 1337856, Note_on_c, 1, 50, 110
3, 1337856, Note_on_c, 1, 53, 110
3, 1338357, Note_off_c, 1, 50, 0
3, 1338357, Note_off_c, 1, 53, 0
3, 1338368, Note_on_c, 1, 40, 110
3, 1338368, Note_on_c, 1, 49, 110
3, 1338368, Note_on_c, 1, 52, 110
3, 1338869, Note_off_c, 1, 40, 0
3, 1338869, Note_off_c, 1, 49, 0
3, 1338869, Note_off_c, 1, 52, 0
3, 1338880, Note_on_c, 1, 52, 110
3, 1339381, Note_off_c, 1, 52, 0
3, 1339392, Note_on_c, 1, 41, 110
3, 1339392, Note_on_c, 1, 50, 110
3, 1339392, Note_on_c, 1, 53, 110
3, 1339893, Note_off_c, 1, 41, 0
3, 1339893, Note_off_c, 1, 50, 0
3, 1339893, Note_off_c, 1, 53, 0
3, 1339904, Note_on_c, 1, 53, 110
3, 1340405, Note_off_c, 1, 53, 0
3, 1340416, Note_on_c, 1, 43, 110
3, 1340917, Note_off_c, 1, 43, 0
3, 1340928, Note_on_c, 1, 52, 110
3, 1341429, Note_off_c, 1, 52, 0
3, 1341440, Note_on_c, 1, 45, 110
3, 1342293, Note_off_c, 1, 45, 0
3, 1355776, Note_on_c, 1, 38, 110
3, 1355776, Note_on_c, 1, 50, 110
3, 1357568, Note_off_c, 1, 38, 0
3, 1357568, Note_off_c, 1, 50, 0
3, 1357824, Note_on_c, 1, 39, 110
3, 1357824, Note_on_c, 1, 51, 110
3, 1358325, Note_off_c, 1, 39, 0
3, 1358325, Note_off_c, 1, 51, 0
3, 1358336, Note_on_c, 1, 38, 110
3, 1358336, Note_on_c, 1, 50, 110
3, 1358837, Note_off_c, 1, 38, 0
3, 1358837, Note_off_c, 1, 50, 0
3, 1358848, Note_on_c, 1, 49, 110
3, 1359349, Note_off_c, 1, 49, 0
3, 1359360, Note_on_c, 1, 44, 110
3, 1359861, Note_off_c, 1, 44, 0
3, 1359872, Note_on_c, 1, 45, 110
3, 1363712, Note_off_c, 1, 45, 0
3, 1363968, Note_on_c, 1, 44, 110
3, 1365760, Note_off_c, 1, 44, 0
3, 1366016, Note_on_c, 1, 45, 110
3, 1366517, Note_off_c, 1, 45, 0
3, 1366528, Note_on_c, 1, 44, 110
3, 1367029, Note_off_c, 1, 44, 0
3, 1367040, Note_on_c, 1, 43, 110
3, 1367541, Note_off_c, 1, 43, 0
3, 1367552, Note_on_c, 1, 49, 110
3, 1368053, Note_off_c, 1, 49, 0
3, 1368064, Note_on_c, 1, 38, 110
3, 1368064, Note_on_c, 1, 50, 110
3, 1371904, Note_off_c, 1, 38, 0
3, 1371904, Note_off_c, 1, 50, 0
3, 1372160, Note_on_c, 1, 38, 110
3, 1372160, Note_on_c, 1, 50, 110
3, 1373952, Note_off_c, 1, 38, 0
3, 1373952, Note_off_c, 1, 50, 0
3, 1374208, Note_on_c, 1, 51, 110
3, 1374709, Note_off_c, 1, 51, 0
3, 1374720, Note_on_c, 1, 50, 110
3, 1375221, Note_off_c, 1, 50, 0
3, 1375232, Note_on_c, 1, 49, 110
3, 1375733, Note_off_c, 1, 49, 0
3, 1375744, Note_on_c, 1, 44, 110
3, 1376245, Note_off_c, 1, 44, 0
3, 1376256, Note_on_c, 1, 40, 110
3, 1376256, Note_on_c, 1, 45, 110
3, 1376256, Note_on_c, 1, 52, 110
3, 1380096, Note_off_c, 1, 40, 0
3, 1380096, Note_off_c, 1, 45, 0
3, 1380096, Note_off_c, 1, 52, 0
3, 1380352, Note_on_c, 1, 41, 110
3, 1380352, Note_on_c, 1, 44, 110
3, 1380352, Note_on_c, 1, 53, 110
3, 1382144, Note_off_c, 1, 41, 0
3, 1382144, Note_off_c, 1, 44, 0
3, 1382144, Note_off_c, 1, 53, 0
3, 1382400, Note_on_c, 1, 45, 110
3, 1382901, Note_off_c, 1, 45, 0
3, 1382912, Note_on_c, 1, 44, 110
3, 1383413, Note_off_c, 1, 44, 0
3, 1383424, Note_on_c, 1, 40, 110
3, 1383424, Note_on_c, 1, 43, 110
3, 1383424, Note_on_c, 1, 52, 110
3, 1383925, Note_off_c, 1, 40, 0
3, 1383925, Note_off_c, 1, 43, 0
3, 1383925, Note_off_c, 1, 52, 0
3, 1383936, Note_on_c, 1, 49, 110
3, 1384437, Note_off_c, 1, 49, 0
3, 1384448, Note_on_c, 1, 38, 110
3, 1384448, Note_on_c, 1, 50, 110
3, 1384448, Note_on_c, 1, 53, 110
3, 1388288, Note_off_c, 1, 38, 0
3, 1388288, Note_off_c, 1, 50, 0
3, 1388288, Note_off_c, 1, 53, 0
3, 1421312, Note_on_c, 1, 36, 110
3, 1425152, Note_off_c, 1, 36, 0
3, 1425408, Note_on_c, 1, 41, 110
3, 1429248, Note_off_c, 1, 41, 0
3, 1429504, Note_on_c, 1, 36, 110
3, 1433344, Note_off_c, 1, 36, 0
3, 1433600, Note_on_c, 1, 41, 110
3, 1435392, Note_off_c, 1, 41, 0
3, 1435648, Note_on_c, 1, 43, 110
3, 1437440, Note_off_c, 1, 43, 0
3, 1437696, Note_on_c, 1, 36, 110
3, 1441536, Note_off_c, 1, 36, 0
3, 1441792, Note_on_c, 1, 41, 110
3, 1443584, Note_off_c, 1, 41, 0
3, 1443840, Note_on_c, 1, 43, 110
3, 1444341, Note_off_c, 1, 43, 0
3, 1444352, Note_on_c, 1, 43, 110
3, 1444853, Note_off_c, 1, 43, 0
3, 1445248, Note_on_c, 1, 43, 110
3, 1445877, Note_off_c, 1, 43, 0
3, 1445888, Note_on_c, 1, 36, 110
3, 1446389, Note_off_c, 1, 36, 0
3, 1446400, Note_on_c, 1, 36, 110
3, 1446901, Note_off_c, 1, 36, 0
3, 1446912, Note_on_c, 1, 36, 110
3, 1447413, Note_off_c, 1, 36, 0
3, 1447424, Note_on_c, 1, 36, 110
3, 1447925, Note_off_c, 1, 36, 0
3, 1447936, Note_on_c, 1, 38, 110
3, 1448437, Note_off_c, 1, 38, 0
3, 1448448, Note_on_c, 1, 38, 110
3, 1448949, Note_off_c, 1, 38, 0
3, 1448960, Note_on_c, 1, 38, 110
3, 1449461, Note_off_c, 1, 38, 0
3, 1449472, Note_on_c, 1, 38, 110
3, 1449973, Note_off_c, 1, 38, 0
3, 1449984, Note_on_c, 1, 40, 110
3, 1450485, Note_off_c, 1, 40, 0
3, 1450496, Note_on_c, 1, 40, 110
3, 1450997, Note_off_c, 1, 40, 0
3, 1451008, Note_on_c, 1, 40, 110
3, 1451509, Note_off_c, 1, 40, 0
3, 1451520, Note_on_c, 1, 40, 110
3, 1452021, Note_off_c, 1, 40, 0
3, 1452032, Note_on_c, 1, 36, 110
3, 1452533, Note_off_c, 1, 36, 0
3, 1452544, Note_on_c, 1, 36, 110
3, 1453045, Note_off_c, 1, 36, 0
3, 1453056, Note_on_c, 1, 36, 110
3, 1453557, Note_off_c, 1, 36, 0
3, 1453568, Note_on_c, 1, 36, 110
3, 1454069, Note_off_c, 1, 36, 0
3, 1454080, Note_on_c, 1, 41, 110
3, 1454581, Note_off_c, 1, 41, 0
3, 1454592, Note_on_c, 1, 41, 110
3, 1455093, Note_off_c, 1, 41, 0
3, 1455104, Note_on_c, 1, 41, 110
3, 1455605, Note_off_c, 1, 41, 0
3, 1455616, Note_on_c, 1, 41, 110
3, 1456117, Note_off_c, 1, 41, 0
3, 1456128, Note_on_c, 1, 43, 110
3, 1456629, Note_off_c, 1, 43, 0
3, 1456640, Note_on_c, 1, 43, 110
3, 1457141, Note_off_c, 1, 43, 0
3, 1457152, Note_on_c, 1, 43, 110
3, 1457653, Note_off_c, 1, 43, 0
3, 1457664, Note_on_c, 1, 43, 110
3, 1458165, Note_off_c, 1, 43, 0
3, 1458176, Note_on_c, 1, 36, 110
3, 1458677, Note_off_c, 1, 36, 0
3, 1458688, Note_on_c, 1, 36, 110
3, 1459189, Note_off_c, 1, 36, 0
3, 1459200, Note_on_c, 1, 36, 110
3, 1459701, Note_off_c, 1, 36, 0
3, 1459712, Note_on_c, 1, 36, 110
3, 1460213, Note_off_c, 1, 36, 0
3, 1460224, Note_on_c, 1, 36, 110
3, 1460725, Note_off_c, 1, 36, 0
3, 1460736, Note_on_c, 1, 36, 110
3, 1461237, Note_off_c, 1, 36, 0
3, 1461248, Note_on_c, 1, 38, 110
3, 1461493, Note_off_c, 1, 38, 0
3, 1461504, Note_on_c, 1, 40, 110
3, 1462261, Note_off_c, 1, 40, 0
3, 1462272, Note_on_c, 1, 41, 110
3, 1462773, Note_off_c, 1, 41, 0
3, 1462784, Note_on_c, 1, 41, 110
3, 1463285, Note_off_c, 1, 41, 0
3, 1463296, Note_on_c, 1, 41, 110
3, 1463797, Note_off_c, 1, 41, 0
3, 1463808, Note_on_c, 1, 41, 110
3, 1464309, Note_off_c, 1, 41, 0
3, 1464320, Note_on_c, 1, 43, 110
3, 1464821, Note_off_c, 1, 43, 0
3, 1464832, Note_on_c, 1, 43, 110
3, 1465333, Note_off_c, 1, 43, 0
3, 1465344, Note_on_c, 1, 43, 110
3, 1465845, Note_off_c, 1, 43, 0
3, 1465856, Note_on_c, 1, 43, 110
3, 1466357, Note_off_c, 1, 43, 0
3, 1466368, Note_on_c, 1, 40, 110
3, 1466869, Note_off_c, 1, 40, 0
3, 1466880, Note_on_c, 1, 40, 110
3, 1467381, Note_off_c, 1, 40, 0
3, 1467392, Note_on_c, 1, 40, 110
3, 1467893, Note_off_c, 1, 40, 0
3, 1467904, Note_on_c, 1, 40, 110
3, 1468405, Note_off_c, 1, 40, 0
3, 1468416, Note_on_c, 1, 36, 110
3, 1468917, Note_off_c, 1, 36, 0
3, 1468928, Note_on_c, 1, 36, 110
3, 1469429, Note_off_c, 1, 36, 0
3, 1469440, Note_on_c, 1, 36, 110
3, 1469941, Note_off_c, 1, 36, 0
3, 1469952, Note_on_c, 1, 36, 110
3, 1470453, Note_off_c, 1, 36, 0
3, 1470464, Note_on_c, 1, 34, 110
3, 1470965, Note_off_c, 1, 34, 0
3, 1470976, Note_on_c, 1, 34, 110
3, 1471477, Note_off_c, 1, 34, 0
3, 1471488, Note_on_c, 1, 34, 110
3, 1471989, Note_off_c, 1, 34, 0
3, 1472000, Note_on_c, 1, 34, 110
3, 1472501, Note_off_c, 1, 34, 0
3, 1472512, Note_on_c, 1, 34, 110
3, 1473013, Note_off_c, 1, 34, 0
3, 1473024, Note_on_c, 1, 34, 110
3, 1473525, Note_off_c, 1, 34, 0
3, 1473536, Note_on_c, 1, 34, 110
3, 1474037, Note_off_c, 1, 34, 0
3, 1474048, Note_on_c, 1, 34, 110
3, 1474549, Note_off_c, 1, 34, 0
3, 1474560, Note_on_c, 1, 38, 110
3, 1475061, Note_off_c, 1, 38, 0
3, 1475072, Note_on_c, 1, 38, 110
3, 1475573, Note_off_c, 1, 38, 0
3, 1475584, Note_on_c, 1, 38, 110
3, 1476085, Note_off_c, 1, 38, 0
3, 1476096, Note_on_c, 1, 38, 110
3, 1476597, Note_off_c, 1, 38, 0
3, 1476608, Note_on_c, 1, 43, 110
3, 1477109, Note_off_c, 1, 43, 0
3, 1477120, Note_on_c, 1, 43, 110
3, 1477621, Note_off_c, 1, 43, 0
3, 1477632, Note_on_c, 1, 43, 110
3, 1478133, Note_off_c, 1, 43, 0
3, 1478144, Note_on_c, 1, 43, 110
3, 1478645, Note_off_c, 1, 43, 0
3, 1478656, Note_on_c, 1, 36, 110
3, 1479157, Note_off_c, 1, 36, 0
3, 1479168, Note_on_c, 1, 36, 110
3, 1479669, Note_off_c, 1, 36, 0
3, 1479680, Note_on_c, 1, 36, 110
3, 1480181, Note_off_c, 1, 36, 0
3, 1480192, Note_on_c, 1, 36, 110
3, 1480693, Note_off_c, 1, 36, 0
3, 1480704, Note_on_c, 1, 38, 110
3, 1481205, Note_off_c, 1, 38, 0
3, 1481216, Note_on_c, 1, 38, 110
3, 1481717, Note_off_c, 1, 38, 0
3, 1481728, Note_on_c, 1, 38, 110
3, 1482229, Note_off_c, 1, 38, 0
3, 1482240, Note_on_c, 1, 38, 110
3, 1482741, Note_off_c, 1, 38, 0
3, 1482752, Note_on_c, 1, 40, 110
3, 1483253, Note_off_c, 1, 40, 0
3, 1483264, Note_on_c, 1, 40, 110
3, 1483765, Note_off_c, 1, 40, 0
3, 1483776, Note_on_c, 1, 40, 110
3, 1484277, Note_off_c, 1, 40, 0
3, 1484288, Note_on_c, 1, 40, 110
3, 1484789, Note_off_c, 1, 40, 0
3, 1484800, Note_on_c, 1, 36, 110
3, 1485301, Note_off_c, 1, 36, 0
3, 1485312, Note_on_c, 1, 36, 110
3, 1485813, Note_off_c, 1, 36, 0
3, 1485824, Note_on_c, 1, 36, 110
3, 1486325, Note_off_c, 1, 36, 0
3, 1486336, Note_on_c, 1, 36, 110
3, 1486837, Note_off_c, 1, 36, 0
3, 1486848, Note_on_c, 1, 41, 110
3, 1487349, Note_off_c, 1, 41, 0
3, 1487360, Note_on_c, 1, 41, 110
3, 1487861, Note_off_c, 1, 41, 0
3, 1487872, Note_on_c, 1, 41, 110
3, 1488373, Note_off_c, 1, 41, 0
3, 1488384, Note_on_c, 1, 41, 110
3, 1488885, Note_off_c, 1, 41, 0
3, 1488896, Note_on_c, 1, 43, 110
3, 1489397, Note_off_c, 1, 43, 0
3, 1489408, Note_on_c, 1, 43, 110
3, 1489909, Note_off_c, 1, 43, 0
3, 1489920, Note_on_c, 1, 43, 110
3, 1490421, Note_off_c, 1, 43, 0
3, 1490432, Note_on_c, 1, 43, 110
3, 1490933, Note_off_c, 1, 43, 0
3, 1490944, Note_on_c, 1, 36, 110
3, 1491445, Note_off_c, 1, 36, 0
3, 1491456, Note_on_c, 1, 36, 110
3, 1491957, Note_off_c, 1, 36, 0
3, 1491968, Note_on_c, 1, 36, 110
3, 1492469, Note_off_c, 1, 36, 0
3, 1492480, Note_on_c, 1, 36, 110
3, 1492981, Note_off_c, 1, 36, 0
3, 1492992, Note_on_c, 1, 36, 110
3, 1493493, Note_off_c, 1, 36, 0
3, 1493504, Note_on_c, 1, 36, 110
3, 1494005, Note_off_c, 1, 36, 0
3, 1494016, Note_on_c, 1, 38, 110
3, 1494261, Note_off_c, 1, 38, 0
3, 1494272, Note_on_c, 1, 40, 110
3, 1495029, Note_off_c, 1, 40, 0
3, 1495040, Note_on_c, 1, 41, 110
3, 1495541, Note_off_c, 1, 41, 0
3, 1495552, Note_on_c, 1, 41, 110
3, 1496053, Note_off_c, 1, 41, 0
3, 1496064, Note_on_c, 1, 41, 110
3, 1496565, Note_off_c, 1, 41, 0
3, 1496576, Note_on_c, 1, 41, 110
3, 1497077, Note_off_c, 1, 41, 0
3, 1497088, Note_on_c, 1, 43, 110
3, 1497589, Note_off_c, 1, 43, 0
3, 1497600, Note_on_c, 1, 43, 110
3, 1498101, Note_off_c, 1, 43, 0
3, 1498112, Note_on_c, 1, 43, 110
3, 1498613, Note_off_c, 1, 43, 0
3, 1498624, Note_on_c, 1, 43, 110
3, 1499125, Note_off_c, 1, 43, 0
3, 1499136, Note_on_c, 1, 40, 110
3, 1499637, Note_off_c, 1, 40, 0
3, 1499648, Note_on_c, 1, 40, 110
3, 1500149, Note_off_c, 1, 40, 0
3, 1500160, Note_on_c, 1, 40, 110
3, 1500661, Note_off_c, 1, 40, 0
3, 1500672, Note_on_c, 1, 40, 110
3, 1501173, Note_off_c, 1, 40, 0
3, 1501184, Note_on_c, 1, 36, 110
3, 1501685, Note_off_c, 1, 36, 0
3, 1501696, Note_on_c, 1, 36, 110
3, 1502197, Note_off_c, 1, 36, 0
3, 1502208, Note_on_c, 1, 36, 110
3, 1502709, Note_off_c, 1, 36, 0
3, 1502720, Note_on_c, 1, 36, 110
3, 1503221, Note_off_c, 1, 36, 0
3, 1503232, Note_on_c, 1, 38, 110
3, 1503733, Note_off_c, 1, 38, 0
3, 1503744, Note_on_c, 1, 38, 110
3, 1504245, Note_off_c, 1, 38, 0
3, 1504256, Note_on_c, 1, 38, 110
3, 1504757, Note_off_c, 1, 38, 0
3, 1504768, Note_on_c, 1, 38, 110
3, 1505269, Note_off_c, 1, 38, 0
3, 1505280, Note_on_c, 1, 43, 110
3, 1505781, Note_off_c, 1, 43, 0
3, 1505792, Note_on_c, 1, 43, 110
3, 1506293, Note_off_c, 1, 43, 0
3, 1506304, Note_on_c, 1, 43, 110
3, 1506805, Note_off_c, 1, 43, 0
3, 1506816, Note_on_c, 1, 43, 110
3, 1507317, Note_off_c, 1, 43, 0
3, 1507328, Note_on_c, 1, 36, 110
3, 1507829, Note_off_c, 1, 36, 0
3, 1507840, Note_on_c, 1, 36, 110
3, 1508341, Note_off_c, 1, 36, 0
3, 1508352, Note_on_c, 1, 36, 110
3, 1508853, Note_off_c, 1, 36, 0
3, 1508864, Note_on_c, 1, 36, 110
3, 1509365, Note_off_c, 1, 36, 0
3, 1509376, Note_on_c, 1, 36, 110
3, 1509877, Note_off_c, 1, 36, 0
3, 1509888, Note_on_c, 1, 36, 110
3, 1510389, Note_off_c, 1, 36, 0
3, 1510400, Note_on_c, 1, 36, 110
3, 1510901, Note_off_c, 1, 36, 0
3, 1510912, Note_on_c, 1, 36, 110
3, 1511413, Note_off_c, 1, 36, 0
3, 1511424, Note_on_c, 1, 45, 110
3, 1512789, Note_off_c, 1, 45, 0
3, 1512960, Note_on_c, 1, 45, 110
3, 1515264, Note_off_c, 1, 45, 0
3, 1515520, Note_on_c, 1, 43, 110
3, 1516885, Note_off_c, 1, 43, 0
3, 1517056, Note_on_c, 1, 43, 110
3, 1519360, Note_off_c, 1, 43, 0
3, 1519616, Note_on_c, 1, 41, 110
3, 1520981, Note_off_c, 1, 41, 0
3, 1521152, Note_on_c, 1, 41, 110
3, 1523456, Note_off_c, 1, 41, 0
3, 1523712, Note_on_c, 1, 40, 110
3, 1525077, Note_off_c, 1, 40, 0
3, 1525248, Note_on_c, 1, 40, 110
3, 1527552, Note_off_c, 1, 40, 0
3, 1527808, Note_on_c, 1, 38, 110
3, 1530624, Note_off_c, 1, 38, 0
3, 1530880, Note_on_c, 1, 38, 110
3, 1531733, Note_off_c, 1, 38, 0
3, 1531904, Note_on_c, 1, 40, 110
3, 1534720, Note_off_c, 1, 40, 0
3, 1534976, Note_on_c, 1, 40, 110
3, 1535829, Note_off_c, 1, 40, 0
3, 1536000, Note_on_c, 1, 41, 110
3, 1538816, Note_off_c, 1, 41, 0
3, 1539072, Note_on_c, 1, 41, 110
3, 1539925, Note_off_c, 1, 41, 0
3, 1540096, Note_on_c, 1, 43, 110
3, 1543936, Note_off_c, 1, 43, 0
3, 1544192, Note_on_c, 1, 48, 110
3, 1544693, Note_off_c, 1, 48, 0
3, 1544704, Note_on_c, 1, 48, 110
3, 1545205, Note_off_c, 1, 48, 0
3, 1545216, Note_on_c, 1, 48, 110
3, 1545717, Note_off_c, 1, 48, 0
3, 1545728, Note_on_c, 1, 48, 110
3, 1546229, Note_off_c, 1, 48, 0
3, 1546240, Note_on_c, 1, 47, 110
3, 1546741, Note_off_c, 1, 47, 0
3, 1546752, Note_on_c, 1, 47, 110
3, 1547253, Note_off_c, 1, 47, 0
3, 1547264, Note_on_c, 1, 47, 110
3, 1547765, Note_off_c, 1, 47, 0
3, 1547776, Note_on_c, 1, 47, 110
3, 1548277, Note_off_c, 1, 47, 0
3, 1548288, Note_on_c, 1, 45, 110
3, 1548789, Note_off_c, 1, 45, 0
3, 1548800, Note_on_c, 1, 45, 110
3, 1549301, Note_off_c, 1, 45, 0
3, 1549312, Note_on_c, 1, 45, 110
3, 1549813, Note_off_c, 1, 45, 0
3, 1549824, Note_on_c, 1, 45, 110
3, 1550325, Note_off_c, 1, 45, 0
3, 1550336, Note_on_c, 1, 43, 110
3, 1550837, Note_off_c, 1, 43, 0
3, 1550848, Note_on_c, 1, 43, 110
3, 1551349, Note_off_c, 1, 43, 0
3, 1551360, Note_on_c, 1, 43, 110
3, 1551861, Note_off_c, 1, 43, 0
3, 1551872, Note_on_c, 1, 43, 110
3, 1552373, Note_off_c, 1, 43, 0
3, 1552384, Note_on_c, 1, 41, 110
3, 1552885, Note_off_c, 1, 41, 0
3, 1552896, Note_on_c, 1, 41, 110
3, 1553397, Note_off_c, 1, 41, 0
3, 1553408, Note_on_c, 1, 41, 110
3, 1553909, Note_off_c, 1, 41, 0
3, 1553920, Note_on_c, 1, 41, 110
3, 1554421, Note_off_c, 1, 41, 0
3, 1554432, Note_on_c, 1, 40, 110
3, 1554933, Note_off_c, 1, 40, 0
3, 1554944, Note_on_c, 1, 40, 110
3, 1555445, Note_off_c, 1, 40, 0
3, 1555456, Note_on_c, 1, 40, 110
3, 1555957, Note_off_c, 1, 40, 0
3, 1555968, Note_on_c, 1, 40, 110
3, 1556469, Note_off_c, 1, 40, 0
3, 1556480, Note_on_c, 1, 38, 110
3, 1556981, Note_off_c, 1, 38, 0
3, 1556992, Note_on_c, 1, 38, 110
3, 1557493, Note_off_c, 1, 38, 0
3, 1557504, Note_on_c, 1, 38, 110
3, 1558005, Note_off_c, 1, 38, 0
3, 1558016, Note_on_c, 1, 38, 110
3, 1558517, Note_off_c, 1, 38, 0
3, 1558528, Note_on_c, 1, 43, 110
3, 1559029, Note_off_c, 1, 43, 0
3, 1559040, Note_on_c, 1, 43, 110
3, 1559541, Note_off_c, 1, 43, 0
3, 1559552, Note_on_c, 1, 43, 110
3, 1560053, Note_off_c, 1, 43, 0
3, 1560064, Note_on_c, 1, 43, 110
3, 1560565, Note_off_c, 1, 43, 0
3, 1560576, Note_on_c, 1, 48, 110
3, 1561077, Note_off_c, 1, 48, 0
3, 1561088, Note_on_c, 1, 48, 110
3, 1561589, Note_off_c, 1, 48, 0
3, 1561600, Note_on_c, 1, 48, 110
3, 1562101, Note_off_c, 1, 48, 0
3, 1562112, Note_on_c, 1, 48, 110
3, 1562613, Note_off_c, 1, 48, 0
3, 1562624, Note_on_c, 1, 47, 110
3, 1563125, Note_off_c, 1, 47, 0
3, 1563136, Note_on_c, 1, 47, 110
3, 1563637, Note_off_c, 1, 47, 0
3, 1563648, Note_on_c, 1, 47, 110
3, 1564149, Note_off_c, 1, 47, 0
3, 1564160, Note_on_c, 1, 47, 110
3, 1564661, Note_off_c, 1, 47, 0
3, 1564672, Note_on_c, 1, 45, 110
3, 1565173, Note_off_c, 1, 45, 0
3, 1565184, Note_on_c, 1, 45, 110
3, 1565685, Note_off_c, 1, 45, 0
3, 1565696, Note_on_c, 1, 45, 110
3, 1566197, Note_off_c, 1, 45, 0
3, 1566208, Note_on_c, 1, 45, 110
3, 1566709, Note_off_c, 1, 45, 0
3, 1566720, Note_on_c, 1, 43, 110
3, 1567221, Note_off_c, 1, 43, 0
3, 1567232, Note_on_c, 1, 43, 110
3, 1567733, Note_off_c, 1, 43, 0
3, 1567744, Note_on_c, 1, 43, 110
3, 1568245, Note_off_c, 1, 43, 0
3, 1568256, Note_on_c, 1, 43, 110
3, 1568757, Note_off_c, 1, 43, 0
3, 1568768, Note_on_c, 1, 41, 110
3, 1569269, Note_off_c, 1, 41, 0
3, 1569280, Note_on_c, 1, 41, 110
3, 1569781, Note_off_c, 1, 41, 0
3, 1569792, Note_on_c, 1, 41, 110
3, 1570293, Note_off_c, 1, 41, 0
3, 1570304, Note_on_c, 1, 41, 110
3, 1570805, Note_off_c, 1, 41, 0
3, 1570816, Note_on_c, 1, 40, 110
3, 1571317, Note_off_c, 1, 40, 0
3, 1571328, Note_on_c, 1, 40, 110
3, 1571829, Note_off_c, 1, 40, 0
3, 1571840, Note_on_c, 1, 40, 110
3, 1572341, Note_off_c, 1, 40, 0
3, 1572352, Note_on_c, 1, 40, 110
3, 1572853, Note_off_c, 1, 40, 0
3, 1572864, Note_on_c, 1, 38, 110
3, 1573365, Note_off_c, 1, 38, 0
3, 1573376, Note_on_c, 1, 38, 110
3, 1573877, Note_off_c, 1, 38, 0
3, 1573888, Note_on_c, 1, 38, 110
3, 1574389, Note_off_c, 1, 38, 0
3, 1574400, Note_on_c, 1, 38, 110
3, 1574901, Note_off_c, 1, 38, 0
3, 1574912, Note_on_c, 1, 43, 110
3, 1575413, Note_off_c, 1, 43, 0
3, 1575424, Note_on_c, 1, 43, 110
3, 1575925, Note_off_c, 1, 43, 0
3, 1575936, Note_on_c, 1, 43, 110
3, 1576437, Note_off_c, 1, 43, 0
3, 1576448, Note_on_c, 1, 43, 110
3, 1576949, Note_off_c, 1, 43, 0
3, 1576960, Note_on_c, 1, 36, 110
3, 1577461, Note_off_c, 1, 36, 0
3, 1577472, Note_on_c, 1, 36, 110
3, 1577973, Note_off_c, 1, 36, 0
3, 1577984, Note_on_c, 1, 36, 110
3, 1578485, Note_off_c, 1, 36, 0
3, 1578496, Note_on_c, 1, 36, 110
3, 1578997, Note_off_c, 1, 36, 0
3, 1579008, Note_on_c, 1, 38, 110
3, 1579509, Note_off_c, 1, 38, 0
3, 1579520, Note_on_c, 1, 38, 110
3, 1580021, Note_off_c, 1, 38, 0
3, 1580032, Note_on_c, 1, 38, 110
3, 1580533, Note_off_c, 1, 38, 0
3, 1580544, Note_on_c, 1, 38, 110
3, 1581045, Note_off_c, 1, 38, 0
3, 1581056, Note_on_c, 1, 40, 110
3, 1581557, Note_off_c, 1, 40, 0
3, 1581568, Note_on_c, 1, 40, 110
3, 1582069, Note_off_c, 1, 40, 0
3, 1582080, Note_on_c, 1, 40, 110
3, 1582581, Note_off_c, 1, 40, 0
3, 1582592, Note_on_c, 1, 40, 110
3, 1583093, Note_off_c, 1, 40, 0
3, 1583104, Note_on_c, 1, 36, 110
3, 1583605, Note_off_c, 1, 36, 0
3, 1583616, Note_on_c, 1, 36, 110
3, 1584117, Note_off_c, 1, 36, 0
3, 1584128, Note_on_c, 1, 36, 110
3, 1584629, Note_off_c, 1, 36, 0
3, 1584640, Note_on_c, 1, 36, 110
3, 1585141, Note_off_c, 1, 36, 0
3, 1585152, Note_on_c, 1, 41, 110
3, 1585653, Note_off_c, 1, 41, 0
3, 1585664, Note_on_c, 1, 41, 110
3, 1586165, Note_off_c, 1, 41, 0
3, 1586176, Note_on_c, 1, 41, 110
3, 1586677, Note_off_c, 1, 41, 0
3, 1586688, Note_on_c, 1, 41, 110
3, 1587189, Note_off_c, 1, 41, 0
3, 1587200, Note_on_c, 1, 43, 110
3, 1587701, Note_off_c, 1, 43, 0
3, 1587712, Note_on_c, 1, 43, 110
3, 1588213, Note_off_c, 1, 43, 0
3, 1588224, Note_on_c, 1, 43, 110
3, 1588725, Note_off_c, 1, 43, 0
3, 1588736, Note_on_c, 1, 43, 110
3, 1589237, Note_off_c, 1, 43, 0
3, 1589248, Note_on_c, 1, 36, 110
3, 1589749, Note_off_c, 1, 36, 0
3, 1589760, Note_on_c, 1, 36, 110
3, 1590261, Note_off_c, 1, 36, 0
3, 1590272, Note_on_c, 1, 36, 110
3, 1590773, Note_off_c, 1, 36, 0
3, 1590784, Note_on_c, 1, 36, 110
3, 1591285, Note_off_c, 1, 36, 0
3, 1591296, Note_on_c, 1, 36, 110
3, 1591797, Note_off_c, 1, 36, 0
3, 1591808, Note_on_c, 1, 36, 110
3, 1592309, Note_off_c, 1, 36, 0
3, 1592320, Note_on_c, 1, 38, 110
3, 1592565, Note_off_c, 1, 38, 0
3, 1592576, Note_on_c, 1, 40, 110
3, 1593333, Note_off_c, 1, 40, 0
3, 1593344, Note_on_c, 1, 41, 110
3, 1593845, Note_off_c, 1, 41, 0
3, 1593856, Note_on_c, 1, 41, 110
3, 1594357, Note_off_c, 1, 41, 0
3, 1594368, Note_on_c, 1, 41, 110
3, 1594869, Note_off_c, 1, 41, 0
3, 1594880, Note_on_c, 1, 41, 110
3, 1595381, Note_off_c, 1, 41, 0
3, 1595392, Note_on_c, 1, 43, 110
3, 1595893, Note_off_c, 1, 43, 0
3, 1595904, Note_on_c, 1, 43, 110
3, 1596405, Note_off_c, 1, 43, 0
3, 1596416, Note_on_c, 1, 43, 110
3, 1596917, Note_off_c, 1, 43, 0
3, 1596928, Note_on_c, 1, 43, 110
3, 1597429, Note_off_c, 1, 43, 0
3, 1597440, Note_on_c, 1, 40, 110
3, 1597941, Note_off_c, 1, 40, 0
3, 1597952, Note_on_c, 1, 40, 110
3, 1598453, Note_off_c, 1, 40, 0
3, 1598464, Note_on_c, 1, 40, 110
3, 1598965, Note_off_c, 1, 40, 0
3, 1598976, Note_on_c, 1, 40, 110
3, 1599477, Note_off_c, 1, 40, 0
3, 1599488, Note_on_c, 1, 36, 110
3, 1599989, Note_off_c, 1, 36, 0
3, 1600000, Note_on_c, 1, 36, 110
3, 1600501, Note_off_c, 1, 36, 0
3, 1600512, Note_on_c, 1, 36, 110
3, 1601013, Note_off_c, 1, 36, 0
3, 1601024, Note_on_c, 1, 36, 110
3, 1601525, Note_off_c, 1, 36, 0
3, 1601536, Note_on_c, 1, 34, 110
3, 1602037, Note_off_c, 1, 34, 0
3, 1602048, Note_on_c, 1, 34, 110
3, 1602549, Note_off_c, 1, 34, 0
3, 1602560, Note_on_c, 1, 34, 110
3, 1603061, Note_off_c, 1, 34, 0
3, 1603072, Note_on_c, 1, 34, 110
3, 1603573, Note_off_c, 1, 34, 0
3, 1603584, Note_on_c, 1, 34, 110
3, 1604085, Note_off_c, 1, 34, 0
3, 1604096, Note_on_c, 1, 34, 110
3, 1604597, Note_off_c, 1, 34, 0
3, 1604608, Note_on_c, 1, 34, 110
3, 1605109, Note_off_c, 1, 34, 0
3, 1605120, Note_on_c, 1, 34, 110
3, 1605621, Note_off_c, 1, 34, 0
3, 1605632, Note_on_c, 1, 38, 110
3, 1606133, Note_off_c, 1, 38, 0
3, 1606144, Note_on_c, 1, 38, 110
3, 1606645, Note_off_c, 1, 38, 0
3, 1606656, Note_on_c, 1, 38, 110
3, 1607157, Note_off_c, 1, 38, 0
3, 1607168, Note_on_c, 1, 38, 110
3, 1607669, Note_off_c, 1, 38, 0
3, 1607680, Note_on_c, 1, 43, 110
3, 1608181, Note_off_c, 1, 43, 0
3, 1608192, Note_on_c, 1, 43, 110
3, 1608693, Note_off_c, 1, 43, 0
3, 1608704, Note_on_c, 1, 43, 110
3, 1609205, Note_off_c, 1, 43, 0
3, 1609216, Note_on_c, 1, 43, 110
3, 1609717, Note_off_c, 1, 43, 0
3, 1609728, Note_on_c, 1, 36, 110
3, 1610229, Note_off_c, 1, 36, 0
3, 1610240, Note_on_c, 1, 36, 110
3, 1610741, Note_off_c, 1, 36, 0
3, 1610752, Note_on_c, 1, 36, 110
3, 1611253, Note_off_c, 1, 36, 0
3, 1611264, Note_on_c, 1, 36, 110
3, 1611765, Note_off_c, 1, 36, 0
3, 1611776, Note_on_c, 1, 38, 110
3, 1612277, Note_off_c, 1, 38, 0
3, 1612288, Note_on_c, 1, 38, 110
3, 1612789, Note_off_c, 1, 38, 0
3, 1612800, Note_on_c, 1, 38, 110
3, 1613301, Note_off_c, 1, 38, 0
3, 1613312, Note_on_c, 1, 38, 110
3, 1613813, Note_off_c, 1, 38, 0
3, 1613824, Note_on_c, 1, 40, 110
3, 1614325, Note_off_c, 1, 40, 0
3, 1614336, Note_on_c, 1, 40, 110
3, 1614837, Note_off_c, 1, 40, 0
3, 1614848, Note_on_c, 1, 40, 110
3, 1615349, Note_off_c, 1, 40, 0
3, 1615360, Note_on_c, 1, 40, 110
3, 1615861, Note_off_c, 1, 40, 0
3, 1615872, Note_on_c, 1, 36, 110
3, 1616373, Note_off_c, 1, 36, 0
3, 1616384, Note_on_c, 1, 36, 110
3, 1616885, Note_off_c, 1, 36, 0
3, 1616896, Note_on_c, 1, 36, 110
3, 1617397, Note_off_c, 1, 36, 0
3, 1617408, Note_on_c, 1, 36, 110
3, 1617909, Note_off_c, 1, 36, 0
3, 1617920, Note_on_c, 1, 41, 110
3, 1618421, Note_off_c, 1, 41, 0
3, 1618432, Note_on_c, 1, 41, 110
3, 1618933, Note_off_c, 1, 41, 0
3, 1618944, Note_on_c, 1, 41, 110
3, 1619445, Note_off_c, 1, 41, 0
3, 1619456, Note_on_c, 1, 41, 110
3, 1619957, Note_off_c, 1, 41, 0
3, 1619968, Note_on_c, 1, 43, 110
3, 1620469, Note_off_c, 1, 43, 0
3, 1620480, Note_on_c, 1, 43, 110
3, 1620981, Note_off_c, 1, 43, 0
3, 1620992, Note_on_c, 1, 43, 110
3, 1621493, Note_off_c, 1, 43, 0
3, 1621504, Note_on_c, 1, 43, 110
3, 1622005, Note_off_c, 1, 43, 0
3, 1622016, Note_on_c, 1, 36, 110
3, 1622517, Note_off_c, 1, 36, 0
3, 1622528, Note_on_c, 1, 36, 110
3, 1623029, Note_off_c, 1, 36, 0
3, 1623040, Note_on_c, 1, 36, 110
3, 1623541, Note_off_c, 1, 36, 0
3, 1623552, Note_on_c, 1, 36, 110
3, 1624053, Note_off_c, 1, 36, 0
3, 1624064, Note_on_c, 1, 36, 110
3, 1624565, Note_off_c, 1, 36, 0
3, 1624576, Note_on_c, 1, 36, 110
3, 1625077, Note_off_c, 1, 36, 0
3, 1625088, Note_on_c, 1, 38, 110
3, 1625333, Note_off_c, 1, 38, 0
3, 1625344, Note_on_c, 1, 40, 110
3, 1626101, Note_off_c, 1, 40, 0
3, 1626112, Note_on_c, 1, 41, 110
3, 1626613, Note_off_c, 1, 41, 0
3, 1626624, Note_on_c, 1, 41, 110
3, 1627125, Note_off_c, 1, 41, 0
3, 1627136, Note_on_c, 1, 41, 110
3, 1627637, Note_off_c, 1, 41, 0
3, 1627648, Note_on_c, 1, 41, 110
3, 1628149, Note_off_c, 1, 41, 0
3, 1628160, Note_on_c, 1, 43, 110
3, 1628661, Note_off_c, 1, 43, 0
3, 1628672, Note_on_c, 1, 43, 110
3, 1629173, Note_off_c, 1, 43, 0
3, 1629184, Note_on_c, 1, 43, 110
3, 1629685, Note_off_c, 1, 43, 0
3, 1629696, Note_on_c, 1, 43, 110
3, 1630197, Note_off_c, 1, 43, 0
3, 1630208, Note_on_c, 1, 40, 110
3, 1630709, Note_off_c, 1, 40, 0
3, 1630720, Note_on_c, 1, 40, 110
3, 1631221, Note_off_c, 1, 40, 0
3, 1631232, Note_on_c, 1, 40, 110
3, 1631733, Note_off_c, 1, 40, 0
3, 1631744, Note_on_c, 1, 40, 110
3, 1632245, Note_off_c, 1, 40, 0
3, 1632256, Note_on_c, 1, 36, 110
3, 1632757, Note_off_c, 1, 36, 0
3, 1632768, Note_on_c, 1, 36, 110
3, 1633269, Note_off_c, 1, 36, 0
3, 1633280, Note_on_c, 1, 36, 110
3, 1633781, Note_off_c, 1, 36, 0
3, 1633792, Note_on_c, 1, 36, 110
3, 1634293, Note_off_c, 1, 36, 0
3, 1634304, Note_on_c, 1, 38, 110
3, 1634805, Note_off_c, 1, 38, 0
3, 1634816, Note_on_c, 1, 38, 110
3, 1635317, Note_off_c, 1, 38, 0
3, 1635328, Note_on_c, 1, 38, 110
3, 1635829, Note_off_c, 1, 38, 0
3, 1635840, Note_on_c, 1, 38, 110
3, 1636341, Note_off_c, 1, 38, 0
3, 1636352, Note_on_c, 1, 43, 110
3, 1636853, Note_off_c, 1, 43, 0
3, 1636864, Note_on_c, 1, 43, 110
3, 1637365, Note_off_c, 1, 43, 0
3, 1637376, Note_on_c, 1, 43, 110
3, 1637877, Note_off_c, 1, 43, 0
3, 1637888, Note_on_c, 1, 43, 110
3, 1638389, Note_off_c, 1, 43, 0
3, 1638400, Note_on_c, 1, 36, 110
3, 1638901, Note_off_c, 1, 36, 0
3, 1638912, Note_on_c, 1, 36, 110
3, 1639413, Note_off_c, 1, 36, 0
3, 1639424, Note_on_c, 1, 36, 110
3, 1639925, Note_off_c, 1, 36, 0
3, 1639936, Note_on_c, 1, 36, 110
3, 1640437, Note_off_c, 1, 36, 0
3, 1640448, Note_on_c, 1, 36, 110
3, 1640949, Note_off_c, 1, 36, 0
3, 1640960, Note_on_c, 1, 36, 110
3, 1641461, Note_off_c, 1, 36, 0
3, 1641472, Note_on_c, 1, 36, 110
3, 1641973, Note_off_c, 1, 36, 0
3, 1641984, Note_on_c, 1, 36, 110
3, 1642485, Note_off_c, 1, 36, 0
3, 1642496, Note_on_c, 1, 45, 110
3, 1643861, Note_off_c, 1, 45, 0
3, 1644032, Note_on_c, 1, 45, 110
3, 1646336, Note_off_c, 1, 45, 0
3, 1646592, Note_on_c, 1, 43, 110
3, 1647957, Note_off_c, 1, 43, 0
3, 1648128, Note_on_c, 1, 43, 110
3, 1650432, Note_off_c, 1, 43, 0
3, 1650688, Note_on_c, 1, 41, 110
3, 1652053, Note_off_c, 1, 41, 0
3, 1652224, Note_on_c, 1, 41, 110
3, 1654528, Note_off_c, 1, 41, 0
3, 1654784, Note_on_c, 1, 40, 110
3, 1656149, Note_off_c, 1, 40, 0
3, 1656320, Note_on_c, 1, 40, 110
3, 1658624, Note_off_c, 1, 40, 0
3, 1658880, Note_on_c, 1, 38, 110
3, 1661696, Note_off_c, 1, 38, 0
3, 1661952, Note_on_c, 1, 38, 110
3, 1662805, Note_off_c, 1, 38, 0
3, 1662976, Note_on_c, 1, 40, 110
3, 1665792, Note_off_c, 1, 40, 0
3, 1666048, Note_on_c, 1, 40, 110
3, 1666901, Note_off_c, 1, 40, 0
3, 1667072, Note_on_c, 1, 41, 110
3, 1669888, Note_off_c, 1, 41, 0
3, 1670144, Note_on_c, 1, 41, 110
3, 1670997, Note_off_c, 1, 41, 0
3, 1671168, Note_on_c, 1, 43, 110
3, 1675008, Note_off_c, 1, 43, 0
3, 1675264, Note_on_c, 1, 48, 110
3, 1675765, Note_off_c, 1, 48, 0
3, 1675776, Note_on_c, 1, 48, 110
3, 1676277, Note_off_c, 1, 48, 0
3, 1676288, Note_on_c, 1, 48, 110
3, 1676789, Note_off_c, 1, 48, 0
3, 1676800, Note_on_c, 1, 48, 110
3, 1677301, Note_off_c, 1, 48, 0
3, 1677312, Note_on_c, 1, 47, 110
3, 1677813, Note_off_c, 1, 47, 0
3, 1677824, Note_on_c, 1, 47, 110
3, 1678325, Note_off_c, 1, 47, 0
3, 1678336, Note_on_c, 1, 47, 110
3, 1678837, Note_off_c, 1, 47, 0
3, 1678848, Note_on_c, 1, 47, 110
3, 1679349, Note_off_c, 1, 47, 0
3, 1679360, Note_on_c, 1, 45, 110
3, 1679861, Note_off_c, 1, 45, 0
3, 1679872, Note_on_c, 1, 45, 110
3, 1680373, Note_off_c, 1, 45, 0
3, 1680384, Note_on_c, 1, 45, 110
3, 1680885, Note_off_c, 1, 45, 0
3, 1680896, Note_on_c, 1, 45, 110
3, 1681397, Note_off_c, 1, 45, 0
3, 1681408, Note_on_c, 1, 43, 110
3, 1681909, Note_off_c, 1, 43, 0
3, 1681920, Note_on_c, 1, 43, 110
3, 1682421, Note_off_c, 1, 43, 0
3, 1682432, Note_on_c, 1, 43, 110
3, 1682933, Note_off_c, 1, 43, 0
3, 1682944, Note_on_c, 1, 43, 110
3, 1683445, Note_off_c, 1, 43, 0
3, 1683456, Note_on_c, 1, 41, 110
3, 1683957, Note_off_c, 1, 41, 0
3, 1683968, Note_on_c, 1, 41, 110
3, 1684469, Note_off_c, 1, 41, 0
3, 1684480, Note_on_c, 1, 41, 110
3, 1684981, Note_off_c, 1, 41, 0
3, 1684992, Note_on_c, 1, 41, 110
3, 1685493, Note_off_c, 1, 41, 0
3, 1685504, Note_on_c, 1, 40, 110
3, 1686005, Note_off_c, 1, 40, 0
3, 1686016, Note_on_c, 1, 40, 110
3, 1686517, Note_off_c, 1, 40, 0
3, 1686528, Note_on_c, 1, 40, 110
3, 1687029, Note_off_c, 1, 40, 0
3, 1687040, Note_on_c, 1, 40, 110
3, 1687541, Note_off_c, 1, 40, 0
3, 1687552, Note_on_c, 1, 38, 110
3, 1688053, Note_off_c, 1, 38, 0
3, 1688064, Note_on_c, 1, 38, 110
3, 1688565, Note_off_c, 1, 38, 0
3, 1688576, Note_on_c, 1, 38, 110
3, 1689077, Note_off_c, 1, 38, 0
3, 1689088, Note_on_c, 1, 38, 110
3, 1689589, Note_off_c, 1, 38, 0
3, 1689600, Note_on_c, 1, 43, 110
3, 1690101, Note_off_c, 1, 43, 0
3, 1690112, Note_on_c, 1, 43, 110
3, 1690613, Note_off_c, 1, 43, 0
3, 1690624, Note_on_c, 1, 43, 110
3, 1691125, Note_off_c, 1, 43, 0
3, 1691136, Note_on_c, 1, 43, 110
3, 1691637, Note_off_c, 1, 43, 0
3, 1691648, Note_on_c, 1, 48, 110
3, 1692149, Note_off_c, 1, 48, 0
3, 1692160, Note_on_c, 1, 48, 110
3, 1692661, Note_off_c, 1, 48, 0
3, 1692672, Note_on_c, 1, 48, 110
3, 1693173, Note_off_c, 1, 48, 0
3, 1693184, Note_on_c, 1, 48, 110
3, 1693685, Note_off_c, 1, 48, 0
3, 1693696, Note_on_c, 1, 47, 110
3, 1694197, Note_off_c, 1, 47, 0
3, 1694208, Note_on_c, 1, 47, 110
3, 1694709, Note_off_c, 1, 47, 0
3, 1694720, Note_on_c, 1, 47, 110
3, 1695221, Note_off_c, 1, 47, 0
3, 1695232, Note_on_c, 1, 47, 110
3, 1695733, Note_off_c, 1, 47, 0
3, 1695744, Note_on_c, 1, 45, 110
3, 1696245, Note_off_c, 1, 45, 0
3, 1696256, Note_on_c, 1, 45, 110
3, 1696757, Note_off_c, 1, 45, 0
3, 1696768, Note_on_c, 1, 45, 110
3, 1697269, Note_off_c, 1, 45, 0
3, 1697280, Note_on_c, 1, 45, 110
3, 1697781, Note_off_c, 1, 45, 0
3, 1697792, Note_on_c, 1, 43, 110
3, 1698293, Note_off_c, 1, 43, 0
3, 1698304, Note_on_c, 1, 43, 110
3, 1698805, Note_off_c, 1, 43, 0
3, 1698816, Note_on_c, 1, 43, 110
3, 1699317, Note_off_c, 1, 43, 0
3, 1699328, Note_on_c, 1, 43, 110
3, 1699829, Note_off_c, 1, 43, 0
3, 1699840, Note_on_c, 1, 41, 110
3, 1700341, Note_off_c, 1, 41, 0
3, 1700352, Note_on_c, 1, 41, 110
3, 1700853, Note_off_c, 1, 41, 0
3, 1700864, Note_on_c, 1, 41, 110
3, 1701365, Note_off_c, 1, 41, 0
3, 1701376, Note_on_c, 1, 41, 110
3, 1701877, Note_off_c, 1, 41, 0
3, 1701888, Note_on_c, 1, 40, 110
3, 1702389, Note_off_c, 1, 40, 0
3, 1702400, Note_on_c, 1, 40, 110
3, 1702901, Note_off_c, 1, 40, 0
3, 1702912, Note_on_c, 1, 40, 110
3, 1703413, Note_off_c, 1, 40, 0
3, 1703424, Note_on_c, 1, 40, 110
3, 1703925, Note_off_c, 1, 40, 0
3, 1703936, Note_on_c, 1, 38, 110
3, 1704437, Note_off_c, 1, 38, 0
3, 1704448, Note_on_c, 1, 38, 110
3, 1704949, Note_off_c, 1, 38, 0
3, 1704960, Note_on_c, 1, 38, 110
3, 1705461, Note_off_c, 1, 38, 0
3, 1705472, Note_on_c, 1, 38, 110
3, 1705973, Note_off_c, 1, 38, 0
3, 1705984, Note_on_c, 1, 43, 110
3, 1706485, Note_off_c, 1, 43, 0
3, 1706496, Note_on_c, 1, 43, 110
3, 1706997, Note_off_c, 1, 43, 0
3, 1707008, Note_on_c, 1, 43, 110
3, 1707509, Note_off_c, 1, 43, 0
3, 1707520, Note_on_c, 1, 43, 110
3, 1708021, Note_off_c, 1, 43, 0
3, 1708032, Note_on_c, 1, 49, 110
3, 1708533, Note_off_c, 1, 49, 0
3, 1708544, Note_on_c, 1, 49, 110
3, 1709045, Note_off_c, 1, 49, 0
3, 1709056, Note_on_c, 1, 49, 110
3, 1709557, Note_off_c, 1, 49, 0
3, 1709568, Note_on_c, 1, 49, 110
3, 1710069, Note_off_c, 1, 49, 0
3, 1710080, Note_on_c, 1, 48, 110
3, 1710581, Note_off_c, 1, 48, 0
3, 1710592, Note_on_c, 1, 48, 110
3, 1711093, Note_off_c, 1, 48, 0
3, 1711104, Note_on_c, 1, 48, 110
3, 1711605, Note_off_c, 1, 48, 0
3, 1711616, Note_on_c, 1, 48, 110
3, 1712117, Note_off_c, 1, 48, 0
3, 1712128, Note_on_c, 1, 46, 110
3, 1712629, Note_off_c, 1, 46, 0
3, 1712640, Note_on_c, 1, 46, 110
3, 1713141, Note_off_c, 1, 46, 0
3, 1713152, Note_on_c, 1, 46, 110
3, 1713653, Note_off_c, 1, 46, 0
3, 1713664, Note_on_c, 1, 46, 110
3, 1714165, Note_off_c, 1, 46, 0
3, 1714176, Note_on_c, 1, 44, 110
3, 1714677, Note_off_c, 1, 44, 0
3, 1714688, Note_on_c, 1, 44, 110
3, 1715189, Note_off_c, 1, 44, 0
3, 1715200, Note_on_c, 1, 44, 110
3, 1715701, Note_off_c, 1, 44, 0
3, 1715712, Note_on_c, 1, 44, 110
3, 1716213, Note_off_c, 1, 44, 0
3, 1716224, Note_on_c, 1, 42, 110
3, 1716725, Note_off_c, 1, 42, 0
3, 1716736, Note_on_c, 1, 42, 110
3, 1717237, Note_off_c, 1, 42, 0
3, 1717248, Note_on_c, 1, 42, 110
3, 1717749, Note_off_c, 1, 42, 0
3, 1717760, Note_on_c, 1, 42, 110
3, 1718261, Note_off_c, 1, 42, 0
3, 1718272, Note_on_c, 1, 41, 110
3, 1718773, Note_off_c, 1, 41, 0
3, 1718784, Note_on_c, 1, 41, 110
3, 1719285, Note_off_c, 1, 41, 0
3, 1719296, Note_on_c, 1, 41, 110
3, 1719797, Note_off_c, 1, 41, 0
3, 1719808, Note_on_c, 1, 41, 110
3, 1720309, Note_off_c, 1, 41, 0
3, 1720320, Note_on_c, 1, 39, 110
3, 1720821, Note_off_c, 1, 39, 0
3, 1720832, Note_on_c, 1, 39, 110
3, 1721333, Note_off_c, 1, 39, 0
3, 1721344, Note_on_c, 1, 39, 110
3, 1721845, Note_off_c, 1, 39, 0
3, 1721856, Note_on_c, 1, 39, 110
3, 1722357, Note_off_c, 1, 39, 0
3, 1722368, Note_on_c, 1, 44, 110
3, 1722869, Note_off_c, 1, 44, 0
3, 1722880, Note_on_c, 1, 44, 110
3, 1723381, Note_off_c, 1, 44, 0
3, 1723392, Note_on_c, 1, 44, 110
3, 1723893, Note_off_c, 1, 44, 0
3, 1723904, Note_on_c, 1, 44, 110
3, 1724405, Note_off_c, 1, 44, 0
3, 1724416, Note_on_c, 1, 49, 110
3, 1724917, Note_off_c, 1, 49, 0
3, 1724928, Note_on_c, 1, 49, 110
3, 1725429, Note_off_c, 1, 49, 0
3, 1725440, Note_on_c, 1, 49, 110
3, 1725941, Note_off_c, 1, 49, 0
3, 1725952, Note_on_c, 1, 49, 110
3, 1726453, Note_off_c, 1, 49, 0
3, 1726464, Note_on_c, 1, 48, 110
3, 1726965, Note_off_c, 1, 48, 0
3, 1726976, Note_on_c, 1, 48, 110
3, 1727477, Note_off_c, 1, 48, 0
3, 1727488, Note_on_c, 1, 48, 110
3, 1727989, Note_off_c, 1, 48, 0
3, 1728000, Note_on_c, 1, 48, 110
3, 1728501, Note_off_c, 1, 48, 0
3, 1728512, Note_on_c, 1, 46, 110
3, 1729013, Note_off_c, 1, 46, 0
3, 1729024, Note_on_c, 1, 46, 110
3, 1729525, Note_off_c, 1, 46, 0
3, 1729536, Note_on_c, 1, 46, 110
3, 1730037, Note_off_c, 1, 46, 0
3, 1730048, Note_on_c, 1, 46, 110
3, 1730549, Note_off_c, 1, 46, 0
3, 1730560, Note_on_c, 1, 44, 110
3, 1731061, Note_off_c, 1, 44, 0
3, 1731072, Note_on_c, 1, 44, 110
3, 1731573, Note_off_c, 1, 44, 0
3, 1731584, Note_on_c, 1, 44, 110
3, 1732085, Note_off_c, 1, 44, 0
3, 1732096, Note_on_c, 1, 44, 110
3, 1732597, Note_off_c, 1, 44, 0
3, 1732608, Note_on_c, 1, 42, 110
3, 1733109, Note_off_c, 1, 42, 0
3, 1733120, Note_on_c, 1, 42, 110
3, 1733621, Note_off_c, 1, 42, 0
3, 1733632, Note_on_c, 1, 42, 110
3, 1734133, Note_off_c, 1, 42, 0
3, 1734144, Note_on_c, 1, 42, 110
3, 1734645, Note_off_c, 1, 42, 0
3, 1734656, Note_on_c, 1, 41, 110
3, 1735157, Note_off_c, 1, 41, 0
3, 1735168, Note_on_c, 1, 41, 110
3, 1735669, Note_off_c, 1, 41, 0
3, 1735680, Note_on_c, 1, 41, 110
3, 1736181, Note_off_c, 1, 41, 0
3, 1736192, Note_on_c, 1, 41, 110
3, 1736693, Note_off_c, 1, 41, 0
3, 1736704, Note_on_c, 1, 39, 110
3, 1737205, Note_off_c, 1, 39, 0
3, 1737216, Note_on_c, 1, 39, 110
3, 1737717, Note_off_c, 1, 39, 0
3, 1737728, Note_on_c, 1, 39, 110
3, 1738229, Note_off_c, 1, 39, 0
3, 1738240, Note_on_c, 1, 39, 110
3, 1738741, Note_off_c, 1, 39, 0
3, 1738752, Note_on_c, 1, 44, 110
3, 1739253, Note_off_c, 1, 44, 0
3, 1739264, Note_on_c, 1, 44, 110
3, 1739765, Note_off_c, 1, 44, 0
3, 1739776, Note_on_c, 1, 44, 110
3, 1740277, Note_off_c, 1, 44, 0
3, 1740288, Note_on_c, 1, 44, 110
3, 1740789, Note_off_c, 1, 44, 0
3, 1740800, Note_on_c, 1, 37, 110
3, 1744640, Note_off_c, 1, 37, 0
3, 1744896, Note_on_c, 1, 42, 110
3, 1748736, Note_off_c, 1, 42, 0
3, 1748992, Note_on_c, 1, 37, 110
3, 1752832, Note_off_c, 1, 37, 0
3, 1753088, Note_on_c, 1, 42, 110
3, 1756928, Note_off_c, 1, 42, 0
3, 1757184, Note_on_c, 1, 37, 110
3, 1761024, Note_off_c, 1, 37, 0
3, 1761280, Note_on_c, 1, 42, 110
3, 1765120, Note_off_c, 1, 42, 0
3, 1765760, Note_on_c, 1, 37, 110
3, 1766400, Note_off_c, 1, 37, 0
3, 1769472, Note_on_c, 1, 37, 110
3, 1770325, Note_off_c, 1, 37, 0
3, 1770326, End_track
0, 0, End_of_file